<svg width="180" height="180" viewBox="0 0 180 180" fill="none" xmlns="http://www.w3.org/2000/svg">
<rect width="180" height="180" rx="90" fill="#E4EBF5"/>
<path d="M75.4023 161H168V95.2139H149.09L132.589 80.5059L132.931 95.2139H75.4023V161Z" fill="black" stroke="black" stroke-miterlimit="10"/>
<path d="M21.3247 25H102.912C105.857 25 108.237 27.3798 108.237 30.3351V86.9531C108.237 89.8986 105.857 92.2784 102.912 92.2784H47.4705L48.553 104.86L33.7978 92.2784H21.3247C18.3795 92.2784 16 89.8986 16 86.9531V30.3351C16 27.3896 18.3893 25 21.3247 25Z" fill="#FFDE66" stroke="black" stroke-miterlimit="10"/>
<path d="M66.3507 35.7407C75.2545 35.7407 81.4764 40.7832 81.4764 49.6294C81.4764 58.4757 75.1277 62.7964 66.4189 62.7964L66.1556 67.8389H58.1003L57.7687 56.7006H60.7139C67.5307 56.7006 72.6311 55.4619 72.5726 49.5612C72.5726 45.7671 70.2126 43.4068 66.3507 43.4068C62.4888 43.4068 60.002 45.6989 60.002 49.5612H51.3615C51.2347 41.6317 56.7935 35.7407 66.3604 35.7407H66.3507ZM62.0987 83.493C58.7537 83.493 56.4034 81.1327 56.4034 78.1189C56.4034 75.1051 58.7634 72.7448 62.0987 72.7448C65.434 72.7448 67.6672 75.1051 67.6672 78.1189C67.6672 81.1327 65.3072 83.493 62.0987 83.493Z" fill="black" stroke="black" stroke-miterlimit="10"/>
<path d="M61.962 32.4346C70.8658 32.4346 77.0877 37.477 77.0877 46.3233C77.0877 55.1696 70.739 59.4903 62.0303 59.4903L61.767 64.5327H53.7116L53.38 53.3945H56.3252C63.142 53.3945 68.2424 52.1558 68.1839 46.255C68.1839 42.461 65.8239 40.1007 61.962 40.1007C58.1001 40.1007 55.6133 42.3927 55.6133 46.255H46.9728C46.846 38.3256 52.4048 32.4346 61.9718 32.4346H61.962ZM57.71 80.1868C54.365 80.1868 52.0147 77.8265 52.0147 74.8127C52.0147 71.799 54.3748 69.4387 57.71 69.4387C61.0453 69.4387 63.2786 71.799 63.2786 74.8127C63.2786 77.8265 60.9185 80.1868 57.71 80.1868Z" fill="#BACCFF" stroke="black" stroke-miterlimit="10"/>
<path d="M67.7363 152.734H160.334V86.948H141.424L124.923 72.24L125.265 86.948H67.7363V152.734Z" fill="white" stroke="black" stroke-miterlimit="10"/>
<path d="M98.435 128.341C94.8657 128.341 92.3594 125.825 92.3594 122.606C92.3594 119.387 94.8754 116.871 98.435 116.871C101.995 116.871 104.374 119.387 104.374 122.606C104.374 125.825 101.858 128.341 98.435 128.341ZM113.736 128.341C110.167 128.341 107.661 125.825 107.661 122.606C107.661 119.387 110.177 116.871 113.736 116.871C117.296 116.871 119.675 119.387 119.675 122.606C119.675 125.825 117.159 128.341 113.736 128.341ZM129.116 128.341C125.546 128.341 123.04 125.825 123.04 122.606C123.04 119.387 125.556 116.871 129.116 116.871C132.675 116.871 135.055 119.387 135.055 122.606C135.055 125.825 132.539 128.341 129.116 128.341Z" fill="black" stroke="black" stroke-miterlimit="10"/>
<path d="M94.5932 123.747C91.0239 123.747 88.5176 121.231 88.5176 118.012C88.5176 114.794 91.0337 112.277 94.5932 112.277C98.1528 112.277 100.532 114.794 100.532 118.012C100.532 121.231 98.0163 123.747 94.5932 123.747ZM109.894 123.747C106.325 123.747 103.819 121.231 103.819 118.012C103.819 114.794 106.335 112.277 109.894 112.277C113.454 112.277 115.834 114.794 115.834 118.012C115.834 121.231 113.318 123.747 109.894 123.747ZM125.274 123.747C121.704 123.747 119.198 121.231 119.198 118.012C119.198 114.794 121.714 112.277 125.274 112.277C128.833 112.277 131.213 114.794 131.213 118.012C131.213 121.231 128.697 123.747 125.274 123.747Z" fill="#FFDE66" stroke="black" stroke-miterlimit="10"/>
</svg>
