<svg width="180" height="180" viewBox="0 0 180 180" fill="none" xmlns="http://www.w3.org/2000/svg">
<rect width="180" height="180" rx="90" fill="#E4EBF5"/>
<g clip-path="url(#clip0_8978_28272)">
<path d="M55.5797 93.5421C73.7487 93.5421 88.4777 78.8002 88.4777 60.6151C88.4777 42.4301 73.7487 27.6882 55.5797 27.6882C37.4106 27.6882 22.6816 42.4301 22.6816 60.6151C22.6816 78.8002 37.4106 93.5421 55.5797 93.5421Z" fill="black" stroke="black" stroke-miterlimit="10"/>
<path d="M130.587 166.485C148.757 166.485 163.486 151.744 163.486 133.559C163.486 115.373 148.757 100.632 130.587 100.632C112.418 100.632 97.6895 115.373 97.6895 133.559C97.6895 151.744 112.418 166.485 130.587 166.485Z" fill="black" stroke="black" stroke-miterlimit="10"/>
<path d="M49.4117 87.3682C67.5808 87.3682 82.3097 72.6264 82.3097 54.4413C82.3097 36.2563 67.5808 21.5144 49.4117 21.5144C31.2426 21.5144 16.5137 36.2563 16.5137 54.4413C16.5137 72.6264 31.2426 87.3682 49.4117 87.3682Z" fill="white" stroke="black" stroke-miterlimit="10"/>
<path d="M31.6465 72.1601V71.6456C31.6465 66.0172 34.3709 60.6666 38.9252 57.3224L39.2644 57.0652L39.5729 57.3533C42.2561 59.8743 45.7515 61.2634 49.4011 61.2634C53.0508 61.2634 56.5462 59.8743 59.2294 57.3533L59.5378 57.0652L59.8771 57.3224C64.4314 60.6666 67.1558 66.0275 67.1558 71.6456V72.1601H31.6465Z" fill="#BACCFF"/>
<path d="M39.234 57.7341C41.8966 60.2448 45.4743 61.7883 49.4118 61.7883C53.3493 61.7883 56.9269 60.2448 59.5896 57.7341C63.8663 60.8725 66.6524 65.9247 66.6524 71.6458H32.1609C32.1609 65.9247 34.9469 60.8725 39.2237 57.7341M39.3059 56.3965L38.6171 56.9007C33.9291 60.3477 31.1328 65.8527 31.1328 71.6458V72.6747H67.6805V71.6458C67.6805 65.8527 64.8841 60.3477 60.1962 56.9007L59.5074 56.3965L58.8802 56.983C56.2895 59.4216 52.9278 60.7593 49.4015 60.7593C45.8752 60.7593 42.5135 59.4216 39.9228 56.983L39.2956 56.3965H39.3059Z" fill="black"/>
<path d="M49.4126 57.0241C43.8199 57.0241 39.2656 52.4761 39.2656 46.8785C39.2656 41.2809 43.8199 36.7329 49.4126 36.7329C55.0053 36.7329 59.5493 41.2809 59.5493 46.8785C59.5493 52.4761 55.0053 57.0241 49.4126 57.0241Z" fill="#BACCFF"/>
<path d="M49.4125 37.237C54.7275 37.237 59.0351 41.5483 59.0351 46.8681C59.0351 52.1879 54.7275 56.4992 49.4125 56.4992C44.0974 56.4992 39.7898 52.1879 39.7898 46.8681C39.7898 41.5483 44.0974 37.237 49.4125 37.237ZM49.4125 36.208C43.5422 36.208 38.7617 40.9927 38.7617 46.8681C38.7617 52.7435 43.5422 57.5282 49.4125 57.5282C55.2827 57.5282 60.0632 52.7435 60.0632 46.8681C60.0632 40.9927 55.2827 36.208 49.4125 36.208Z" fill="black"/>
<path d="M124.42 160.312C142.589 160.312 157.318 145.57 157.318 127.385C157.318 109.2 142.589 94.458 124.42 94.458C106.25 94.458 91.5215 109.2 91.5215 127.385C91.5215 145.57 106.25 160.312 124.42 160.312Z" fill="white" stroke="black" stroke-miterlimit="10"/>
<path d="M106.655 144.589C106.655 138.961 109.379 133.61 113.934 130.256L114.273 129.998L114.581 130.297C117.264 132.818 120.76 134.207 124.409 134.207C128.059 134.207 131.555 132.818 134.238 130.297L134.546 129.998L134.885 130.256C139.44 133.6 142.164 138.961 142.164 144.579V145.093H106.645V144.579L106.655 144.589Z" fill="#FFDE66"/>
<path d="M134.596 130.677C138.873 133.816 141.659 138.868 141.659 144.589H107.168C107.168 138.868 109.954 133.816 114.231 130.677C116.893 133.188 120.471 134.732 124.408 134.732C128.346 134.732 131.924 133.188 134.586 130.677M134.504 129.34L133.877 129.926C131.286 132.365 127.924 133.703 124.398 133.703C120.872 133.703 117.51 132.365 114.919 129.926L114.292 129.34L113.603 129.844C108.915 133.291 106.119 138.796 106.119 144.589V145.618H142.667V144.589C142.667 138.796 139.87 133.291 135.182 129.844L134.494 129.34H134.504Z" fill="black"/>
<path d="M124.42 129.957C130.018 129.957 134.557 125.415 134.557 119.812C134.557 114.208 130.018 109.666 124.42 109.666C118.822 109.666 114.283 114.208 114.283 119.812C114.283 125.415 118.822 129.957 124.42 129.957Z" fill="#FFDE66"/>
<path d="M124.42 110.181C129.735 110.181 134.043 114.492 134.043 119.812C134.043 125.131 129.735 129.443 124.42 129.443C119.105 129.443 114.798 125.131 114.798 119.812C114.798 114.492 119.105 110.181 124.42 110.181ZM124.42 109.152C118.55 109.152 113.77 113.936 113.77 119.812C113.77 125.687 118.55 130.472 124.42 130.472C130.291 130.472 135.071 125.687 135.071 119.812C135.071 113.936 130.291 109.152 124.42 109.152Z" fill="black"/>
<path d="M139.183 90.2287C138.627 90.2287 138.175 89.7863 138.154 89.2306C138.144 88.8911 138.134 88.5618 138.113 88.2222C138.082 87.6563 138.514 87.1727 139.09 87.1418C139.655 87.0904 140.139 87.5431 140.169 88.1193C140.19 88.4692 140.2 88.819 140.211 89.1689C140.231 89.7348 139.779 90.2081 139.213 90.2287C139.203 90.2287 139.193 90.2287 139.183 90.2287ZM138.627 84.0858C138.124 84.0858 137.692 83.7154 137.61 83.2112C137.558 82.8819 137.507 82.5423 137.445 82.2131C137.353 81.6574 137.723 81.1224 138.288 81.0298C138.843 80.9372 139.378 81.3076 139.47 81.8735C139.532 82.2131 139.583 82.5629 139.635 82.9025C139.717 83.4684 139.337 83.9932 138.771 84.0755C138.72 84.0755 138.668 84.0858 138.617 84.0858H138.627ZM137.353 78.0561C136.9 78.0561 136.489 77.7576 136.366 77.2946C136.273 76.9756 136.181 76.6464 136.088 76.3274C135.924 75.782 136.242 75.2058 136.777 75.0515C137.322 74.8868 137.897 75.2058 138.052 75.7409C138.154 76.0804 138.247 76.4097 138.34 76.7493C138.494 77.2946 138.165 77.8605 137.62 78.0149C137.527 78.0355 137.435 78.0561 137.353 78.0561ZM135.368 72.2115C134.967 72.2115 134.577 71.9749 134.412 71.5736C134.289 71.2649 134.155 70.9562 134.022 70.6475C133.795 70.1227 134.042 69.5156 134.556 69.2995C135.081 69.0732 135.677 69.3201 135.903 69.8346C136.037 70.1536 136.17 70.4726 136.304 70.7915C136.52 71.3163 136.263 71.9131 135.739 72.1292C135.615 72.1807 135.481 72.2012 135.348 72.2012L135.368 72.2115ZM132.716 66.6551C132.356 66.6551 132.007 66.4596 131.811 66.12C131.647 65.8216 131.482 65.5335 131.318 65.2454C131.03 64.7515 131.205 64.1238 131.688 63.8357C132.181 63.5476 132.809 63.7226 133.096 64.2062C133.271 64.5046 133.446 64.8133 133.61 65.1219C133.888 65.6159 133.703 66.2435 133.209 66.5213C133.055 66.6037 132.88 66.6448 132.716 66.6448V66.6551ZM129.416 61.4382C129.097 61.4382 128.779 61.2942 128.583 61.0061C128.388 60.7386 128.193 60.4607 127.987 60.1932C127.648 59.7405 127.74 59.0922 128.193 58.7526C128.645 58.4131 129.293 58.5057 129.632 58.9584C129.837 59.2363 130.043 59.5244 130.249 59.8022C130.578 60.2652 130.475 60.9032 130.012 61.2427C129.827 61.3765 129.622 61.4382 129.416 61.4382ZM125.53 56.6536C125.252 56.6536 124.975 56.5404 124.769 56.314C124.543 56.067 124.317 55.8201 124.08 55.5731C123.69 55.1616 123.7 54.5133 124.121 54.1223C124.533 53.7313 125.18 53.7519 125.571 54.1635C125.807 54.4207 126.054 54.6779 126.291 54.9352C126.671 55.3571 126.64 56.0053 126.229 56.386C126.034 56.5712 125.787 56.6536 125.54 56.6536H125.53ZM121.109 52.3525C120.873 52.3525 120.626 52.2702 120.431 52.0952C120.174 51.8792 119.927 51.6631 119.66 51.447C119.218 51.0868 119.166 50.4386 119.526 49.9961C119.886 49.5537 120.533 49.492 120.976 49.8624C121.243 50.0887 121.51 50.3151 121.777 50.5415C122.209 50.9119 122.25 51.5602 121.88 51.9923C121.675 52.229 121.387 52.3422 121.109 52.3422V52.3525ZM116.216 48.5967C116.02 48.5967 115.815 48.535 115.64 48.4218C115.362 48.2366 115.085 48.0514 114.797 47.8662C114.324 47.5575 114.18 46.9195 114.499 46.4462C114.807 45.9729 115.445 45.8288 115.917 46.1478C116.216 46.3433 116.503 46.5285 116.791 46.7343C117.264 47.0533 117.388 47.6913 117.059 48.1646C116.863 48.4527 116.534 48.6173 116.205 48.6173L116.216 48.5967ZM110.921 45.4378C110.757 45.4378 110.602 45.3967 110.448 45.3246C110.15 45.1703 109.852 45.0159 109.543 44.8719C109.029 44.6249 108.824 44.0076 109.071 43.4931C109.328 42.9786 109.944 42.7728 110.448 43.0198C110.767 43.1741 111.075 43.3284 111.384 43.4931C111.887 43.7503 112.083 44.378 111.826 44.8822C111.641 45.232 111.281 45.4378 110.911 45.4378H110.921ZM105.287 42.9271C105.164 42.9271 105.051 42.9066 104.927 42.8654C104.609 42.7419 104.29 42.6287 103.971 42.5156C103.437 42.3303 103.159 41.7335 103.344 41.1985C103.529 40.6634 104.115 40.3856 104.66 40.5708C104.989 40.684 105.318 40.8075 105.647 40.931C106.182 41.1265 106.449 41.7233 106.254 42.2583C106.099 42.6699 105.709 42.9271 105.287 42.9271ZM99.3965 41.1059C99.3142 41.1059 99.232 41.1059 99.1497 41.075C98.8208 40.9927 98.4918 40.9207 98.1628 40.8486C97.6076 40.7252 97.2581 40.1695 97.3815 39.6139C97.5048 39.0582 98.06 38.7084 98.6151 38.8319C98.9544 38.9039 99.2937 38.9862 99.6329 39.0685C100.188 39.2023 100.527 39.7579 100.383 40.3136C100.27 40.7869 99.8488 41.0956 99.3862 41.0956L99.3965 41.1059ZM93.3309 39.9946C93.3309 39.9946 93.2487 39.9946 93.2075 39.9946C92.8786 39.9534 92.5393 39.9123 92.2103 39.8814C91.6449 39.8197 91.2336 39.3155 91.2953 38.7495C91.357 38.1836 91.8608 37.7926 92.4262 37.8338C92.7757 37.8749 93.1253 37.9058 93.4645 37.9572C94.03 38.0293 94.4309 38.5438 94.359 39.1097C94.2973 39.6345 93.8552 40.0152 93.3412 40.0152L93.3309 39.9946ZM86.155 39.6036C85.5999 39.6036 85.1372 39.1508 85.127 38.5952C85.127 38.0293 85.569 37.5559 86.1345 37.5457C86.3915 37.5457 86.6588 37.5457 86.9158 37.5457H87.1831C87.7485 37.5457 88.2111 38.019 88.2009 38.5849C88.2009 39.1508 87.6971 39.6036 87.1625 39.6036H86.9158C86.6691 39.6036 86.412 39.6036 86.1653 39.6036H86.1447H86.155Z" fill="black"/>
<path d="M86.9063 144.28H86.639C86.0736 144.28 85.6109 143.807 85.6212 143.241C85.6212 142.675 86.0838 142.223 86.6493 142.223H86.9063C87.153 142.223 87.41 142.223 87.6568 142.223H87.6773C88.2325 142.223 88.6951 142.675 88.7054 143.231C88.7054 143.797 88.2633 144.27 87.6979 144.28C87.4409 144.28 87.1736 144.28 86.9166 144.28H86.9063ZM81.5192 144.003C81.5192 144.003 81.4473 144.003 81.4164 144.003C81.0669 143.961 80.7173 143.931 80.3781 143.879C79.8127 143.807 79.4117 143.293 79.4837 142.727C79.5556 142.161 80.0594 141.76 80.6351 141.832C80.9641 141.873 81.3033 141.914 81.6323 141.945C82.1978 142.006 82.609 142.511 82.5473 143.077C82.4959 143.601 82.0436 144.003 81.5295 144.003H81.5192ZM75.4331 143.015C75.3611 143.015 75.2789 143.015 75.2069 142.994C74.8677 142.922 74.5284 142.84 74.1891 142.758C73.634 142.624 73.2947 142.068 73.4387 141.513C73.5723 140.957 74.1377 140.617 74.6826 140.761C75.0116 140.844 75.3406 140.916 75.6696 140.988C76.2247 141.111 76.5743 141.667 76.4509 142.223C76.3481 142.696 75.9163 143.025 75.4537 143.025L75.4331 143.015ZM69.5115 141.307C69.3984 141.307 69.2853 141.286 69.1722 141.245C68.8432 141.132 68.5142 141.008 68.1853 140.885C67.6507 140.689 67.3834 140.093 67.5787 139.558C67.774 139.022 68.3703 138.755 68.9049 138.95C69.2236 139.074 69.5423 139.187 69.861 139.3C70.3956 139.485 70.6732 140.082 70.4881 140.617C70.3339 141.039 69.9432 141.307 69.5217 141.307H69.5115ZM63.8263 138.909C63.6721 138.909 63.5179 138.878 63.3739 138.806C63.0552 138.652 62.7468 138.498 62.4384 138.333C61.9346 138.076 61.7393 137.448 61.9963 136.944C62.2636 136.44 62.8805 136.244 63.3842 136.501C63.6823 136.656 63.9805 136.81 64.2889 136.954C64.8029 137.201 65.0085 137.819 64.7618 138.333C64.587 138.693 64.2169 138.909 63.8365 138.909H63.8263ZM58.4701 135.864C58.2747 135.864 58.0794 135.812 57.9149 135.699C57.6168 135.503 57.3289 135.318 57.041 135.112C56.5681 134.793 56.4448 134.155 56.7738 133.682C57.0925 133.209 57.7299 133.085 58.2028 133.415C58.4803 133.6 58.7579 133.785 59.0458 133.97C59.5187 134.279 59.6626 134.917 59.3439 135.39C59.1486 135.689 58.8196 135.864 58.4803 135.864H58.4701ZM53.5045 132.2C53.2783 132.2 53.0419 132.118 52.8466 131.964C52.5793 131.737 52.312 131.511 52.0447 131.285C51.6129 130.914 51.5718 130.266 51.9419 129.834C52.312 129.402 52.9596 129.36 53.3914 129.731C53.6484 129.947 53.8952 130.163 54.1625 130.379C54.6045 130.739 54.6559 131.388 54.2961 131.83C54.0905 132.077 53.8027 132.2 53.5045 132.2ZM49.0016 127.982C48.7343 127.982 48.4567 127.879 48.2614 127.663C48.0249 127.405 47.7782 127.148 47.5417 126.891C47.1614 126.469 47.1922 125.821 47.6034 125.44C48.0249 125.059 48.6726 125.09 49.053 125.502C49.2792 125.749 49.5053 125.996 49.7418 126.243C50.1325 126.654 50.1222 127.303 49.7007 127.694C49.5053 127.879 49.2483 127.982 48.9913 127.982H49.0016ZM45.023 123.269C44.7146 123.269 44.3959 123.125 44.2005 122.857C43.9949 122.58 43.7893 122.291 43.5837 122.014C43.2547 121.551 43.3575 120.913 43.8202 120.573C44.2828 120.244 44.9202 120.347 45.2594 120.81C45.4548 121.077 45.6501 121.355 45.8557 121.623C46.195 122.075 46.1025 122.724 45.6501 123.063C45.4651 123.197 45.2492 123.269 45.0333 123.269H45.023ZM41.6304 118.124C41.2706 118.124 40.9313 117.939 40.736 117.61C40.5612 117.311 40.3864 117.003 40.2219 116.694C39.9444 116.2 40.1294 115.572 40.6229 115.295C41.1266 115.027 41.7435 115.202 42.021 115.696C42.1855 115.994 42.35 116.282 42.5145 116.57C42.8024 117.064 42.6276 117.692 42.1444 117.98C41.9799 118.073 41.8052 118.114 41.6304 118.114V118.124ZM38.8649 112.619C38.4639 112.619 38.0836 112.383 37.9191 111.992C37.7854 111.673 37.6518 111.354 37.5181 111.035C37.3022 110.51 37.5593 109.913 38.0836 109.697C38.6079 109.481 39.2042 109.738 39.42 110.263C39.5434 110.572 39.6771 110.88 39.8107 111.189C40.0369 111.714 39.7901 112.321 39.2761 112.537C39.1425 112.588 39.0088 112.619 38.8752 112.619H38.8649ZM36.7676 106.826C36.3256 106.826 35.9143 106.538 35.7807 106.085C35.6779 105.746 35.5854 105.416 35.4928 105.077C35.3386 104.532 35.6676 103.966 36.2125 103.811C36.7574 103.657 37.3228 103.986 37.477 104.532C37.5695 104.85 37.6621 105.18 37.7546 105.499C37.9191 106.044 37.6004 106.62 37.0658 106.775C36.9733 106.806 36.8704 106.816 36.7779 106.816L36.7676 106.826ZM35.3695 100.817C34.876 100.817 34.4442 100.467 34.3517 99.9629C34.29 99.6233 34.2386 99.2735 34.1872 98.9339C34.105 98.368 34.4853 97.8432 35.0508 97.7609C35.6162 97.6889 36.1405 98.0593 36.2228 98.6253C36.2742 98.9545 36.3256 99.2941 36.3873 99.6234C36.4798 100.179 36.1097 100.714 35.5442 100.807C35.4826 100.807 35.4312 100.817 35.3695 100.817ZM34.691 94.6843C34.1461 94.6843 33.6937 94.2624 33.6629 93.7068C33.6423 93.3569 33.632 93.0071 33.6218 92.6572C33.6012 92.0913 34.0536 91.618 34.619 91.5974C34.6293 91.5974 34.6396 91.5974 34.6498 91.5974C35.205 91.5974 35.6573 92.0399 35.6779 92.5955C35.6882 92.9351 35.6985 93.2643 35.719 93.6039C35.7499 94.1698 35.3181 94.6534 34.7424 94.6843C34.7218 94.6843 34.7012 94.6843 34.691 94.6843Z" fill="black"/>
<path d="M118.477 85.5367H100.065V67.1079H80.6241V85.5367H62.2012V105.005H80.6241V123.434H100.065V105.005H118.477V85.5367Z" fill="black"/>
<path d="M113.141 78.3341H94.7185V59.9053H75.2778V78.3341H56.8652V97.7918H75.2778V116.221H94.7185V97.7918H113.141V78.3341Z" fill="#FFDE66" stroke="black" stroke-miterlimit="10"/>
</g>
<defs>
<clipPath id="clip0_8978_28272">
<rect width="148" height="146" fill="white" transform="translate(16 21)"/>
</clipPath>
</defs>
</svg>
