<svg width="580" height="375" viewBox="0 0 580 375" fill="none" xmlns="http://www.w3.org/2000/svg">
<g clip-path="url(#clip0_9215_21481)">
<path d="M509.202 21.0497H73.4227C59.5213 21.0497 48.252 32.3079 48.252 46.1956V328.816C48.252 342.703 59.5213 353.961 73.4227 353.961H509.202C523.103 353.961 534.373 342.703 534.373 328.816V46.1956C534.373 32.3079 523.103 21.0497 509.202 21.0497Z" fill="#BACCFF"/>
<path d="M155.75 0.558075L155.75 374.442H427.489V0.558075H155.75Z" fill="#E4EBF5" stroke="black" stroke-miterlimit="10"/>
<path d="M409.613 18.4157H173.625V356.584H409.613V18.4157Z" fill="white" stroke="black" stroke-miterlimit="10"/>
<path d="M173.625 356.584L155.75 374.442" stroke="black" stroke-miterlimit="10"/>
<path d="M409.625 356.584L427.5 374.442" stroke="black" stroke-miterlimit="10"/>
<path d="M409.625 18.4157L427.5 0.55806" stroke="black" stroke-miterlimit="10"/>
<path d="M173.625 18.4157L155.75 0.55806" stroke="black" stroke-miterlimit="10"/>
<path d="M361.72 324.552H221.521V334.686H361.72V324.552Z" fill="#E4EBF5"/>
<path d="M361.72 305.712H221.521V315.846H361.72V305.712Z" fill="#E4EBF5"/>
<path d="M361.72 286.884H221.521V297.018H361.72V286.884Z" fill="#E4EBF5"/>
<path d="M361.72 268.044H221.521V278.178H361.72V268.044Z" fill="#E4EBF5"/>
<path d="M271.594 185.619C271.449 185.619 271.337 185.586 271.27 185.53C271.203 185.474 271.17 185.374 271.17 185.251C271.17 185.072 271.438 184.738 271.963 184.247L272.086 184.135C272.164 184.057 272.287 183.945 272.432 183.811C273.382 182.918 273.862 182.26 273.862 181.847C273.862 181.557 273.773 181.311 273.605 181.133C273.438 180.954 273.214 180.854 272.946 180.854C272.768 180.854 272.611 180.887 272.444 180.965C272.287 181.032 272.153 181.133 272.064 181.255C272.053 181.278 272.019 181.311 271.985 181.367C271.885 181.557 271.773 181.646 271.639 181.646C271.539 181.646 271.472 181.613 271.427 181.557C271.382 181.49 271.36 181.378 271.36 181.211C271.36 181.11 271.371 181.043 271.393 180.999C271.416 180.954 271.449 180.909 271.505 180.854C271.684 180.686 271.896 180.552 272.164 180.452C272.421 180.351 272.689 180.296 272.969 180.296C273.427 180.296 273.807 180.441 274.108 180.731C274.41 181.021 274.566 181.389 274.566 181.813C274.566 182.349 274.097 183.075 273.159 183.968C272.924 184.191 272.734 184.369 272.611 184.492L272.108 184.983H273.996C274.008 184.86 274.041 184.771 274.097 184.704C274.153 184.637 274.22 184.615 274.309 184.615C274.399 184.615 274.477 184.648 274.522 184.704C274.577 184.771 274.6 184.849 274.6 184.95C274.6 184.95 274.6 184.972 274.6 184.994C274.6 185.017 274.6 185.028 274.6 185.039L274.566 185.352C274.566 185.441 274.533 185.508 274.488 185.552C274.443 185.597 274.387 185.631 274.32 185.631H271.583L271.594 185.619Z" fill="black"/>
<path d="M278.957 185.753C278.443 185.753 278.029 185.508 277.728 185.017C277.426 184.526 277.27 183.856 277.27 183.008C277.27 182.159 277.426 181.49 277.728 180.999C278.029 180.508 278.443 180.262 278.957 180.262C279.47 180.262 279.884 180.508 280.185 180.999C280.487 181.49 280.644 182.159 280.644 182.997C280.644 183.834 280.487 184.503 280.185 184.994C279.884 185.485 279.47 185.731 278.957 185.731V185.753ZM278.957 180.865C278.644 180.865 278.387 181.054 278.219 181.423C278.04 181.802 277.951 182.327 277.951 183.008C277.951 183.689 278.04 184.224 278.219 184.604C278.398 184.983 278.644 185.173 278.957 185.173C279.269 185.173 279.526 184.983 279.694 184.604C279.873 184.224 279.962 183.7 279.962 183.008C279.962 182.316 279.873 181.791 279.694 181.423C279.515 181.043 279.269 180.865 278.957 180.865Z" fill="black"/>
<path d="M283.436 185.619C283.291 185.619 283.179 185.586 283.112 185.53C283.045 185.474 283.012 185.374 283.012 185.251C283.012 185.072 283.28 184.738 283.805 184.247L283.928 184.135C284.006 184.057 284.129 183.945 284.274 183.811C285.224 182.918 285.704 182.26 285.704 181.847C285.704 181.557 285.615 181.311 285.447 181.133C285.28 180.954 285.056 180.854 284.788 180.854C284.609 180.854 284.453 180.887 284.285 180.965C284.129 181.032 283.995 181.133 283.905 181.255C283.894 181.278 283.861 181.311 283.827 181.367C283.727 181.557 283.615 181.646 283.481 181.646C283.38 181.646 283.313 181.613 283.269 181.557C283.224 181.49 283.202 181.378 283.202 181.211C283.202 181.11 283.213 181.043 283.235 180.999C283.258 180.954 283.291 180.909 283.347 180.854C283.526 180.686 283.738 180.552 284.006 180.452C284.263 180.351 284.531 180.296 284.81 180.296C285.268 180.296 285.648 180.441 285.95 180.731C286.252 181.021 286.408 181.389 286.408 181.813C286.408 182.349 285.939 183.075 285 183.968C284.766 184.191 284.576 184.369 284.453 184.492L283.95 184.983H285.838C285.849 184.86 285.883 184.771 285.939 184.704C285.995 184.637 286.062 184.615 286.151 184.615C286.24 184.615 286.319 184.648 286.363 184.704C286.419 184.771 286.442 184.849 286.442 184.95C286.442 184.95 286.442 184.972 286.442 184.994C286.442 185.017 286.442 185.028 286.442 185.039L286.408 185.352C286.408 185.441 286.375 185.508 286.33 185.552C286.285 185.597 286.229 185.631 286.162 185.631H283.425L283.436 185.619Z" fill="black"/>
<path d="M291.447 182.784C291.771 182.874 292.017 183.03 292.196 183.264C292.375 183.499 292.464 183.778 292.464 184.124C292.464 184.604 292.296 185.006 291.95 185.307C291.604 185.608 291.168 185.764 290.621 185.764C290.207 185.764 289.827 185.686 289.503 185.53C289.179 185.363 289.012 185.195 289.012 185.006C289.012 184.927 289.045 184.849 289.101 184.805C289.157 184.749 289.235 184.726 289.313 184.726C289.358 184.726 289.526 184.793 289.827 184.939C290.118 185.072 290.397 185.151 290.643 185.151C290.967 185.151 291.235 185.061 291.447 184.872C291.66 184.682 291.76 184.447 291.76 184.146C291.76 183.901 291.693 183.689 291.548 183.521C291.403 183.354 291.213 183.242 290.967 183.197C290.889 183.186 290.788 183.175 290.676 183.164C290.442 183.153 290.33 183.052 290.33 182.874C290.33 182.706 290.442 182.617 290.665 182.584C290.755 182.584 290.833 182.561 290.889 182.55C291.101 182.517 291.28 182.427 291.414 182.282C291.548 182.137 291.615 181.97 291.615 181.758C291.615 181.49 291.537 181.278 291.369 181.121C291.201 180.965 291 180.876 290.755 180.876C290.52 180.876 290.285 180.954 290.04 181.088C289.794 181.222 289.649 181.3 289.582 181.3C289.503 181.3 289.436 181.278 289.392 181.222C289.347 181.166 289.313 181.11 289.313 181.032C289.313 180.865 289.47 180.697 289.783 180.53C290.095 180.363 290.431 180.273 290.81 180.273C291.235 180.273 291.592 180.407 291.883 180.664C292.173 180.921 292.308 181.244 292.308 181.624C292.308 181.914 292.24 182.148 292.106 182.338C291.972 182.528 291.76 182.673 291.47 182.773L291.447 182.784Z" fill="black"/>
<path d="M295.793 185.731C295.725 185.865 295.681 185.965 295.625 186.01C295.569 186.055 295.513 186.088 295.435 186.088C295.357 186.088 295.29 186.066 295.234 185.999C295.178 185.932 295.145 185.876 295.145 185.798C295.145 185.776 295.145 185.753 295.156 185.72C295.156 185.686 295.178 185.653 295.189 185.631L297.77 180.084C297.837 179.938 297.893 179.849 297.949 179.793C298.005 179.738 298.06 179.715 298.139 179.715C298.217 179.715 298.295 179.738 298.351 179.793C298.407 179.849 298.44 179.916 298.44 179.994C298.44 180.017 298.44 180.039 298.429 180.072C298.429 180.095 298.418 180.128 298.396 180.15L295.793 185.742V185.731Z" fill="black"/>
<path d="M301.212 185.619C301.066 185.619 300.955 185.586 300.888 185.53C300.821 185.474 300.787 185.374 300.787 185.251C300.787 185.072 301.055 184.738 301.58 184.247L301.703 184.135C301.781 184.057 301.904 183.945 302.05 183.811C302.999 182.918 303.48 182.26 303.48 181.847C303.48 181.557 303.39 181.311 303.223 181.133C303.055 180.954 302.832 180.854 302.563 180.854C302.385 180.854 302.228 180.887 302.061 180.965C301.904 181.032 301.77 181.133 301.681 181.255C301.67 181.278 301.636 181.311 301.603 181.367C301.502 181.557 301.39 181.646 301.256 181.646C301.156 181.646 301.089 181.613 301.044 181.557C300.999 181.49 300.977 181.378 300.977 181.211C300.977 181.11 300.988 181.043 301.011 180.999C301.033 180.954 301.066 180.909 301.122 180.854C301.301 180.686 301.513 180.552 301.781 180.452C302.038 180.351 302.306 180.296 302.586 180.296C303.044 180.296 303.424 180.441 303.725 180.731C304.027 181.021 304.183 181.389 304.183 181.813C304.183 182.349 303.714 183.075 302.776 183.968C302.541 184.191 302.351 184.369 302.228 184.492L301.726 184.983H303.614C303.625 184.86 303.658 184.771 303.714 184.704C303.77 184.637 303.837 184.615 303.926 184.615C304.016 184.615 304.094 184.648 304.139 184.704C304.195 184.771 304.217 184.849 304.217 184.95C304.217 184.95 304.217 184.972 304.217 184.994C304.217 185.017 304.217 185.028 304.217 185.039L304.183 185.352C304.183 185.441 304.15 185.508 304.105 185.552C304.061 185.597 304.005 185.631 303.938 185.631H301.2L301.212 185.619Z" fill="black"/>
<path d="M308.474 185.619C308.339 185.619 308.25 185.597 308.205 185.552C308.161 185.508 308.138 185.43 308.138 185.318C308.138 185.218 308.161 185.151 308.217 185.106C308.261 185.061 308.339 185.039 308.451 185.039H308.932V184.347H306.999C306.932 184.347 306.876 184.325 306.831 184.28C306.798 184.235 306.775 184.168 306.775 184.09V183.8C306.775 183.689 306.809 183.577 306.898 183.454C306.909 183.432 306.921 183.421 306.932 183.398L308.675 180.441C308.708 180.374 308.742 180.329 308.775 180.307C308.798 180.284 308.831 180.273 308.876 180.273C308.887 180.273 308.92 180.273 308.965 180.273C308.976 180.273 308.987 180.273 308.999 180.273L309.423 180.34C309.423 180.34 309.49 180.363 309.513 180.407C309.535 180.452 309.546 180.496 309.546 180.552V183.689H309.758C309.825 183.689 309.87 183.666 309.892 183.61C309.926 183.566 309.959 183.532 310.004 183.532C310.06 183.532 310.105 183.555 310.138 183.599C310.172 183.644 310.194 183.689 310.194 183.755C310.194 183.778 310.194 183.8 310.194 183.822C310.194 183.845 310.194 183.867 310.183 183.889L310.149 184.057C310.127 184.157 310.105 184.224 310.06 184.258C310.015 184.291 309.959 184.314 309.881 184.314H309.535V185.006H309.68C309.859 185.006 309.982 185.028 310.049 185.072C310.116 185.117 310.149 185.184 310.149 185.296C310.149 185.407 310.127 185.474 310.071 185.519C310.015 185.564 309.937 185.597 309.825 185.597H308.496L308.474 185.619ZM308.92 183.722V180.921L307.356 183.722H308.92Z" fill="black"/>
<path d="M272.119 110.751C270.923 110.338 269.583 109.68 269.583 108.173C269.583 107.023 270.599 105.874 272.242 105.874C273.884 105.874 274.889 107.157 274.889 107.157L273.929 108.106C273.929 108.106 273.258 107.191 272.242 107.191C271.549 107.191 271.002 107.615 271.002 108.162C271.002 108.865 271.638 109.088 272.756 109.501C273.996 109.97 275.035 110.517 275.035 111.99C275.035 113.463 273.739 114.256 272.208 114.256C270.175 114.256 269.236 112.593 269.236 112.593L270.275 111.711C270.275 111.711 270.968 112.927 272.197 112.927C272.89 112.927 273.616 112.648 273.616 111.99C273.616 111.331 273.091 111.064 272.13 110.729L272.119 110.751Z" fill="black"/>
<path d="M280.23 112.302L281.146 113.229C281.146 113.229 280.353 114.267 278.867 114.267C277.225 114.267 275.906 112.994 275.906 111.376C275.906 109.758 277.213 108.485 278.867 108.485C280.342 108.485 281.112 109.501 281.112 109.501L280.152 110.36C280.152 110.36 279.694 109.78 278.867 109.78C277.928 109.78 277.325 110.506 277.325 111.365C277.325 112.224 277.928 112.95 278.867 112.95C279.805 112.95 280.23 112.28 280.23 112.28V112.302Z" fill="black"/>
<path d="M287.178 110.572V114.133H285.782V110.918C285.782 110.126 285.29 109.791 284.687 109.791C283.972 109.791 283.592 110.506 283.592 110.506V114.122H282.195V105.36H283.592V109.289C283.592 109.289 284.083 108.485 285.145 108.485C286.206 108.485 287.167 109.244 287.167 110.561L287.178 110.572Z" fill="black"/>
<path d="M288.576 112.191V108.63H289.973V111.811C289.973 112.626 290.353 112.972 291.068 112.972C291.783 112.972 292.162 112.302 292.162 112.302V108.642H293.559V114.133H292.263V113.329C292.263 113.329 291.738 114.267 290.621 114.267C289.559 114.267 288.599 113.508 288.599 112.191H288.576Z" fill="black"/>
<path d="M295.09 105.371H296.486V114.133H295.09V105.371Z" fill="black"/>
<path d="M301.858 107.47C301.858 106.8 301.423 106.488 300.953 106.488C300.484 106.488 300.004 106.8 300.004 107.47V108.642H301.132V109.869H300.004V114.133H298.607V109.869H297.523V108.642H298.607V107.358C298.607 105.996 299.646 105.238 300.953 105.238C302.26 105.238 303.255 106.008 303.255 107.358V114.144H301.858V107.481V107.47Z" fill="black"/>
<path d="M305.725 105.952C306.239 105.952 306.641 106.354 306.641 106.867C306.641 107.38 306.239 107.782 305.725 107.782C305.211 107.782 304.809 107.38 304.809 106.867C304.809 106.354 305.211 105.952 305.725 105.952ZM305.032 108.642H306.429V114.133H305.032V108.642Z" fill="black"/>
<path d="M307.669 108.642H309.3L310.428 110.338L311.534 108.642H313.121L311.21 111.298L313.244 114.133H311.579L310.339 112.258L309.099 114.133H307.523L309.568 111.298L307.68 108.642H307.669Z" fill="black"/>
<path d="M240.044 122.448H243.452V123.854H240.044V127.571H238.559V118.921H243.698V120.327H240.044V122.437V122.448Z" fill="black"/>
<path d="M250.467 124.658C250.467 126.377 249.082 127.738 247.339 127.738C245.596 127.738 244.211 126.377 244.211 124.658C244.211 122.939 245.596 121.577 247.339 121.577C249.082 121.577 250.467 122.928 250.467 124.658ZM248.959 124.658C248.959 123.743 248.345 122.961 247.339 122.961C246.334 122.961 245.719 123.743 245.719 124.658C245.719 125.573 246.334 126.354 247.339 126.354C248.345 126.354 248.959 125.573 248.959 124.658Z" fill="black"/>
<path d="M255.585 121.756L255.071 123.095C255.071 123.095 254.803 122.961 254.367 122.961C253.462 122.961 253.06 123.754 253.06 123.754V127.582H251.574V121.722H252.982V122.582C252.982 122.582 253.485 121.577 254.58 121.577C255.116 121.577 255.596 121.767 255.596 121.767L255.585 121.756Z" fill="black"/>
<path d="M255.875 121.722H257.026V119.981H258.512V121.722H260.288V123.062H258.512V125.428C258.512 126.142 258.88 126.354 259.282 126.354C259.618 126.354 259.897 126.142 259.897 126.142L260.444 127.359C260.444 127.359 259.886 127.738 259.037 127.738C257.897 127.738 257.037 126.912 257.037 125.662V123.062H255.886V121.722H255.875Z" fill="black"/>
<path d="M261.674 118.24H263.16V122.347C263.16 122.347 263.707 121.577 264.824 121.577C266.344 121.577 267.684 122.85 267.684 124.658C267.684 126.466 266.344 127.738 264.824 127.738C263.562 127.738 263.048 126.823 263.048 126.823V127.593H261.674V118.251V118.24ZM263.16 125.539C263.16 125.539 263.584 126.354 264.556 126.354C265.528 126.354 266.165 125.629 266.165 124.658C266.165 123.687 265.562 122.961 264.556 122.961C263.551 122.961 263.16 123.776 263.16 123.776V125.528V125.539Z" fill="black"/>
<path d="M269.739 118.854C270.286 118.854 270.722 119.289 270.722 119.836C270.722 120.383 270.286 120.818 269.739 120.818C269.192 120.818 268.756 120.383 268.756 119.836C268.756 119.289 269.192 118.854 269.739 118.854ZM269.002 121.722H270.488V127.582H269.002V121.722Z" fill="black"/>
<path d="M272.377 118.24H273.863V127.582H272.377V118.24Z" fill="black"/>
<path d="M281.124 127.582H279.75V126.812C279.75 126.812 279.247 127.727 277.973 127.727C276.454 127.727 275.113 126.455 275.113 124.647C275.113 122.838 276.454 121.566 277.973 121.566C279.091 121.566 279.638 122.336 279.638 122.336V118.229H281.124V127.571V127.582ZM279.638 123.776C279.638 123.776 279.213 122.961 278.241 122.961C277.27 122.961 276.633 123.687 276.633 124.658C276.633 125.629 277.236 126.354 278.241 126.354C279.247 126.354 279.638 125.539 279.638 125.539V123.787V123.776Z" fill="black"/>
<path d="M282.789 125.517V121.722H284.275V125.115C284.275 125.986 284.688 126.354 285.437 126.354C286.185 126.354 286.599 125.64 286.599 125.64V121.734H288.085V127.593H286.699V126.734C286.699 126.734 286.141 127.738 284.945 127.738C283.817 127.738 282.789 126.935 282.789 125.528V125.517Z" fill="black"/>
<path d="M294.866 123.787V127.582H293.38V124.155C293.38 123.318 292.866 122.961 292.218 122.961C291.447 122.961 291.056 123.72 291.056 123.72V127.593H289.57V121.734H290.956V122.593C290.956 122.593 291.47 121.588 292.71 121.588C293.849 121.588 294.866 122.392 294.866 123.798V123.787Z" fill="black"/>
<path d="M298.809 127.727C297.29 127.727 295.949 126.455 295.949 124.647C295.949 122.838 297.29 121.566 298.809 121.566C300.038 121.566 300.586 122.481 300.586 122.481V121.711H301.96V127.615C301.96 129.658 300.452 130.562 298.798 130.562C297.145 130.562 296.016 129.446 296.016 129.446L296.854 128.307C296.854 128.307 297.67 129.178 298.798 129.178C299.927 129.178 300.474 128.553 300.474 127.671V126.968C300.273 127.214 299.748 127.727 298.809 127.727ZM300.474 123.765C300.474 123.765 300.049 122.95 299.077 122.95C298.105 122.95 297.469 123.676 297.469 124.647C297.469 125.618 298.072 126.343 299.077 126.343C300.083 126.343 300.474 125.528 300.474 125.528V123.776V123.765Z" fill="black"/>
<path d="M303.903 125.595C303.903 125.595 304.685 126.432 305.68 126.432C306.283 126.432 306.797 126.254 306.797 125.897C306.797 125.517 306.529 125.439 305.635 125.26C304.473 125.015 303.457 124.524 303.457 123.408C303.457 122.492 304.373 121.577 305.981 121.577C307.3 121.577 308.182 122.292 308.182 122.292L307.445 123.385C307.445 123.385 306.775 122.883 305.981 122.883C305.423 122.883 304.92 123.084 304.92 123.441C304.92 123.798 305.311 123.888 306.305 124.1C307.467 124.345 308.294 124.725 308.294 125.941C308.294 126.946 307.233 127.749 305.736 127.749C304.015 127.749 303.088 126.689 303.088 126.689L303.915 125.618L303.903 125.595Z" fill="black"/>
<path d="M309.88 125.595C309.88 125.595 310.662 126.432 311.656 126.432C312.26 126.432 312.774 126.254 312.774 125.897C312.774 125.517 312.505 125.439 311.612 125.26C310.45 125.015 309.433 124.524 309.433 123.408C309.433 122.492 310.349 121.577 311.958 121.577C313.276 121.577 314.159 122.292 314.159 122.292L313.422 123.385C313.422 123.385 312.751 122.883 311.958 122.883C311.399 122.883 310.897 123.084 310.897 123.441C310.897 123.798 311.288 123.888 312.282 124.1C313.444 124.345 314.271 124.725 314.271 125.941C314.271 126.946 313.209 127.749 311.712 127.749C309.992 127.749 309.064 126.689 309.064 126.689L309.891 125.618L309.88 125.595Z" fill="black"/>
<path d="M319.601 125.629L320.584 126.622C320.584 126.622 319.746 127.738 318.16 127.738C316.406 127.738 314.998 126.377 314.998 124.658C314.998 122.939 316.395 121.577 318.16 121.577C319.735 121.577 320.562 122.671 320.562 122.671L319.534 123.586C319.534 123.586 319.054 122.972 318.16 122.972C317.154 122.972 316.517 123.754 316.517 124.669C316.517 125.584 317.154 126.365 318.16 126.365C319.165 126.365 319.601 125.651 319.601 125.651V125.629Z" fill="black"/>
<path d="M327.018 123.787V127.582H325.532V124.155C325.532 123.318 325.018 122.961 324.37 122.961C323.6 122.961 323.209 123.731 323.209 123.731V127.593H321.723V118.251H323.209V122.448C323.209 122.448 323.722 121.588 324.873 121.588C326.024 121.588 327.029 122.392 327.029 123.798L327.018 123.787Z" fill="black"/>
<path d="M328.504 125.517V121.722H329.99V125.115C329.99 125.986 330.403 126.354 331.152 126.354C331.9 126.354 332.314 125.64 332.314 125.64V121.734H333.799V127.593H332.414V126.734C332.414 126.734 331.856 127.738 330.66 127.738C329.532 127.738 328.504 126.935 328.504 125.528V125.517Z" fill="black"/>
<path d="M335.465 118.24H336.951V127.582H335.465V118.24Z" fill="black"/>
<path d="M344.111 124.624C344.111 124.736 344.111 124.959 344.1 125.182H339.721C339.832 125.696 340.436 126.365 341.363 126.365C342.391 126.365 342.972 125.774 342.972 125.774L343.709 126.89C343.709 126.89 342.782 127.727 341.363 127.727C339.575 127.727 338.201 126.365 338.201 124.647C338.201 122.928 339.452 121.566 341.151 121.566C342.849 121.566 344.111 122.816 344.111 124.613V124.624ZM342.625 124.111C342.603 123.609 342.134 122.928 341.151 122.928C340.167 122.928 339.765 123.597 339.721 124.111H342.625Z" fill="black"/>
<path d="M250.545 137.504C250.645 137.002 250.69 136.6 250.69 136.299C250.69 136.198 250.601 136.12 250.411 136.053C250.221 135.986 250.076 135.953 249.953 135.953C249.93 135.953 249.93 135.93 249.93 135.886C249.93 135.763 249.964 135.674 250.031 135.596C250.131 135.596 250.344 135.618 250.657 135.64C250.969 135.663 251.226 135.674 251.45 135.674C251.673 135.674 251.93 135.663 252.254 135.64C252.578 135.618 252.779 135.607 252.835 135.607V135.64C252.835 135.852 252.802 135.953 252.746 135.953C252.679 135.953 252.533 135.986 252.31 136.053C252.087 136.12 251.964 136.187 251.93 136.254C251.818 136.5 251.707 136.901 251.595 137.471L251.059 140.306C250.992 140.685 250.958 141.064 250.958 141.422C250.958 142.091 251.103 142.616 251.394 142.995C251.684 143.375 252.109 143.565 252.679 143.565C254.098 143.565 255.002 142.582 255.371 140.618L255.952 137.504C256.053 136.89 256.109 136.5 256.109 136.321C256.109 136.221 255.986 136.131 255.729 136.053C255.472 135.975 255.271 135.942 255.125 135.942C255.103 135.942 255.103 135.919 255.103 135.863C255.103 135.729 255.137 135.629 255.192 135.584C255.293 135.584 255.505 135.607 255.818 135.629C256.131 135.651 256.399 135.663 256.6 135.663C256.768 135.663 256.924 135.663 257.08 135.651C257.237 135.651 257.393 135.629 257.572 135.618C257.751 135.607 257.896 135.596 258.008 135.584C258.008 135.819 257.974 135.942 257.918 135.942C257.851 135.942 257.684 135.975 257.404 136.042C257.136 136.109 256.98 136.176 256.935 136.243C256.868 136.332 256.745 136.756 256.578 137.526L255.986 140.596C255.717 141.98 255.293 142.928 254.723 143.442C254.153 143.955 253.338 144.212 252.276 144.212C251.517 144.212 250.925 143.977 250.5 143.52C250.076 143.062 249.863 142.393 249.863 141.511C249.863 141.187 249.93 140.73 250.042 140.127L250.556 137.504H250.545Z" fill="black"/>
<path d="M259.171 138.509C259.305 138.509 259.417 138.576 259.495 138.698C259.573 138.821 259.607 138.989 259.607 139.189C259.607 139.39 259.584 139.614 259.528 139.881L259.294 141.087C259.383 140.931 259.573 140.663 259.864 140.272C260.154 139.893 260.512 139.502 260.936 139.1C261.361 138.698 261.707 138.509 261.964 138.509C262.4 138.509 262.623 138.799 262.623 139.379C262.623 139.77 262.556 140.25 262.444 140.808L262.009 142.828C261.986 142.928 261.975 143.04 261.975 143.152C261.975 143.375 262.02 143.475 262.109 143.475C262.165 143.475 262.221 143.453 262.299 143.397C262.377 143.352 262.444 143.286 262.523 143.219C262.601 143.152 262.668 143.085 262.724 143.018C262.779 142.951 262.835 142.895 262.891 142.839L262.969 142.75C262.969 142.75 263.025 142.794 263.07 142.873C263.115 142.951 263.148 143.018 263.148 143.051C263.036 143.241 262.802 143.498 262.444 143.81C262.087 144.123 261.774 144.279 261.506 144.279C261.372 144.279 261.26 144.212 261.182 144.089C261.104 143.966 261.07 143.799 261.07 143.598C261.07 143.464 261.104 143.23 261.16 142.906L261.618 140.741C261.685 140.451 261.707 140.216 261.707 140.038C261.707 139.658 261.629 139.468 261.461 139.468C261.171 139.468 260.724 139.859 260.121 140.652C259.517 141.444 259.126 142.281 258.947 143.174L258.724 144.19C258.612 144.223 258.478 144.245 258.322 144.245C258.165 144.245 258.02 144.223 257.875 144.19L258.646 140.16C258.69 139.848 258.713 139.669 258.713 139.636C258.713 139.424 258.668 139.312 258.579 139.312C258.545 139.312 258.501 139.335 258.434 139.368C258.367 139.401 258.311 139.457 258.244 139.524C258.177 139.591 258.121 139.647 258.065 139.692C258.009 139.747 257.942 139.826 257.853 139.926C257.83 139.926 257.797 139.881 257.752 139.803C257.707 139.725 257.674 139.658 257.674 139.625C257.774 139.446 257.998 139.223 258.333 138.933C258.668 138.643 258.947 138.497 259.182 138.497H259.171V138.509Z" fill="black"/>
<path d="M266.018 138.475C266.521 138.475 266.912 138.643 267.203 138.977C267.247 139.078 267.27 139.178 267.27 139.256C267.27 139.413 267.225 139.547 267.147 139.658C267.069 139.77 266.957 139.826 266.823 139.826C266.7 139.826 266.588 139.759 266.499 139.636C266.41 139.513 266.287 139.379 266.141 139.245C265.996 139.111 265.806 139.044 265.572 139.044C265.393 139.044 265.248 139.111 265.136 139.223C265.035 139.346 264.979 139.491 264.979 139.636C264.979 139.859 265.069 140.105 265.236 140.361C265.404 140.618 265.594 140.852 265.795 141.053C265.996 141.254 266.186 141.5 266.354 141.79C266.521 142.08 266.611 142.37 266.611 142.672C266.611 143.152 266.432 143.542 266.086 143.844C265.739 144.145 265.281 144.29 264.734 144.29C264.231 144.29 263.84 144.123 263.549 143.788C263.505 143.721 263.482 143.632 263.482 143.542C263.482 143.386 263.527 143.241 263.605 143.129C263.684 143.006 263.795 142.951 263.929 142.951C264.052 142.951 264.164 143.018 264.253 143.14C264.343 143.263 264.466 143.397 264.611 143.531C264.756 143.665 264.946 143.732 265.181 143.732C265.371 143.732 265.527 143.665 265.65 143.542C265.773 143.419 265.829 143.274 265.829 143.129C265.829 142.906 265.739 142.66 265.572 142.404C265.404 142.147 265.214 141.913 265.013 141.712C264.812 141.511 264.622 141.265 264.454 140.975C264.287 140.685 264.197 140.395 264.197 140.093C264.197 139.725 264.376 139.368 264.723 139.011C265.069 138.654 265.505 138.486 266.018 138.486V138.475Z" fill="black"/>
<path d="M270.623 138.509C271.025 138.509 271.316 138.609 271.494 138.821C271.673 139.033 271.763 139.245 271.763 139.502C271.763 139.881 271.561 140.272 271.17 140.64C270.779 141.02 270.344 141.31 269.874 141.511C269.405 141.712 269.025 141.823 268.746 141.823C268.713 141.823 268.69 141.98 268.69 142.281C268.69 142.672 268.768 142.973 268.914 143.174C269.07 143.375 269.271 143.486 269.539 143.486C269.606 143.486 269.673 143.486 269.74 143.464C269.807 143.453 269.863 143.431 269.93 143.397C269.997 143.364 270.053 143.341 270.109 143.308C270.176 143.274 270.232 143.241 270.277 143.196C270.332 143.152 270.377 143.118 270.433 143.085C270.478 143.051 270.522 143.007 270.567 142.973C270.612 142.94 270.634 142.895 270.656 142.873C270.679 142.85 270.701 142.828 270.712 142.806L270.746 142.772C270.746 142.772 270.802 142.817 270.846 142.895C270.891 142.973 270.925 143.04 270.925 143.073C270.802 143.286 270.556 143.542 270.187 143.844C269.819 144.145 269.461 144.301 269.104 144.301C268.645 144.301 268.299 144.123 268.065 143.777C267.83 143.419 267.707 142.94 267.707 142.315C267.707 141.477 268.02 140.64 268.668 139.792C269.316 138.944 269.953 138.531 270.623 138.531V138.509ZM270.489 139.044C270.076 139.044 269.696 139.335 269.327 139.926C268.958 140.518 268.78 140.975 268.78 141.299C268.78 141.332 268.791 141.355 268.835 141.355C269.148 141.355 269.562 141.143 270.064 140.73C270.567 140.317 270.824 139.881 270.824 139.446C270.824 139.178 270.712 139.055 270.5 139.055L270.489 139.044Z" fill="black"/>
<path d="M274.208 138.509C274.342 138.509 274.454 138.576 274.532 138.698C274.61 138.821 274.644 138.989 274.644 139.189C274.644 139.39 274.622 139.614 274.566 139.881L274.354 140.986C274.566 140.473 274.901 139.926 275.326 139.368C275.75 138.81 276.119 138.52 276.42 138.52C276.722 138.52 276.957 138.654 277.135 138.933C277.135 139.513 276.968 139.814 276.655 139.814C276.588 139.814 276.499 139.759 276.409 139.647C276.309 139.535 276.208 139.48 276.108 139.48C275.851 139.48 275.482 139.859 274.979 140.618C274.476 141.377 274.164 142.114 274.03 142.828L273.784 144.201C273.639 144.223 273.493 144.234 273.348 144.234C273.18 144.234 273.024 144.223 272.868 144.201L273.65 140.172C273.694 139.859 273.717 139.681 273.717 139.647C273.717 139.435 273.672 139.323 273.583 139.323C273.549 139.323 273.504 139.346 273.437 139.379C273.37 139.413 273.315 139.468 273.248 139.535C273.18 139.602 273.125 139.658 273.069 139.703C273.013 139.759 272.946 139.837 272.856 139.937C272.834 139.937 272.801 139.893 272.756 139.814C272.711 139.736 272.678 139.669 272.678 139.636C272.778 139.457 273.002 139.234 273.337 138.944C273.672 138.654 273.951 138.509 274.186 138.509H274.208Z" fill="black"/>
<path d="M283.102 142.348L284.007 137.705C284.119 137.102 284.175 136.678 284.175 136.433C284.175 136.366 284.164 136.321 284.141 136.299C284.119 136.265 284.007 136.232 283.806 136.209C283.605 136.187 283.292 136.165 282.879 136.165C282.409 136.165 282.085 136.243 281.896 136.377C281.706 136.511 281.493 136.834 281.281 137.326C281.259 137.37 281.214 137.392 281.147 137.392C281.035 137.392 280.946 137.359 280.879 137.303L281.46 135.428C281.795 135.529 282.063 135.573 282.287 135.573C282.622 135.573 283.069 135.584 283.605 135.607C284.141 135.629 284.588 135.64 284.923 135.64C285.258 135.64 285.716 135.629 286.275 135.607C286.834 135.584 287.281 135.573 287.627 135.573C287.817 135.573 288.107 135.529 288.498 135.428L288.364 137.303C288.286 137.37 288.185 137.392 288.063 137.392C287.984 137.392 287.951 137.37 287.951 137.326C287.951 136.857 287.861 136.544 287.694 136.388C287.526 136.232 287.236 136.165 286.822 136.165C285.951 136.165 285.493 136.232 285.437 136.366C285.314 136.634 285.191 137.069 285.068 137.672L284.152 142.393C284.052 142.873 284.007 143.263 284.007 143.576C284.007 143.643 284.063 143.71 284.186 143.765C284.309 143.821 284.42 143.855 284.532 143.877L284.711 143.899C284.711 143.899 284.733 143.922 284.733 143.955C284.733 144.056 284.711 144.156 284.655 144.257C283.851 144.212 283.393 144.19 283.292 144.19C283.27 144.19 282.789 144.212 281.851 144.257C281.84 144.234 281.829 144.201 281.829 144.156C281.829 143.989 281.862 143.911 281.918 143.911C282.018 143.911 282.186 143.888 282.387 143.821C282.588 143.754 282.722 143.698 282.756 143.62C282.89 143.319 283.002 142.906 283.091 142.359H283.08L283.102 142.348Z" fill="black"/>
<path d="M291.066 138.509C291.468 138.509 291.759 138.609 291.938 138.821C292.116 139.033 292.206 139.245 292.206 139.502C292.206 139.881 292.005 140.272 291.614 140.64C291.223 141.02 290.787 141.31 290.318 141.511C289.849 141.712 289.469 141.823 289.189 141.823C289.156 141.823 289.134 141.98 289.134 142.281C289.134 142.672 289.212 142.973 289.357 143.174C289.513 143.375 289.714 143.486 289.983 143.486C290.05 143.486 290.117 143.486 290.184 143.464C290.251 143.453 290.307 143.431 290.374 143.397C290.441 143.364 290.497 143.341 290.552 143.308C290.619 143.274 290.675 143.241 290.72 143.196C290.776 143.152 290.82 143.118 290.876 143.085C290.921 143.051 290.966 143.007 291.01 142.973C291.055 142.94 291.077 142.895 291.1 142.873C291.122 142.85 291.144 142.828 291.156 142.806L291.189 142.772C291.189 142.772 291.245 142.817 291.29 142.895C291.334 142.973 291.368 143.04 291.368 143.073C291.245 143.286 290.999 143.542 290.631 143.844C290.262 144.145 289.904 144.301 289.547 144.301C289.089 144.301 288.742 144.123 288.508 143.777C288.273 143.419 288.15 142.94 288.15 142.315C288.15 141.477 288.463 140.64 289.111 139.792C289.759 138.944 290.396 138.531 291.066 138.531V138.509ZM290.932 139.044C290.519 139.044 290.139 139.335 289.77 139.926C289.402 140.518 289.223 140.975 289.223 141.299C289.223 141.332 289.234 141.355 289.279 141.355C289.592 141.355 290.005 141.143 290.508 140.73C291.01 140.317 291.267 139.881 291.267 139.446C291.267 139.178 291.156 139.055 290.943 139.055L290.932 139.044Z" fill="black"/>
<path d="M296.564 138.509C296.899 138.509 297.212 138.564 297.524 138.676L296.72 142.817C296.698 142.917 296.686 143.029 296.686 143.14C296.686 143.364 296.731 143.464 296.82 143.464C296.876 143.464 296.932 143.442 297.01 143.386C297.089 143.341 297.156 143.274 297.234 143.207C297.312 143.14 297.379 143.073 297.435 143.006C297.491 142.94 297.547 142.884 297.603 142.828L297.681 142.739C297.681 142.739 297.737 142.783 297.781 142.861C297.826 142.94 297.859 143.006 297.859 143.04C297.748 143.23 297.513 143.486 297.156 143.799C296.798 144.111 296.485 144.268 296.217 144.268C296.083 144.268 295.971 144.201 295.893 144.078C295.815 143.955 295.781 143.788 295.781 143.587C295.781 143.442 295.815 143.207 295.871 142.895C295.882 142.794 295.904 142.716 295.916 142.672C295.927 142.616 295.938 142.582 295.938 142.56C295.849 142.716 295.748 142.873 295.636 143.04C295.525 143.207 295.379 143.386 295.201 143.587C295.022 143.788 294.843 143.955 294.642 144.078C294.441 144.201 294.262 144.268 294.083 144.268C293.703 144.268 293.391 144.089 293.167 143.754C292.944 143.419 292.832 142.995 292.832 142.504C292.832 141.89 293.022 141.265 293.391 140.64C293.759 140.015 294.24 139.502 294.821 139.111C295.402 138.709 295.994 138.52 296.575 138.52L296.564 138.509ZM296.016 139.111C295.502 139.111 294.999 139.446 294.519 140.116C294.039 140.785 293.793 141.489 293.793 142.225C293.793 143.085 294.016 143.509 294.463 143.509C294.776 143.509 295.133 143.196 295.525 142.549C295.916 141.913 296.173 141.265 296.307 140.618L296.575 139.279C296.474 139.167 296.295 139.111 296.038 139.111H296.016Z" fill="black"/>
<path d="M302.898 138.509C303.133 138.509 303.312 138.576 303.446 138.721C303.569 138.855 303.647 139.011 303.669 139.156C303.692 139.312 303.703 139.513 303.703 139.747C303.703 139.893 303.636 140.283 303.524 140.919C303.814 140.417 304.217 139.893 304.731 139.346C305.245 138.799 305.658 138.52 305.971 138.52C306.283 138.52 306.451 138.598 306.563 138.732C306.675 138.866 306.719 139.089 306.719 139.379C306.719 139.77 306.652 140.25 306.54 140.808L306.105 142.828C306.082 142.928 306.071 143.04 306.071 143.152C306.071 143.375 306.116 143.475 306.205 143.475C306.261 143.475 306.317 143.453 306.395 143.397C306.473 143.352 306.54 143.286 306.619 143.219C306.697 143.152 306.764 143.085 306.82 143.018C306.876 142.951 306.931 142.895 306.987 142.839L307.066 142.75C307.066 142.75 307.121 142.794 307.166 142.873C307.211 142.951 307.244 143.018 307.244 143.051C307.133 143.241 306.898 143.498 306.54 143.81C306.183 144.123 305.87 144.279 305.602 144.279C305.468 144.279 305.356 144.212 305.278 144.089C305.2 143.966 305.166 143.799 305.166 143.598C305.166 143.464 305.2 143.23 305.256 142.906L305.714 140.741C305.781 140.451 305.803 140.216 305.803 140.038C305.803 139.904 305.803 139.803 305.792 139.736C305.781 139.669 305.758 139.602 305.725 139.558C305.691 139.502 305.636 139.48 305.557 139.48C305.256 139.48 304.82 139.859 304.239 140.618C303.658 141.377 303.289 142.158 303.144 142.962L302.91 144.201C302.91 144.201 302.809 144.201 302.708 144.223C302.608 144.245 302.519 144.245 302.451 144.245C302.384 144.245 302.295 144.245 302.206 144.223C302.116 144.201 302.049 144.201 302.027 144.201L302.764 140.484C302.798 140.306 302.82 140.138 302.82 139.982C302.82 139.647 302.731 139.468 302.552 139.468C302.25 139.468 301.815 139.881 301.245 140.707C300.675 141.533 300.318 142.315 300.172 143.04L299.938 144.19C299.714 144.223 299.558 144.245 299.491 144.245C299.424 144.245 299.29 144.223 299.055 144.19L299.837 140.16C299.882 139.848 299.904 139.669 299.904 139.636C299.904 139.424 299.86 139.312 299.77 139.312C299.737 139.312 299.692 139.335 299.625 139.368C299.558 139.401 299.502 139.457 299.435 139.524C299.368 139.591 299.312 139.647 299.256 139.692C299.2 139.747 299.133 139.826 299.044 139.926C299.033 139.926 298.988 139.881 298.943 139.803C298.899 139.725 298.865 139.658 298.865 139.625C298.966 139.446 299.189 139.223 299.524 138.933C299.86 138.643 300.139 138.497 300.373 138.497C300.508 138.497 300.619 138.564 300.697 138.687C300.776 138.81 300.82 138.977 300.82 139.178C300.82 139.379 300.798 139.602 300.742 139.87L300.508 141.087C300.832 140.529 301.234 139.96 301.714 139.368C302.195 138.788 302.597 138.486 302.898 138.486V138.509Z" fill="black"/>
<path d="M311.31 142.917L312.539 136.567C312.561 136.433 312.573 136.31 312.573 136.198C312.573 136.031 312.304 135.953 311.768 135.953C311.746 135.953 311.735 135.93 311.735 135.875C311.735 135.774 311.768 135.685 311.835 135.607C312.427 135.551 312.986 135.428 313.511 135.238C313.567 135.261 313.589 135.35 313.589 135.484C313.589 135.584 313.533 135.919 313.422 136.466L312.181 142.817C312.159 142.917 312.148 143.029 312.148 143.14C312.148 143.364 312.193 143.464 312.282 143.464C312.338 143.464 312.394 143.442 312.472 143.386C312.55 143.341 312.628 143.274 312.695 143.207C312.774 143.14 312.841 143.073 312.908 143.006C312.975 142.94 313.042 142.85 313.142 142.739C313.165 142.739 313.209 142.783 313.243 142.861C313.276 142.94 313.31 143.006 313.31 143.04C313.198 143.23 312.964 143.486 312.606 143.799C312.249 144.111 311.936 144.268 311.668 144.268C311.534 144.268 311.433 144.201 311.344 144.078C311.254 143.955 311.221 143.788 311.221 143.587C311.221 143.442 311.254 143.207 311.31 142.895V142.917Z" fill="black"/>
<path d="M317.166 138.509C317.568 138.509 317.859 138.609 318.037 138.821C318.216 139.033 318.305 139.245 318.305 139.502C318.305 139.881 318.104 140.272 317.713 140.64C317.322 141.02 316.887 141.31 316.417 141.511C315.948 141.712 315.568 141.823 315.289 141.823C315.255 141.823 315.233 141.98 315.233 142.281C315.233 142.672 315.311 142.973 315.457 143.174C315.613 143.375 315.814 143.486 316.082 143.486C316.149 143.486 316.216 143.486 316.283 143.464C316.35 143.453 316.406 143.431 316.473 143.397C316.54 143.364 316.596 143.341 316.652 143.308C316.719 143.274 316.775 143.241 316.82 143.196C316.875 143.152 316.92 143.118 316.976 143.085C317.021 143.051 317.065 143.007 317.11 142.973C317.155 142.94 317.177 142.895 317.199 142.873C317.222 142.85 317.244 142.828 317.255 142.806L317.289 142.772C317.289 142.772 317.345 142.817 317.389 142.895C317.434 142.973 317.468 143.04 317.468 143.073C317.345 143.286 317.099 143.542 316.73 143.844C316.362 144.145 316.004 144.301 315.647 144.301C315.188 144.301 314.842 144.123 314.608 143.777C314.373 143.419 314.25 142.94 314.25 142.315C314.25 141.477 314.563 140.64 315.211 139.792C315.859 138.944 316.496 138.531 317.166 138.531V138.509ZM317.032 139.044C316.618 139.044 316.239 139.335 315.87 139.926C315.501 140.518 315.323 140.975 315.323 141.299C315.323 141.332 315.334 141.355 315.378 141.355C315.691 141.355 316.105 141.143 316.607 140.73C317.11 140.317 317.367 139.881 317.367 139.446C317.367 139.178 317.255 139.055 317.043 139.055L317.032 139.044Z" fill="black"/>
<path d="M320.763 138.509C320.897 138.509 321.009 138.576 321.087 138.698C321.165 138.821 321.199 138.989 321.199 139.189C321.199 139.39 321.176 139.614 321.121 139.881L320.908 140.986C321.121 140.473 321.456 139.926 321.88 139.368C322.305 138.81 322.673 138.52 322.975 138.52C323.277 138.52 323.511 138.654 323.69 138.933C323.69 139.513 323.523 139.814 323.21 139.814C323.143 139.814 323.053 139.759 322.964 139.647C322.863 139.535 322.763 139.48 322.662 139.48C322.405 139.48 322.037 139.859 321.534 140.618C321.031 141.377 320.718 142.114 320.584 142.828L320.338 144.201C320.193 144.223 320.048 144.234 319.903 144.234C319.735 144.234 319.579 144.223 319.422 144.201L320.204 140.172C320.249 139.859 320.271 139.681 320.271 139.647C320.271 139.435 320.227 139.323 320.137 139.323C320.104 139.323 320.059 139.346 319.992 139.379C319.925 139.413 319.869 139.468 319.802 139.535C319.735 139.602 319.679 139.658 319.623 139.703C319.568 139.759 319.501 139.837 319.411 139.937C319.389 139.937 319.355 139.893 319.311 139.814C319.266 139.736 319.232 139.669 319.232 139.636C319.333 139.457 319.556 139.234 319.892 138.944C320.227 138.654 320.506 138.509 320.741 138.509H320.763Z" fill="black"/>
<path d="M325.544 138.509C325.678 138.509 325.79 138.576 325.868 138.698C325.946 138.821 325.98 138.989 325.98 139.189C325.98 139.39 325.957 139.614 325.901 139.881L325.667 141.087C325.756 140.931 325.946 140.663 326.237 140.272C326.527 139.893 326.885 139.502 327.309 139.1C327.734 138.698 328.08 138.509 328.337 138.509C328.773 138.509 328.996 138.799 328.996 139.379C328.996 139.77 328.929 140.25 328.817 140.808L328.382 142.828C328.359 142.928 328.348 143.04 328.348 143.152C328.348 143.375 328.393 143.475 328.482 143.475C328.538 143.475 328.594 143.453 328.672 143.397C328.75 143.352 328.817 143.286 328.896 143.219C328.974 143.152 329.041 143.085 329.097 143.018C329.153 142.951 329.208 142.895 329.264 142.839L329.342 142.75C329.342 142.75 329.398 142.794 329.443 142.873C329.488 142.951 329.521 143.018 329.521 143.051C329.41 143.241 329.175 143.498 328.817 143.81C328.46 144.123 328.147 144.279 327.879 144.279C327.745 144.279 327.633 144.212 327.555 144.089C327.477 143.966 327.443 143.799 327.443 143.598C327.443 143.464 327.477 143.23 327.533 142.906L327.991 140.741C328.058 140.451 328.08 140.216 328.08 140.038C328.08 139.658 328.002 139.468 327.834 139.468C327.544 139.468 327.097 139.859 326.494 140.652C325.89 141.444 325.499 142.281 325.321 143.174L325.097 144.19C324.985 144.223 324.851 144.245 324.695 144.245C324.538 144.245 324.393 144.223 324.248 144.19L325.019 140.16C325.064 139.848 325.086 139.669 325.086 139.636C325.086 139.424 325.041 139.312 324.952 139.312C324.918 139.312 324.874 139.335 324.807 139.368C324.74 139.401 324.684 139.457 324.617 139.524C324.55 139.591 324.494 139.647 324.438 139.692C324.382 139.747 324.315 139.826 324.226 139.926C324.203 139.926 324.17 139.881 324.125 139.803C324.08 139.725 324.047 139.658 324.047 139.625C324.147 139.446 324.371 139.223 324.706 138.933C325.041 138.643 325.321 138.497 325.555 138.497H325.544V138.509Z" fill="black"/>
<path d="M331.956 137.113C331.978 137.024 332.191 136.98 332.593 136.98C332.693 136.98 332.771 136.98 332.827 136.991L332.503 138.709H333.699C333.699 138.709 333.766 138.765 333.766 138.877C333.766 138.977 333.732 139.111 333.654 139.256H332.414L331.721 142.817C331.699 142.917 331.688 143.029 331.688 143.14C331.688 143.364 331.732 143.464 331.822 143.464C331.878 143.464 331.934 143.442 332.012 143.386C332.09 143.341 332.157 143.274 332.235 143.207C332.313 143.14 332.38 143.073 332.436 143.007C332.492 142.94 332.548 142.884 332.604 142.828L332.682 142.739C332.682 142.739 332.738 142.783 332.783 142.861C332.827 142.94 332.861 143.007 332.861 143.04C332.749 143.23 332.514 143.486 332.157 143.799C331.799 144.111 331.487 144.268 331.219 144.268C331.084 144.268 330.973 144.201 330.895 144.078C330.816 143.955 330.783 143.788 330.783 143.587C330.783 143.453 330.816 143.219 330.872 142.895L331.576 139.234H330.649C330.649 139.234 330.615 139.189 330.615 139.089C330.615 138.977 330.671 138.843 330.772 138.687H331.688L332.001 137.091L331.956 137.113Z" fill="black"/>
<path d="M267.115 155.764L268.344 149.413C268.366 149.279 268.377 149.156 268.377 149.045C268.377 148.877 268.109 148.799 267.573 148.799C267.55 148.799 267.539 148.777 267.539 148.721C267.539 148.621 267.573 148.531 267.64 148.453C268.232 148.397 268.791 148.275 269.316 148.085C269.372 148.107 269.394 148.196 269.394 148.33C269.394 148.431 269.338 148.766 269.226 149.312L267.986 155.663C267.964 155.764 267.953 155.875 267.953 155.987C267.953 156.21 267.997 156.31 268.087 156.31C268.143 156.31 268.198 156.288 268.277 156.232C268.355 156.188 268.433 156.121 268.5 156.054C268.567 155.987 268.645 155.92 268.712 155.853C268.779 155.786 268.846 155.697 268.947 155.585C268.969 155.585 269.014 155.63 269.048 155.708C269.081 155.786 269.115 155.853 269.115 155.886C269.003 156.076 268.768 156.333 268.411 156.645C268.053 156.958 267.74 157.114 267.472 157.114C267.338 157.114 267.238 157.047 267.148 156.924C267.059 156.802 267.025 156.634 267.025 156.433C267.025 156.288 267.059 156.054 267.115 155.741V155.764Z" fill="black"/>
<path d="M272.978 151.366C273.381 151.366 273.671 151.467 273.85 151.679C274.029 151.891 274.118 152.103 274.118 152.359C274.118 152.739 273.917 153.13 273.526 153.498C273.135 153.877 272.699 154.168 272.23 154.368C271.761 154.569 271.381 154.681 271.102 154.681C271.068 154.681 271.046 154.837 271.046 155.139C271.046 155.529 271.124 155.831 271.269 156.031C271.425 156.232 271.627 156.344 271.895 156.344C271.962 156.344 272.029 156.344 272.096 156.322C272.163 156.31 272.219 156.288 272.286 156.255C272.353 156.221 272.409 156.199 272.465 156.165C272.532 156.132 272.587 156.098 272.632 156.054C272.688 156.009 272.733 155.976 272.788 155.942C272.833 155.909 272.878 155.864 272.923 155.831C272.967 155.797 272.99 155.752 273.012 155.73C273.034 155.708 273.057 155.685 273.068 155.663L273.101 155.63C273.101 155.63 273.157 155.674 273.202 155.752C273.247 155.831 273.28 155.898 273.28 155.931C273.157 156.143 272.911 156.4 272.543 156.701C272.174 157.002 271.817 157.159 271.459 157.159C271.001 157.159 270.655 156.98 270.42 156.634C270.185 156.277 270.062 155.797 270.062 155.172C270.062 154.335 270.375 153.498 271.023 152.65C271.671 151.801 272.308 151.388 272.978 151.388V151.366ZM272.844 151.902C272.431 151.902 272.051 152.192 271.682 152.784C271.314 153.375 271.135 153.833 271.135 154.156C271.135 154.19 271.146 154.212 271.191 154.212C271.504 154.212 271.917 154 272.42 153.587C272.923 153.174 273.18 152.739 273.18 152.304C273.18 152.036 273.068 151.913 272.856 151.913L272.844 151.902Z" fill="black"/>
<path d="M278.163 151.366C278.543 151.366 278.844 151.534 279.034 151.88C279.235 152.214 279.325 152.616 279.325 153.085C279.325 154.201 278.99 155.161 278.308 155.953C277.627 156.746 276.912 157.148 276.163 157.148C275.828 157.148 275.538 157.025 275.269 156.768C275.001 156.523 274.867 156.165 274.867 155.697C274.867 155.563 274.878 155.418 274.901 155.261L275.984 149.737C276.063 149.379 276.096 149.145 276.096 149.045C276.096 148.877 275.828 148.799 275.292 148.799C275.269 148.799 275.258 148.777 275.258 148.721C275.258 148.621 275.292 148.531 275.359 148.453C275.929 148.397 276.476 148.275 277.012 148.085C277.068 148.107 277.09 148.196 277.09 148.33C277.09 148.431 277.035 148.766 276.923 149.312L276.152 153.085C276.431 152.616 276.722 152.248 277.035 151.969C277.336 151.69 277.571 151.511 277.738 151.455C277.906 151.388 278.04 151.355 278.152 151.355L278.163 151.366ZM277.783 152.08C277.604 152.08 277.37 152.248 277.079 152.572C276.8 152.895 276.532 153.297 276.286 153.755C276.04 154.212 275.884 154.636 275.817 155.016C275.716 155.496 275.739 155.886 275.85 156.165C275.973 156.456 276.185 156.601 276.487 156.601C276.822 156.601 277.135 156.433 277.426 156.098C277.716 155.764 277.94 155.351 278.107 154.86C278.275 154.368 278.353 153.877 278.353 153.397C278.353 153.23 278.353 153.096 278.342 152.984C278.331 152.873 278.319 152.739 278.286 152.583C278.252 152.426 278.196 152.304 278.107 152.226C278.018 152.147 277.906 152.103 277.783 152.103V152.08Z" fill="black"/>
<path d="M282.844 151.366C283.246 151.366 283.536 151.467 283.715 151.679C283.894 151.891 283.983 152.103 283.983 152.359C283.983 152.739 283.782 153.13 283.391 153.498C283 153.877 282.564 154.168 282.095 154.368C281.626 154.569 281.246 154.681 280.967 154.681C280.933 154.681 280.911 154.837 280.911 155.139C280.911 155.529 280.989 155.831 281.134 156.031C281.291 156.232 281.492 156.344 281.76 156.344C281.827 156.344 281.894 156.344 281.961 156.322C282.028 156.31 282.084 156.288 282.151 156.255C282.218 156.221 282.274 156.199 282.33 156.165C282.397 156.132 282.453 156.098 282.497 156.054C282.553 156.009 282.598 155.976 282.654 155.942C282.698 155.909 282.743 155.864 282.788 155.831C282.832 155.797 282.855 155.752 282.877 155.73C282.9 155.708 282.922 155.685 282.933 155.663L282.967 155.63C282.967 155.63 283.022 155.674 283.067 155.752C283.112 155.831 283.145 155.898 283.145 155.931C283.022 156.143 282.777 156.4 282.408 156.701C282.039 157.002 281.682 157.159 281.324 157.159C280.866 157.159 280.52 156.98 280.285 156.634C280.051 156.277 279.928 155.797 279.928 155.172C279.928 154.335 280.241 153.498 280.889 152.65C281.537 151.801 282.173 151.388 282.844 151.388V151.366ZM282.71 151.902C282.296 151.902 281.916 152.192 281.548 152.784C281.179 153.375 281 153.833 281 154.156C281 154.19 281.011 154.212 281.056 154.212C281.369 154.212 281.782 154 282.285 153.587C282.788 153.174 283.045 152.739 283.045 152.304C283.045 152.036 282.933 151.913 282.721 151.913L282.71 151.902Z" fill="black"/>
<path d="M286.341 151.366C286.475 151.366 286.587 151.433 286.665 151.556C286.743 151.679 286.777 151.846 286.777 152.047C286.777 152.248 286.754 152.471 286.698 152.739L286.464 153.944C286.553 153.788 286.743 153.52 287.033 153.13C287.324 152.75 287.681 152.359 288.106 151.958C288.531 151.556 288.877 151.366 289.134 151.366C289.57 151.366 289.793 151.656 289.793 152.237C289.793 152.627 289.726 153.107 289.614 153.665L289.179 155.685C289.156 155.786 289.145 155.897 289.145 156.009C289.145 156.232 289.19 156.333 289.279 156.333C289.335 156.333 289.391 156.31 289.469 156.255C289.547 156.21 289.614 156.143 289.692 156.076C289.771 156.009 289.838 155.942 289.894 155.875C289.949 155.808 290.005 155.752 290.061 155.697L290.139 155.607C290.139 155.607 290.195 155.652 290.24 155.73C290.285 155.808 290.318 155.875 290.318 155.909C290.206 156.098 289.972 156.355 289.614 156.668C289.257 156.98 288.944 157.136 288.676 157.136C288.542 157.136 288.43 157.069 288.352 156.947C288.274 156.824 288.24 156.656 288.24 156.456C288.24 156.322 288.274 156.087 288.329 155.764L288.787 153.598C288.855 153.308 288.877 153.074 288.877 152.895C288.877 152.516 288.799 152.326 288.631 152.326C288.341 152.326 287.894 152.717 287.29 153.509C286.687 154.301 286.296 155.139 286.117 156.031L285.894 157.047C285.782 157.081 285.648 157.103 285.492 157.103C285.335 157.103 285.19 157.081 285.045 157.047L285.816 153.018C285.86 152.705 285.883 152.527 285.883 152.493C285.883 152.281 285.838 152.17 285.749 152.17C285.715 152.17 285.67 152.192 285.603 152.226C285.536 152.259 285.481 152.315 285.414 152.382C285.346 152.449 285.291 152.505 285.235 152.549C285.179 152.605 285.112 152.683 285.022 152.784C285 152.784 284.967 152.739 284.922 152.661C284.877 152.583 284.844 152.516 284.844 152.482C284.944 152.304 285.168 152.08 285.503 151.79C285.838 151.5 286.117 151.355 286.352 151.355H286.341V151.366Z" fill="black"/>
<path d="M293.2 151.321C293.703 151.321 294.094 151.489 294.384 151.824C294.429 151.924 294.451 152.025 294.451 152.103C294.451 152.259 294.407 152.393 294.329 152.505C294.25 152.616 294.139 152.672 294.005 152.672C293.882 152.672 293.77 152.605 293.681 152.482C293.591 152.359 293.468 152.226 293.323 152.092C293.178 151.958 292.988 151.891 292.753 151.891C292.574 151.891 292.429 151.958 292.318 152.069C292.217 152.192 292.161 152.337 292.161 152.482C292.161 152.705 292.25 152.951 292.418 153.208C292.586 153.464 292.776 153.699 292.977 153.9C293.178 154.101 293.368 154.346 293.535 154.636C293.703 154.926 293.792 155.217 293.792 155.518C293.792 155.998 293.613 156.389 293.267 156.69C292.921 156.991 292.463 157.136 291.915 157.136C291.413 157.136 291.022 156.969 290.731 156.634C290.686 156.567 290.664 156.478 290.664 156.389C290.664 156.232 290.709 156.087 290.787 155.976C290.865 155.853 290.977 155.797 291.111 155.797C291.234 155.797 291.346 155.864 291.435 155.987C291.524 156.11 291.647 156.243 291.792 156.377C291.938 156.511 292.128 156.578 292.362 156.578C292.552 156.578 292.709 156.511 292.831 156.389C292.954 156.266 293.01 156.121 293.01 155.976C293.01 155.752 292.921 155.507 292.753 155.25C292.586 154.993 292.396 154.759 292.195 154.558C291.994 154.357 291.804 154.112 291.636 153.822C291.468 153.531 291.379 153.241 291.379 152.94C291.379 152.572 291.558 152.214 291.904 151.857C292.25 151.5 292.686 151.333 293.2 151.333V151.321Z" fill="black"/>
<path d="M295.189 155.764L296.418 149.413C296.44 149.279 296.451 149.156 296.451 149.045C296.451 148.877 296.183 148.799 295.647 148.799C295.625 148.799 295.614 148.777 295.614 148.721C295.614 148.621 295.647 148.531 295.714 148.453C296.306 148.397 296.865 148.275 297.39 148.085C297.446 148.107 297.468 148.196 297.468 148.33C297.468 148.431 297.412 148.766 297.3 149.312L296.06 155.663C296.038 155.764 296.027 155.875 296.027 155.987C296.027 156.21 296.072 156.31 296.161 156.31C296.217 156.31 296.273 156.288 296.351 156.232C296.429 156.188 296.507 156.121 296.574 156.054C296.653 155.987 296.72 155.92 296.787 155.853C296.854 155.786 296.921 155.697 297.021 155.585C297.044 155.585 297.088 155.63 297.122 155.708C297.155 155.786 297.189 155.853 297.189 155.886C297.077 156.076 296.842 156.333 296.485 156.645C296.127 156.958 295.815 157.114 295.546 157.114C295.412 157.114 295.312 157.047 295.222 156.924C295.133 156.802 295.1 156.634 295.1 156.433C295.1 156.288 295.133 156.054 295.189 155.741V155.764Z" fill="black"/>
<path d="M301.837 151.366C302.172 151.366 302.485 151.422 302.798 151.534L301.993 155.674C301.971 155.775 301.96 155.886 301.96 155.998C301.96 156.221 302.005 156.322 302.094 156.322C302.15 156.322 302.206 156.299 302.284 156.243C302.362 156.199 302.429 156.132 302.507 156.065C302.585 155.998 302.653 155.931 302.708 155.864C302.764 155.797 302.82 155.741 302.876 155.685L302.954 155.596C302.954 155.596 303.01 155.641 303.055 155.719C303.099 155.797 303.133 155.864 303.133 155.897C303.021 156.087 302.787 156.344 302.429 156.656C302.072 156.969 301.759 157.125 301.491 157.125C301.357 157.125 301.245 157.058 301.167 156.935C301.088 156.813 301.055 156.645 301.055 156.444C301.055 156.299 301.088 156.065 301.144 155.752C301.155 155.652 301.178 155.574 301.189 155.529C301.2 155.473 301.211 155.44 301.211 155.418C301.122 155.574 301.021 155.73 300.91 155.897C300.798 156.065 300.653 156.243 300.474 156.444C300.295 156.645 300.116 156.813 299.915 156.935C299.714 157.058 299.536 157.125 299.357 157.125C298.977 157.125 298.664 156.947 298.441 156.612C298.217 156.277 298.105 155.853 298.105 155.362C298.105 154.748 298.295 154.123 298.664 153.498C299.033 152.873 299.513 152.359 300.094 151.969C300.675 151.567 301.267 151.377 301.848 151.377L301.837 151.366ZM301.29 151.969C300.776 151.969 300.273 152.304 299.792 152.973C299.312 153.643 299.066 154.346 299.066 155.083C299.066 155.942 299.29 156.366 299.737 156.366C300.049 156.366 300.407 156.054 300.798 155.406C301.189 154.77 301.446 154.123 301.58 153.476L301.848 152.136C301.748 152.025 301.569 151.969 301.312 151.969H301.29Z" fill="black"/>
<path d="M305.612 151.366C305.746 151.366 305.858 151.433 305.936 151.556C306.014 151.679 306.048 151.846 306.048 152.047C306.048 152.248 306.026 152.471 305.97 152.739L305.735 153.944C305.825 153.788 306.015 153.52 306.305 153.13C306.595 152.75 306.953 152.359 307.378 151.958C307.802 151.556 308.148 151.366 308.405 151.366C308.841 151.366 309.065 151.656 309.065 152.237C309.065 152.627 308.997 153.107 308.886 153.665L308.45 155.685C308.428 155.786 308.417 155.897 308.417 156.009C308.417 156.232 308.461 156.333 308.551 156.333C308.606 156.333 308.662 156.31 308.741 156.255C308.819 156.21 308.886 156.143 308.964 156.076C309.042 156.009 309.109 155.942 309.165 155.875C309.221 155.808 309.277 155.752 309.333 155.697L309.411 155.607C309.411 155.607 309.467 155.652 309.511 155.73C309.556 155.808 309.59 155.875 309.59 155.909C309.478 156.098 309.243 156.355 308.886 156.668C308.528 156.98 308.215 157.136 307.947 157.136C307.813 157.136 307.701 157.069 307.623 156.947C307.545 156.824 307.512 156.656 307.512 156.456C307.512 156.322 307.545 156.087 307.601 155.764L308.059 153.598C308.126 153.308 308.148 153.074 308.148 152.895C308.148 152.516 308.07 152.326 307.903 152.326C307.612 152.326 307.165 152.717 306.562 153.509C305.959 154.301 305.568 155.139 305.389 156.031L305.165 157.047C305.054 157.081 304.92 157.103 304.763 157.103C304.607 157.103 304.462 157.081 304.316 157.047L305.087 153.018C305.132 152.705 305.154 152.527 305.154 152.493C305.154 152.281 305.11 152.17 305.02 152.17C304.987 152.17 304.942 152.192 304.875 152.226C304.808 152.259 304.752 152.315 304.685 152.382C304.618 152.449 304.562 152.505 304.506 152.549C304.45 152.605 304.383 152.683 304.294 152.784C304.272 152.784 304.238 152.739 304.193 152.661C304.149 152.583 304.115 152.516 304.115 152.482C304.216 152.304 304.439 152.08 304.774 151.79C305.11 151.5 305.389 151.355 305.623 151.355H305.612V151.366Z" fill="black"/>
<path d="M313.278 151.355C313.546 151.355 313.825 151.411 314.149 151.534C314.473 151.656 314.764 151.712 315.065 151.712H315.635C315.635 151.712 315.713 151.746 315.713 151.813C315.713 151.88 315.702 151.946 315.669 152.036C315.635 152.125 315.602 152.181 315.568 152.214H314.831C314.831 152.214 314.753 152.237 314.753 152.292C314.809 152.605 314.831 152.828 314.831 152.973C314.831 153.297 314.786 153.598 314.697 153.866C314.607 154.134 314.485 154.368 314.328 154.547C314.172 154.726 314.049 154.848 313.948 154.938C313.848 155.027 313.747 155.105 313.635 155.161C313.546 155.217 313.367 155.306 313.11 155.429C312.842 155.551 312.63 155.663 312.485 155.764C312.34 155.864 312.261 155.953 312.261 156.043C312.261 156.121 312.351 156.199 312.518 156.266C312.686 156.333 312.898 156.422 313.144 156.5C313.39 156.578 313.635 156.69 313.881 156.813C314.127 156.935 314.339 157.103 314.507 157.326C314.674 157.538 314.764 157.795 314.764 158.074C314.764 158.688 314.485 159.19 313.937 159.558C313.379 159.927 312.641 160.105 311.703 160.105C311.099 160.105 310.608 159.994 310.228 159.77C309.848 159.547 309.658 159.235 309.658 158.833C309.658 158.621 309.714 158.42 309.826 158.219C309.937 158.018 310.105 157.84 310.317 157.694C310.53 157.538 310.731 157.404 310.909 157.304C311.088 157.203 311.3 157.092 311.535 156.991L311.301 156.835C311.077 156.69 310.977 156.534 310.977 156.366C310.977 156.221 311.133 156.054 311.446 155.853C311.759 155.652 312.038 155.529 312.295 155.473C312.127 155.473 311.937 155.429 311.725 155.339C311.513 155.25 311.312 155.094 311.111 154.86C310.909 154.625 310.82 154.357 310.82 154.045C310.82 153.308 311.077 152.683 311.591 152.147C312.105 151.612 312.675 151.355 313.3 151.355H313.278ZM313.915 158.61C313.915 158.42 313.859 158.241 313.747 158.085C313.635 157.929 313.479 157.784 313.267 157.672C313.055 157.56 312.865 157.46 312.697 157.393C312.529 157.326 312.317 157.259 312.071 157.181C311.904 157.248 311.781 157.304 311.714 157.337C311.647 157.371 311.513 157.438 311.334 157.538C311.155 157.639 311.032 157.717 310.943 157.806C310.865 157.884 310.775 157.985 310.708 158.119C310.63 158.252 310.597 158.386 310.597 158.52C310.597 159.223 311.166 159.569 312.317 159.569C312.742 159.569 313.122 159.48 313.434 159.302C313.747 159.123 313.904 158.9 313.904 158.621L313.915 158.61ZM313.066 151.846C312.686 151.846 312.384 152.058 312.138 152.471C311.893 152.884 311.781 153.342 311.781 153.833C311.781 154.168 311.848 154.458 311.993 154.681C312.127 154.904 312.328 155.016 312.585 155.016C312.954 155.016 313.256 154.826 313.49 154.435C313.725 154.045 313.848 153.643 313.848 153.208C313.848 152.862 313.781 152.538 313.635 152.27C313.501 151.991 313.3 151.857 313.054 151.857L313.066 151.846Z" fill="black"/>
<path d="M259.272 196.881C258.546 195.742 257.875 194.247 257.216 192.774C255.887 189.794 254.512 186.713 251.976 184.682C249.418 182.651 246.1 181.981 242.882 181.356C240.179 180.82 237.374 180.262 236.38 179.023C235.397 177.795 235.475 174.949 235.553 172.204C235.643 168.922 235.743 165.529 234.313 162.572C232.917 159.67 230.224 157.661 227.621 155.708C225.387 154.034 223.085 152.315 222.717 150.708C222.381 149.234 223.733 146.634 224.917 144.335C226.448 141.388 228.023 138.341 228.023 134.993C228.023 131.645 226.448 128.598 224.917 125.651C223.733 123.352 222.381 120.751 222.717 119.278C223.085 117.682 225.387 115.952 227.621 114.278C230.224 112.336 232.906 110.316 234.313 107.414C235.743 104.456 235.643 101.063 235.553 97.7819C235.475 95.0363 235.397 92.1903 236.38 90.9625C237.374 89.7237 240.179 89.1656 242.882 88.6299C246.1 87.9937 249.418 87.3352 251.976 85.3039C254.512 83.2837 255.887 80.1921 257.216 77.2121C258.344 74.6786 259.506 72.0669 260.959 71.3637C262.355 70.6941 265.092 71.3972 267.74 72.078C270.935 72.904 274.231 73.7522 277.46 73.0156C280.577 72.3124 283.124 70.1472 285.593 68.0712C287.727 66.2631 289.939 64.3881 291.626 64.3881V40.8271C284.923 40.8271 279.929 45.0572 276.287 48.1488C275.069 49.1756 273.259 50.7158 272.432 51.0841C271.472 51.1511 269.047 50.5149 267.416 50.0908C262.601 48.8519 256.613 47.3005 250.725 50.1466C244.77 53.015 242.234 58.7183 240.19 63.2831C239.519 64.7787 238.525 67.0109 237.922 67.7029C237.095 68.1494 234.682 68.6293 233.062 68.9418C228.157 69.9128 222.057 71.1182 217.946 76.2634C213.846 81.3864 214.025 87.5807 214.159 92.5586C214.203 94.2216 214.27 96.6993 214.013 97.6034C213.466 98.34 211.533 99.7909 210.237 100.762C206.428 103.619 201.199 107.537 199.724 114.021C198.283 120.338 201.11 125.807 203.389 130.194C204.137 131.633 205.377 134.033 205.5 134.971C205.377 135.897 204.137 138.297 203.389 139.747C201.11 144.134 198.283 149.592 199.724 155.92C201.199 162.404 206.428 166.322 210.237 169.179C211.533 170.15 213.466 171.59 214.013 172.338C214.27 173.242 214.203 175.731 214.159 177.394C214.025 182.372 213.846 188.566 217.946 193.689C222.057 198.834 228.157 200.039 233.062 201.01C234.682 201.334 237.095 201.814 237.922 202.249C238.536 202.952 239.519 205.185 240.19 206.669C242.223 211.245 244.759 216.937 250.725 219.806C253.607 221.19 256.501 221.524 259.283 221.368V196.836L259.272 196.881Z" fill="#BACCFF"/>
<path d="M377.741 135.015C377.864 134.089 379.104 131.689 379.853 130.238C382.132 125.852 384.958 120.394 383.517 114.066C382.042 107.581 376.814 103.664 373.004 100.807C371.708 99.8356 369.775 98.3958 369.228 97.648C368.971 96.7439 369.038 94.255 369.083 92.6032C369.217 87.6254 369.395 81.431 365.295 76.3081C361.184 71.1628 355.084 69.9574 350.179 68.9864C348.559 68.6628 346.146 68.1828 345.32 67.7476C344.705 67.0444 343.722 64.8122 343.052 63.3278C341.018 58.7518 338.482 53.0596 332.516 50.1912C326.629 47.3563 320.629 48.8965 315.825 50.1354C314.194 50.5595 311.759 51.1734 310.809 51.1288C309.982 50.7604 308.172 49.2202 306.955 48.1934C303.312 45.1018 298.318 40.8717 291.615 40.8717V64.4327C293.291 64.4327 295.503 66.3078 297.648 68.1159C300.117 70.203 302.653 72.3571 305.781 73.0602C309.01 73.7968 312.306 72.9374 315.501 72.1227C318.149 71.4419 320.886 70.7276 322.283 71.4084C323.735 72.1115 324.897 74.7232 326.025 77.2568C327.355 80.2368 328.729 83.3172 331.265 85.3485C333.823 87.3798 337.142 88.0495 340.359 88.6745C343.063 89.2102 345.867 89.7683 346.861 91.0072C347.844 92.2349 347.766 95.081 347.688 97.8154C347.599 101.097 347.498 104.49 348.928 107.447C350.325 110.349 353.017 112.358 355.62 114.311C357.855 115.986 360.156 117.704 360.525 119.312C360.86 120.785 359.508 123.385 358.324 125.685C356.793 128.631 355.218 131.678 355.218 135.026C355.218 138.375 356.793 141.422 358.324 144.368C359.508 146.667 360.86 149.268 360.525 150.741C360.156 152.337 357.855 154.067 355.62 155.741C353.017 157.683 350.336 159.703 348.928 162.605C347.498 165.563 347.599 168.956 347.688 172.237C347.766 174.983 347.844 177.829 346.861 179.046C345.867 180.284 343.063 180.842 340.359 181.378C337.142 182.014 333.823 182.673 331.265 184.704C328.729 186.724 327.355 189.816 326.025 192.796C325.366 194.269 324.696 195.776 323.97 196.903V221.435C326.752 221.591 329.645 221.257 332.528 219.873C338.482 217.004 341.018 211.301 343.063 206.736C343.733 205.24 344.727 203.008 345.331 202.316C346.157 201.87 348.571 201.39 350.191 201.077C355.095 200.106 361.195 198.901 365.306 193.756C369.407 188.633 369.228 182.438 369.094 177.461C369.049 175.798 368.982 173.32 369.239 172.416C369.786 171.679 371.719 170.228 373.015 169.257C376.825 166.4 382.053 162.483 383.528 155.998C384.969 149.681 382.143 144.212 379.864 139.826C379.115 138.386 377.875 135.986 377.752 135.049L377.741 135.015Z" fill="#FFDE66"/>
<path d="M265.281 192.606V254.014L317.969 192.606H265.281Z" fill="#FFDE66"/>
<path d="M265.281 192.606L317.969 254.014V192.606H265.281Z" fill="#BACCFF"/>
<path d="M578.453 166.687L453.488 167.929L454.475 267.046L579.44 265.804L578.453 166.687Z" fill="white" stroke="black" stroke-linejoin="round"/>
<path d="M578.442 166.702L453.477 167.944L453.735 193.881L578.7 192.639L578.442 166.702Z" fill="#FFDE66" stroke="black" stroke-miterlimit="10"/>
<path d="M477.488 243.887L459.613 244.065L459.791 261.922L477.666 261.744L477.488 243.887Z" fill="#E4EBF5"/>
<path d="M477.488 221.388L459.613 221.565L459.791 239.422L477.666 239.245L477.488 221.388Z" fill="#E4EBF5"/>
<path d="M477.488 198.888L459.613 199.066L459.791 216.923L477.666 216.745L477.488 198.888Z" fill="#E4EBF5"/>
<path d="M500.759 243.879L482.885 244.057L483.063 261.914L500.937 261.736L500.759 243.879Z" fill="#E4EBF5"/>
<path d="M500.757 221.391L482.883 221.568L483.061 239.425L500.935 239.248L500.757 221.391Z" fill="#E4EBF5"/>
<path d="M500.757 198.891L482.883 199.069L483.061 216.926L500.935 216.748L500.757 198.891Z" fill="#E4EBF5"/>
<path d="M524.017 243.882L506.143 244.06L506.32 261.917L524.195 261.739L524.017 243.882Z" fill="#E4EBF5"/>
<path d="M524.017 221.394L506.143 221.572L506.32 239.428L524.195 239.251L524.017 221.394Z" fill="#E4EBF5"/>
<path d="M524.017 198.895L506.143 199.072L506.32 216.929L524.195 216.751L524.017 198.895Z" fill="#E4EBF5"/>
<path d="M547.289 243.886L529.414 244.063L529.592 261.92L547.466 261.742L547.289 243.886Z" fill="#E4EBF5"/>
<path d="M547.289 221.397L529.414 221.575L529.592 239.432L547.466 239.254L547.289 221.397Z" fill="#E4EBF5"/>
<path d="M547.298 198.898L529.424 199.075L529.602 216.932L547.476 216.754L547.298 198.898Z" fill="#E4EBF5"/>
<path d="M570.558 243.889L552.684 244.066L552.861 261.923L570.736 261.745L570.558 243.889Z" fill="#E4EBF5"/>
<path d="M570.57 221.4L552.695 221.578L552.873 239.435L570.748 239.257L570.57 221.4Z" fill="#E4EBF5"/>
<path d="M570.568 198.89L552.693 199.067L552.871 216.924L570.746 216.746L570.568 198.89Z" fill="#E4EBF5"/>
<path d="M480.301 159.486L478.558 159.504C477.515 159.514 476.678 160.367 476.689 161.408L476.814 174.009C476.825 175.05 477.678 175.886 478.721 175.876L480.464 175.859C481.506 175.848 482.343 174.995 482.333 173.954L482.207 161.354C482.197 160.312 481.343 159.476 480.301 159.486Z" fill="black" stroke="#1D1E1C" stroke-miterlimit="10"/>
<path d="M514.46 159.147L516.203 159.129C517.242 159.119 518.099 159.959 518.11 160.997L518.235 173.608C518.246 174.646 517.405 175.503 516.366 175.513L514.623 175.53C513.584 175.541 512.727 174.701 512.717 173.663L512.591 161.052C512.581 160.014 513.421 159.157 514.46 159.147Z" fill="black" stroke="#1D1E1C" stroke-miterlimit="10"/>
<path d="M552.109 158.754L550.367 158.772C549.324 158.782 548.487 159.635 548.498 160.677L548.625 173.277C548.636 174.319 549.49 175.155 550.532 175.144L552.275 175.127C553.318 175.116 554.155 174.263 554.144 173.221L554.016 160.621C554.006 159.579 553.152 158.744 552.109 158.754Z" fill="black" stroke="#1D1E1C" stroke-miterlimit="10"/>
<path d="M112.763 160.247C138.43 134.605 138.43 93.0313 112.763 67.3893C87.0953 41.7473 45.4803 41.7473 19.8128 67.3893C-5.85456 93.0313 -5.85456 134.605 19.8129 160.247C45.4803 185.889 87.0953 185.889 112.763 160.247Z" fill="#FFEFB0" stroke="black" stroke-miterlimit="10"/>
<path d="M107.722 155.212C130.606 132.351 130.606 95.2856 107.722 72.4244C84.8386 49.5633 47.7366 49.5633 24.8528 72.4244C1.96898 95.2856 1.96898 132.351 24.8528 155.212C47.7366 178.073 84.8386 178.073 107.722 155.212Z" fill="white" stroke="black" stroke-miterlimit="10"/>
<path d="M91.2766 106.041L65.1562 115.327L67.4577 78.9756L69.5357 79.0983L67.4242 112.314L90.584 104.088L91.2766 106.041Z" fill="black" stroke="black" stroke-linejoin="round"/>
<path d="M150.879 184.135L154.733 174.38C155.102 173.454 156.409 173.454 156.767 174.38L160.621 184.135C160.733 184.414 160.956 184.637 161.236 184.749L171 188.599C171.927 188.968 171.927 190.274 171 190.631L161.236 194.481C160.956 194.593 160.733 194.816 160.621 195.095L156.767 204.85C156.398 205.776 155.091 205.776 154.733 204.85L150.879 195.095C150.767 194.816 150.544 194.593 150.265 194.481L140.5 190.631C139.573 190.262 139.573 188.957 140.5 188.599L150.265 184.749C150.544 184.637 150.767 184.414 150.879 184.135Z" fill="white" stroke="black" stroke-miterlimit="10"/>
<path d="M497.348 80.1475L501.202 70.3927C501.571 69.4663 502.878 69.4663 503.235 70.3927L507.09 80.1475C507.202 80.4265 507.425 80.6497 507.704 80.7613L517.469 84.6119C518.396 84.9802 518.396 86.286 517.469 86.6432L507.704 90.4938C507.425 90.6054 507.202 90.8286 507.09 91.1076L503.235 100.862C502.867 101.789 501.56 101.789 501.202 100.862L497.348 91.1076C497.236 90.8286 497.013 90.6054 496.733 90.4938L486.969 86.6432C486.042 86.2749 486.042 84.969 486.969 84.6119L496.733 80.7613C497.013 80.6497 497.236 80.4265 497.348 80.1475Z" fill="white" stroke="black" stroke-miterlimit="10"/>
<path d="M469.921 336.974C475.998 336.974 480.925 332.052 480.925 325.981C480.925 319.909 475.998 314.987 469.921 314.987C463.843 314.987 458.916 319.909 458.916 325.981C458.916 332.052 463.843 336.974 469.921 336.974Z" fill="#E4EBF5" stroke="black" stroke-miterlimit="10"/>
<path d="M106.743 254.015L91.2754 238.563L75.8074 254.015L91.2754 269.468L106.743 254.015Z" fill="#FFDE66" stroke="black" stroke-miterlimit="10"/>
</g>
<defs>
<clipPath id="clip0_9215_21481">
<rect width="580" height="375" fill="white"/>
</clipPath>
</defs>
</svg>
