<svg width="341" height="340" viewBox="0 0 341 340" fill="none" xmlns="http://www.w3.org/2000/svg">
<rect width="340" height="340" rx="170" fill="#E4EBF5"/>
<path d="M0 194.927L76.5753 118.633V267.798L0 194.927Z" fill="#FFDE66"/>
<path d="M111.331 170.107L92.7731 176.925L104.676 209.14L122.863 202.466C126.45 208.718 130.726 214.552 135.611 219.859L124.122 235.156L151.709 255.742L163.039 240.681C171.537 244.998 180.629 248.039 190.02 249.705V268.429H224.493V249.705C234.357 247.962 243.886 244.689 252.733 240.005L264.265 254.909L291.549 233.93L279.829 218.806C286.418 211.426 291.838 203.087 295.902 194.079L314.753 199.005L323.484 165.779L304.201 160.743C304.335 158.651 304.436 156.559 304.436 154.433C304.428 148.412 303.859 142.405 302.735 136.489L321.721 129.519L309.799 97.2745L290.449 104.398C286.849 98.4812 282.622 92.9663 277.84 87.9484L290.357 71.2973L262.761 50.7109L250.119 67.5391C242.001 63.5804 233.37 60.7655 224.473 59.1753V38H190.02V59.1609C180.654 60.8193 171.586 63.8508 163.111 68.1567L150.224 51.5296L122.94 72.4847L135.669 88.9394C129.162 95.9897 123.739 103.961 119.576 112.595L99.731 107.443L91 140.65L110.466 145.744C110.211 148.592 110.057 151.489 110.057 154.433C110.066 159.683 110.491 164.924 111.331 170.107ZM141.06 153.207C141.061 140.166 144.944 127.418 152.216 116.575C159.489 105.732 169.826 97.2813 181.919 92.2913C194.012 87.3013 207.319 85.9961 220.156 88.5409C232.994 91.0857 244.786 97.3662 254.041 106.588C263.296 115.81 269.599 127.559 272.152 140.35C274.706 153.141 273.395 166.398 268.386 178.447C263.376 190.495 254.894 200.793 244.01 208.039C233.127 215.284 220.331 219.151 207.242 219.151C198.55 219.152 189.943 217.447 181.913 214.134C173.882 210.82 166.586 205.963 160.44 199.839C154.294 193.715 149.419 186.445 146.094 178.444C142.769 170.443 141.058 161.867 141.06 153.207Z" fill="white"/>
<path d="M280.06 197.886L248.826 197.742C247.024 197.736 245.297 197.016 244.027 195.743C242.756 194.469 242.046 192.744 242.051 190.948L242.382 113.108C242.387 112.218 242.567 111.338 242.913 110.517C243.259 109.697 243.765 108.953 244.4 108.327C245.035 107.702 245.787 107.207 246.614 106.871C247.442 106.536 248.327 106.366 249.22 106.372L280.454 106.515C281.348 106.517 282.233 106.695 283.058 107.038C283.883 107.381 284.632 107.883 285.263 108.515C285.893 109.147 286.392 109.896 286.731 110.72C287.07 111.545 287.242 112.428 287.239 113.318L286.907 191.159C286.901 192.049 286.72 192.929 286.373 193.749C286.025 194.568 285.519 195.312 284.883 195.937C284.247 196.561 283.494 197.055 282.666 197.39C281.839 197.724 280.953 197.892 280.06 197.886Z" fill="black" stroke="black" stroke-miterlimit="10"/>
<path d="M280.422 109.201L274.363 109.172C273.964 109.18 273.585 109.344 273.307 109.63C273.03 109.915 272.877 110.298 272.883 110.695V111.786C272.887 111.983 272.852 112.179 272.781 112.363C272.71 112.546 272.602 112.714 272.466 112.856C272.329 112.998 272.166 113.112 271.985 113.192C271.804 113.271 271.61 113.314 271.412 113.318L259.601 113.266C259.207 113.248 258.835 113.078 258.566 112.79C258.296 112.503 258.15 112.122 258.159 111.729V110.637C258.168 110.24 258.019 109.856 257.745 109.568C257.47 109.28 257.092 109.112 256.694 109.101H254.565L249.279 109.077C248.653 109.071 248.031 109.189 247.451 109.423C246.87 109.657 246.341 110.003 245.895 110.441C245.448 110.879 245.093 111.401 244.849 111.976C244.605 112.551 244.478 113.168 244.474 113.792L244.152 189.776C244.15 190.398 244.272 191.015 244.509 191.59C244.746 192.166 245.095 192.69 245.535 193.131C245.976 193.573 246.499 193.923 247.076 194.163C247.652 194.403 248.27 194.528 248.895 194.53L280.085 194.673C280.713 194.676 281.336 194.556 281.917 194.318C282.498 194.08 283.025 193.73 283.47 193.288C283.914 192.846 284.267 192.321 284.506 191.743C284.746 191.165 284.869 190.545 284.867 189.919L285.189 113.941C285.189 113.317 285.066 112.7 284.827 112.124C284.587 111.548 284.236 111.025 283.793 110.585C283.35 110.144 282.825 109.795 282.246 109.558C281.667 109.321 281.048 109.199 280.422 109.201Z" fill="white" stroke="black" stroke-miterlimit="10"/>
<path d="M264.711 137.802V144.131L270.15 137.802H264.711Z" fill="#FFDE66"/>
<path d="M264.711 137.802L270.15 144.131V137.802H264.711Z" fill="#BACCFF"/>
<path d="M271.571 140.229V137.836C272.672 137.836 273.728 137.4 274.506 136.624C275.285 135.848 275.722 134.796 275.722 133.699C275.722 132.602 275.285 131.55 274.506 130.774C273.728 129.998 272.672 129.563 271.571 129.563C271.161 129.563 270.753 129.621 270.36 129.735L269.053 130.113L268.832 128.773C268.664 127.789 268.15 126.897 267.381 126.258C266.611 125.619 265.638 125.275 264.637 125.287V122.894C265.996 122.888 267.324 123.298 268.441 124.068C269.558 124.839 270.411 125.933 270.883 127.202C271.105 127.179 271.328 127.168 271.551 127.169C272.413 127.169 273.267 127.338 274.063 127.667C274.86 127.995 275.583 128.477 276.193 129.084C276.802 129.692 277.286 130.413 277.616 131.206C277.945 131.999 278.115 132.85 278.115 133.709C278.115 134.567 277.945 135.418 277.616 136.211C277.286 137.005 276.802 137.726 276.193 138.333C275.583 138.94 274.86 139.422 274.063 139.751C273.267 140.079 272.413 140.248 271.551 140.248" fill="#FFDE66"/>
<path d="M271.563 134.546H264.711V135.748H271.563V134.546Z" fill="#FFDE66"/>
<path d="M272.674 132.143H264.707V133.345H272.674V132.143Z" fill="#BACCFF"/>
<path d="M257.716 140.229C255.975 140.229 254.306 139.54 253.075 138.314C251.844 137.087 251.152 135.424 251.152 133.689C251.152 131.955 251.844 130.292 253.075 129.065C254.306 127.839 255.975 127.15 257.716 127.15C257.939 127.149 258.162 127.16 258.384 127.183C258.857 125.914 259.709 124.82 260.827 124.049C261.944 123.278 263.272 122.868 264.631 122.874V125.268C263.63 125.255 262.657 125.599 261.888 126.237C261.119 126.875 260.604 127.766 260.436 128.749L260.22 130.089L258.908 129.711C258.514 129.597 258.107 129.539 257.697 129.539C256.596 129.539 255.54 129.974 254.761 130.75C253.983 131.526 253.545 132.578 253.545 133.675C253.545 134.772 253.983 135.824 254.761 136.6C255.54 137.376 256.596 137.811 257.697 137.811L263.281 137.788V140.181L257.716 140.229Z" fill="#BACCFF"/>
<path d="M277.903 178.305H251.383V190.843H277.903V178.305Z" fill="#BACCFF"/>
<path d="M277.903 167.03H251.383V167.963H277.903V167.03Z" fill="black"/>
<path d="M277.903 163.209H251.383V164.143H277.903V163.209Z" fill="black"/>
<path d="M277.903 159.394H251.383V160.327H277.903V159.394Z" fill="black"/>
<path d="M277.903 153.309H251.383V156.368H277.903V153.309Z" fill="black"/>
<path d="M277.903 170.85H251.383V171.784H277.903V170.85Z" fill="black"/>
<path d="M177.398 94.4603V164.186C177.398 165.788 176.76 167.325 175.622 168.458C174.485 169.591 172.943 170.228 171.334 170.228H65.6204C64.0154 170.222 62.4784 169.582 61.3462 168.448C60.214 167.315 59.579 165.78 59.5803 164.181V94.4603C59.5803 92.8579 60.2192 91.3212 61.3564 90.1881C62.4937 89.055 64.0361 88.4185 65.6444 88.4185H171.358C172.962 88.426 174.498 89.0658 175.629 90.1979C176.761 91.33 177.397 92.8625 177.398 94.4603Z" fill="#E4EBF5" stroke="black" stroke-miterlimit="10"/>
<path d="M169.336 167.657V91.0038H70.9259V167.657H169.336Z" fill="white" stroke="black" stroke-miterlimit="10"/>
<path d="M65.4812 132.469C64.8576 132.47 64.2477 132.286 63.7287 131.942C63.2096 131.597 62.8049 131.107 62.5655 130.533C62.3262 129.959 62.2631 129.328 62.3842 128.718C62.5053 128.109 62.8051 127.549 63.2458 127.109C63.6864 126.669 64.2481 126.37 64.8597 126.248C65.4713 126.127 66.1053 126.188 66.6816 126.426C67.2579 126.664 67.7505 127.066 68.097 127.583C68.4436 128.099 68.6286 128.707 68.6286 129.328C68.6286 130.16 68.2972 130.958 67.7071 131.547C67.1169 132.136 66.3164 132.467 65.4812 132.469Z" fill="white" stroke="black" stroke-miterlimit="10"/>
<path d="M174.004 141.01V117.642C174.004 117.29 173.718 117.005 173.365 117.005H173.341C172.988 117.005 172.702 117.29 172.702 117.642V141.01C172.702 141.361 172.988 141.646 173.341 141.646H173.365C173.718 141.646 174.004 141.361 174.004 141.01Z" fill="white" stroke="black" stroke-miterlimit="10"/>
<path d="M71.2617 131.523L71.2617 167.254L107.075 167.204C107.075 147.498 91.0407 131.523 71.2617 131.523Z" fill="#FFF1CC"/>
<path d="M105.671 96.6675H149.067C149.494 96.6675 149.916 96.7516 150.31 96.915C150.704 97.0784 151.062 97.3179 151.362 97.6196C151.663 97.9214 151.901 98.2794 152.062 98.6731C152.223 99.0667 152.304 99.4883 152.301 99.9134V134.144C152.301 134.567 152.217 134.986 152.055 135.377C151.892 135.768 151.654 136.123 151.354 136.423C151.053 136.722 150.697 136.959 150.305 137.121C149.912 137.283 149.492 137.366 149.067 137.366H124.638L125.296 144.983L116.339 137.366H105.671C104.814 137.366 103.991 137.027 103.385 136.423C102.778 135.818 102.438 134.999 102.438 134.144V99.9134C102.434 99.4883 102.516 99.0667 102.677 98.6731C102.838 98.2794 103.076 97.9214 103.376 97.6196C103.677 97.3179 104.034 97.0784 104.428 96.915C104.822 96.7516 105.245 96.6675 105.671 96.6675Z" fill="#FFEFB0"/>
<path d="M211.79 196.311H49.2405C44.6441 196.311 40.918 200.023 40.918 204.603V306.084C40.918 310.664 44.6441 314.376 49.2405 314.376H211.79C216.387 314.376 220.113 310.664 220.113 306.084V204.603C220.113 200.023 216.387 196.311 211.79 196.311Z" fill="#BACCFF" stroke="black" stroke-miterlimit="10"/>
<path d="M33.4267 305.644H227.556V305.84C227.556 308.528 226.484 311.106 224.576 313.007C222.669 314.907 220.081 315.975 217.383 315.975H43.5944C40.8965 315.975 38.3091 314.907 36.4013 313.007C34.4936 311.106 33.4219 308.528 33.4219 305.84V305.644H33.4267Z" fill="#BACCFF" stroke="black" stroke-miterlimit="10"/>
<path d="M214.802 201.002H45.7266V300.708H214.802V201.002Z" fill="white" stroke="black" stroke-miterlimit="10"/>
<path d="M112.852 305.644L115.264 309.459H149.159L151.399 305.644H112.852Z" fill="#DBE0F1" stroke="black" stroke-miterlimit="10"/>
<path d="M207.031 207.638H51.3672V300.665H207.031V207.638Z" fill="white" stroke="black" stroke-miterlimit="10"/>
<path d="M60.9027 218.343C62.7948 218.343 64.3287 216.814 64.3287 214.929C64.3287 213.044 62.7948 211.516 60.9027 211.516C59.0105 211.516 57.4766 213.044 57.4766 214.929C57.4766 216.814 59.0105 218.343 60.9027 218.343Z" fill="black" stroke="black" stroke-miterlimit="10"/>
<path d="M70.9925 218.343C72.8847 218.343 74.4186 216.814 74.4186 214.929C74.4186 213.044 72.8847 211.516 70.9925 211.516C69.1003 211.516 67.5664 213.044 67.5664 214.929C67.5664 216.814 69.1003 218.343 70.9925 218.343Z" fill="white" stroke="black" stroke-miterlimit="10"/>
<path d="M81.0823 218.343C82.9745 218.343 84.5084 216.814 84.5084 214.929C84.5084 213.044 82.9745 211.516 81.0823 211.516C79.1902 211.516 77.6562 213.044 77.6562 214.929C77.6562 216.814 79.1902 218.343 81.0823 218.343Z" fill="#DBE0F1" stroke="black" stroke-miterlimit="10"/>
<path d="M51.1016 222.12H206.962" stroke="black" stroke-miterlimit="10"/>
<path d="M109.752 233.62H60.4844V235.99H109.752V233.62Z" fill="#E4EBF5"/>
<path d="M120.645 251.812H60.4844V254.182H120.645V251.812Z" fill="#E4EBF5"/>
<path d="M109.752 270.005H60.4844V272.375H109.752V270.005Z" fill="#E4EBF5"/>
<path d="M120.645 279.101H60.4844V281.471H120.645V279.101Z" fill="#E4EBF5"/>
<path d="M127.589 242.778H60.4844V245.024H127.589V242.778Z" fill="#E4EBF5"/>
<path d="M127.589 260.971H60.4844V263.216H127.589V260.971Z" fill="#E4EBF5"/>
<path d="M113.067 288.26H60.4844V290.505H113.067V288.26Z" fill="#E4EBF5"/>
<path d="M152.395 142.973L156.34 175.188L154.595 190.029L178.89 190.886L179.539 179.276C179.539 179.276 191.552 177.917 192.032 170.242C192.119 168.859 190.692 160.246 190.692 160.246L192.614 159.815C192.786 159.777 192.947 159.698 193.083 159.585C193.218 159.473 193.325 159.33 193.395 159.168C193.464 159.006 193.494 158.83 193.482 158.655C193.47 158.479 193.416 158.309 193.325 158.159C191.85 155.765 188.866 150.68 188.433 148.536C186.458 138.822 184.411 129.606 184.411 129.606L152.395 142.973Z" fill="white" stroke="black" stroke-linecap="round" stroke-linejoin="round"/>
<path d="M191.166 164.971C189.09 165.642 186.842 164.88 185.141 162.941" stroke="black" stroke-miterlimit="10" stroke-linecap="round"/>
<path d="M237.837 227.549L237.164 227.429L250.979 203.367L248.793 196.435C248.793 196.435 246.265 186.553 248.375 184.03C248.375 184.03 259.426 168.581 260.902 168.653C262.377 168.725 262.636 172.004 257.476 180.186C257.476 180.186 260.022 179.889 260.695 180.708C261.142 181.271 261.542 181.87 261.892 182.498C261.892 182.498 264.683 182.259 265.409 184.653C265.409 184.653 268.033 185.993 268.254 187.932C268.475 189.871 267.73 198.896 266.908 201.208C266.086 203.52 263.016 208.365 262.103 215.523C261.19 222.68 258.043 227.329 255.227 237.79L247.582 240.801L237.837 227.549Z" fill="white" stroke="black" stroke-miterlimit="10"/>
<path d="M123.892 216.217C123.892 216.217 115.43 264.126 115.839 268.607C116.247 273.088 118.501 280.212 123.609 281.433C126.838 282.152 130.187 282.152 133.416 281.433L127.284 222.589L123.892 216.217Z" fill="#E4EBF5" stroke="black" stroke-miterlimit="10"/>
<path d="M151.761 190.211C151.761 190.211 138.552 198.68 136.313 200.792C126.948 209.62 124.987 213.239 123.896 216.217C122.805 219.195 130.398 288.566 130.398 288.566L131.935 300.688L203.052 300.87V238.948L192.37 195.382L180.593 189.378V184.591C180.593 184.591 178.19 179.98 164.735 179.803C160.593 179.75 155.063 181.014 151.79 183.547L151.761 190.211Z" fill="black" stroke="black" stroke-miterlimit="10"/>
<path d="M181.496 201.831C182.414 199.843 183.898 198.168 185.764 197.014C187.63 195.861 189.796 195.28 191.991 195.343C192.118 195.343 192.245 195.353 192.37 195.372C194.624 195.894 200.808 201.543 207.853 208.504C214.58 215.149 230.053 232.222 230.053 232.222L247.029 208.394L265.063 222.561C265.063 222.561 256.664 237.479 252.728 244.009C252.728 244.009 238.164 268.09 226.66 263.729C216.151 259.745 202.975 249.093 201.121 246.819L193.086 241.107C187.465 237.111 183.26 231.442 181.073 224.916C178.94 218.544 177.34 210.764 179.733 205.622L181.496 201.831Z" fill="#DBE0F1" stroke="black" stroke-miterlimit="10"/>
<path d="M173.966 154.037C173.966 154.037 170.847 152.543 170.035 155.88C169.223 159.217 171.193 161.984 173.274 161.754C175.355 161.524 175.124 165.924 173.62 167.423C172.116 168.921 168.262 167.652 168.421 171.683C168.728 179.674 158.883 183.399 156.341 177.639C152.698 169.385 143.602 179.075 142.987 170.42C142.324 161.132 149.83 160.883 144.976 155.674C140.003 150.341 138.773 141.589 144.395 138.281C147.725 136.328 146.106 128.146 154.433 129.759C154.433 129.759 155.851 125.776 159.517 123.655C165.951 119.935 164.245 125.053 175.662 122.219C180.636 120.993 185.181 127.207 188.766 126.049C192.351 124.89 189.804 123.976 185.402 123.655C185.402 123.655 184.249 119.854 191.529 120.658C198.809 121.462 198.122 127.801 196.156 130.798C194.191 133.795 191.106 132.947 188.91 132.833C186.714 132.718 187.675 137.668 183.98 139.741C180.285 141.814 175.307 138.693 172.904 139.128C170.501 139.564 169.934 143.81 171.323 144.964C172.712 146.118 177.229 146.669 173.966 154.037Z" fill="#FFDE66" stroke="black" stroke-miterlimit="10"/>
<path d="M183.731 152.49C184.413 152.49 184.966 151.939 184.966 151.26C184.966 150.58 184.413 150.029 183.731 150.029C183.049 150.029 182.496 150.58 182.496 151.26C182.496 151.939 183.049 152.49 183.731 152.49Z" fill="black" stroke="black" stroke-linecap="round" stroke-linejoin="round"/>
</svg>
