<svg width="126" height="24" viewBox="0 0 126 24" fill="none" xmlns="http://www.w3.org/2000/svg">
<path fill-rule="evenodd" clip-rule="evenodd" d="M19 20.5H6V18.5H5V20.5V21.5H6H19H20V20.5V6L16 2H6H5V3V11.5H6V3H15.5858L19 6.41421V20.5Z" fill="#1D1D1B"/>
<rect x="2.25" y="11.75" width="11.5" height="6.5" stroke="#1D1D1B" stroke-width="0.5"/>
<path d="M6.187 14.3041C6.187 14.4631 6.1495 14.6131 6.0745 14.7541C5.9995 14.8951 5.8795 15.0106 5.7145 15.1006C5.5495 15.1876 5.338 15.2311 5.08 15.2311H4.513V16.5001H4V13.3726H5.08C5.32 13.3726 5.5225 13.4146 5.6875 13.4986C5.8555 13.5796 5.98 13.6906 6.061 13.8316C6.145 13.9726 6.187 14.1301 6.187 14.3041ZM5.08 14.8126C5.275 14.8126 5.4205 14.7691 5.5165 14.6821C5.6125 14.5921 5.6605 14.4661 5.6605 14.3041C5.6605 13.9621 5.467 13.7911 5.08 13.7911H4.513V14.8126H5.08Z" fill="#1D1D1B"/>
<path d="M7.83277 13.3726C8.16577 13.3726 8.45677 13.4371 8.70577 13.5661C8.95777 13.6921 9.15127 13.8751 9.28627 14.1151C9.42427 14.3521 9.49327 14.6296 9.49327 14.9476C9.49327 15.2656 9.42427 15.5416 9.28627 15.7756C9.15127 16.0096 8.95777 16.1896 8.70577 16.3156C8.45677 16.4386 8.16577 16.5001 7.83277 16.5001H6.81127V13.3726H7.83277ZM7.83277 16.0816C8.19877 16.0816 8.47927 15.9826 8.67427 15.7846C8.86927 15.5866 8.96677 15.3076 8.96677 14.9476C8.96677 14.5846 8.86927 14.3011 8.67427 14.0971C8.47927 13.8931 8.19877 13.7911 7.83277 13.7911H7.32427V16.0816H7.83277Z" fill="#1D1D1B"/>
<path d="M11.9772 13.3726V13.7911H10.6497V14.7136H11.6847V15.1321H10.6497V16.5001H10.1367V13.3726H11.9772Z" fill="#1D1D1B"/>
<path d="M36.326 7.686C38.006 7.67667 39.3267 8.05467 40.288 8.82C41.2493 9.58533 41.73 10.724 41.73 12.236C41.73 13.1787 41.52 14.0513 41.1 14.854C40.68 15.6473 40.05 16.2867 39.21 16.772C38.3793 17.2573 37.3713 17.5 36.186 17.5H32.56L32.588 17.038C32.9147 17.0287 33.148 16.954 33.288 16.814C33.4373 16.674 33.526 16.506 33.554 16.31C33.5913 16.114 33.6193 15.7827 33.638 15.316L33.974 9.268C34.0113 8.80133 34.044 8.46533 34.072 8.26L33.036 8.316L33.078 7.7L36.326 7.686ZM36.242 8.204C35.8967 8.204 35.6447 8.26 35.486 8.372C35.3367 8.47467 35.2387 8.62867 35.192 8.834C35.1453 9.03 35.1127 9.34733 35.094 9.786L34.772 15.848C34.744 16.3707 34.7113 16.7347 34.674 16.94C35.0847 16.9587 35.584 16.968 36.172 16.968C37.0027 16.968 37.74 16.758 38.384 16.338C39.028 15.918 39.5273 15.344 39.882 14.616C40.246 13.888 40.428 13.076 40.428 12.18C40.428 10.9387 40.078 9.968 39.378 9.268C38.678 8.55867 37.6327 8.204 36.242 8.204ZM46.3399 10.346C46.8439 10.346 47.2966 10.4673 47.6979 10.71C48.1086 10.9527 48.4259 11.3073 48.6499 11.774C48.8833 12.2313 48.9999 12.7773 48.9999 13.412C48.9999 14.1773 48.8599 14.882 48.5799 15.526C48.3093 16.17 47.9126 16.688 47.3899 17.08C46.8766 17.4627 46.2699 17.654 45.5699 17.654C44.6833 17.654 44.0113 17.3647 43.5539 16.786C43.1059 16.198 42.8819 15.442 42.8819 14.518C42.8819 13.7527 43.0219 13.0527 43.3019 12.418C43.5819 11.7833 43.9833 11.2793 44.5059 10.906C45.0286 10.5327 45.6399 10.346 46.3399 10.346ZM46.1159 10.864C45.7053 10.864 45.3459 11.0133 45.0379 11.312C44.7393 11.6013 44.5106 12.0027 44.3519 12.516C44.1933 13.02 44.1139 13.5847 44.1139 14.21C44.1139 14.9847 44.2399 15.666 44.4919 16.254C44.7439 16.8327 45.1546 17.122 45.7239 17.122C46.1999 17.122 46.5873 16.94 46.8859 16.576C47.1939 16.212 47.4179 15.764 47.5579 15.232C47.6979 14.7 47.7679 14.182 47.7679 13.678C47.7679 12.894 47.6419 12.2313 47.3899 11.69C47.1473 11.1393 46.7226 10.864 46.1159 10.864ZM58.5967 10.346C59.1381 10.346 59.5534 10.5793 59.8427 11.046C60.1321 11.5127 60.2767 12.096 60.2767 12.796C60.2767 13.412 60.1601 14.042 59.9267 14.686C59.6094 15.554 59.1334 16.268 58.4987 16.828C57.8641 17.3787 57.1641 17.654 56.3987 17.654C55.9974 17.654 55.6567 17.5233 55.3767 17.262C55.1061 17.0007 54.9707 16.5573 54.9707 15.932C54.9707 15.764 54.9754 15.6333 54.9847 15.54H54.9567C54.7607 16.1187 54.4341 16.618 53.9767 17.038C53.5194 17.4487 53.0434 17.654 52.5487 17.654C52.0354 17.654 51.6621 17.4907 51.4287 17.164C51.2047 16.828 51.0927 16.3847 51.0927 15.834C51.0927 15.4607 51.1161 15.0313 51.1627 14.546C51.2094 14.0607 51.2607 13.6033 51.3167 13.174C51.4101 12.3713 51.4567 11.8813 51.4567 11.704C51.4567 11.4893 51.4287 11.326 51.3727 11.214C51.3261 11.102 51.2281 11.046 51.0787 11.046C50.9107 11.046 50.7381 11.158 50.5607 11.382C50.3834 11.5967 50.2294 11.9373 50.0987 12.404L49.7067 12.32C49.7907 11.8627 49.9821 11.4193 50.2807 10.99C50.5887 10.5607 50.9901 10.346 51.4847 10.346C51.8581 10.346 52.1381 10.4627 52.3247 10.696C52.5207 10.9293 52.6187 11.2653 52.6187 11.704C52.6187 12.2267 52.5441 13.0947 52.3947 14.308C52.2921 15.2133 52.2407 15.8013 52.2407 16.072C52.2407 16.3147 52.2874 16.5153 52.3807 16.674C52.4741 16.8327 52.6281 16.912 52.8427 16.912C53.2534 16.912 53.6454 16.716 54.0187 16.324C54.3921 15.932 54.6954 15.372 54.9287 14.644C55.1621 13.9067 55.2787 13.048 55.2787 12.068C55.2787 11.5453 55.2461 11.0227 55.1807 10.5H56.3847C56.4221 10.64 56.4407 10.85 56.4407 11.13C56.4407 11.578 56.4174 12.0167 56.3707 12.446C56.3241 12.866 56.2587 13.3607 56.1747 13.93C56.1281 14.2753 56.0814 14.616 56.0347 14.952C55.9974 15.288 55.9787 15.582 55.9787 15.834C55.9787 16.1607 56.0347 16.4267 56.1467 16.632C56.2587 16.828 56.4594 16.926 56.7487 16.926C57.2714 16.926 57.7801 16.6833 58.2747 16.198C58.7694 15.7127 59.1381 15.1013 59.3807 14.364C59.4367 14.1867 59.4834 13.9673 59.5207 13.706C59.5674 13.4353 59.5907 13.1647 59.5907 12.894C59.5907 12.0167 59.3667 11.48 58.9187 11.284C58.8161 11.5173 58.6247 11.634 58.3447 11.634C58.1954 11.634 58.0601 11.5827 57.9387 11.48C57.8174 11.3773 57.7567 11.228 57.7567 11.032C57.7567 10.8547 57.8221 10.696 57.9527 10.556C58.0927 10.416 58.3074 10.346 58.5967 10.346ZM66.3917 10.346C66.9143 10.346 67.297 10.514 67.5397 10.85C67.7917 11.186 67.9177 11.6247 67.9177 12.166C67.9177 12.7913 67.829 13.6873 67.6517 14.854C67.549 15.5913 67.4977 16.0767 67.4977 16.31C67.4977 16.5153 67.521 16.674 67.5677 16.786C67.6237 16.898 67.7263 16.954 67.8757 16.954C68.053 16.954 68.235 16.8467 68.4217 16.632C68.6083 16.408 68.767 16.0627 68.8977 15.596L69.2897 15.694C69.243 15.9553 69.1403 16.24 68.9817 16.548C68.8323 16.8467 68.627 17.108 68.3657 17.332C68.1137 17.5467 67.815 17.654 67.4697 17.654C67.0497 17.654 66.7557 17.5467 66.5877 17.332C66.4197 17.108 66.3357 16.7673 66.3357 16.31C66.3357 15.9647 66.3963 15.3487 66.5177 14.462C66.6857 13.3233 66.7697 12.4553 66.7697 11.858C66.7697 11.6433 66.7183 11.4473 66.6157 11.27C66.5223 11.0927 66.3543 11.004 66.1117 11.004C65.701 11.004 65.281 11.3167 64.8517 11.942C64.4223 12.558 64.063 13.3233 63.7737 14.238C63.4937 15.1433 63.3537 15.9833 63.3537 16.758C63.3537 16.9353 63.363 17.1827 63.3817 17.5H62.2057C62.1963 17.416 62.1917 17.2947 62.1917 17.136C62.1917 16.912 62.2103 16.5993 62.2477 16.198C62.2943 15.7967 62.3597 15.2693 62.4437 14.616C62.4437 14.56 62.453 14.4667 62.4717 14.336C62.481 14.2147 62.495 14.0887 62.5137 13.958C62.5323 13.8273 62.5463 13.6967 62.5557 13.566C62.621 12.9967 62.6677 12.5813 62.6957 12.32C62.7237 12.0587 62.7377 11.844 62.7377 11.676C62.7377 11.48 62.7097 11.326 62.6537 11.214C62.607 11.102 62.509 11.046 62.3597 11.046C62.1823 11.046 62.0003 11.158 61.8137 11.382C61.627 11.606 61.4683 11.9467 61.3377 12.404L60.9457 12.32C60.9923 12.0587 61.0903 11.774 61.2397 11.466C61.3983 11.158 61.6037 10.8967 61.8557 10.682C62.117 10.458 62.4203 10.346 62.7657 10.346C63.4657 10.346 63.8157 10.8267 63.8157 11.788C63.8157 12.0587 63.7877 12.3573 63.7317 12.684C63.685 13.0013 63.6383 13.286 63.5917 13.538H63.6337C64.0817 12.3433 64.525 11.5127 64.9637 11.046C65.4117 10.5793 65.8877 10.346 66.3917 10.346ZM72.3029 7.924C72.1909 8.57733 72.1209 9.03933 72.0929 9.31C71.9436 10.402 71.7989 11.6713 71.6589 13.118C71.5283 14.5553 71.4629 15.5913 71.4629 16.226C71.4629 16.4593 71.4863 16.6413 71.5329 16.772C71.5796 16.8933 71.6823 16.954 71.8409 16.954C72.0183 16.954 72.2003 16.8467 72.3869 16.632C72.5736 16.408 72.7323 16.0627 72.8629 15.596L73.2549 15.694C73.2083 15.9553 73.1103 16.24 72.9609 16.548C72.8116 16.8467 72.6063 17.108 72.3449 17.332C72.0929 17.5467 71.7943 17.654 71.4489 17.654C71.0569 17.654 70.7723 17.5513 70.5949 17.346C70.4176 17.1407 70.3289 16.828 70.3289 16.408C70.3289 15.792 70.4083 14.658 70.5669 13.006C70.7349 11.354 70.9076 9.87467 71.0849 8.568L71.2109 7.812L70.2169 7.868L70.2869 7.308C70.8376 7.308 71.2343 7.27533 71.4769 7.21C71.7196 7.14467 71.9156 7.05133 72.0649 6.93H72.4569L72.3029 7.924ZM77.4298 10.346C77.9338 10.346 78.3864 10.4673 78.7878 10.71C79.1984 10.9527 79.5158 11.3073 79.7398 11.774C79.9731 12.2313 80.0898 12.7773 80.0898 13.412C80.0898 14.1773 79.9498 14.882 79.6698 15.526C79.3991 16.17 79.0024 16.688 78.4798 17.08C77.9664 17.4627 77.3598 17.654 76.6598 17.654C75.7731 17.654 75.1011 17.3647 74.6438 16.786C74.1958 16.198 73.9718 15.442 73.9718 14.518C73.9718 13.7527 74.1118 13.0527 74.3918 12.418C74.6718 11.7833 75.0731 11.2793 75.5958 10.906C76.1184 10.5327 76.7298 10.346 77.4298 10.346ZM77.2058 10.864C76.7951 10.864 76.4358 11.0133 76.1278 11.312C75.8291 11.6013 75.6004 12.0027 75.4418 12.516C75.2831 13.02 75.2038 13.5847 75.2038 14.21C75.2038 14.9847 75.3298 15.666 75.5818 16.254C75.8338 16.8327 76.2444 17.122 76.8138 17.122C77.2898 17.122 77.6771 16.94 77.9758 16.576C78.2838 16.212 78.5078 15.764 78.6478 15.232C78.7878 14.7 78.8578 14.182 78.8578 13.678C78.8578 12.894 78.7318 12.2313 78.4798 11.69C78.2371 11.1393 77.8124 10.864 77.2058 10.864ZM85.3326 10.346C85.9672 10.346 86.5926 10.4253 87.2086 10.584C86.7979 13.6267 86.5926 15.4933 86.5926 16.184C86.5926 16.4267 86.6159 16.618 86.6626 16.758C86.7092 16.8887 86.8166 16.954 86.9846 16.954C87.1619 16.954 87.3439 16.842 87.5306 16.618C87.7172 16.394 87.8759 16.0533 88.0066 15.596L88.3986 15.68C88.3519 15.9413 88.2492 16.226 88.0906 16.534C87.9412 16.842 87.7359 17.108 87.4746 17.332C87.2226 17.5467 86.9239 17.654 86.5786 17.654C85.8879 17.654 85.5426 17.234 85.5426 16.394C85.5426 15.9833 85.6266 15.358 85.7946 14.518H85.7526C85.3606 15.75 84.9312 16.5807 84.4646 17.01C83.9979 17.4393 83.5172 17.654 83.0226 17.654C82.4812 17.654 82.0472 17.458 81.7206 17.066C81.4032 16.674 81.2446 16.058 81.2446 15.218C81.2446 14.322 81.3986 13.5053 81.7066 12.768C82.0146 12.0307 82.4766 11.4427 83.0926 11.004C83.7086 10.5653 84.4552 10.346 85.3326 10.346ZM84.8986 10.85C84.3572 10.85 83.8999 11.046 83.5266 11.438C83.1532 11.8207 82.8732 12.3293 82.6866 12.964C82.5092 13.5893 82.4206 14.2613 82.4206 14.98C82.4206 16.352 82.7239 17.038 83.3306 17.038C83.7412 17.038 84.1519 16.716 84.5626 16.072C84.9732 15.428 85.3139 14.6347 85.5846 13.692C85.8552 12.74 85.9906 11.8487 85.9906 11.018C85.7106 10.906 85.3466 10.85 84.8986 10.85ZM95.3685 6.93C95.2192 7.86333 95.1072 8.666 95.0325 9.338L94.7805 11.522C94.6405 12.7633 94.5378 13.7433 94.4725 14.462C94.4072 15.1807 94.3745 15.764 94.3745 16.212C94.3745 16.4547 94.3978 16.6413 94.4445 16.772C94.4912 16.8933 94.5938 16.954 94.7525 16.954C94.9298 16.954 95.1072 16.842 95.2845 16.618C95.4712 16.394 95.6298 16.0533 95.7605 15.596L96.1665 15.68C96.1198 15.9413 96.0172 16.226 95.8585 16.534C95.7092 16.842 95.5038 17.108 95.2425 17.332C94.9905 17.5467 94.6918 17.654 94.3465 17.654C93.9825 17.654 93.7118 17.542 93.5345 17.318C93.3572 17.094 93.2685 16.786 93.2685 16.394C93.2685 15.89 93.3385 15.288 93.4785 14.588H93.4365C93.0912 15.7547 92.6898 16.5573 92.2325 16.996C91.7845 17.4347 91.3132 17.654 90.8185 17.654C90.2025 17.654 89.7312 17.4067 89.4045 16.912C89.0872 16.408 88.9285 15.7687 88.9285 14.994C88.9285 14.07 89.0825 13.258 89.3905 12.558C89.6985 11.858 90.1558 11.3167 90.7625 10.934C91.3785 10.542 92.1252 10.346 93.0025 10.346C93.3012 10.346 93.5625 10.3647 93.7865 10.402L93.9965 8.666C94.0432 8.32067 94.0945 8.036 94.1505 7.812L93.1285 7.868L93.1845 7.308C93.7445 7.308 94.1458 7.27533 94.3885 7.21C94.6312 7.14467 94.8225 7.05133 94.9625 6.93H95.3685ZM92.7645 10.85C92.1485 10.85 91.6445 11.046 91.2525 11.438C90.8605 11.83 90.5758 12.3247 90.3985 12.922C90.2212 13.51 90.1325 14.1213 90.1325 14.756C90.1325 15.4467 90.2072 15.9927 90.3565 16.394C90.5152 16.7953 90.7672 16.996 91.1125 16.996C91.3925 16.996 91.6818 16.8327 91.9805 16.506C92.2792 16.17 92.5498 15.7313 92.7925 15.19C93.0352 14.6487 93.2265 14.07 93.3665 13.454C93.4785 12.9407 93.5952 12.1193 93.7165 10.99C93.4645 10.8967 93.1472 10.85 92.7645 10.85ZM103.998 7.672C105.342 7.672 106.35 7.90533 107.022 8.372C107.694 8.82933 108.03 9.51067 108.03 10.416C108.021 10.976 107.876 11.5127 107.596 12.026C107.316 12.53 106.826 12.9547 106.126 13.3C105.426 13.6453 104.479 13.818 103.284 13.818C103.041 13.818 102.859 13.8133 102.738 13.804L102.626 15.834C102.598 16.366 102.565 16.7347 102.528 16.94L103.816 16.87L103.788 17.5H100.414L100.442 17.038C100.769 17.0287 101.002 16.954 101.142 16.814C101.291 16.674 101.38 16.506 101.408 16.31C101.445 16.114 101.473 15.7827 101.492 15.316L101.814 9.268C101.851 8.80133 101.884 8.46533 101.912 8.26L100.89 8.316L100.932 7.7C102.239 7.68133 103.261 7.672 103.998 7.672ZM103.942 8.218C103.662 8.218 103.452 8.27867 103.312 8.4C103.172 8.52133 103.079 8.68933 103.032 8.904C102.995 9.11867 102.967 9.422 102.948 9.814L102.766 13.216C102.999 13.244 103.303 13.258 103.676 13.258C104.236 13.258 104.745 13.146 105.202 12.922C105.669 12.698 106.037 12.376 106.308 11.956C106.579 11.536 106.714 11.0413 106.714 10.472C106.714 9.69733 106.467 9.128 105.972 8.764C105.487 8.4 104.81 8.218 103.942 8.218ZM112.451 7.686C114.131 7.67667 115.452 8.05467 116.413 8.82C117.374 9.58533 117.855 10.724 117.855 12.236C117.855 13.1787 117.645 14.0513 117.225 14.854C116.805 15.6473 116.175 16.2867 115.335 16.772C114.504 17.2573 113.496 17.5 112.311 17.5H108.685L108.713 17.038C109.04 17.0287 109.273 16.954 109.413 16.814C109.562 16.674 109.651 16.506 109.679 16.31C109.716 16.114 109.744 15.7827 109.763 15.316L110.099 9.268C110.136 8.80133 110.169 8.46533 110.197 8.26L109.161 8.316L109.203 7.7L112.451 7.686ZM112.367 8.204C112.022 8.204 111.77 8.26 111.611 8.372C111.462 8.47467 111.364 8.62867 111.317 8.834C111.27 9.03 111.238 9.34733 111.219 9.786L110.897 15.848C110.869 16.3707 110.836 16.7347 110.799 16.94C111.21 16.9587 111.709 16.968 112.297 16.968C113.128 16.968 113.865 16.758 114.509 16.338C115.153 15.918 115.652 15.344 116.007 14.616C116.371 13.888 116.553 13.076 116.553 12.18C116.553 10.9387 116.203 9.968 115.503 9.268C114.803 8.55867 113.758 8.204 112.367 8.204ZM125.787 10.15H125.325C125.362 9.38467 125.213 8.862 124.877 8.582C124.55 8.302 124.088 8.17133 123.491 8.19L122.469 8.218C122.161 8.22733 121.932 8.29267 121.783 8.414C121.643 8.526 121.549 8.68467 121.503 8.89C121.465 9.086 121.437 9.38 121.419 9.772L121.279 12.348H122.371C122.735 12.3387 123.015 12.306 123.211 12.25C123.407 12.1847 123.556 12.0587 123.659 11.872C123.761 11.6853 123.822 11.4053 123.841 11.032H124.303L124.149 14.098H123.687C123.705 13.7247 123.673 13.454 123.589 13.286C123.505 13.1087 123.369 12.9967 123.183 12.95C122.996 12.894 122.716 12.866 122.343 12.866C121.979 12.866 121.615 12.88 121.251 12.908L121.097 15.834C121.087 16.2727 121.055 16.6413 120.999 16.94L122.427 16.884L122.399 17.5H118.885L118.913 17.038C119.239 17.0287 119.473 16.954 119.613 16.814C119.762 16.674 119.851 16.506 119.879 16.31C119.916 16.114 119.944 15.7827 119.963 15.316L120.299 9.268C120.308 8.95067 120.341 8.61467 120.397 8.26L119.375 8.316L119.403 7.7H125.843L125.787 10.15Z" fill="#1D1D1B"/>
</svg>
