<svg width="680" height="388" viewBox="0 0 680 388" fill="none" xmlns="http://www.w3.org/2000/svg">
<g clip-path="url(#clip0_9774_13812)">
<path d="M483.854 149.798C486.78 149.427 489.732 147.924 491.071 145.298C493.305 140.921 490.37 135.511 491.621 130.763C492.445 127.624 495.052 124.539 493.802 121.55C492.738 118.995 489.271 117.987 488.438 115.352C487.577 112.62 489.998 110.074 491.213 107.475C493.11 103.408 492.046 98.6424 490.947 94.2925C489.892 90.1017 488.783 85.8137 486.301 82.2771C484.208 79.2888 481.238 77.0077 479.066 74.0813C477.851 72.4368 476.894 70.589 475.51 69.0771C474.127 67.5652 472.159 66.3805 470.12 66.6281C467.46 66.9463 465.633 69.5634 464.986 72.1627C464.339 74.762 464.525 77.494 463.966 80.111C462.397 87.52 455.162 93.2492 455.189 100.817C455.206 104.875 457.37 108.704 457.325 112.762C457.29 115.848 455.987 118.747 455.136 121.709C454.284 124.671 453.939 128.075 455.641 130.657C457.494 133.468 461.59 135.051 461.732 138.419C461.821 140.594 460.092 142.469 459.897 144.635C459.622 147.712 462.654 150.276 465.722 150.665C469.1 151.089 471.707 149.073 474.89 148.958C477.887 148.843 480.715 150.205 483.863 149.807L483.854 149.798Z" fill="white" stroke="#1D1D1B" stroke-miterlimit="10"/>
<path d="M465.537 108.377L466.84 107.519L473.694 117.899V90.5083H475.246V138.463L484.041 129.436L485.158 130.515L475.246 140.691V166.685H473.694V120.719L465.537 108.377Z" fill="black"/>
<path d="M391.911 170.99C394.251 170.796 396.645 169.815 397.993 167.896C399.598 165.606 399.5 162.397 401.291 160.248C403.827 157.207 409.564 156.915 410.264 153.025C410.627 150.991 409.227 149.037 407.577 147.791C405.928 146.544 403.969 145.722 402.426 144.352C399.465 141.717 398.383 137.376 395.227 134.971C390.856 131.647 384.622 133.38 379.453 135.245C376.128 136.447 372.706 137.703 370.064 140.046C367.422 142.398 365.693 146.129 366.73 149.497C367.209 151.062 368.246 152.53 368.087 154.157C367.936 155.598 366.872 156.747 366.287 158.064C364.505 162.07 367.581 166.879 371.633 168.586C375.348 170.15 378.753 169.222 382.574 169.487C385.793 169.717 388.55 171.256 391.919 170.982L391.911 170.99Z" fill="white" stroke="#1D1D1B" stroke-miterlimit="10"/>
<path d="M379.08 157.941L379.86 157.278L385.074 163.44V140.258H386.102V154.289L390.757 147.871L391.591 148.472L386.102 156.031V178.691H385.074V165.032L379.08 157.941Z" fill="black"/>
<path d="M451.706 125.661C450.775 122.62 448.922 119.72 446.111 118.235C442.015 116.077 436.89 117.359 432.883 119.676C427.652 122.699 423.334 127.597 421.959 133.468C420.585 139.339 422.58 146.093 427.501 149.586C441.359 159.4 455.386 137.685 451.706 125.661Z" fill="white" stroke="#1D1D1B" stroke-miterlimit="10"/>
<path d="M447.192 170.248L448.478 170.053C446.341 154.289 442.493 138.729 437.04 123.787L435.816 124.229C441.021 138.49 444.754 153.326 446.926 168.356H446.873L447.192 170.248Z" fill="black"/>
<path d="M436.074 179.346H482.17C483.722 178.09 485.238 176.393 486.027 174.554C486.808 172.724 486.799 170.451 485.575 168.878C484.68 167.719 483.27 167.083 482.179 166.101C480.645 164.722 479.821 162.751 478.686 161.027C477.56 159.302 475.822 157.684 473.756 157.746C472.125 157.799 470.68 158.896 469.048 159.055C466.628 159.294 464.58 157.455 462.381 156.429C458.675 154.696 454.295 155.235 450.349 156.358C444.178 158.109 438.105 161.46 434.895 166.994C432.661 170.849 433.414 175.756 436.065 179.337L436.074 179.346Z" fill="white" stroke="#1D1D1B" stroke-miterlimit="10"/>
<path d="M551.807 374.659C551.807 379.15 555.016 382.907 559.37 383.624C560.602 385.524 562.695 386.683 564.982 386.683C565.612 386.683 645.125 385.816 645.604 385.816C648.707 385.816 651.234 383.296 651.234 380.202C651.234 379.521 651.11 378.849 650.87 378.213C653.663 376.338 655.357 373.191 655.357 369.769C655.357 365.428 652.662 361.653 648.681 360.212C648.796 359.673 648.858 359.107 648.858 358.55C648.858 355.287 646.845 352.423 643.91 351.238C644.398 350.124 644.646 348.886 644.646 347.595C644.646 342.724 640.656 338.763 635.744 338.763C633.936 338.763 631.905 339.744 630.478 340.655C629.662 337.905 627.242 335.969 624.307 335.969C623.846 335.969 623.376 336.04 622.941 336.155C622.8 330.434 618.118 325.837 612.399 325.837C609.429 325.837 606.654 327.075 604.659 329.25C603.622 328.852 602.54 328.648 601.423 328.648C598.435 328.648 595.686 330.098 593.975 332.503C592.406 331.61 590.65 331.151 588.833 331.151C583.025 331.151 578.299 335.898 578.299 341.734C578.299 342.193 578.326 342.653 578.388 343.113C575.143 342.883 572.261 345.049 571.463 348.082C570.745 347.896 570.009 347.799 569.256 347.799C564.353 347.799 560.354 351.804 560.354 356.737C560.354 358.488 560.868 360.185 561.826 361.644C560.664 362.634 559.946 364.067 559.866 365.64C555.344 366.136 551.816 369.999 551.816 374.667L551.807 374.659Z" fill="white" stroke="#1D1D1B" stroke-miterlimit="10"/>
<path d="M346.905 10.3179L357.039 21.6524L370.764 15.0568L375.783 29.3974L390.988 28.5309L390.12 43.6937L404.501 48.6979L397.878 62.3754L409.244 72.4898L397.878 82.6043L404.501 96.2817L390.12 101.286L390.988 116.449L375.783 115.582L370.764 129.923L357.039 123.327L346.905 134.662L336.762 123.327L323.046 129.923L318.027 115.582L302.812 116.449L303.681 101.286L289.3 96.2817L295.923 82.6043L284.557 72.4898L295.923 62.3754L289.3 48.6979L303.681 43.6937L302.812 28.5309L318.027 29.3974L323.046 15.0568L336.762 21.6524L346.905 10.3179Z" fill="white"/>
<path d="M335.254 87.9532C335.254 87.9532 322.336 75.7876 322.336 59.2367C322.336 39.8654 332.186 34.543 346.905 34.543C361.623 34.543 371.473 39.7859 371.473 59.1483C371.473 75.2306 358.555 87.9532 358.555 87.9532H335.254Z" fill="#FFDE66" stroke="#1D1D1B" stroke-miterlimit="10"/>
<path d="M358.759 91.3481C358.759 93.2225 357.616 94.7343 356.215 94.7343H337.595C336.186 94.7343 335.051 93.2136 335.051 91.3481C335.051 89.4738 336.195 87.9619 337.595 87.9619H356.215C357.625 87.9619 358.759 89.4826 358.759 91.3481Z" fill="#E4EBF6" stroke="#1D1D1B" stroke-miterlimit="10"/>
<path d="M358.759 98.1206C358.759 99.9949 357.616 101.507 356.215 101.507H337.595C336.186 101.507 335.051 99.9861 335.051 98.1206C335.051 96.2462 336.195 94.7344 337.595 94.7344H356.215C357.625 94.7344 358.759 96.2551 358.759 98.1206Z" fill="#E4EBF6" stroke="#1D1D1B" stroke-miterlimit="10"/>
<path d="M358.759 104.893C358.759 106.767 357.616 108.279 356.215 108.279H337.595C336.186 108.279 335.051 106.759 335.051 104.893C335.051 103.019 336.195 101.507 337.595 101.507H356.215C357.625 101.507 358.759 103.028 358.759 104.893Z" fill="#E4EBF6" stroke="#1D1D1B" stroke-miterlimit="10"/>
<path d="M350.806 114.698H342.995L338.73 108.279H355.071L350.806 114.698Z" fill="#E4EBF6" stroke="#1D1D1B" stroke-miterlimit="10"/>
<path d="M351.232 87.9531C351.232 87.9531 351.232 70.1025 351.232 67.2203C351.232 62.9057 357.438 63.0472 357.438 67.9364C357.438 70.8187 354.264 70.9866 352.606 70.9866C350.948 70.9866 345.753 70.9866 345.753 70.9866H348.067C348.067 70.9866 342.871 70.9866 341.213 70.9866C339.555 70.9866 336.381 70.8187 336.381 67.9364C336.381 63.0383 342.587 62.8969 342.587 67.2203V87.9531" stroke="#1D1D1B" stroke-miterlimit="10"/>
<path d="M503.45 163.148H501.668V190.326H503.45V163.148Z" fill="white" stroke="black" stroke-miterlimit="10"/>
<path d="M494.095 163.148H492.312V190.326H494.095V163.148Z" fill="white" stroke="black" stroke-miterlimit="10"/>
<path d="M484.741 163.148H482.959V190.326H484.741V163.148Z" fill="white" stroke="black" stroke-miterlimit="10"/>
<path d="M475.388 163.148H473.605V190.326H475.388V163.148Z" fill="white" stroke="black" stroke-miterlimit="10"/>
<path d="M466.024 163.148H464.242V190.326H466.024V163.148Z" fill="white" stroke="black" stroke-miterlimit="10"/>
<path d="M456.671 163.148H454.889V190.326H456.671V163.148Z" fill="white" stroke="black" stroke-miterlimit="10"/>
<path d="M447.317 163.148H445.535V190.326H447.317V163.148Z" fill="white" stroke="black" stroke-miterlimit="10"/>
<path d="M437.962 163.148H436.18V190.326H437.962V163.148Z" fill="white" stroke="black" stroke-miterlimit="10"/>
<path d="M428.599 163.148H426.816V190.326H428.599V163.148Z" fill="white" stroke="black" stroke-miterlimit="10"/>
<path d="M419.245 163.148H417.463V190.326H419.245V163.148Z" fill="white" stroke="black" stroke-miterlimit="10"/>
<path d="M409.892 163.148H408.109V190.326H409.892V163.148Z" fill="white" stroke="black" stroke-miterlimit="10"/>
<path d="M400.538 163.148H398.756V190.326H400.538V163.148Z" fill="white" stroke="black" stroke-miterlimit="10"/>
<path d="M391.175 163.148H389.393V190.326H391.175V163.148Z" fill="white" stroke="black" stroke-miterlimit="10"/>
<path d="M381.821 163.148H380.039V190.326H381.821V163.148Z" fill="white" stroke="black" stroke-miterlimit="10"/>
<path d="M372.466 163.148H370.684V190.326H372.466V163.148Z" fill="white" stroke="black" stroke-miterlimit="10"/>
<path d="M363.112 163.148H361.33V190.326H363.112V163.148Z" fill="white" stroke="black" stroke-miterlimit="10"/>
<path d="M353.759 163.148H351.977V190.326H353.759V163.148Z" fill="white" stroke="black" stroke-miterlimit="10"/>
<path d="M344.395 163.148H342.613V190.326H344.395V163.148Z" fill="white" stroke="black" stroke-miterlimit="10"/>
<path d="M335.042 163.148H333.26V190.326H335.042V163.148Z" fill="white" stroke="black" stroke-miterlimit="10"/>
<path d="M325.688 163.148H323.906V190.326H325.688V163.148Z" fill="white" stroke="black" stroke-miterlimit="10"/>
<path d="M316.333 163.148H314.551V190.326H316.333V163.148Z" fill="white" stroke="black" stroke-miterlimit="10"/>
<path d="M306.972 163.148H305.189V190.326H306.972V163.148Z" fill="white" stroke="black" stroke-miterlimit="10"/>
<path d="M297.616 163.148H295.834V190.326H297.616V163.148Z" fill="white" stroke="black" stroke-miterlimit="10"/>
<path d="M288.263 163.148H286.48V190.326H288.263V163.148Z" fill="white" stroke="black" stroke-miterlimit="10"/>
<path d="M278.909 163.148H277.127V190.326H278.909V163.148Z" fill="white" stroke="black" stroke-miterlimit="10"/>
<path d="M269.546 163.148H267.764V190.326H269.546V163.148Z" fill="white" stroke="black" stroke-miterlimit="10"/>
<path d="M260.192 163.148H258.41V190.326H260.192V163.148Z" fill="white" stroke="black" stroke-miterlimit="10"/>
<path d="M250.837 163.148H249.055V190.326H250.837V163.148Z" fill="white" stroke="black" stroke-miterlimit="10"/>
<path d="M241.483 163.148H239.701V190.326H241.483V163.148Z" fill="white" stroke="black" stroke-miterlimit="10"/>
<path d="M232.13 163.148H230.348V190.326H232.13V163.148Z" fill="white" stroke="black" stroke-miterlimit="10"/>
<path d="M222.767 163.148H220.984V190.326H222.767V163.148Z" fill="white" stroke="black" stroke-miterlimit="10"/>
<path d="M213.413 163.148H211.631V190.326H213.413V163.148Z" fill="white" stroke="black" stroke-miterlimit="10"/>
<path d="M204.059 163.148H202.277V190.326H204.059V163.148Z" fill="white" stroke="black" stroke-miterlimit="10"/>
<path d="M507.846 160.858H197.586V165.447H507.846V160.858Z" fill="white" stroke="black" stroke-miterlimit="10"/>
<path d="M302.537 189.76H199.545V195.755H302.537V189.76Z" fill="white" stroke="black" stroke-miterlimit="10"/>
<path d="M405.529 189.76H302.537V386.691H405.529V189.76Z" fill="white" stroke="black" stroke-miterlimit="10"/>
<path d="M508.521 189.76H405.529V386.691H508.521V189.76Z" fill="white" stroke="black" stroke-miterlimit="10"/>
<path d="M302.537 193.889H199.545V386.691H302.537V193.889Z" fill="#E4EBF6" stroke="black" stroke-miterlimit="10"/>
<path d="M405.529 193.889H302.537V386.691H405.529V193.889Z" fill="#E4EBF6" stroke="black" stroke-miterlimit="10"/>
<path d="M508.521 193.889H405.529V386.691H508.521V193.889Z" fill="#E4EBF6" stroke="black" stroke-miterlimit="10"/>
<path d="M394.811 189.76V378.92H410.176H416.241V189.76H394.811Z" fill="white" stroke="black" stroke-miterlimit="10"/>
<path d="M290.834 189.76V194.464V378.92H306.191H312.255V189.76H290.834Z" fill="white" stroke="black" stroke-miterlimit="10"/>
<path d="M508.52 178.665H197.586V190.539H508.52V178.665Z" fill="#BBCAE9" stroke="black" stroke-miterlimit="10"/>
<path d="M290.833 279.146H199.545V288.624H290.833V279.146Z" fill="white" stroke="black" stroke-miterlimit="10"/>
<path d="M508.521 279.146H416.24V288.624H508.521V279.146Z" fill="white" stroke="black" stroke-miterlimit="10"/>
<path d="M394.811 279.146H312.256V288.624H394.811V279.146Z" fill="white" stroke="black" stroke-miterlimit="10"/>
<path d="M279.813 210.635H211.188V262.896H279.813V210.635Z" fill="#BBCAE9" stroke="black" stroke-miterlimit="10"/>
<path d="M228.982 213.128H226.162V258.988H228.982V213.128Z" fill="white" stroke="black" stroke-miterlimit="10"/>
<path d="M280.877 237.459V234.648H210.132V237.459H280.877Z" fill="white" stroke="black" stroke-miterlimit="10"/>
<path d="M246.909 213.128H244.09V258.988H246.909V213.128Z" fill="white" stroke="black" stroke-miterlimit="10"/>
<path d="M264.847 213.128H262.027V258.988H264.847V213.128Z" fill="white" stroke="black" stroke-miterlimit="10"/>
<path d="M281.967 258.988H209.201V266.812H281.967V258.988Z" fill="white" stroke="black" stroke-miterlimit="10"/>
<path d="M281.967 205.304H209.201V213.128H281.967V205.304Z" fill="white" stroke="black" stroke-miterlimit="10"/>
<path d="M279.813 307.067H211.188V359.328H279.813V307.067Z" fill="#BBCAE9" stroke="black" stroke-miterlimit="10"/>
<path d="M228.982 309.569H226.162V355.429H228.982V309.569Z" fill="white" stroke="black" stroke-miterlimit="10"/>
<path d="M280.867 333.9V331.089H210.122V333.9H280.867Z" fill="white" stroke="black" stroke-miterlimit="10"/>
<path d="M246.909 309.569H244.09V355.429H246.909V309.569Z" fill="white" stroke="black" stroke-miterlimit="10"/>
<path d="M264.847 309.569H262.027V355.429H264.847V309.569Z" fill="white" stroke="black" stroke-miterlimit="10"/>
<path d="M281.967 355.42H209.201V363.244H281.967V355.42Z" fill="white" stroke="black" stroke-miterlimit="10"/>
<path d="M281.967 301.744H209.201V309.569H281.967V301.744Z" fill="white" stroke="black" stroke-miterlimit="10"/>
<path d="M388.258 210.635H319.633V262.896H388.258V210.635Z" fill="#BBCAE9" stroke="black" stroke-miterlimit="10"/>
<path d="M337.427 213.128H334.607V258.988H337.427V213.128Z" fill="white" stroke="black" stroke-miterlimit="10"/>
<path d="M389.322 237.459V234.648H318.578V237.459H389.322Z" fill="white" stroke="black" stroke-miterlimit="10"/>
<path d="M355.355 213.128H352.535V258.988H355.355V213.128Z" fill="white" stroke="black" stroke-miterlimit="10"/>
<path d="M373.29 213.128H370.471V258.988H373.29V213.128Z" fill="white" stroke="black" stroke-miterlimit="10"/>
<path d="M390.413 258.988H317.646V266.812H390.413V258.988Z" fill="white" stroke="black" stroke-miterlimit="10"/>
<path d="M390.413 205.304H317.646V213.128H390.413V205.304Z" fill="white" stroke="black" stroke-miterlimit="10"/>
<path d="M388.258 307.067H319.633V359.328H388.258V307.067Z" fill="#BBCAE9" stroke="black" stroke-miterlimit="10"/>
<path d="M337.427 309.569H334.607V355.429H337.427V309.569Z" fill="white" stroke="black" stroke-miterlimit="10"/>
<path d="M389.312 333.9V331.089H318.568V333.9H389.312Z" fill="white" stroke="black" stroke-miterlimit="10"/>
<path d="M355.355 309.569H352.535V355.429H355.355V309.569Z" fill="white" stroke="black" stroke-miterlimit="10"/>
<path d="M373.29 309.569H370.471V355.429H373.29V309.569Z" fill="white" stroke="black" stroke-miterlimit="10"/>
<path d="M390.413 355.42H317.646V363.244H390.413V355.42Z" fill="white" stroke="black" stroke-miterlimit="10"/>
<path d="M390.413 301.744H317.646V309.569H390.413V301.744Z" fill="white" stroke="black" stroke-miterlimit="10"/>
<path d="M496.702 210.635H428.076V262.896H496.702V210.635Z" fill="#BBCAE9" stroke="black" stroke-miterlimit="10"/>
<path d="M445.87 213.128H443.051V258.988H445.87V213.128Z" fill="white" stroke="black" stroke-miterlimit="10"/>
<path d="M497.758 237.459V234.648H427.013V237.459H497.758Z" fill="white" stroke="black" stroke-miterlimit="10"/>
<path d="M463.798 213.128H460.979V258.988H463.798V213.128Z" fill="white" stroke="black" stroke-miterlimit="10"/>
<path d="M481.726 213.128H478.906V258.988H481.726V213.128Z" fill="white" stroke="black" stroke-miterlimit="10"/>
<path d="M498.856 258.988H426.09V266.812H498.856V258.988Z" fill="white" stroke="black" stroke-miterlimit="10"/>
<path d="M498.856 205.304H426.09V213.128H498.856V205.304Z" fill="white" stroke="black" stroke-miterlimit="10"/>
<path d="M496.702 307.067H428.076V359.328H496.702V307.067Z" fill="#BBCAE9" stroke="black" stroke-miterlimit="10"/>
<path d="M445.87 309.569H443.051V355.429H445.87V309.569Z" fill="white" stroke="black" stroke-miterlimit="10"/>
<path d="M497.758 333.9V331.089H427.013V333.9H497.758Z" fill="white" stroke="black" stroke-miterlimit="10"/>
<path d="M463.798 309.569H460.979V355.429H463.798V309.569Z" fill="white" stroke="black" stroke-miterlimit="10"/>
<path d="M481.726 309.569H478.906V355.429H481.726V309.569Z" fill="white" stroke="black" stroke-miterlimit="10"/>
<path d="M498.856 355.42H426.09V363.244H498.856V355.42Z" fill="white" stroke="black" stroke-miterlimit="10"/>
<path d="M498.856 301.744H426.09V309.569H498.856V301.744Z" fill="white" stroke="black" stroke-miterlimit="10"/>
<path d="M405.076 370.972H302.306H199.545V386.691H302.306H405.076H507.837V370.972H405.076Z" fill="#BBCAE9" stroke="black" stroke-miterlimit="10"/>
<path d="M507.812 128.897V132.478V362.873V381.776H599.588V128.897H507.812Z" fill="#FFF1CC" stroke="black" stroke-miterlimit="10"/>
<path d="M595.953 290.153H507.812V386.691H595.953V290.153Z" fill="#FFF1CC" stroke="black" stroke-miterlimit="10"/>
<path d="M566.651 167.624C574.019 160.277 574.019 148.364 566.651 141.017C559.283 133.669 547.337 133.669 539.968 141.017C532.6 148.364 532.6 160.277 539.968 167.624C547.337 174.972 559.283 174.972 566.651 167.624Z" fill="black" stroke="black" stroke-miterlimit="10"/>
<path d="M565.58 166.555C572.356 159.798 572.356 148.843 565.58 142.086C558.803 135.329 547.817 135.329 541.041 142.086C534.265 148.843 534.265 159.798 541.041 166.555C547.817 173.312 558.803 173.312 565.58 166.555Z" fill="white" stroke="black" stroke-miterlimit="10"/>
<path d="M560.88 234.455C570.29 230.505 574.706 219.696 570.745 210.313C566.784 200.93 555.944 196.525 546.534 200.476C537.124 204.426 532.707 215.235 536.669 224.618C540.63 234.001 551.47 238.406 560.88 234.455Z" fill="#BBCAE9" stroke="black" stroke-miterlimit="10"/>
<path d="M556.186 198.973H551.877V235.576H556.186V198.973Z" fill="white" stroke="black" stroke-miterlimit="10"/>
<path d="M572.049 219.414V215.117H535.342V219.414H572.049Z" fill="white" stroke="black" stroke-miterlimit="10"/>
<path d="M553.703 280.384C563.913 280.384 572.19 272.131 572.19 261.95C572.19 251.769 563.913 243.516 553.703 243.516C543.493 243.516 535.217 251.769 535.217 261.95C535.217 272.131 543.493 280.384 553.703 280.384Z" fill="#BBCAE9" stroke="black" stroke-miterlimit="10"/>
<path d="M556.186 243.613H551.877V280.216H556.186V243.613Z" fill="white" stroke="black" stroke-miterlimit="10"/>
<path d="M572.049 264.054V259.757H535.342V264.054H572.049Z" fill="white" stroke="black" stroke-miterlimit="10"/>
<path d="M601.565 116.634H505.844V129.065H601.565V116.634Z" fill="#FFDE66" stroke="black" stroke-miterlimit="10"/>
<path d="M601.565 286.75H505.844V299.18H601.565V286.75Z" fill="#FFDE66" stroke="black" stroke-miterlimit="10"/>
<path d="M601.565 181.458H505.844V193.889H601.565V181.458Z" fill="#FFDE66" stroke="black" stroke-miterlimit="10"/>
<path d="M534.092 304.467L535.218 299.18H518.646L519.737 304.467H534.092Z" fill="white" stroke="black" stroke-miterlimit="10"/>
<path d="M587.627 304.467L588.753 299.18H572.182L573.272 304.467H587.627Z" fill="white" stroke="black" stroke-miterlimit="10"/>
<path d="M586.634 309.48H522.867V369.831H586.634V309.48Z" fill="white" stroke="black" stroke-miterlimit="10"/>
<path d="M556.196 307.986H553.314V369.831H556.196V307.986Z" fill="#BBCAE9" stroke="black" stroke-miterlimit="10"/>
<path d="M595.953 368.496H513.416V379.221H595.953V368.496Z" fill="white" stroke="black" stroke-miterlimit="10"/>
<path d="M600.129 377.143H507.812V386.691H600.129V377.143Z" fill="white" stroke="black" stroke-miterlimit="10"/>
<path d="M553.615 155.218L552.711 156.827L551.807 155.218L552.809 140.806L553.615 155.218Z" fill="black" stroke="black" stroke-linejoin="round"/>
<path d="M554.555 156.774L552.711 156.827L553.624 155.227L561.959 151.345L554.555 156.774Z" fill="black" stroke="black" stroke-linejoin="round"/>
<path d="M189.092 378.222C189.092 381.714 191.583 384.632 194.97 385.189C195.928 386.665 197.727 386.895 199.5 386.895C199.988 386.895 261.61 386.895 261.982 386.895C264.394 386.895 266.362 384.932 266.362 382.527C266.362 381.997 266.265 381.475 266.078 380.98C268.251 379.521 269.563 377.081 269.563 374.42C269.563 371.051 267.47 368.116 264.376 366.993C264.465 366.569 264.509 366.136 264.509 365.702C264.509 363.174 262.949 360.937 260.67 360.026C261.051 359.16 261.246 358.205 261.246 357.197C261.246 353.413 258.143 350.336 254.33 350.336C252.921 350.336 251.343 351.097 250.234 351.804C249.605 349.673 247.725 348.17 245.438 348.17C245.083 348.17 244.719 348.223 244.374 348.312C244.258 343.873 240.632 340.292 236.181 340.292C233.876 340.292 231.712 341.247 230.161 342.945C229.354 342.635 228.512 342.476 227.643 342.476C225.32 342.476 223.183 343.599 221.862 345.473C220.638 344.784 219.273 344.421 217.863 344.421C213.35 344.421 209.679 348.108 209.679 352.644C209.679 353.006 209.706 353.36 209.75 353.714C207.232 353.537 204.989 355.217 204.369 357.568C203.81 357.427 203.234 357.347 202.657 357.347C198.845 357.347 195.742 360.459 195.742 364.288C195.742 365.649 196.141 366.967 196.885 368.098C195.981 368.868 195.422 369.982 195.36 371.202C191.849 371.591 189.101 374.588 189.101 378.213L189.092 378.222Z" fill="white" stroke="#1D1D1B" stroke-miterlimit="10"/>
<path d="M111.964 345.535C111.964 345.535 110.359 370.936 110.129 375.516C109.898 380.096 109.668 386.046 116.096 386.046H133.766V345.544H111.964V345.535Z" fill="#E4EBF6" stroke="black" stroke-linecap="round" stroke-linejoin="round"/>
<path d="M183.098 383.066H169.79C164.745 383.066 165.428 376.886 166.811 367.506C168.185 358.125 169.79 345.535 169.79 345.535H115.404C115.404 345.535 113.799 364.296 113.568 370.706C113.338 377.116 112.425 383.066 119.074 383.066H125.733V386.037H183.107V383.066H183.098Z" fill="#DBE0F0" stroke="black" stroke-linecap="round" stroke-linejoin="round"/>
<path d="M183.109 383.067H125.734V386.037H183.109V383.067Z" fill="#BBCAE9" stroke="black" stroke-linecap="round" stroke-linejoin="round"/>
<path d="M40.563 348.488L45.1203 344.996L5.8512 191.157L2.41992 194.305L40.563 348.488Z" fill="#E4EBF6" stroke="black" stroke-linecap="round" stroke-linejoin="round"/>
<path d="M247.424 348.488L253.036 344.996H45.1198L40.5625 348.488H247.424Z" fill="#DBE0F0" stroke="black" stroke-linecap="round" stroke-linejoin="round"/>
<path d="M5.85156 191.157L45.1207 344.996H253.037L211.666 191.157H5.85156Z" fill="#BBCAE9" stroke="black" stroke-linecap="round" stroke-linejoin="round"/>
<path d="M37.4424 314.927H244.951L211.666 191.157H5.85156L37.4424 314.927Z" fill="white" stroke="black" stroke-linecap="round" stroke-linejoin="round"/>
<path d="M154.859 330.762C154.859 327.676 151.72 325.165 148.625 325.165C145.531 325.165 143.643 327.667 143.643 330.762C143.643 333.856 146.781 336.358 149.876 336.358C152.97 336.358 154.859 333.856 154.859 330.762Z" fill="white" stroke="black" stroke-linecap="round" stroke-linejoin="round"/>
<path d="M80.8066 315.36H193.471L191.53 274.54L80.8066 315.36Z" fill="white" stroke="#010101" stroke-miterlimit="10"/>
<path d="M48.8805 93.921C40.6348 100.764 31.0148 106.971 26.8298 116.829C23.3365 125.069 24.3207 134.476 26.0319 143.255C28.6918 156.853 33.0363 170.283 40.5195 181.954C48.0027 193.624 58.8197 203.473 71.8887 208.168C86.864 213.552 103.657 211.837 118.694 206.621C150.853 195.446 179.287 167.852 188.366 135.13C192.782 119.207 190.636 101.286 182.319 86.9983C176.388 76.8131 166.652 69.4218 156.695 63.0826C143.99 55.0017 130.478 48.1673 116.442 42.7123C110.652 40.4577 93.5315 27.7263 89.0185 33.0841C87.1211 35.3386 81.5885 43.676 81.4289 46.346C81.0476 52.4377 77.9976 57.6717 74.9919 62.9058C68.218 74.6735 59.3516 85.2565 48.8893 93.9387L48.8805 93.921Z" fill="#010101" stroke="#010101" stroke-miterlimit="10"/>
<path d="M110.094 26.5859C105.847 23.8981 110.696 18.8939 114.261 15.3486C126.381 3.29791 147.084 14.3407 154.151 19.6101C161.802 25.3127 178.524 42.6593 177.575 58.998C176.529 77.0608 181.831 90.4554 183.09 92.3385C188.33 100.198 188.242 112.063 185.387 112.063C182.532 112.063 148.263 113.001 145.852 113.16C143.449 113.319 141.551 115.37 139.184 115.83C136.081 116.431 133.137 114.15 131.293 111.595C129.449 109.04 128.163 106.025 125.805 103.929C122.719 101.189 118.375 100.508 114.465 99.1729C105.838 96.211 98.6205 89.3767 95.2158 80.9421C91.8023 72.4987 92.2456 62.5964 96.4039 54.489" fill="#010101"/>
<path d="M110.094 26.5859C105.847 23.8981 110.696 18.8939 114.261 15.3486C126.381 3.29791 147.084 14.3407 154.151 19.6101C161.802 25.3127 178.524 42.6593 177.575 58.998C176.529 77.0608 181.831 90.4554 183.09 92.3385C188.33 100.198 188.242 112.063 185.387 112.063C182.532 112.063 148.263 113.001 145.852 113.16C143.449 113.319 141.551 115.37 139.184 115.83C136.081 116.431 133.137 114.15 131.293 111.595C129.449 109.04 128.163 106.025 125.805 103.929C122.719 101.189 118.375 100.508 114.465 99.1729C105.838 96.211 98.6205 89.3767 95.2158 80.9421C91.8023 72.4987 92.2456 62.5964 96.4039 54.489" stroke="#010101" stroke-miterlimit="10"/>
<path d="M100.828 125.652L100.216 95.4064L94.4615 44.401C94.2842 40.7584 96.9352 37.5932 100.553 37.107L137.614 26.6389C149.53 25.0386 157.9 39.4941 159 51.4387C160.214 64.7095 161.181 80.9509 159.886 90.915C157.28 110.949 142.021 113.92 142.021 113.92C142.021 113.849 142.553 126.616 142.553 126.616L132.906 134.326C125.308 140.4 114.322 139.684 107.584 132.672L100.828 125.644V125.652Z" fill="white" stroke="#010101" stroke-miterlimit="10"/>
<path d="M142.02 113.92C142.02 113.92 128.588 115.167 115.031 107.554C115.031 107.554 121.92 121.073 141.879 118.632L142.012 113.92H142.02Z" fill="#010101" stroke="#010101" stroke-miterlimit="10"/>
<path d="M172.487 47.2478C171.556 44.2594 169.845 41.4125 167.211 39.6973C165.766 38.7601 164.099 38.1943 162.76 37.1157C159.87 34.7904 159.205 30.7411 157.414 27.4875C155.117 23.2967 150.667 20.3614 145.905 19.8752C141.942 19.4685 137.855 20.6532 133.998 19.6895C131.143 18.9733 128.651 17.1255 125.752 16.5774C121.931 15.8524 118.287 17.4792 115.068 19.8486C112.798 18.5666 110.263 17.877 107.709 18.0185C102.407 18.3102 90.6324 23.0403 80.4893 38.1678C80.0194 38.8751 79.7711 39.7062 79.4874 40.5107C77.4925 44.0119 77.1024 48.406 78.5565 52.1812C79.4342 54.4534 77.5723 64.2407 65.3633 80.9419C52.1968 98.9605 63.3241 109.941 63.3241 109.941C63.3241 109.941 97.2645 110.817 100.492 110.817L99.7471 68.7675C100.146 69.6516 100.917 70.4562 102.301 70.7656C109.066 72.2952 113.65 59.9616 116.389 54.6745C117.923 51.7215 118.845 37.2306 118.455 33.8532C118.455 33.8532 118.464 33.8532 118.473 33.8532C121.39 35.7099 125.717 43.4372 137.411 43.4372C142.111 43.4372 148.095 55.4879 156.643 55.4879C168.045 55.4879 162.299 49.3078 164.613 52.1017C166.927 54.8955 170.394 57.5479 173.87 56.5135C173.648 53.3925 173.418 50.2361 172.487 47.2478Z" fill="#010101" stroke="#010101" stroke-miterlimit="10"/>
<path d="M101.617 72.1892C101.404 67.9189 96.1554 66.9994 92.4403 69.139C90.4011 70.3149 88.8406 72.6755 89.0268 77.2199C89.5233 89.3237 101.608 86.3265 101.617 85.9728" fill="white"/>
<path d="M101.617 72.1892C101.404 67.9189 96.1554 66.9994 92.4403 69.139C90.4011 70.3149 88.8406 72.6755 89.0268 77.2199C89.5233 89.3237 101.608 86.3265 101.617 85.9728" stroke="#010101" stroke-miterlimit="10"/>
<path d="M146.437 69.5456C146.392 71.1282 147.651 72.4456 149.247 72.4898C150.843 72.534 152.182 71.2962 152.226 69.7136C152.271 68.131 151.012 66.8137 149.416 66.7695C147.82 66.7253 146.481 67.963 146.437 69.5456Z" fill="black"/>
<path d="M121.212 69.5456C121.168 71.1282 122.427 72.4456 124.023 72.4898C125.619 72.534 126.957 71.2962 127.002 69.7136C127.046 68.131 125.787 66.8137 124.191 66.7695C122.595 66.7253 121.256 67.963 121.212 69.5456Z" fill="black"/>
<path d="M135.885 66.0269C136.133 69.7048 142.029 77.7769 142.224 78.997C142.428 80.3144 137.968 83.3293 136.656 83.5768" stroke="black" stroke-linecap="round" stroke-linejoin="round"/>
<path d="M141.09 92.7894C138.66 94.1068 135.788 94.593 133.066 94.1686C130.335 93.7354 127.764 92.3827 125.857 90.3757H141.09" stroke="black" stroke-linecap="round" stroke-linejoin="round"/>
<path d="M98.3188 74.6204C96.7938 75.3896 96.0845 77.4407 96.7938 78.988C97.5031 80.5352 99.5247 81.3309 101.103 80.6855" stroke="black" stroke-linecap="round" stroke-linejoin="round"/>
<path d="M291.136 100.755C293.947 95.3179 297.333 90.4994 300.57 85.3538C300.57 85.3538 307.264 83.9657 309.534 82.4185C311.803 80.8712 311.44 76.4683 311.44 76.4683L298.176 79.2533L285.054 90.8619C283.945 91.8079 283.103 93.028 282.606 94.3896L268.828 126.254L284.548 131.815C285.284 130.86 292.448 121.426 293.432 119.172C294.416 116.917 295.17 113.389 295.17 113.389C295.17 113.389 298.903 115.582 302.015 117.571C305.127 119.561 306.714 115.626 306.714 115.626L304.852 112.461C307.512 112.859 308.736 109.8 308.736 109.8L307.175 107.333L308.346 107.775C311.005 108.173 310.314 103.85 310.314 103.85L306.049 95.3267C305.402 94.3011 304.382 93.5585 303.203 93.2579L297.13 91.7018L296.438 91.9405L296.748 91.4454" fill="white"/>
<path d="M291.136 100.755C293.947 95.3179 297.333 90.4994 300.57 85.3538C300.57 85.3538 307.264 83.9657 309.534 82.4185C311.803 80.8712 311.44 76.4683 311.44 76.4683L298.176 79.2533L285.054 90.8619C283.945 91.8079 283.103 93.028 282.606 94.3896L268.828 126.254L284.548 131.815C285.284 130.86 292.448 121.426 293.432 119.172C294.416 116.917 295.17 113.389 295.17 113.389C295.17 113.389 298.903 115.582 302.015 117.571C305.127 119.561 306.714 115.626 306.714 115.626L304.852 112.461C307.512 112.859 308.736 109.8 308.736 109.8L307.175 107.333L308.346 107.775C311.005 108.173 310.314 103.85 310.314 103.85L306.049 95.3267C305.402 94.3011 304.382 93.5585 303.203 93.2579L297.13 91.7018L296.438 91.9405L296.748 91.4454" stroke="#010202" stroke-linecap="round" stroke-linejoin="round"/>
<path d="M289.512 101.144C294.628 101.86 299.708 102.806 304.736 103.982C306.819 104.469 306.97 107.015 304.922 107.422C303.441 107.713 300.098 108.359 297.855 108.597C297.137 108.668 296.632 109.322 296.738 110.039C297.208 113.08 296.685 116.378 294.601 118.65C292.207 121.267 288.546 122.08 284.547 122.125" fill="white"/>
<path d="M289.512 101.144C294.628 101.86 299.708 102.806 304.736 103.982C306.819 104.469 306.97 107.015 304.922 107.422C303.441 107.713 300.098 108.359 297.855 108.597C297.137 108.668 296.632 109.322 296.738 110.039C297.208 113.08 296.685 116.378 294.601 118.65C292.207 121.267 288.546 122.08 284.547 122.125" stroke="#010202" stroke-linecap="round" stroke-linejoin="round"/>
<path d="M297.723 96.8652C298.725 96.8829 299.735 96.8918 300.711 97.1305C301.686 97.3692 302.626 97.8466 303.246 98.6335C303.574 99.0579 303.787 99.5441 304.009 100.03C304.656 101.48 305.303 102.93 305.951 104.38" stroke="#010202" stroke-linecap="round" stroke-linejoin="round"/>
<path d="M195.247 250.739L182.257 131.47C182.257 131.47 171.768 128.155 160.818 126.042C159.418 125.767 152.919 124.671 152.919 124.671L141.88 118.35C141.88 118.35 145.453 130.878 128.607 133.68C101.467 138.198 100.642 121.842 100.642 121.842L59.5469 145.174L85.8445 265.628L74.9034 305.308C72.8996 312.584 79.4519 319.348 86.8198 317.588L191.975 292.496C196.958 291.312 200.221 286.546 199.52 281.489L195.255 250.73L195.247 250.739Z" fill="#FFDE66" stroke="#010101" stroke-miterlimit="10"/>
<path d="M61.9842 143.803C61.9842 143.803 47.2483 151.946 45.5016 166.561C43.755 181.176 33.2129 254.514 42.3097 264.363C51.4155 274.213 59.7233 279.332 72.411 271.64C85.0988 263.948 91.2609 254.222 91.2609 254.222" fill="#FFDE66"/>
<path d="M61.9842 143.803C61.9842 143.803 47.2483 151.946 45.5016 166.561C43.755 181.176 33.2129 254.514 42.3097 264.363C51.4155 274.213 59.7233 279.332 72.411 271.64C85.0988 263.948 91.2609 254.222 91.2609 254.222" stroke="#010101" stroke-miterlimit="10"/>
<path d="M187.328 193.05C187.328 193.05 240.251 215.356 254.721 202.757C259.136 198.911 292.961 129.03 292.961 129.03L267.55 123.371L234.115 162.37C234.115 162.37 182.336 128.429 174.285 129.375" fill="#FFDE66"/>
<path d="M187.328 193.05C187.328 193.05 240.251 215.356 254.721 202.757C259.136 198.911 292.961 129.03 292.961 129.03L267.55 123.371L234.115 162.37C234.115 162.37 182.336 128.429 174.285 129.375" stroke="#010101" stroke-miterlimit="10"/>
<path d="M92.1836 126.934C92.1836 126.934 94.5066 136.89 106.095 141.231C117.683 145.581 130.087 145.457 139.131 139.913C151.18 132.531 149.549 122.752 149.549 122.752" stroke="#010202" stroke-linecap="round" stroke-linejoin="round"/>
<path d="M71.7635 211.095C71.7635 211.095 78.9896 214.711 81.0023 215.197C83.0149 215.683 88.7249 219.282 90.6932 223.632C92.6615 227.981 96.2701 229.723 97.6976 231.686C99.134 233.649 100.606 242.481 100.836 244.647C101.058 246.813 108.488 250.801 109.047 251.676C109.605 252.551 110.527 254.735 108.869 255.557C107.211 256.38 105.287 256.433 104.197 255.646C103.097 254.868 98.6463 252.171 98.6463 252.171C98.6463 252.171 99.7458 256.256 98.4424 256.742C97.1479 257.237 94.9579 257.326 94.9579 257.326L88.7603 250.792C88.7603 250.792 88.4234 256.212 86.1891 256.035C83.9548 255.858 82.5184 255.549 81.7116 252.375C80.9047 249.209 78.7768 245.567 78.7768 245.567L78.3246 242.888C78.3246 242.888 76.0903 246.84 73.8471 246.663C71.6128 246.486 70.4868 245.567 70.2208 244.789C69.9548 244.011 69.8839 238.653 70.1498 236.133C70.4158 233.613 71.7103 228.989 71.7103 228.989C71.7103 228.989 71.932 222.898 70.2119 220.847C68.4918 218.795 59.8915 213.623 58.597 211.634C57.3025 209.645 55.414 206.656 58.4374 204.915C61.4608 203.173 66.5767 208.619 71.7547 211.095H71.7635Z" fill="white" stroke="#010101" stroke-miterlimit="10"/>
<path d="M78.272 243.188C77.678 240.297 77.545 235.709 78.3873 232.871" stroke="#010101" stroke-miterlimit="10"/>
<path d="M88.85 250.615C87.3427 245.673 85.8354 240.731 84.3281 235.797" stroke="#010101" stroke-miterlimit="10"/>
<path d="M98.3008 251.632C94.9315 247.45 92.4312 242.561 91.0215 237.389" stroke="#010101" stroke-miterlimit="10"/>
<path d="M109.817 32.3769C118.661 32.3769 125.83 25.228 125.83 16.4095C125.83 7.59097 118.661 0.442139 109.817 0.442139C100.974 0.442139 93.8047 7.59097 93.8047 16.4095C93.8047 25.228 100.974 32.3769 109.817 32.3769Z" fill="#010101" stroke="#010101" stroke-miterlimit="10"/>
<path d="M551.974 46.4697C551.974 46.4697 592.67 66.5395 597.05 74.7884L551.495 88.068L543.303 82.6748C543.303 82.6748 501.799 68.0336 500.531 57.0616L551.965 46.4786L551.974 46.4697Z" fill="#FFF1CC" stroke="#010101" stroke-linejoin="round"/>
<path d="M549.182 81.2515L551.505 88.0593L543.312 82.6661L549.182 81.2515Z" fill="white" stroke="#010101" stroke-linejoin="round"/>
<path d="M557.047 58.8211V61.2436L582.086 62.2781L610.236 32.8896L609.553 30.6616L557.047 58.8211Z" fill="white" stroke="#010101" stroke-linejoin="round"/>
<path d="M585.871 30.6616L557.047 58.8211L581.279 59.4665L609.553 30.6616H585.871Z" fill="white" stroke="#010101" stroke-linejoin="round"/>
<path d="M586.545 32.4033L565.674 52.7648L584.32 53.6931L605.475 32.4033H586.545Z" fill="#010101"/>
<path d="M572.819 55.3995C572.589 56.3367 571.082 57.5214 569.565 57.5214C568.049 57.5214 568.191 56.3367 569.282 55.3995C570.018 54.7718 571.037 54.3916 571.755 54.3916C572.474 54.3916 572.97 54.7718 572.819 55.3995Z" fill="white" stroke="#1E1E1C" stroke-miterlimit="10"/>
<path d="M674.473 196.233L637.048 148.181L560.168 178.1C558.377 178.807 556.976 181.344 558.811 184.616L591.741 233.985C592.424 235.011 593.363 235.833 594.463 236.381L671.751 200.388C672.904 199.849 673.755 198.841 674.092 197.621L674.464 196.242L674.473 196.233Z" fill="white" stroke="black" stroke-miterlimit="10"/>
<path d="M674.536 196.154L594.455 232.659L559.743 182.016C558.564 180.292 559.114 178.356 560.993 177.631L637.049 148.172C639.035 147.403 641.713 148.278 642.963 150.099L674.527 196.154H674.536Z" fill="white" stroke="black" stroke-linejoin="round"/>
<path d="M664.427 197.515L659.932 199.557L618.916 218.398L597.841 227.947C596.475 228.566 594.604 228.177 593.47 227.116C593.416 227.072 593.372 227.027 593.301 226.974C593.168 226.833 593.044 226.674 592.929 226.515L592.867 226.444L584.896 214.8L580.675 208.637L580.569 208.487L563.093 182.989C562.109 181.548 562.588 179.912 564.211 179.293L588.841 169.771L633.297 152.513C634.902 151.894 637.057 152.575 638.05 154.007L665.305 193.766L665.385 193.881C666.333 195.261 665.917 196.834 664.418 197.515H664.427Z" fill="white" stroke="black" stroke-miterlimit="10"/>
<path d="M654.26 172.686C654.982 172.409 655.361 171.649 655.106 170.988C654.851 170.327 654.059 170.016 653.337 170.292C652.615 170.569 652.236 171.329 652.491 171.99C652.745 172.651 653.537 172.962 654.26 172.686Z" fill="white" stroke="black" stroke-miterlimit="10"/>
<path d="M644.23 197.559L599.899 217.178C598.79 217.682 597.478 217.293 596.813 216.259L575.064 184.527L573.326 181.893C572.838 181.132 573.149 180.098 573.973 179.771L619.05 162.106C620.114 161.699 621.329 162.062 621.985 163.008L623.563 165.262L644.789 195.455C645.303 196.198 645.028 197.206 644.23 197.577V197.559Z" fill="#E4EBF6" stroke="#010101" stroke-miterlimit="10"/>
<path d="M623.563 165.253L575.064 184.519L573.326 181.884C572.838 181.123 573.149 180.089 573.973 179.762L619.05 162.097C620.114 161.69 621.329 162.053 621.985 162.999L623.563 165.253Z" fill="white" stroke="black" stroke-miterlimit="10"/>
<path d="M659.72 192.75L632.909 204.57C631.419 205.234 630.08 204.323 628.972 203.023L626.401 199.611C625.088 197.701 625.851 196.375 627.881 195.65L651.829 185.491C653.328 184.828 654.817 185.456 655.766 187.038L659.72 192.741V192.75Z" fill="white" stroke="black" stroke-miterlimit="10"/>
<path d="M576.778 182.059C577.203 181.896 577.414 181.417 577.249 180.988C577.083 180.56 576.605 180.345 576.18 180.508C575.755 180.671 575.544 181.15 575.709 181.578C575.874 182.007 576.353 182.222 576.778 182.059Z" fill="black"/>
<path d="M579.737 180.036C579.905 180.469 579.692 180.946 579.267 181.106C578.841 181.265 578.362 181.053 578.203 180.619C578.043 180.186 578.247 179.709 578.673 179.55C579.098 179.39 579.577 179.603 579.737 180.036Z" fill="black"/>
<path d="M582.262 179.063C582.43 179.497 582.218 179.974 581.792 180.133C581.366 180.292 580.888 180.08 580.728 179.647C580.568 179.214 580.772 178.736 581.198 178.577C581.623 178.418 582.102 178.63 582.262 179.063Z" fill="black"/>
</g>
<defs>
<clipPath id="clip0_9774_13812">
<rect width="680" height="388" fill="white"/>
</clipPath>
</defs>
</svg>
