<svg width="780" height="394" viewBox="0 0 780 394" fill="none" xmlns="http://www.w3.org/2000/svg">
<path d="M621 34C708.812 34 780 105.188 780 193C780 280.812 708.812 352 621 352V34Z" fill="#E4EBF5"/>
<path d="M0 350.78C0 245.965 84.904 161 189.628 161C294.351 161 379.255 245.972 379.255 350.78" fill="#FFDE66"/>
<path d="M422.453 -0.367432H357.468C352.185 -0.367432 347.901 3.91919 347.901 9.207V59.7493C347.901 65.0371 352.185 69.3237 357.468 69.3237H422.453C427.737 69.3237 432.02 65.0371 432.02 59.7493V9.207C432.02 3.91919 427.737 -0.367432 422.453 -0.367432Z" fill="#E4EBF5"/>
<path d="M107.144 92.3594C131.525 92.3594 151.289 72.5795 151.289 48.1797C151.289 23.7799 131.525 4 107.144 4C82.7641 4 63 23.7799 63 48.1797C63 72.5795 82.7641 92.3594 107.144 92.3594Z" fill="white"/>
<path d="M617.906 21.0855L621.725 -0.222412L623.097 21.383L629.318 0.647297L628.22 22.268L636.765 2.38672L633.205 23.7327L643.961 4.95007L638 25.7621L650.822 8.32973L642.521 28.3178L657.248 12.4647L646.729 31.377L663.163 17.3015L650.563 34.894L668.492 22.7867L653.963 38.8306L673.157 28.8442L656.897 43.1257L677.106 35.3975L659.329 47.726L680.277 42.3552L661.212 52.5705L682.64 49.6257L662.538 57.6056L684.157 57.125L663.278 62.7552L684.813 64.7464L663.423 67.9582L684.592 72.3907L662.981 73.1383L683.509 79.9587L661.944 78.2421L681.565 87.3588L660.335 83.1934L678.79 94.4843L658.178 87.9234L675.223 101.251L655.495 92.3787L670.908 107.561L652.316 96.4984L665.908 113.343L648.695 100.229L660.274 118.516L644.67 103.525L654.092 123.009L640.295 106.34L647.437 126.77L635.63 108.636L640.401 129.746L630.736 110.383L633.068 131.905L625.674 111.558L625.537 133.209L620.506 112.153L617.906 133.644L615.307 112.153L610.276 133.209L610.139 111.558L602.744 131.905L605.077 110.383L595.411 129.746L600.183 108.636L588.375 126.77L595.518 106.34L581.72 123.009L591.142 103.525L575.538 118.516L587.117 100.229L569.905 113.343L583.489 96.4984L564.904 107.561L580.318 92.3787L560.59 101.251L577.634 87.9234L557.022 94.4843L575.47 83.1934L554.247 87.3588L573.869 78.2421L552.303 79.9587L572.832 73.1383L551.221 72.3907L572.39 67.9582L551 64.7464L572.535 62.7552L551.656 57.125L573.274 57.6056L553.173 49.6257L574.601 52.5705L555.536 42.3552L576.483 47.726L558.707 35.3975L578.915 43.1257L562.655 28.8442L581.85 38.8306L567.321 22.7867L585.25 34.894L572.649 17.3015L589.084 31.377L578.564 12.4647L593.284 28.3178L584.991 8.32973L597.812 25.7621L591.851 4.95007L602.607 23.7327L599.047 2.38672L607.592 22.268L606.495 0.647297L612.715 21.383L614.087 -0.222412L617.906 21.0855Z" fill="white"/>
<path d="M606.152 110.482L607.723 121.407L629.174 120.507L629.692 110.391L606.152 110.482Z" fill="white" stroke="black" stroke-miterlimit="10"/>
<path d="M616.603 30.5989C598.72 31.2397 583.894 45.8798 583.002 63.7699C582.407 75.6865 587.796 86.3976 596.441 93.1417C600.961 96.6663 604.064 101.709 604.841 107.385C604.902 107.858 604.963 108.331 605.009 108.827C605.253 111.413 607.479 113.351 610.071 113.206C615.186 112.908 623.014 112.458 627.07 112.229C628.541 112.146 630.904 112.184 630.858 109.552C630.805 106.607 630.813 104.044 631.56 101.854C632.604 98.8024 634.799 96.3306 637.467 94.5225C646.653 88.3049 652.728 77.8302 652.85 65.8984C653.049 46.04 636.667 29.8741 616.611 30.5989H616.603Z" fill="#FFDE66" stroke="black" stroke-miterlimit="10"/>
<path d="M629.593 120.644L607.433 121.384L612.075 128.441L613.394 128.456C614.042 130.593 616.017 132.156 618.364 132.179C620.712 132.202 622.717 130.676 623.403 128.556L624.874 128.571L629.593 120.644Z" fill="black"/>
<path d="M612.807 112.542C612.807 112.542 612.693 70.8955 603.53 69.8198C599.94 69.4002 599.658 74.8244 603.058 75.862C604.384 76.2663 606.442 75.0304 607.327 75.3585C608.973 75.9688 627.398 75.5797 628.122 75.6636C629.875 75.862 631.491 76.1443 633.122 75.1906C637.178 72.8256 633.61 67.6913 630.104 70.72C625.614 74.5956 624.287 112.024 624.287 112.024" stroke="white" stroke-width="2" stroke-miterlimit="10"/>
<path d="M607.113 117.265L629.539 116.097" stroke="black" stroke-miterlimit="10" stroke-linecap="round"/>
<path d="M430.981 152.006V147.36C430.981 140.754 431.255 135.924 444.458 133.132L456.815 130.714C462.014 129.692 463.874 128.761 463.874 127.182V127.09C463.874 125.32 462.761 124.298 453.095 124.298C439.808 124.298 439.252 127.738 438.97 130.905H405.048V129.783C405.048 121.597 406.069 106.255 449.939 106.255H454.399C493.153 106.255 498.36 116.951 498.36 126.907V127.746C498.36 134.91 494.922 142.905 481.17 145.697L468.623 148.207C465.276 148.955 464.164 149.794 464.164 151.93V152.022H430.989L430.981 152.006ZM464.339 176.656H430.981V155.073H464.339V176.656Z" fill="black" stroke="black" stroke-miterlimit="10"/>
<path d="M426.933 144.751V140.105C426.933 133.498 427.208 128.669 440.41 125.877L452.767 123.459C457.966 122.436 459.826 121.506 459.826 119.926V119.835C459.826 118.065 458.713 117.043 449.047 117.043C435.76 117.043 435.204 120.483 434.922 123.649H401V122.528C401 114.342 402.021 99 445.891 99H450.351C489.106 99 494.312 109.696 494.312 119.652V120.491C494.312 127.655 490.874 135.65 477.122 138.442L464.575 140.952C461.229 141.7 460.116 142.539 460.116 144.675V144.767H426.941L426.933 144.751ZM460.291 169.401H426.933V147.818H460.291V169.401Z" fill="#BACCFF" stroke="black" stroke-miterlimit="10"/>
<path d="M419.869 218.517C419.869 218.517 419.77 211.903 423.261 207.447C426.753 202.992 431.258 198.399 433.453 196.004C436.312 192.876 440.626 190.664 443.592 190.145C443.965 190.076 446.069 197.156 443.256 199.017C438.629 202.084 436.19 207.219 436.19 207.219C436.19 207.219 470.463 202.344 472.94 202.847C475.417 203.358 477.903 203.862 477.849 205.967C477.796 208.073 455.522 221.485 450.582 224.826C445.642 228.168 438.004 228.877 438.004 228.877L425.983 236.064C425.983 236.064 414.724 227.168 419.862 218.51L419.869 218.517Z" fill="white" stroke="black" stroke-miterlimit="10"/>
<path d="M469.075 206.173C463.854 205.441 458.792 208.302 454.744 211.681C450.689 215.053 447.083 219.097 442.38 221.492" stroke="black" stroke-miterlimit="10"/>
<path d="M434.833 208.95C435.725 213.658 436.007 218.479 435.672 223.255" stroke="black" stroke-miterlimit="10"/>
<path d="M445.017 211.445C446.9 211.445 448.79 211.445 450.673 211.445" stroke="black" stroke-miterlimit="10"/>
<path d="M197.844 150.382L240.403 140.373L244.42 133.583L287.116 134.27L297.034 144.889L325.49 158.866L301.607 259.225L221.475 263.345L197.844 150.382Z" fill="white" stroke="black" stroke-miterlimit="10"/>
<path d="M415.196 219.112L361.645 229.106C361.645 229.106 341.475 165.038 334.21 160.46C326.946 155.883 326.305 155.677 326.305 155.677L313.537 234.981C313.537 234.981 331.367 277.001 351.69 276.215C357.895 275.971 432.355 240.702 432.355 240.702L415.196 219.112Z" fill="#DBE0F1" stroke="black" stroke-miterlimit="10"/>
<path d="M259.056 344.335H176.477L194.688 289.131L197.15 149.436L244.801 132.263L252.653 148.635L264.362 148.933" fill="#DBE0F1"/>
<path d="M259.056 344.335H176.477L194.688 289.131L197.15 149.436L244.801 132.263L252.653 148.635L264.362 148.933" stroke="black" stroke-miterlimit="10"/>
<path d="M264.362 148.933L288.153 142.219L287.124 133.034L298.238 144.233C298.238 144.233 304.832 146.522 306.25 147.048C317.318 151.176 327.685 156.478 327.685 156.478L311.593 286.667C311.593 286.667 323.135 328.474 329.705 344.327H259.003" fill="#BACCFF"/>
<path d="M264.362 148.933L288.153 142.219L287.124 133.034L298.238 144.233C298.238 144.233 304.832 146.522 306.25 147.048C317.318 151.176 327.685 156.478 327.685 156.478L311.593 286.667C311.593 286.667 323.135 328.474 329.705 344.327H259.003" stroke="black" stroke-miterlimit="10"/>
<path d="M197.15 149.436C197.15 149.436 183.132 154.38 178.749 169.386C174.373 184.392 150.529 259.424 158.312 271.333C166.095 283.242 173.878 290.054 188.476 284.21C203.073 278.367 211.207 269.242 211.207 269.242L197.143 149.428L197.15 149.436Z" fill="#BACCFF" stroke="black" stroke-miterlimit="10"/>
<path d="M254.558 40.4021C250.175 37.6175 255.176 32.4374 258.858 28.7602C271.375 16.2791 292.742 27.715 300.037 33.1774C307.934 39.0823 316.342 50.7928 316.906 55.5534C317.417 59.8866 325.65 63.808 324.674 80.6452C323.592 99.3592 330.399 94.8352 330.361 104.928C330.315 118.989 327.502 121.178 325.49 132.607C323.477 144.035 327.769 154.708 326.298 154.708C323.249 154.708 293.961 139.984 291.476 140.152C288.991 140.319 287.032 132.401 284.593 132.874C281.391 133.492 278.35 131.134 276.451 128.487C274.546 125.84 273.219 122.719 270.788 120.545C267.601 117.707 263.119 117.005 259.079 115.617C250.168 112.55 242.728 105.47 239.206 96.7272C235.684 87.9844 236.142 77.7157 240.433 69.3237" fill="black"/>
<path d="M254.558 40.4021C250.175 37.6175 255.176 32.4374 258.858 28.7602C271.375 16.2791 292.742 27.715 300.037 33.1774C307.934 39.0823 316.342 50.7928 316.906 55.5534C317.417 59.8866 325.65 63.808 324.674 80.6452C323.592 99.3592 330.399 94.8352 330.361 104.928C330.315 118.989 327.502 121.178 325.49 132.607C323.477 144.035 327.769 154.708 326.298 154.708C323.249 154.708 293.961 139.984 291.476 140.152C288.991 140.319 287.032 132.401 284.593 132.874C281.391 133.492 278.35 131.134 276.451 128.487C274.546 125.84 273.219 122.719 270.788 120.545C267.601 117.707 263.119 117.005 259.079 115.617C250.168 112.55 242.728 105.47 239.206 96.7272C235.684 87.9843 236.142 77.7157 240.433 69.3237" stroke="black" stroke-miterlimit="10"/>
<path d="M245 143.134L244.367 109.857L238.429 57.0104C238.246 53.2416 240.982 49.9612 244.717 49.4576L282.977 38.6168C295.28 36.9613 303.917 51.9371 305.053 64.3037C306.311 78.0512 307.302 94.8809 305.968 105.203C303.277 125.954 287.528 129.036 287.528 129.036C287.528 128.967 288.077 144.142 288.077 144.142L278.121 152.129C270.285 158.423 258.934 157.683 251.982 150.42L245.007 143.134H245Z" fill="white" stroke="black" stroke-miterlimit="10"/>
<path d="M287.52 129.036C287.52 129.036 273.654 130.325 259.658 122.445C259.658 122.445 266.77 136.444 287.375 133.926L287.512 129.036H287.52Z" fill="black" stroke="black" stroke-miterlimit="10"/>
<path d="M318.965 61.8093C318.004 58.7119 316.236 55.7595 313.522 53.9895C312.035 53.0206 310.305 52.4256 308.925 51.3117C305.945 48.901 305.251 44.705 303.406 41.3406C301.028 36.9997 296.446 33.9557 291.53 33.4522C287.436 33.0326 283.221 34.2609 279.234 33.2538C276.284 32.5062 273.715 30.5913 270.727 30.0267C266.778 29.2791 263.02 30.9575 259.696 33.4217C257.356 32.0942 254.742 31.3771 252.096 31.522C246.623 31.8196 234.472 36.725 223.998 52.3951C223.51 53.1274 223.259 53.9895 222.969 54.8211C220.903 58.4525 220.515 63.007 222.009 66.9131C222.908 69.2705 226.499 73.7716 213.898 91.0742C208.105 99.0313 210.895 116.624 207.022 124.688C200.527 138.199 205.36 145.706 205.36 145.706C205.36 145.706 241.089 132.599 244.428 132.599L243.886 84.086C244.298 85.0015 245.099 85.8331 246.524 86.1535C253.514 87.7327 254.536 73.3291 252.973 69.423C255.496 67.1801 258.057 64.899 259.986 62.0458C261.915 59.1925 263.615 51.4109 263.203 47.9092C263.203 47.9092 263.211 47.9092 263.218 47.9092C266.229 49.8317 270.696 57.8422 282.763 57.8422C287.619 57.8422 293.794 70.3309 302.613 70.3309C314.383 70.3309 308.453 63.9301 310.839 66.8215C313.225 69.7129 316.8 72.467 320.398 71.399C320.169 68.1643 319.933 64.899 318.972 61.8016L318.965 61.8093Z" fill="black" stroke="black" stroke-miterlimit="10"/>
<path d="M245.808 85.7948C245.586 81.37 240.174 80.4164 236.34 82.6364C234.236 83.8571 232.628 86.306 232.818 91.0055C233.336 103.54 245.808 100.435 245.808 100.076" fill="white"/>
<path d="M245.808 85.7948C245.586 81.37 240.174 80.4164 236.34 82.6364C234.236 83.8571 232.628 86.306 232.818 91.0055C233.336 103.54 245.808 100.435 245.808 100.076" stroke="black" stroke-miterlimit="10"/>
<path d="M198.386 220.646C198.386 220.646 205.3 225.696 207.32 226.558C209.34 227.42 214.668 232.181 215.964 237.086C217.26 241.992 220.721 244.441 221.872 246.744C223.023 249.048 223.023 258.569 222.878 260.873C222.733 263.177 229.792 268.663 230.227 269.67C230.661 270.677 231.233 273.133 229.365 273.705C227.49 274.285 225.477 273.995 224.464 272.988C223.457 271.981 219.28 268.373 219.28 268.373C219.28 268.373 219.715 272.843 218.274 273.133C216.833 273.423 214.531 273.133 214.531 273.133L209.195 265.199C209.195 265.199 207.899 270.822 205.589 270.25C203.287 269.67 201.846 269.098 201.557 265.634C201.267 262.17 199.681 257.99 199.681 257.99V255.106C199.681 255.106 196.655 258.852 194.353 258.28C192.051 257.7 191.037 256.548 190.892 255.686C190.747 254.824 191.609 249.193 192.333 246.6C193.057 244.006 195.214 239.39 195.214 239.39C195.214 239.39 196.51 233.043 195.07 230.594C193.629 228.145 185.556 221.218 184.55 218.914C183.544 216.61 182.103 213.146 185.556 211.849C189.017 210.552 193.408 217.151 198.378 220.646H198.386Z" fill="white" stroke="black" stroke-miterlimit="10"/>
<path d="M199.567 255.426C199.453 252.291 200.116 247.454 201.488 244.639" stroke="black" stroke-miterlimit="10"/>
<path d="M209.317 265.047C208.608 259.607 207.899 254.168 207.183 248.728" stroke="black" stroke-miterlimit="10"/>
<path d="M219.006 267.762C216.216 262.788 214.463 257.234 213.898 251.558" stroke="black" stroke-miterlimit="10"/>
<path d="M292.079 83.0636C292.033 84.6962 293.329 86.0618 294.983 86.1152C296.637 86.161 298.009 84.8793 298.055 83.2391C298.101 81.6065 296.805 80.2409 295.151 80.1875C293.497 80.1417 292.125 81.4234 292.079 83.0636Z" fill="black"/>
<path d="M266.047 83.0636C266.001 84.6962 267.297 86.0618 268.951 86.1152C270.605 86.161 271.977 84.8793 272.023 83.2391C272.069 81.6065 270.773 80.2409 269.119 80.1875C267.464 80.1417 266.092 81.4234 266.047 83.0636Z" fill="black"/>
<path d="M281.186 79.4094C281.437 83.2163 287.535 91.5854 287.726 92.8518C287.939 94.2174 283.335 97.3376 281.978 97.597" stroke="black" stroke-linecap="round" stroke-linejoin="round"/>
<path d="M286.567 107.149C284.059 108.514 281.102 109.025 278.281 108.575C275.461 108.125 272.808 106.721 270.841 104.646H286.567" stroke="black" stroke-linecap="round" stroke-linejoin="round"/>
<path d="M242.407 88.3201C240.837 89.1211 240.098 91.242 240.837 92.8441C241.577 94.4462 243.658 95.2701 245.289 94.5988" stroke="black" stroke-linecap="round" stroke-linejoin="round"/>
<path d="M533.54 122.789L521.66 134.679L533.54 146.568L545.42 134.679L533.54 122.789Z" fill="#FFDE66" stroke="black" stroke-miterlimit="10"/>
<path d="M164.055 98.0001L157 105.061L164.055 112.122L171.111 105.061L164.055 98.0001Z" fill="#DBE0F1" stroke="black" stroke-miterlimit="10"/>
<path d="M501.883 38.9999L495 45.8887L501.883 52.7775L508.767 45.8887L501.883 38.9999Z" fill="#BACCFF" stroke="black" stroke-miterlimit="10"/>
<path d="M354.495 145.316C356.785 145.316 358.642 143.458 358.642 141.166C358.642 138.874 356.785 137.016 354.495 137.016C352.205 137.016 350.348 138.874 350.348 141.166C350.348 143.458 352.205 145.316 354.495 145.316Z" fill="white" stroke="black" stroke-miterlimit="10"/>
<path d="M635.998 394H157.998L162.785 350H631.068L635.998 394Z" fill="#E4EBF5" stroke="black" stroke-miterlimit="10"/>
<path d="M160.509 393.619L164.207 350.026C164.283 349.126 163.612 348.333 162.712 348.256C161.805 348.18 158.794 348.851 158.718 349.752L154.998 393.626H160.509V393.619Z" fill="black" stroke="black" stroke-miterlimit="10"/>
<path d="M605.006 393.619L600.616 348.058C600.532 347.158 597.498 346.494 596.598 346.586C595.699 346.67 595.036 347.471 595.127 348.378L599.487 393.626H605.006V393.619Z" fill="black" stroke="black" stroke-miterlimit="10"/>
<path d="M657.998 343H138.998V351H657.998V343Z" fill="black" stroke="black" stroke-miterlimit="10"/>
<path d="M477.155 358.609H402.138C398.741 358.609 395.986 361.365 395.986 364.765V376.171C395.986 379.571 398.741 382.328 402.138 382.328H477.155C480.553 382.328 483.307 379.571 483.307 376.171V364.765C483.307 361.365 480.553 358.609 477.155 358.609Z" fill="white" stroke="black" stroke-miterlimit="10"/>
<path d="M447.312 365.986H431.982C430.892 365.986 430 365.101 430 364.003C430 362.912 430.884 362.019 431.982 362.019H447.312C448.402 362.019 449.294 362.904 449.294 364.003C449.294 365.094 448.409 365.986 447.312 365.986Z" fill="black" stroke="black" stroke-miterlimit="10"/>
<path d="M288.176 358.609H213.159C209.761 358.609 207.007 361.365 207.007 364.765V376.171C207.007 379.571 209.761 382.328 213.159 382.328H288.176C291.573 382.328 294.327 379.571 294.327 376.171V364.765C294.327 361.365 291.573 358.609 288.176 358.609Z" fill="white" stroke="black" stroke-miterlimit="10"/>
<path d="M258.339 365.986H243.01C241.92 365.986 241.028 365.101 241.028 364.003C241.028 362.912 241.912 362.019 243.01 362.019H258.339C259.43 362.019 260.321 362.904 260.321 364.003C260.321 365.094 259.437 365.986 258.339 365.986Z" fill="black" stroke="black" stroke-miterlimit="10"/>
<path d="M577.747 358.609H502.73C499.332 358.609 496.578 361.365 496.578 364.765V376.171C496.578 379.571 499.332 382.328 502.73 382.328H577.747C581.144 382.328 583.899 379.571 583.899 376.171V364.765C583.899 361.365 581.144 358.609 577.747 358.609Z" fill="white" stroke="black" stroke-miterlimit="10"/>
<path d="M547.903 365.986H532.573C531.483 365.986 530.591 365.101 530.591 364.003C530.591 362.912 531.476 362.019 532.573 362.019H547.903C548.993 362.019 549.885 362.904 549.885 364.003C549.885 365.094 549.001 365.986 547.903 365.986Z" fill="black" stroke="black" stroke-miterlimit="10"/>
<path d="M412.612 289.917L406.658 321.425C406.308 323.294 407.604 325.079 409.494 325.316C411.232 325.529 412.833 324.355 413.146 322.623L418.825 291.115L416.866 283.814L412.612 289.91V289.917Z" fill="black" stroke="black" stroke-miterlimit="10"/>
<path d="M414.937 286.576L417.689 286.934L418.825 291.123C418.825 291.123 417.498 292.442 416.385 290.947C416.385 290.947 415.105 292.358 414.06 290.665C414.06 290.665 412.993 291.466 412.62 289.925L414.945 286.583L414.937 286.576Z" fill="white" stroke="black" stroke-miterlimit="10"/>
<path d="M406.658 321.433L413.176 322.44L413.496 320.685L407.024 319.48L406.658 321.433Z" fill="white" stroke="black" stroke-miterlimit="10"/>
<path d="M392.762 293.655L397.74 325.339C398.037 327.223 399.859 328.459 401.719 328.047C403.427 327.666 404.54 326.018 404.258 324.286L399.021 292.702L394.721 286.484L392.762 293.655Z" fill="#FFDE66" stroke="black" stroke-miterlimit="10"/>
<path d="M393.829 289.727L396.536 289.139L399.013 292.702C399.013 292.702 398.205 294.396 396.658 293.358C396.658 293.358 395.926 295.12 394.371 293.869C394.371 293.869 393.639 294.975 392.762 293.656L393.829 289.727Z" fill="white" stroke="black" stroke-miterlimit="10"/>
<path d="M397.74 325.339L404.219 324.088L403.93 322.341L397.435 323.378L397.74 325.339Z" fill="white" stroke="black" stroke-miterlimit="10"/>
<path d="M409.487 318.717L408.016 286.683C407.932 284.783 406.255 283.349 404.364 283.555C402.626 283.745 401.338 285.264 401.429 287.018L403.167 318.984L406.758 325.636L409.487 318.724V318.717Z" fill="white" stroke="black" stroke-miterlimit="10"/>
<path d="M407.993 322.501L405.233 322.791L403.167 318.976C403.167 318.976 404.158 317.382 405.584 318.587C405.584 318.587 406.506 316.916 407.917 318.328C407.917 318.328 408.77 317.305 409.494 318.717L408 322.501H407.993Z" fill="white" stroke="black" stroke-miterlimit="10"/>
<path d="M408.023 286.683L401.445 287.209L401.536 288.979L408.107 288.659L408.023 286.683Z" fill="white" stroke="black" stroke-miterlimit="10"/>
<path d="M411.751 343.297H399.165C395.255 343.297 392.03 340.223 391.832 336.317L390.361 306.602H420.54L419.069 336.317C418.878 340.231 415.654 343.297 411.735 343.297H411.751Z" fill="#E4EBF5" stroke="black" stroke-miterlimit="10"/>
<path d="M520.651 214.359C521.162 214.153 521.726 214.474 522.176 214.794C523.815 215.954 525.309 217.304 526.643 218.807L525.835 233.714C525.766 234.21 525.69 234.714 525.439 235.148C525.187 235.576 524.699 235.911 524.204 235.827C523.464 235.705 523.159 234.836 523.007 234.103C521.749 228.237 520.751 222.309 520.019 216.35C519.927 215.61 519.958 214.649 520.651 214.375V214.359Z" fill="white" stroke="black" stroke-linecap="round" stroke-linejoin="round"/>
<path d="M523.807 204.396L572.464 227.26L578.38 258.013C579.325 256.578 542.171 265.1 542.171 265.1C541.363 262.407 538.984 252.626 538.176 249.941C535.493 250.124 532.894 248.667 531.102 246.661C529.311 244.654 527.809 242.251 527.222 239.619C524.211 226.062 523.921 215.885 523.807 204.396Z" fill="white" stroke="black" stroke-linecap="round" stroke-linejoin="round"/>
<path d="M518.105 204.716C519.691 206.547 520.621 208.813 520.934 211.216C521.109 212.582 521.498 213.818 522.321 214.817C523.579 216.335 524.303 218.22 524.722 220.142C525.362 223.056 526.155 226.627 526.643 228.031C528.625 233.76 539.899 243.662 542.095 245.531C560.382 261.072 579.249 245.242 579.66 244.647C583.556 238.887 586.315 232.638 587.954 227.413C588.755 224.864 588.023 217.937 588.625 216.656C589.616 214.565 590.264 212.711 592.246 211.529C593.1 211.025 593.831 210.293 594.304 209.423C595.44 207.341 595.28 204.724 594.312 202.557C594.007 201.878 593.633 201.23 593.206 200.627C591.651 198.399 591.811 195.744 591.888 193.029C591.933 191.411 591.545 189.779 590.79 188.352C589.654 186.216 587.726 183.736 587.947 181.326C587.992 180.86 587.977 180.395 587.916 179.937C587.665 178.037 586.628 176.313 585.34 174.887C581.635 170.79 579.676 169.119 574.324 170.317C572.243 170.782 571.794 170.653 569.835 169.798C569.27 169.554 568.676 169.47 568.211 169.562C567.037 169.791 565.825 169.63 564.628 169.516C564.049 169.455 563.477 169.478 562.989 169.569C561.19 169.897 559.323 169.707 557.584 169.127C551.501 167.09 544.526 167.715 538.908 170.828C537.086 171.835 535.051 172.407 532.97 172.354C529.829 172.27 527.039 174.215 524.798 176.42C511.878 189.176 517.229 203.724 518.098 204.731L518.105 204.716Z" fill="#BACCFF" stroke="black" stroke-linecap="round" stroke-linejoin="round"/>
<path d="M448.638 283.227C449.309 282.822 450.163 282.914 450.727 283.455C453.654 286.255 462.458 294.601 464.273 295.456C466.468 296.478 471.728 297.798 472.604 299.11C473.481 300.43 473.656 306.007 473.656 306.007L492.325 325.735L501.328 306.007L521.993 313.216C521.993 313.216 510.048 343.381 507.395 347.173C504.743 350.965 493.59 354.192 487.698 349.828C481.805 345.464 462.664 319.35 462.664 319.35C462.664 319.35 453.753 321.303 452.434 319.35C451.115 317.397 450.826 315.497 450.826 315.497C450.826 315.497 449.073 313.743 448.341 310.378C447.609 307.014 450.384 306.007 450.384 306.007C450.384 306.007 446.58 301.162 448.92 298.82C451.26 296.478 454.332 297.355 454.332 297.355L455.064 295.601L448.104 285.721C447.517 284.89 447.761 283.745 448.63 283.227H448.638Z" fill="white" stroke="black" stroke-linecap="round" stroke-linejoin="round"/>
<path d="M588.572 254.16C589.227 254.518 598.39 260.05 601.34 266.694C604.29 273.339 612.401 304.832 612.401 309.997L603.071 313.422L588.572 254.168V254.16Z" fill="white" stroke="black" stroke-linecap="round" stroke-linejoin="round"/>
<path d="M577.64 251.551C577.64 251.551 589.982 250.788 596.903 261.964C600.654 268.022 602.483 284.394 604.869 294.983C605.395 297.317 608.902 323.531 611.089 332.754C612.279 337.782 614.062 349.759 614.062 349.759C614.062 349.759 628.95 391.612 606.013 392.978C583.075 394.343 519.98 392.978 519.98 392.978L526.658 346.258L522.603 300.628L523.136 260.095L540.593 255.533C540.593 255.533 544.862 256.99 562.257 256.09C571.382 255.617 577.64 251.543 577.64 251.543V251.551Z" fill="#FFF1CC" stroke="black" stroke-linecap="round" stroke-linejoin="round"/>
<path d="M523.129 260.103C529.395 259.981 531.537 272.599 529.99 284.325L523.319 319.724C523.319 319.724 506.404 322.508 496.449 307.51C496.449 307.51 514.332 260.271 523.129 260.103Z" fill="white" stroke="black" stroke-linecap="round" stroke-linejoin="round"/>
<path d="M135.477 49.2783C135.477 49.2172 135.477 49.1562 135.477 49.0952C135.477 33.6006 124.485 21.7909 111.907 19.1589C109.308 18.6172 107.135 20.7838 107.135 23.4006C107.135 20.7838 104.963 18.6172 102.371 19.1589C89.7854 21.7909 78.8008 33.6082 78.8008 49.0952C78.8008 49.1562 78.8008 49.2172 78.8008 49.2783C78.8008 49.3393 78.8008 49.3927 78.8008 49.4537C78.8008 51.4602 79.0142 53.4208 79.403 55.3128C81.8576 67.9312 91.5158 76.3995 102.371 78.6805C104.963 79.2222 107.135 77.0556 107.135 74.4388C107.135 77.0556 109.308 79.2298 111.907 78.6805C122.762 76.4071 132.42 67.9389 134.875 55.3128C135.264 53.4208 135.477 51.4602 135.477 49.4537C135.477 49.3927 135.477 49.3393 135.477 49.2783Z" fill="white" stroke="black" stroke-miterlimit="10"/>
<path d="M93.2082 67.4811C90.8146 67.8168 88.2914 67.0462 86.4848 65.1695C84.0988 62.6977 83.6719 59.051 85.166 56.1596C83.4356 54.9848 82.2998 53.52 82.2998 51.2694C82.2998 49.6063 82.9173 48.6145 83.9387 47.4549C83.6719 46.7454 83.5271 45.9825 83.5271 45.1815C83.5271 43.4192 84.2284 41.8171 85.3642 40.6422C84.419 38.2696 84.9068 35.1645 86.8659 32.6393C88.6192 30.3811 91.1195 29.9234 93.4369 29.931C93.5131 27.8178 94.7252 25.819 96.7605 24.8348C99.6877 23.4235 103.202 24.6441 104.62 27.5737L104.604 27.6271C104.894 28.3213 105.054 29.0766 105.054 29.87C105.054 30.8007 104.833 31.6781 104.452 32.4562C105.222 33.0055 105.725 33.8981 105.725 34.9128C105.725 36.3776 104.673 37.5982 103.293 37.8729C105.054 38.6281 106.281 40.3752 106.281 42.4121C106.281 43.7853 105.717 45.0289 104.818 45.9215C105.649 46.8064 106.167 47.9966 106.167 49.3088C106.167 51.0177 105.298 52.5206 103.987 53.4055C105.062 54.7406 105.733 56.6555 105.733 58.784C105.733 61.0193 104.216 64.2311 104.216 64.2311C104.856 65.1771 105.23 66.3215 105.23 67.5574C105.23 70.8455 102.569 73.508 99.2837 73.508C95.9982 73.508 93.3378 70.8455 93.3378 67.5574L93.2234 67.4811H93.2082Z" fill="#DBE0F1" stroke="black" stroke-linecap="round" stroke-linejoin="round"/>
<path d="M93.208 29.9082C95.0375 29.9158 96.8594 30.4956 98.3611 31.5408" stroke="black" stroke-linecap="round" stroke-linejoin="round"/>
<path d="M94.3057 37.9567C96.2419 38.6128 98.5516 37.9796 99.8856 36.4385C101.22 34.8974 101.525 32.5248 100.61 30.6938" stroke="black" stroke-linecap="round" stroke-linejoin="round"/>
<path d="M87.2393 38.4603C89.0154 37.9568 91.0888 38.9104 91.8664 40.5811C92.6439 42.2595 92.0417 44.4567 90.5171 45.4942" stroke="black" stroke-linecap="round" stroke-linejoin="round"/>
<path d="M102.485 50.0945C101.029 48.9425 99.2073 48.2635 97.3473 48.1872C95.495 48.1109 93.6197 48.6373 92.0723 49.6596" stroke="black" stroke-linecap="round" stroke-linejoin="round"/>
<path d="M93.1397 51.7195C92.7662 52.6502 92.9949 53.7869 93.6962 54.5041C94.3975 55.2212 95.5257 55.473 96.4633 55.1144C97.401 54.7558 98.087 53.8251 98.1404 52.8257" stroke="black" stroke-linecap="round" stroke-linejoin="round"/>
<path d="M88.5811 59.7606C89.694 59.3257 90.4944 58.1966 90.5249 56.9989C90.563 55.8088 89.8312 54.6263 88.7488 54.1304" stroke="black" stroke-linecap="round" stroke-linejoin="round"/>
<path d="M93.269 67.4354C93.1776 66.1842 93.1318 64.8949 93.5511 63.72C93.9703 62.5375 94.9766 61.4924 96.2267 61.3779" stroke="black" stroke-linecap="round" stroke-linejoin="round"/>
<path d="M84.2515 47.5083C85.4864 49.5376 87.8495 50.8346 90.2202 50.7735" stroke="black" stroke-linecap="round" stroke-linejoin="round"/>
<path d="M96.3335 59.4935C98.2392 58.8069 100.587 59.7453 101.502 61.561C102.409 63.3767 101.761 65.818 100.076 66.9394" stroke="black" stroke-linecap="round" stroke-linejoin="round"/>
<path d="M97.6904 43.175C99.0626 43.2894 100.427 42.1527 100.549 40.7795C100.671 39.4062 99.5428 38.0406 98.1707 37.9033" stroke="black" stroke-linecap="round" stroke-linejoin="round"/>
<path d="M121.627 67.4811C124.02 67.8168 126.543 67.0462 128.35 65.1695C130.736 62.6977 131.163 59.051 129.669 56.1596C131.399 54.9848 132.535 53.52 132.535 51.2694C132.535 49.6063 131.917 48.6145 130.896 47.4549C131.163 46.7454 131.308 45.9825 131.308 45.1815C131.308 43.4192 130.606 41.8171 129.47 40.6422C130.416 38.2696 129.928 35.1645 127.969 32.6393C126.216 30.3811 123.715 29.9234 121.398 29.931C121.322 27.8178 120.11 25.819 118.074 24.8348C115.147 23.4235 111.633 24.6441 110.215 27.5737L110.23 27.6271C109.941 28.3213 109.781 29.0766 109.781 29.87C109.781 30.8007 110.002 31.6781 110.383 32.4562C109.613 33.0055 109.11 33.8981 109.11 34.9128C109.11 36.3776 110.162 37.5982 111.541 37.8729C109.781 38.6281 108.553 40.3752 108.553 42.4121C108.553 43.7853 109.117 45.0289 110.017 45.9215C109.186 46.8064 108.668 47.9966 108.668 49.3088C108.668 51.0177 109.537 52.5206 110.848 53.4055C109.773 54.7406 109.102 56.6555 109.102 58.784C109.102 61.0193 110.619 64.2311 110.619 64.2311C109.979 65.1771 109.605 66.3215 109.605 67.5574C109.605 70.8455 112.266 73.508 115.551 73.508C118.837 73.508 121.497 70.8455 121.497 67.5574L121.611 67.4811H121.627Z" fill="#FFEFB0" stroke="black" stroke-linecap="round" stroke-linejoin="round"/>
<mask id="mask0_10101_30532" style="mask-type:luminance" maskUnits="userSpaceOnUse" x="108" y="24" width="25" height="50">
<path d="M121.627 67.4811C124.02 67.8168 126.543 67.0462 128.35 65.1695C130.736 62.6977 131.163 59.051 129.669 56.1596C131.399 54.9848 132.535 53.52 132.535 51.2694C132.535 49.6063 131.917 48.6145 130.896 47.4549C131.163 46.7454 131.308 45.9825 131.308 45.1815C131.308 43.4192 130.606 41.8171 129.47 40.6422C130.416 38.2696 129.928 35.1645 127.969 32.6393C126.216 30.3811 123.715 29.9234 121.398 29.931C121.322 27.8178 120.11 25.819 118.074 24.8348C115.147 23.4235 111.633 24.6441 110.215 27.5737L110.23 27.6271C109.941 28.3213 109.781 29.0766 109.781 29.87C109.781 30.8007 110.002 31.6781 110.383 32.4562C109.613 33.0055 109.11 33.8981 109.11 34.9128C109.11 36.3776 110.162 37.5982 111.541 37.8729C109.781 38.6281 108.553 40.3752 108.553 42.4121C108.553 43.7853 109.117 45.0289 110.017 45.9215C109.186 46.8064 108.668 47.9966 108.668 49.3088C108.668 51.0177 109.537 52.5206 110.848 53.4055C109.773 54.7406 109.102 56.6555 109.102 58.784C109.102 61.0193 110.619 64.2311 110.619 64.2311C109.979 65.1771 109.605 66.3215 109.605 67.5574C109.605 70.8455 112.266 73.508 115.551 73.508C118.837 73.508 121.497 70.8455 121.497 67.5574L121.611 67.4811H121.627Z" fill="white"/>
</mask>
<g mask="url(#mask0_10101_30532)">
<path d="M142.643 47.2262C141.484 44.6628 139.952 42.2673 137.886 40.3296C133.892 36.5913 128.678 35.5004 123.38 35.3249C121.283 35.2562 119.179 35.2868 117.083 35.1418C115.932 35.0121 114.796 34.8061 113.691 34.4705C113.325 34.3026 112.967 34.1272 112.616 33.9212C112.456 33.7838 112.304 33.6465 112.151 33.4939C112.144 33.4787 112.136 33.4711 112.128 33.4558C112.052 33.2346 111.983 33.0057 111.93 32.7768C111.877 32.2123 111.861 31.6477 111.877 31.0832C111.961 30.4957 112.083 29.9159 112.25 29.3514C112.349 29.1454 112.448 28.9394 112.563 28.7411C114.392 26.6202 114.53 23.0803 112.296 21.1425C110.131 19.2734 106.655 19.0903 104.643 21.3562C102.729 23.5075 101.571 26.3379 101.243 29.1835C100.862 32.5556 101.151 35.775 102.729 38.8343C104.018 41.329 106.67 43.3125 109.239 44.3043C112.189 45.4486 115.071 45.8606 118.227 46.0208C120.483 46.1352 122.755 46.0742 125.011 46.2192C126.139 46.3565 127.26 46.5625 128.35 46.8981C128.868 47.127 129.364 47.3864 129.844 47.6839C130.347 48.0959 130.82 48.5536 131.254 49.0343C131.849 49.8353 132.367 50.6898 132.817 51.5824C133.053 52.1774 133.251 52.7878 133.404 53.4057C133.419 53.6041 133.434 53.8024 133.434 54.0008C133.396 54.1915 133.343 54.3822 133.289 54.5729C132.901 55.8088 133.312 57.533 133.968 58.6011C134.677 59.7454 136.049 60.8059 137.398 61.0424C138.755 61.2865 140.249 61.1568 141.423 60.3634C142.689 59.5089 143.405 58.3875 143.862 56.9303C144.869 53.7261 143.992 50.171 142.658 47.2109L142.643 47.2262Z" fill="#FFDE66"/>
<path d="M133.511 46.2726C132.329 44.3958 130.225 43.0836 128.053 42.7327C126.513 42.4885 125.065 42.5572 123.54 42.664C122.16 42.7632 120.773 42.7174 119.385 42.6106C115.2 42.1758 111.054 41.3976 106.838 41.3671C104.071 41.3442 101.54 44.0449 101.632 46.7913C101.555 46.8142 101.479 46.8295 101.403 46.8524C100.13 47.2414 98.7884 48.2714 98.209 49.492C97.6068 50.7584 97.3324 52.2613 97.8126 53.6193C98.2624 54.8857 99.139 56.3047 100.45 56.8159C101.868 57.3728 102.516 57.6017 104.025 57.6551C104.757 57.6779 105.497 57.5254 106.205 57.3728C107.334 57.121 108.439 56.5565 109.407 55.9309C110.512 55.2138 111.488 54.2907 112.601 53.5888C112.632 53.5888 112.654 53.5888 112.685 53.5888C114.751 53.9474 116.748 54.8094 118.707 55.5113C120.453 56.1369 122.206 56.793 124.035 57.1592C127.725 57.8916 131.666 57.3652 133.755 53.81C135.104 51.5061 134.921 48.4926 133.526 46.2649L133.511 46.2726Z" fill="#FFF1CC"/>
<path d="M129.105 63.4379C127.397 61.0958 125.24 59.3563 122.198 59.3563C121.627 59.3563 121.093 59.4555 120.567 59.5852C120.422 59.2266 120.255 58.8681 120.049 58.5172C118.936 56.6099 116.923 55.2977 114.781 54.8552C112.266 54.3364 109.994 54.9086 107.509 55.107C106.114 55.2214 104.765 55.7631 103.797 56.8006C102.874 57.7771 102.204 59.3792 102.318 60.7448C102.554 63.5752 104.925 66.1843 107.944 65.9402C108.957 65.8563 109.964 65.6732 110.97 65.5511C111.099 65.986 111.267 66.4056 111.511 66.8328C112.456 68.4807 114.019 69.4495 115.749 70.0904C117.434 70.716 119.073 70.9372 120.857 70.632C120.979 70.6092 121.101 70.5863 121.223 70.5634C121.825 71.044 122.511 71.4026 123.327 71.5857C124.6 71.8679 126.254 71.6543 127.352 70.9067C129.623 69.3656 130.896 65.8944 129.112 63.4455L129.105 63.4379Z" fill="#FFDE66"/>
<path d="M130.759 26.3912C130.645 25.018 130.141 23.599 129.067 22.6759C128.678 22.3402 128.228 22.0198 127.74 21.768C127.908 20.967 127.916 20.1736 127.641 19.2657C127.252 17.9917 126.223 16.649 125.004 16.0691C123.738 15.4665 122.237 15.1918 120.88 15.6724C119.629 16.1149 118.166 16.9999 117.686 18.3121C117.114 19.8531 116.74 21.1806 116.824 22.8514C116.878 24.0186 117.091 25.2316 117.518 26.3302C118.791 29.5802 121.764 32.5555 125.568 32.0367C127.001 31.846 128.259 31.434 129.28 30.3431C130.202 29.3665 130.873 27.7644 130.759 26.3989V26.3912ZM127.252 23.3854C127.367 23.0802 127.473 22.7827 127.557 22.4928C127.557 22.4928 127.565 22.508 127.573 22.5157L127.207 23.4998C127.207 23.4998 127.237 23.4235 127.245 23.3854H127.252Z" fill="#FFDE66"/>
</g>
<path d="M121.627 29.9082C119.797 29.9158 117.975 30.4956 116.474 31.5408" stroke="black" stroke-linecap="round" stroke-linejoin="round"/>
<path d="M120.529 37.9567C118.593 38.6128 116.283 37.9796 114.949 36.4385C113.615 34.8974 113.31 32.5248 114.225 30.6938" stroke="black" stroke-linecap="round" stroke-linejoin="round"/>
<path d="M127.595 38.4603C125.819 37.9568 123.746 38.9104 122.968 40.5811C122.191 42.2595 122.793 44.4567 124.317 45.4942" stroke="black" stroke-linecap="round" stroke-linejoin="round"/>
<path d="M112.35 50.0945C113.806 48.9425 115.627 48.2635 117.487 48.1872C119.34 48.1109 121.215 48.6373 122.763 49.6596" stroke="black" stroke-linecap="round" stroke-linejoin="round"/>
<path d="M121.695 51.7195C122.068 52.6502 121.84 53.7869 121.138 54.5041C120.437 55.2212 119.309 55.473 118.371 55.1144C117.434 54.7558 116.748 53.8251 116.694 52.8257" stroke="black" stroke-linecap="round" stroke-linejoin="round"/>
<path d="M126.254 59.7606C125.141 59.3257 124.341 58.1966 124.31 56.9989C124.272 55.8088 125.004 54.6263 126.086 54.1304" stroke="black" stroke-linecap="round" stroke-linejoin="round"/>
<path d="M121.566 67.4354C121.657 66.1842 121.703 64.8949 121.284 63.72C120.864 62.5452 119.858 61.4924 118.608 61.3779" stroke="black" stroke-linecap="round" stroke-linejoin="round"/>
<path d="M130.583 47.5083C129.349 49.5376 126.985 50.8346 124.615 50.7735" stroke="black" stroke-linecap="round" stroke-linejoin="round"/>
<path d="M118.501 59.4935C116.595 58.8069 114.247 59.7453 113.333 61.561C112.418 63.3767 113.073 65.818 114.758 66.9394" stroke="black" stroke-linecap="round" stroke-linejoin="round"/>
<path d="M117.144 43.175C115.772 43.2894 114.407 42.1527 114.285 40.7795C114.163 39.4062 115.292 38.0406 116.664 37.9033" stroke="black" stroke-linecap="round" stroke-linejoin="round"/>
<path d="M121.627 67.4811C124.02 67.8168 126.543 67.0462 128.35 65.1695C130.736 62.6977 131.163 59.051 129.669 56.1596C131.399 54.9848 132.535 53.52 132.535 51.2694C132.535 49.6063 131.917 48.6145 130.896 47.4549C131.163 46.7454 131.308 45.9825 131.308 45.1815C131.308 43.4192 130.606 41.8171 129.47 40.6422C130.416 38.2696 129.928 35.1645 127.969 32.6393C126.216 30.3811 123.715 29.9234 121.398 29.931C121.322 27.8178 120.11 25.819 118.074 24.8348C115.147 23.4235 111.633 24.6441 110.215 27.5737L110.23 27.6271C109.941 28.3213 109.781 29.0766 109.781 29.87C109.781 30.8007 110.002 31.6781 110.383 32.4562C109.613 33.0055 109.11 33.8981 109.11 34.9128C109.11 36.3776 110.162 37.5982 111.541 37.8729C109.781 38.6281 108.553 40.3752 108.553 42.4121C108.553 43.7853 109.117 45.0289 110.017 45.9215C109.186 46.8064 108.668 47.9966 108.668 49.3088C108.668 51.0177 109.537 52.5206 110.848 53.4055C109.773 54.7406 109.102 56.6555 109.102 58.784C109.102 61.0193 110.619 64.2311 110.619 64.2311C109.979 65.1771 109.605 66.3215 109.605 67.5574C109.605 70.8455 112.266 73.508 115.551 73.508C118.837 73.508 121.497 70.8455 121.497 67.5574L121.611 67.4811H121.627Z" stroke="black" stroke-linecap="round" stroke-linejoin="round"/>
<path d="M389.027 38.4414C393.83 38.4414 397.725 34.5442 397.725 29.7367C397.725 24.9292 393.83 21.032 389.027 21.032C384.223 21.032 380.329 24.9292 380.329 29.7367C380.329 34.5442 384.223 38.4414 389.027 38.4414Z" fill="#FFEFB0" stroke="black" stroke-linejoin="round"/>
<path d="M406.91 31.8577H370.862C367.397 31.8577 364.588 34.6687 364.588 38.1364V42.1874C364.588 45.655 367.397 48.4661 370.862 48.4661H406.91C410.375 48.4661 413.184 45.655 413.184 42.1874V38.1364C413.184 34.6687 410.375 31.8577 406.91 31.8577Z" fill="black" stroke="black" stroke-linejoin="round"/>
<path d="M405.706 25.6248H372.066C369.999 25.6248 368.323 27.3018 368.323 29.3706V51.4948C368.323 53.5636 369.999 55.2406 372.066 55.2406H405.706C407.773 55.2406 409.449 53.5636 409.449 51.4948V29.3706C409.449 27.3018 407.773 25.6248 405.706 25.6248Z" fill="#BACCFF" stroke="black" stroke-linejoin="round"/>
<path d="M384.758 31.8577H377.394C376.35 31.8577 375.504 32.7047 375.504 33.7497V40.3106C375.504 41.3555 376.35 42.2026 377.394 42.2026H384.758C385.802 42.2026 386.649 41.3555 386.649 40.3106V33.7497C386.649 32.7047 385.802 31.8577 384.758 31.8577Z" fill="white" stroke="black" stroke-linejoin="round"/>
<path d="M401.407 31.8577H394.043C392.999 31.8577 392.152 32.7047 392.152 33.7497V40.3106C392.152 41.3555 392.999 42.2026 394.043 42.2026H401.407C402.451 42.2026 403.297 41.3555 403.297 40.3106V33.7497C403.297 32.7047 402.451 31.8577 401.407 31.8577Z" fill="white" stroke="black" stroke-linejoin="round"/>
<path d="M381.213 46.9707H396.749C400.133 46.9707 402.878 49.7172 402.878 53.1044V55.2329H375.084V53.1044C375.084 49.7172 377.829 46.9707 381.213 46.9707Z" fill="white" stroke="black" stroke-linejoin="round"/>
<path d="M383.858 46.9707V55.5" stroke="black" stroke-linejoin="round"/>
<path d="M377.257 48.4202V55.4999" stroke="black" stroke-linejoin="round"/>
<path d="M392.16 46.9707V55.5" stroke="black" stroke-linejoin="round"/>
<path d="M399.936 47.8708V55.4999" stroke="black" stroke-linejoin="round"/>
<path d="M389.027 13.7158V21.2304" stroke="black" stroke-linejoin="round"/>
<path d="M389.027 13.9828C389.843 13.9828 390.506 13.3201 390.506 12.5027C390.506 11.6853 389.843 11.0227 389.027 11.0227C388.21 11.0227 387.548 11.6853 387.548 12.5027C387.548 13.3201 388.21 13.9828 389.027 13.9828Z" fill="#FFDE66" stroke="black" stroke-linejoin="round"/>
</svg>
