<svg width="281" height="303" viewBox="0 0 281 303" fill="none" xmlns="http://www.w3.org/2000/svg">
<path d="M257.407 33.0173H41.8761C29.242 33.0173 19 43.2536 19 55.8806V259.184C19 271.811 29.242 282.048 41.8761 282.048H257.407C270.041 282.048 280.283 271.811 280.283 259.184V55.8806C280.283 43.2536 270.041 33.0173 257.407 33.0173Z" fill="#DBE0F1"/>
<path d="M171.149 72.6452C178.409 71.4173 176.145 65.8969 177.089 60.762C177.434 58.8643 176.52 53.9527 176.541 51.3549C176.571 47.8538 178.206 47.6407 178.399 47.0318C179.11 44.7587 178.632 42.1507 177.16 40.2835C176.338 39.2484 175.231 38.4061 174.703 37.1985C173.576 34.6006 175.607 34.1947 175.099 31.404C174.632 28.8163 172.134 28.4002 169.677 27.4666C167.22 26.533 164.529 26.0358 162.407 24.4831C160.457 23.0624 159.188 20.8806 157.34 19.3179C154.761 17.136 150.466 16.8316 147.217 17.7551C143.877 18.6988 141.673 20.8096 138.221 21.1952C135.713 21.4794 133.226 20.5458 130.697 20.3834C125.001 20.0282 119.356 24.2396 118.066 29.8007C117.498 32.2565 116.939 31.7897 115.355 33.7482C113.294 36.3055 109.74 35.8488 108.126 38.7004C107.161 40.3951 107.476 42.5262 108.045 44.3934C108.613 46.2606 109.141 53.1003 109.131 53.1105C104.603 55.8098 105.08 61.31 105.75 62.5379C107.852 66.3637 110.542 69.5298 113.253 70.7476C116.716 72.3002 121.833 76.5217 125.346 75.0706L171.149 72.6452Z" fill="white" stroke="black" stroke-miterlimit="10"/>
<path d="M173.078 48.1988C172.702 42.2014 170.59 36.7012 167.26 32.165C164.731 28.938 160.518 26.5228 156.131 27.842C153.329 28.6843 150.283 28.4509 147.562 27.3651C143.632 25.8023 138.23 24.7469 131.722 28.3494C127.234 30.856 123.782 37.6246 123.254 43.2466C122.503 51.3548 122.117 55.3328 122.614 63.5018C122.685 64.679 127.407 73.8629 124.127 74.5935C117.598 76.0447 116.725 67.5306 115.984 65.2371C115.436 63.5323 115.781 61.6955 116.197 59.9298C113.019 59.463 107.028 59.6964 107.15 68.0075C107.282 77.4552 115.304 77.1204 117.761 76.613L118.492 107.584L139.327 128.499L157.644 118.92L157.776 100.359C157.776 100.359 173.311 95.894 173.311 83.1178C173.311 75.2532 174.012 62.9031 173.078 48.2191V48.1988Z" fill="white" stroke="black" stroke-linejoin="round"/>
<path d="M162.071 63.644C162.153 65.1459 163.452 66.2926 164.975 66.2114C166.488 66.1201 167.656 64.8414 167.565 63.3395C167.483 61.8377 166.184 60.6909 164.661 60.7721C163.148 60.8635 161.98 62.1421 162.071 63.644Z" fill="black"/>
<path d="M139.581 63.644C139.662 65.1459 140.962 66.2926 142.485 66.2114C143.998 66.1201 145.166 64.8414 145.074 63.3395C144.993 61.8377 143.693 60.6909 142.17 60.7721C140.657 60.8635 139.49 62.1421 139.581 63.644Z" fill="black"/>
<path d="M147.217 80.124C149.176 81.7071 151.725 82.6711 154.345 82.8437C156.964 83.006 159.645 82.3667 161.838 81.0475" stroke="black" stroke-linecap="round" stroke-linejoin="round"/>
<path d="M155.137 61.584L161.117 70.4025L155.421 73.3657" stroke="black" stroke-linecap="round" stroke-linejoin="round"/>
<path d="M148.943 61.584C148.943 56.9565 145.196 53.2119 140.566 53.2119C135.936 53.2119 132.189 56.9565 132.189 61.584C132.189 66.2114 135.936 69.956 140.566 69.956C145.196 69.956 148.943 66.2114 148.943 61.584Z" stroke="black" stroke-miterlimit="10"/>
<path d="M163.514 69.2354C168.144 69.2354 171.89 66.2012 171.89 61.5737C171.89 56.9462 168.144 53.2017 163.514 53.2017C158.884 53.2017 155.137 56.9462 155.137 61.5737H148.943" stroke="black" stroke-linecap="round" stroke-linejoin="round"/>
<path d="M122.615 63.4816L132.19 61.584" stroke="black" stroke-miterlimit="10"/>
<path d="M113.365 66.0488C111.852 66.3939 110.806 68.1089 111.192 69.6006C111.578 71.0923 113.324 72.097 114.807 71.6708" stroke="black" stroke-linecap="round" stroke-linejoin="round"/>
<path d="M157.787 100.329C157.787 100.329 147.471 100.988 136.637 93.9253C136.637 93.9253 141.338 105.92 157.634 104.733L157.787 100.329Z" fill="black" stroke="black" stroke-miterlimit="10"/>
<path d="M199.63 182.101L199.742 227.878L217.734 223.717L234.762 220.155C234.762 220.155 211.429 258.281 186.055 258.281C160.681 258.281 157.391 227.868 157.391 227.868L155.898 182.091H199.63V182.101Z" fill="white" stroke="black" stroke-miterlimit="10"/>
<path d="M179.852 124.095C179.852 124.095 194.859 133.969 198.879 144.868C203.103 156.284 209.023 199.393 209.023 199.393H188.005L179.862 124.105L179.852 124.095Z" fill="#FFDE66" stroke="black" stroke-miterlimit="10"/>
<path d="M181.698 125.394L159.218 111.441C146.526 122.634 132.321 119.295 116.746 102.754L82.0813 123.121L86.5794 244.419L73.3086 282.616L190.268 282.261C190.268 282.261 190.644 198.185 190.217 174.774" fill="#FFDE66"/>
<path d="M181.698 125.394L159.218 111.441C146.526 122.634 132.321 119.295 116.746 102.754L82.0813 123.121L86.5794 244.419L73.3086 282.616L190.268 282.261C190.268 282.261 190.644 198.185 190.217 174.774" stroke="black" stroke-miterlimit="10"/>
<path d="M243.219 222.195L229.978 222.368L232.171 219.384L225.125 215.071C223.937 214.341 222.566 213.955 221.175 213.955H207.549L193.466 226.772L192.024 227.492L112.44 231.836C110.968 231.917 109.719 230.75 109.709 229.268L109.303 181.644L71.3789 176.469C71.3789 176.469 73.4401 220.785 73.4401 236.067C73.4401 254.394 89.2899 264.898 102.601 262.929C113.598 261.305 171.534 254.668 192.126 250.843L199.974 249.889C199.974 249.889 219.52 250.731 221.409 249.473C223.297 248.214 226.028 244.226 226.028 244.226C226.028 244.226 236.761 240.776 237.797 239.812C240.071 237.701 240.172 235.398 240.172 235.398L242 234.565C242.345 235.215 245.016 230.861 244.731 228.68C244.569 227.411 244.945 227.421 244.945 227.421C244.945 227.421 247.808 226.549 248.305 223.22C248.498 221.931 243.208 222.215 243.208 222.215L243.219 222.195Z" fill="white" stroke="black" stroke-miterlimit="10"/>
<path d="M221.277 223.717L235.188 204.792H264.044V207.237L249.515 224.103L221.277 223.717Z" fill="black" stroke="black" stroke-miterlimit="10"/>
<path d="M87.9104 119.691C76.9344 125.648 67.8063 137.551 67.4712 153.585C67.1361 169.619 67.4712 199.971 67.4712 199.971L114.289 204.832L114.33 170.654" fill="#FFDE66"/>
<path d="M87.9104 119.691C76.9344 125.648 67.8063 137.551 67.4712 153.585C67.1361 169.619 67.4712 199.971 67.4712 199.971L114.289 204.832L114.33 170.654" stroke="black" stroke-miterlimit="10"/>
<path d="M143.684 120.817L139.5 116.322L123.905 121.507L108.207 108.741L118.929 97.7712L140.465 112.323C140.465 112.323 143.308 115.987 143.694 120.827L143.684 120.817Z" fill="#FFDE66" stroke="black" stroke-linejoin="round"/>
<path d="M143.906 120.543L146.983 118.757L156.02 121.497L163.98 113.622L156.842 108.143L147.551 114.394C147.551 114.394 144.13 117.976 143.906 120.543Z" fill="#FFDE66" stroke="black" stroke-linejoin="round"/>
<path d="M143.906 120.543L144.8 137.358" stroke="black" stroke-linejoin="round"/>
<path d="M207.712 93.7427L209.529 89.1456C209.702 88.7093 210.321 88.7093 210.484 89.1456L212.301 93.7427C212.352 93.8746 212.464 93.9761 212.596 94.0369L217.195 95.8534C217.632 96.0259 217.632 96.645 217.195 96.8073L212.596 98.6238C212.464 98.6746 212.362 98.7862 212.301 98.9181L210.484 103.515C210.311 103.951 209.692 103.951 209.529 103.515L207.712 98.9181C207.661 98.7862 207.549 98.6847 207.417 98.6238L202.818 96.8073C202.381 96.6348 202.381 96.0158 202.818 95.8534L207.417 94.0369C207.549 93.9862 207.651 93.8746 207.712 93.7427Z" fill="white" stroke="black" stroke-miterlimit="10"/>
<path d="M245.596 138.272C238.235 134.71 229.381 137.785 225.817 145.142C224.02 148.836 223.908 152.915 225.177 156.507C225.716 158.05 226.051 160.455 225.573 162.028L224.629 165.154L237.514 171.395L239.382 168.705C240.316 167.366 242.408 166.128 243.962 165.6C247.566 164.362 250.693 161.754 252.491 158.06C256.055 150.703 252.978 141.844 245.617 138.282L245.596 138.272Z" fill="#FFDE66" stroke="black" stroke-miterlimit="10"/>
<path d="M232.923 170.491C232.629 170.349 232.507 169.994 232.649 169.7C232.812 169.365 236.741 161.389 246.671 152.692C246.915 152.479 247.291 152.499 247.504 152.743C247.717 152.986 247.697 153.362 247.453 153.575C237.706 162.109 233.756 170.126 233.715 170.207C233.573 170.501 233.218 170.623 232.923 170.481V170.491Z" fill="white"/>
<path d="M228.142 168.178C227.848 168.035 227.726 167.68 227.868 167.386C227.909 167.305 231.757 159.227 232.417 146.309C232.437 145.984 232.711 145.73 233.036 145.751C233.361 145.771 233.615 146.045 233.595 146.37C232.914 159.552 229.086 167.569 228.924 167.904C228.782 168.198 228.426 168.32 228.132 168.178H228.142Z" fill="white"/>
<path d="M245.972 154.011C245.048 153.565 244.814 152.834 244.621 152.185C244.428 151.576 244.266 151.058 243.576 150.713C242.885 150.368 242.367 150.571 241.768 150.804C241.139 151.048 240.418 151.322 239.494 150.876C238.57 150.429 238.336 149.698 238.133 149.049C237.94 148.44 237.778 147.922 237.087 147.577C236.397 147.232 235.879 147.435 235.28 147.659C234.651 147.902 233.93 148.176 233.006 147.73C232.853 147.659 232.792 147.486 232.864 147.334C232.935 147.182 233.107 147.121 233.26 147.192C233.95 147.527 234.468 147.334 235.067 147.1C235.696 146.857 236.417 146.583 237.341 147.029C238.265 147.476 238.499 148.207 238.702 148.856C238.895 149.465 239.057 149.993 239.748 150.328C240.438 150.662 240.956 150.47 241.555 150.236C242.185 149.993 242.905 149.719 243.829 150.165C244.753 150.612 244.987 151.342 245.18 151.992C245.373 152.601 245.535 153.118 246.226 153.463C246.378 153.534 246.439 153.707 246.368 153.859C246.297 154.011 246.124 154.072 245.972 154.001V154.011Z" fill="white"/>
<path d="M230.091 179.848L222.547 176.195C221.075 175.484 220.455 173.708 221.176 172.237L224.608 165.154L237.493 171.395L234.061 178.478C233.35 179.949 231.573 180.568 230.101 179.858L230.091 179.848Z" fill="white" stroke="black" stroke-miterlimit="10"/>
<path d="M221.776 170.999L221.177 172.237C221.055 172.491 220.984 172.744 220.943 173.008L233.605 179.137C233.778 178.934 233.94 178.721 234.062 178.478L234.661 177.24L221.776 170.999Z" fill="white" stroke="black" stroke-miterlimit="10"/>
<path d="M223.663 167.121L222.715 169.076L235.598 175.317L236.546 173.363L223.663 167.121Z" fill="white" stroke="black" stroke-miterlimit="10"/>
<path d="M225.746 179.219C227.066 179.858 228.396 179.848 228.721 179.178L223.939 176.864C223.614 177.524 224.426 178.579 225.756 179.219H225.746Z" fill="white" stroke="black" stroke-miterlimit="10"/>
<path d="M247.646 134.04C247.291 133.868 247.149 133.441 247.311 133.086L249.007 129.595C249.179 129.24 249.606 129.098 249.961 129.26C250.316 129.423 250.459 129.859 250.296 130.214L248.6 133.705C248.428 134.06 248.001 134.202 247.646 134.04Z" fill="white"/>
<path d="M237.106 132.021C236.883 131.909 236.72 131.696 236.71 131.432L236.426 127.566C236.396 127.17 236.69 126.835 237.086 126.805C237.482 126.774 237.817 127.068 237.847 127.464L238.132 131.331C238.162 131.726 237.868 132.061 237.472 132.092C237.34 132.092 237.218 132.071 237.106 132.021Z" fill="white"/>
<path d="M226.953 135.532C226.841 135.481 226.75 135.4 226.679 135.288L224.496 132.082C224.272 131.757 224.364 131.31 224.689 131.097C225.014 130.884 225.46 130.965 225.674 131.29L227.857 134.497C228.08 134.822 227.989 135.268 227.664 135.481C227.44 135.633 227.176 135.644 226.953 135.532Z" fill="white"/>
<path d="M219.928 143.65L216.435 141.955C216.08 141.783 215.938 141.357 216.1 141.002C216.262 140.646 216.699 140.504 217.054 140.667L220.547 142.361C220.903 142.534 221.045 142.96 220.882 143.315C220.72 143.67 220.283 143.813 219.928 143.65Z" fill="white"/>
<path d="M214.027 154.478C213.804 154.366 213.641 154.153 213.631 153.889C213.601 153.494 213.895 153.159 214.291 153.128L218.16 152.844C218.556 152.814 218.891 153.108 218.921 153.504C218.952 153.9 218.657 154.234 218.261 154.265L214.393 154.549C214.261 154.549 214.139 154.529 214.027 154.478Z" fill="white"/>
<path d="M252.418 173.079C252.306 173.028 252.215 172.947 252.144 172.836L249.961 169.629C249.737 169.304 249.829 168.858 250.154 168.644C250.479 168.421 250.925 168.513 251.139 168.837L253.322 172.044C253.545 172.369 253.454 172.815 253.129 173.028C252.905 173.181 252.641 173.191 252.418 173.079Z" fill="white"/>
<path d="M260.754 163.438L257.261 161.744C256.906 161.571 256.764 161.145 256.926 160.79C257.089 160.435 257.525 160.293 257.881 160.455L261.374 162.15C261.729 162.322 261.871 162.748 261.709 163.104C261.546 163.459 261.109 163.601 260.754 163.438Z" fill="white"/>
<path d="M259.293 151.21C259.069 151.099 258.907 150.886 258.897 150.622C258.866 150.226 259.161 149.891 259.557 149.861L263.425 149.587C263.821 149.556 264.156 149.85 264.187 150.246C264.217 150.642 263.923 150.977 263.527 151.007L259.658 151.281C259.526 151.281 259.404 151.261 259.293 151.21Z" fill="white"/>
<path d="M255.77 141.062C255.658 141.012 255.567 140.931 255.496 140.819C255.272 140.494 255.364 140.048 255.689 139.835L258.907 137.653C259.232 137.43 259.679 137.521 259.892 137.846C260.116 138.17 260.024 138.617 259.699 138.83L256.481 141.012C256.257 141.164 255.993 141.174 255.77 141.062Z" fill="white"/>
<path d="M223.928 177.524L228.193 179.584C228.436 179.503 228.619 179.371 228.71 179.178L223.928 176.864C223.837 177.057 223.847 177.28 223.928 177.524Z" fill="white" stroke="black" stroke-miterlimit="10"/>
<path d="M37.6191 89.9372L45.9248 108.295C46.8691 110.395 63.6631 108.203 67.8667 106.296C72.0703 104.388 84.8131 93.2556 83.8688 91.155L75.5632 72.7974L37.6191 89.9372Z" fill="white" stroke="black" stroke-miterlimit="10"/>
<path d="M49.6403 65.9881L20.002 95.6099L61.8348 92.9511L91.463 63.3293L49.6403 65.9881Z" fill="white" stroke="black" stroke-linejoin="round"/>
<path d="M61.8348 92.9511L20.002 95.6099L20.8447 97.4568L62.6674 94.798L92.3058 65.1762L91.463 63.3293L61.8348 92.9511Z" fill="white" stroke="black" stroke-linejoin="round"/>
<path d="M84.5484 86.6594L84.4164 86.7203L83.0863 87.319L82.9543 87.3799C82.9543 87.3799 81.6851 93.8949 86.2238 97.812L87.5336 97.2234C87.5336 97.2234 87.7671 97.1219 88.884 96.6044C89.2292 96.442 89.6557 96.2492 90.1938 96.0057C90.2547 90.0184 84.5281 86.6594 84.5281 86.6594H84.5484Z" fill="black" stroke="black" stroke-miterlimit="10"/>
<path d="M89.1175 95.5185C88.9957 95.0314 88.7114 94.5037 88.4778 93.9253C88.3661 93.631 88.224 93.3367 88.0514 93.0627C87.8889 92.7786 87.7265 92.4843 87.564 92.2001C87.4117 91.9058 87.2086 91.642 87.036 91.3781C86.8533 91.1143 86.6705 90.8505 86.4979 90.5968C86.112 90.13 85.7871 89.6631 85.4521 89.3181C84.8225 88.5875 84.3555 88.1714 84.3555 88.1714C84.3555 88.1714 84.8022 88.628 85.3708 89.3993C85.6754 89.7646 85.9699 90.2619 86.3151 90.749C86.4674 91.0128 86.6299 91.2767 86.7822 91.5507C86.9345 91.8247 87.1172 92.0986 87.2391 92.3929C87.3711 92.6872 87.5132 92.9714 87.6452 93.2555C87.7874 93.5397 87.8991 93.8238 87.9905 94.1079C88.1631 94.6762 88.4068 95.1836 88.4778 95.6403C88.5692 96.0665 88.6403 96.4217 88.6911 96.6754L88.8941 96.584C89.0261 96.5231 89.1886 96.4521 89.351 96.3811C89.28 96.1375 89.1987 95.8534 89.1074 95.5084L89.1175 95.5185Z" fill="white"/>
<path d="M87.1086 96.2696C86.8142 95.9144 86.5908 95.3969 86.276 94.8895C86.1237 94.6358 85.9714 94.3618 85.8597 94.0675C85.7379 93.7833 85.6059 93.4789 85.4739 93.1948C85.3317 92.9005 85.2505 92.596 85.149 92.2916C85.0474 91.9872 84.9561 91.6929 84.8545 91.4087C84.7124 90.8303 84.5398 90.2823 84.4687 89.8054C84.2656 88.8616 84.2148 88.2324 84.2148 88.2324C84.2148 88.2324 84.2148 88.8616 84.3468 89.8054C84.3875 90.2823 84.5194 90.8404 84.621 91.4392C84.6921 91.7335 84.7733 92.048 84.8545 92.3525C84.9357 92.6671 84.9967 92.9918 85.1287 93.2963C85.2404 93.6108 85.352 93.9254 85.4536 94.2299C85.5551 94.5444 85.677 94.8387 85.8191 95.1229C86.1034 95.681 86.3065 96.2493 86.6009 96.6552C86.7939 96.9495 86.9563 97.2032 87.0883 97.4163L87.5452 97.2133C87.5452 97.2133 87.6061 97.1829 87.7483 97.122C87.5858 96.9089 87.3726 96.6248 87.1086 96.2798V96.2696Z" fill="white"/>
<path d="M89.9204 94.3007C89.8392 93.9962 89.7275 93.6816 89.5854 93.367C89.4635 93.0423 89.2909 92.7379 89.1082 92.4233C88.9457 92.1087 88.7223 91.8246 88.5192 91.5303C87.6663 90.3836 86.6104 89.521 85.8184 88.9527C85.0061 88.3946 84.4375 88.1409 84.4375 88.1409C84.4375 88.1409 84.9959 88.4555 85.7676 89.0745C86.5291 89.6935 87.5039 90.6373 88.2349 91.784C88.4076 92.0783 88.6005 92.3523 88.7223 92.6567C88.8645 92.951 89.0066 93.2453 89.098 93.5497C89.2097 93.844 89.2909 94.1282 89.3417 94.4022C89.4128 94.6761 89.4635 94.9298 89.4737 95.1734C89.5448 95.6503 89.5346 96.036 89.5143 96.31C89.5143 96.3201 89.5143 96.3303 89.5143 96.3303L90.2251 96.0055C90.2251 95.8837 90.2149 95.762 90.2047 95.6402C90.1844 95.488 90.1743 95.3358 90.1337 95.1632C90.1032 94.8893 90.022 94.6051 89.9204 94.3007Z" fill="white"/>
<path d="M84.2852 88.2019L87.8998 97.0509L88.5497 96.7566L84.2953 88.2019H84.2852Z" fill="white"/>
<path d="M86.925 97.467C86.7118 97.3046 86.4072 97.0509 86.0924 96.6856C85.9198 96.5232 85.7574 96.3101 85.6051 96.0767C85.4324 95.8535 85.27 95.6099 85.1278 95.3258C84.9654 95.0619 84.8334 94.7676 84.7115 94.4531C84.5694 94.1588 84.4882 93.8239 84.3765 93.5093C84.0008 92.2104 83.9399 90.8506 83.9703 89.8662C84.0109 88.8819 84.1429 88.2527 84.1429 88.2527C84.1429 88.2527 83.9602 88.8514 83.8485 89.8256C83.7368 90.7998 83.6962 92.1596 84.0008 93.56C84.0922 93.9051 84.1531 94.2603 84.2851 94.5951C84.3968 94.9402 84.5186 95.2649 84.6811 95.5693C84.8131 95.8839 84.9755 96.1782 85.1583 96.442C85.3208 96.716 85.4832 96.9697 85.666 97.1727C85.7777 97.3148 85.8792 97.4264 85.9807 97.5482C86.0721 97.6294 86.1534 97.7207 86.2447 97.8019L86.9555 97.4771C86.9555 97.4771 86.9555 97.4771 86.9352 97.4568L86.925 97.467Z" fill="white"/>
<path d="M57.2565 82.8228C60.3941 81.4056 62.2561 78.7497 61.4155 76.8907C60.5749 75.0317 57.3499 74.6735 54.2123 76.0907C51.0748 77.5079 49.2127 80.1638 50.0534 82.0228C50.894 83.8818 54.1189 84.24 57.2565 82.8228Z" fill="white" stroke="black" stroke-miterlimit="10"/>
<path d="M61.6124 77.638C61.6733 78.2773 61.4804 78.9674 61.0742 79.6473V79.7487L78.2846 77.3741L82.8232 87.4206L84.6712 86.5884L79.503 75.1619L61.6022 77.6278L61.6124 77.638Z" fill="white" stroke="black" stroke-miterlimit="10"/>
<path d="M81.9489 87.8265C81.5022 86.832 81.9489 85.665 82.9338 85.2083C83.9187 84.7517 85.0966 85.2083 85.5535 86.1927C86.0104 87.177 85.5535 88.3542 84.5686 88.8108C83.5837 89.2675 82.4059 88.8108 81.9489 87.8265Z" fill="white" stroke="black" stroke-miterlimit="10"/>
<path d="M217.42 9.67731C214.922 5.35429 216.242 3.23337 218.608 1.87355C220.964 0.513725 223.461 0.422395 225.969 4.74541C227.614 7.59698 228 12.5695 229.279 15.2688C230.122 17.065 232.325 18.4654 233.219 20.0282C235.026 23.1639 234.072 24.6962 232.356 25.6806C230.65 26.6649 228.843 26.7258 227.025 23.6003C226.122 22.0476 226.01 19.4396 224.873 17.8058C223.177 15.3601 219.065 12.5289 217.41 9.67731H217.42Z" fill="black" stroke="black" stroke-miterlimit="10"/>
<path d="M247.19 49.1628C245.322 45.9256 241.179 44.8297 237.93 46.6969C234.681 48.5742 233.564 52.7146 235.432 55.9417C237.301 59.1788 241.443 60.285 244.692 58.4076C247.942 56.5302 249.058 52.3899 247.19 49.1527V49.1628Z" fill="black" stroke="black" stroke-miterlimit="10"/>
<path d="M228.842 56.8751C229.857 51.5576 226.74 44.0786 226.74 44.0786L223.816 39.0148C219.815 32.0837 222.211 23.2145 229.167 19.1959C236.122 15.1773 245.006 17.5418 249.007 24.4728L251.931 29.5366C251.931 29.5366 256.845 35.9806 261.973 37.7564C264.745 38.7205 265.06 38.6901 262.501 40.1615L246.58 49.3454L230.659 58.5293C228.111 60.0007 228.283 59.7571 228.842 56.865V56.8751Z" fill="#FFF1CC" stroke="black" stroke-miterlimit="10"/>
<path d="M248.378 32.2665L244.865 26.1879C242.174 21.53 237.636 18.587 232.701 17.7549C238.895 16.1008 245.647 18.6885 248.998 24.483L251.922 29.5468C251.922 29.5468 256.836 35.9907 261.964 37.7666C264.736 38.7307 265.051 38.7002 262.492 40.1717L259.639 41.8157C253.78 39.3294 248.378 32.2563 248.378 32.2563V32.2665Z" fill="white" stroke="black" stroke-miterlimit="10"/>
<path d="M230.873 42.3738L227.36 36.2952C224.669 31.6373 224.395 26.2386 226.132 21.5503C221.603 26.0864 220.466 33.2306 223.816 39.025L226.741 44.0888C226.741 44.0888 229.868 51.5679 228.843 56.8955C228.294 59.7775 228.111 60.0312 230.66 58.5598L233.513 56.9158C234.285 50.6038 230.863 42.384 230.863 42.384L230.873 42.3738Z" fill="white" stroke="black" stroke-miterlimit="10"/>
<path d="M39.7117 243.161L23.9228 291.191L5.08789 243.161" stroke="black" stroke-width="1.48" stroke-linecap="round" stroke-linejoin="round"/>
<path d="M0.751953 291.191L47.1641 291.252" stroke="black" stroke-width="1.48" stroke-linecap="round" stroke-linejoin="round"/>
<path d="M30.9577 284.158H13.7879L3.33984 234.697H41.4159L30.9577 284.158Z" fill="#E4EBF5" stroke="black" stroke-miterlimit="10"/>
<path d="M41.4174 234.454C41.3869 235.783 38.6861 236.757 34.7262 237.387C33.8631 237.518 32.9391 237.64 31.9644 237.742C31.3856 237.803 30.7967 237.853 30.1875 237.904C29.7915 237.935 29.3854 237.965 28.9792 237.995H28.9691C28.5731 238.026 28.1771 238.046 27.7709 238.066C27.7303 238.066 27.6999 238.066 27.6592 238.066C27.4054 238.077 27.1516 238.097 26.8876 238.107C26.8165 238.107 26.7454 238.107 26.6845 238.107C26.2682 238.127 25.8519 238.137 25.4254 238.148C24.9685 238.158 24.5116 238.178 24.0446 238.178C23.8923 238.178 23.7298 238.178 23.5673 238.178C23.1104 238.178 22.6434 238.178 22.1763 238.178C21.8717 238.178 21.5569 238.178 21.2523 238.178C20.9071 238.178 20.5517 238.178 20.2065 238.168C19.9933 238.168 19.78 238.168 19.5567 238.158C19.2114 238.158 18.8561 238.137 18.5108 238.127C18.1453 238.117 17.7696 238.097 17.4041 238.087C17.333 238.087 17.2518 238.087 17.1807 238.087C17.1604 238.087 17.1401 238.087 17.1198 238.087C17.0893 238.087 17.0589 238.087 17.0183 238.087C16.9675 238.087 16.9167 238.087 16.866 238.087C16.4598 238.066 16.0638 238.046 15.6678 238.016C15.4343 238.006 15.2008 237.985 14.9774 237.965C14.8555 237.965 14.7337 237.945 14.6119 237.935C14.6017 237.935 14.5814 237.935 14.5712 237.935C14.0128 237.894 13.4543 237.843 12.9162 237.792C12.6928 237.772 12.4796 237.752 12.2562 237.721C12.1039 237.701 11.9618 237.691 11.8095 237.671C11.7079 237.661 11.5962 237.65 11.4947 237.63C10.9667 237.569 10.4489 237.498 9.95135 237.417C9.67721 237.376 9.40306 237.326 9.13907 237.285C5.55484 236.656 3.16874 235.722 3.14844 234.474C3.16874 233.551 4.47856 232.8 6.59051 232.211C6.8342 232.15 7.07788 232.079 7.34188 232.018C8.1034 231.836 8.94615 231.673 9.85997 231.531C10.1138 231.491 10.3677 231.45 10.6316 231.42C11.1698 231.338 11.7181 231.277 12.2968 231.217C12.3578 231.217 12.4288 231.206 12.4999 231.196C12.7436 231.166 12.9771 231.146 13.2208 231.125C13.7285 231.075 14.2565 231.034 14.7845 230.993C15.018 230.973 15.2617 230.963 15.5054 230.943C15.5866 230.943 15.678 230.932 15.7592 230.922C16.2669 230.892 16.7746 230.861 17.2924 230.841H17.5158C17.9219 230.811 18.3179 230.801 18.7241 230.78C19.2724 230.76 19.8308 230.75 20.3994 230.74C20.4705 230.74 20.5314 230.74 20.6025 230.74C20.8766 230.74 21.1609 230.74 21.4452 230.729C21.9225 230.729 22.4098 230.729 22.887 230.729C23.5369 230.729 24.1867 230.74 24.8365 230.76C25.2528 230.77 25.659 230.78 26.0651 230.801C26.1464 230.801 26.2276 230.801 26.3088 230.801C26.5728 230.811 26.8266 230.821 27.0906 230.831C27.5882 230.851 28.0755 230.882 28.5528 230.912C29.0198 230.943 29.4869 230.973 29.9336 231.014C30.1164 231.024 30.289 231.044 30.4718 231.054C31.0505 231.105 31.6191 231.156 32.1776 231.227C32.2994 231.237 32.4314 231.257 32.5533 231.267C32.604 231.267 32.6548 231.277 32.7056 231.288C33.6194 231.399 34.4825 231.521 35.2948 231.663C35.9344 231.775 36.5335 231.897 37.0919 232.028C39.7014 232.637 41.3565 233.459 41.3768 234.494L41.4174 234.454Z" fill="black" stroke="black" stroke-miterlimit="10"/>
<path d="M34.0458 174.835C33.5889 169.01 32.5126 163.225 31.1825 157.543C29.8828 154.995 27.8825 166.148 27.1819 167.244C27.1819 167.234 27.1819 167.224 27.1921 167.214C26.1361 169.822 25.1918 172.48 24.3491 175.17C24.0039 176.265 23.6891 177.372 23.3845 178.488C23.3033 178.762 23.2322 179.036 23.1611 179.3C22.4402 182.009 21.8513 184.749 21.3741 187.509C21.1304 188.879 20.9273 190.259 20.7547 191.65C20.6938 192.177 20.6227 192.705 20.5618 193.233C20.3892 195.425 20.2978 197.617 20.2775 199.809C20.2673 200.671 20.2673 201.534 20.2775 202.396C20.2978 205.654 20.4298 208.901 20.5415 212.159C20.5719 212.95 20.6024 213.732 20.6227 214.513C20.6532 215.355 20.6836 216.198 20.7039 217.05C20.6735 216.847 20.6227 215.842 20.5415 214.564C20.4907 213.813 20.4298 212.971 20.3587 212.128C20.1252 209.388 19.78 206.709 19.3027 207.623C19.4855 208.921 19.6175 210.22 19.7292 211.53C19.7901 212.189 19.8307 212.849 19.8815 213.508C20.1963 218.491 20.1963 223.494 20.5618 228.477C20.5922 228.903 20.6227 229.339 20.6633 229.765C20.6633 229.857 20.6735 229.948 20.6836 230.039C20.9578 231.907 20.6532 235.032 21.2827 237.255C21.5873 237.255 21.9021 237.255 22.2067 237.255C22.6737 237.255 23.1306 237.255 23.5977 237.255C23.75 237.255 23.9125 237.255 24.0749 237.255C24.4506 235.732 24.6537 233.814 25.1004 233.084C25.4457 231.998 25.7909 230.912 26.1361 229.826C26.5423 228.548 26.9281 227.279 27.3038 225.99C27.649 224.823 27.9638 223.656 28.2582 222.479C28.4004 221.911 28.5324 221.332 28.6644 220.754C29.0705 218.938 29.3954 217.101 29.6086 215.244C29.6696 214.807 29.7406 214.381 29.8219 213.945C29.9234 213.387 30.0351 212.818 30.1569 212.26C30.1976 212.057 30.2483 211.854 30.2991 211.641C30.4615 210.941 30.6342 210.241 30.8068 209.551C31.0505 208.576 31.3043 207.602 31.548 206.628C31.7003 206.029 31.8424 205.42 31.9846 204.822C32.1064 204.284 32.2181 203.746 32.3197 203.208C32.3806 202.853 32.4415 202.498 32.5024 202.143C32.6446 201.25 32.7664 200.357 32.8781 199.453C32.8781 199.453 32.8781 199.453 32.8781 199.443C32.9593 198.814 33.0304 198.185 33.0913 197.556C33.203 196.48 33.2944 195.394 33.3858 194.319C33.5381 192.472 33.6802 190.625 33.8427 188.788C33.863 188.555 33.8833 188.331 33.9036 188.098C33.9239 187.854 33.9442 187.621 33.9747 187.388C34.0762 186.403 34.1575 185.419 34.2082 184.435C34.391 181.228 34.3301 178.021 34.0762 174.835H34.0458Z" fill="white" stroke="black" stroke-miterlimit="10"/>
<path d="M44.2605 193.071C44.1793 194.4 44.0168 195.719 43.763 197.039C43.6513 197.658 43.499 198.287 43.3365 198.906C43.3365 198.896 43.3365 198.865 43.3365 198.845C42.7882 201.341 42.1282 203.797 41.3972 206.243C41.2652 206.679 41.1332 207.126 40.991 207.562C39.864 211.144 38.5846 214.686 37.2647 218.187C36.8788 219.212 36.493 220.227 36.1071 221.241C35.3253 223.271 34.5435 225.29 33.7921 227.31C33.6398 227.655 33.4266 228.254 33.1829 228.994C33.0509 229.39 32.9088 229.837 32.7564 230.303C32.7057 230.456 32.6549 230.608 32.6041 230.77C32.4417 231.257 32.2691 231.775 32.0965 232.303C31.5177 234.007 30.8577 235.763 30.1977 236.96C29.8017 236.991 29.3956 237.021 28.9895 237.052H28.9793C28.5833 237.082 28.1873 237.103 27.7812 237.123C27.7406 237.123 27.7101 237.123 27.6695 237.123C27.2024 235.601 27.0806 232.932 27.1415 229.857C27.1618 228.619 27.2227 227.31 27.2938 225.98C27.5172 221.82 27.9436 217.476 28.2178 214.483C28.299 213.651 28.3599 212.92 28.4107 212.331C28.4513 211.824 28.4818 211.408 28.4919 211.124C28.6239 209.784 28.7661 208.445 28.9285 207.095C29.0098 206.364 29.1113 205.624 29.2128 204.893C29.5581 202.305 29.9845 199.728 30.5125 197.17C30.7359 196.105 30.9694 195.05 31.2233 193.994C31.3045 193.659 31.3857 193.324 31.4669 192.99C31.5076 192.817 31.5583 192.644 31.5989 192.472C31.6599 192.249 31.7106 192.015 31.7817 191.792C31.8223 191.64 31.8629 191.498 31.9035 191.356C32.5534 189.012 33.3047 186.698 34.1881 184.435C34.249 184.283 34.3099 184.12 34.3709 183.968C34.6552 183.237 34.9699 182.527 35.305 181.827C35.6401 181.106 35.9954 180.386 36.3305 179.655C38.0566 173.942 41.4479 169.071 43.3974 163.449V163.469C44.6869 160.516 43.966 167.691 43.9863 168.32C43.8543 171.09 43.8036 174.916 43.8746 177.818C43.8746 177.889 43.8746 177.95 43.8746 178.021C43.895 178.996 43.9356 179.98 43.9762 180.954C44.027 181.938 44.0777 182.923 44.1386 183.907C44.1488 184.151 44.1691 184.384 44.1793 184.617C44.1793 184.739 44.1894 184.861 44.1996 184.983C44.3519 187.692 44.4534 190.392 44.2706 193.081L44.2605 193.071Z" fill="white" stroke="black" stroke-miterlimit="10"/>
<path d="M12.5394 230.862C12.5394 230.648 12.5394 230.435 12.5394 230.222C12.5089 228.162 12.4074 225.94 12.2957 223.768C12.2652 223.149 12.2348 222.53 12.1941 221.921C12.0418 219.191 11.8692 216.654 11.7778 214.787C11.7271 213.559 11.6966 212.616 11.7474 212.098C11.7474 211.794 11.7372 211.489 11.7271 211.185C11.6763 208.617 11.6255 206.05 11.5545 203.472C11.5342 202.66 11.5037 201.838 11.4732 201.027C11.3717 198.388 11.2397 195.76 11.0366 193.142C10.9757 192.35 10.9046 191.548 10.8336 190.757C10.6203 188.423 10.3462 186.089 9.99081 183.775C9.9502 183.461 9.88928 183.146 9.83851 182.831C9.69636 181.928 9.54405 181.035 9.37144 180.152C8.43731 175.231 7.08688 170.39 5.14754 165.702C3.9088 169.233 3.13713 172.856 3.11682 176.601C2.68022 186.332 2.16238 196.085 2.38576 205.827C3.04575 214.391 4.79217 222.855 7.38134 231.034C7.93978 232.8 8.53885 234.555 9.17852 236.301C9.44252 236.352 9.71667 236.392 9.99081 236.433C10.4883 236.514 10.996 236.585 11.5342 236.646C11.6357 236.656 11.7372 236.676 11.8489 236.686C12.0012 236.707 12.1434 236.717 12.2957 236.737C12.5089 235.215 12.58 233.145 12.5597 230.841L12.5394 230.862Z" fill="white" stroke="black" stroke-miterlimit="10"/>
<path d="M24.3482 175.17C24.2974 170.857 24.1857 166.544 23.9421 162.241C23.9421 162.231 23.9421 162.221 23.9421 162.211C23.5968 158.781 23.8101 155.198 23.0079 151.85C19.18 162.485 16.7025 173.617 15.4333 184.891C15.1693 187.246 14.9561 189.61 14.7937 191.975C14.7835 192.157 14.7632 192.34 14.7632 192.512C14.5703 195.465 14.4586 198.418 14.4281 201.382C14.4281 202.021 14.418 202.67 14.418 203.31C14.418 205.329 14.4484 207.338 14.5195 209.358C14.5094 209.875 14.489 210.383 14.489 210.9C14.4687 211.58 14.4586 212.25 14.4586 212.93C14.4383 215.751 14.489 218.572 14.6921 221.383C14.7835 222.642 14.9053 223.89 15.0576 225.128C15.2303 226.528 15.4435 227.918 15.7176 229.309C15.7481 229.522 15.7887 229.735 15.8192 229.948C16.1847 232.333 16.5096 234.819 16.9158 237.123C16.9361 237.224 16.9564 237.326 16.9665 237.417C17.0579 237.356 17.0782 237.244 17.0579 237.133C17.0376 236.981 16.9767 236.798 16.997 236.656C17.0478 236.808 17.0985 236.97 17.1594 237.143C17.1797 237.143 17.2001 237.143 17.2204 237.143C17.2914 237.143 17.3727 237.143 17.4437 237.143C17.8093 237.163 18.1748 237.173 18.5505 237.184C18.8957 237.194 19.2409 237.204 19.5963 237.214C20.1446 235.509 20.0634 232.647 20.3071 231.602C20.3578 230.983 20.4086 230.374 20.4594 229.755C20.4898 229.319 20.5304 228.893 20.5609 228.456C20.8554 224.691 21.1397 220.937 21.4443 217.172C21.5052 216.401 21.5763 215.629 21.6372 214.848C21.7286 213.803 21.8199 212.768 21.9113 211.722C22.023 210.139 22.1652 208.566 22.3175 206.993C22.3987 206.182 22.4698 205.38 22.5612 204.578C22.9267 200.986 23.3531 197.404 23.7085 193.811C23.7694 193.192 23.8304 192.573 23.8811 191.954C24.1248 189.356 24.3076 186.748 24.4193 184.13C24.4193 181.137 24.399 178.143 24.3583 175.149L24.3482 175.17Z" fill="white" stroke="black" stroke-miterlimit="10"/>
<path d="M46.8988 169.74C45.721 172.369 44.726 175.068 43.8528 177.808C41.4057 185.47 39.8827 193.466 37.8317 201.229C35.1613 210.758 32.9478 220.409 32.2167 230.242C32.166 230.922 32.1152 231.612 32.0847 232.292C32.0035 233.784 31.9629 235.286 31.9629 236.788C32.9376 236.686 33.8616 236.564 34.7247 236.433C34.7653 236.351 34.8059 236.27 34.8465 236.199C35.537 234.444 36.3188 232.729 37.1311 231.034C37.588 230.09 38.0551 229.146 38.5323 228.203C43.8528 218.207 45.122 206.922 45.7616 195.78C45.8429 194.643 45.9241 193.497 45.9952 192.36C45.9952 192.35 45.9952 192.33 45.9952 192.32C46.3505 184.851 48.2594 177.118 46.8988 169.73V169.74Z" fill="white" stroke="black" stroke-miterlimit="10"/>
<path d="M17.961 210.87C17.9407 208.13 17.8595 205.4 17.6767 202.671C17.5853 201.23 17.4635 199.799 17.3112 198.378C17.0675 196.125 16.7527 193.882 16.3364 191.64C16.1537 190.777 16.0014 189.915 15.8795 189.052C15.6765 187.662 15.5343 186.282 15.4328 184.881C14.9251 177.839 15.3922 170.644 13.6051 163.875C12.7725 163.916 13.0264 166.057 12.7014 166.777C11.615 171.242 10.3763 175.677 9.38122 180.162C9.09692 181.431 8.84308 182.699 8.60955 183.968C8.52832 184.425 8.44709 184.871 8.37601 185.328C8.15263 186.708 7.95972 188.088 7.82772 189.478C7.65511 190.666 7.51296 191.843 7.41142 193.03C7.36065 193.608 7.32004 194.177 7.28958 194.755C7.10681 197.891 7.17789 201.037 7.40127 204.172C7.40127 204.193 7.40127 204.213 7.40127 204.243C7.44188 204.842 7.5028 205.441 7.55357 206.04C7.7668 208.272 8.06125 210.505 8.40647 212.737C8.4877 213.265 8.57909 213.803 8.66031 214.341C8.66031 214.341 8.66031 214.351 8.66031 214.361C9.10707 217.06 9.62491 219.75 10.163 222.429C10.224 222.723 10.2747 223.007 10.3357 223.301C10.3154 223.301 10.295 223.301 10.2747 223.291C10.356 223.636 10.4473 223.981 10.5387 224.326C10.7113 224.925 10.8738 225.524 11.0464 226.122C11.4526 227.503 11.8689 228.883 12.3258 230.253C12.3968 230.456 12.4578 230.659 12.5288 230.872C13.2396 232.962 14.0417 235.022 14.9962 237.021C15.2297 237.042 15.4531 237.052 15.6866 237.072C16.0826 237.102 16.4786 237.123 16.8847 237.143C16.905 237.245 16.9254 237.346 16.9355 237.437C17.0269 237.376 17.0472 237.265 17.0269 237.153C17.0573 237.153 17.0878 237.153 17.1284 237.153C17.1487 237.153 17.169 237.153 17.1893 237.153C17.2604 237.153 17.3416 237.153 17.4127 237.153C17.4127 234.728 17.4736 232.292 17.5447 229.857C17.6056 227.726 17.6767 225.595 17.7376 223.464C17.7681 222.581 17.7884 221.708 17.8189 220.825C17.8899 218.339 17.9407 215.863 17.9509 213.387C17.9509 212.555 17.9509 211.712 17.9509 210.88L17.961 210.87Z" fill="white" stroke="black" stroke-miterlimit="10"/>
<path d="M36.0155 201.585C35.9749 201.869 35.9241 202.163 35.8835 202.447C35.386 205.441 34.7057 208.424 34.1473 211.398C34.1168 211.57 34.0863 211.743 34.0559 211.915C33.9746 212.362 33.8934 212.808 33.8122 213.255C33.203 216.644 32.675 220.034 32.0658 223.423C32.0353 223.606 32.0048 223.799 31.9642 223.981C31.5378 226.336 31.0809 228.69 30.5224 231.014C30.3701 231.673 30.1975 232.333 30.035 232.993C29.9944 233.165 29.9437 233.338 29.9031 233.51C29.7406 233.835 29.6289 234.454 29.5071 235.184C29.3548 236.067 29.2126 237.113 28.9994 237.985H28.9892C28.5932 238.016 28.1972 238.036 27.7911 238.056C27.7505 238.056 27.72 238.056 27.6794 238.056C27.4256 238.067 27.1717 238.087 26.9077 238.097C26.9687 235.743 26.4508 233.195 26.1259 230.75C26.0548 230.182 25.9939 229.623 25.9431 229.075C25.8924 226.609 25.8924 223.2 25.9533 220.734C25.9838 219.526 26.0345 219.252 26.1056 218.045C26.1868 216.736 26.2782 215.426 26.4102 214.128C26.4813 213.103 26.5321 212.078 26.6031 211.063C26.6234 210.728 26.6437 210.403 26.6641 210.068C26.6641 210.068 26.6641 210.068 26.6641 210.058C26.725 209.5 26.796 208.942 26.8468 208.384C26.9382 207.501 27.0194 206.628 27.0803 205.745C27.3545 202.265 27.4865 198.784 27.5677 195.293C27.5982 194.258 27.6185 193.223 27.6286 192.188C27.7099 187.855 27.7606 183.521 27.9637 179.209C28.0246 177.839 28.1059 176.479 28.2074 175.109C28.3699 172.897 28.5831 170.705 28.8877 168.513C28.9588 167.975 29.04 167.437 29.1212 166.909C29.1415 166.767 29.1618 166.625 29.1923 166.493C29.3954 165.346 29.6391 164.514 29.9132 164.078C30.4412 163.236 31.1113 163.855 31.9135 166.534C32.2282 167.741 32.5227 168.939 32.8171 170.157C33.2639 172.024 33.6802 173.901 34.0559 175.789C34.5331 178.113 34.9494 180.447 35.3048 182.791C35.4977 184.069 35.6805 185.348 35.8328 186.637C35.9648 187.662 36.0764 188.697 36.178 189.722C36.3303 191.254 36.442 192.786 36.5334 194.319C36.6146 196.775 36.3811 199.2 36.0155 201.605V201.585Z" fill="white" stroke="black" stroke-miterlimit="10"/>
<path d="M39.7109 243.161C39.6804 244.49 37.2334 245.464 33.6492 246.093C32.8674 246.225 32.0246 246.347 31.1514 246.449C30.6336 246.509 30.0954 246.56 29.5471 246.611C29.1816 246.641 28.8161 246.672 28.4505 246.702H28.4404C28.085 246.733 27.7195 246.753 27.354 246.773C27.3235 246.773 27.2829 246.773 27.2524 246.773C27.0189 246.783 26.7854 246.804 26.5518 246.814C26.4909 246.814 26.43 246.814 26.3589 246.814C25.9832 246.834 25.6075 246.844 25.2217 246.854C24.8054 246.865 24.3891 246.885 23.9728 246.885C23.8307 246.885 23.6885 246.885 23.5464 246.885C23.1301 246.885 22.7138 246.885 22.2873 246.885C22.0132 246.885 21.7289 246.885 21.4547 246.885C21.14 246.885 20.8252 246.885 20.5104 246.875C20.3175 246.875 20.1246 246.875 19.9215 246.865C19.6068 246.865 19.292 246.844 18.9772 246.834C18.6422 246.824 18.3071 246.804 17.9822 246.794C17.9111 246.794 17.8502 246.794 17.7791 246.794C17.7588 246.794 17.7385 246.794 17.7283 246.794C17.6979 246.794 17.6674 246.794 17.637 246.794C17.5963 246.794 17.5456 246.794 17.505 246.794C17.1394 246.773 16.7739 246.753 16.4185 246.723C16.2053 246.712 16.0022 246.692 15.789 246.672C15.6773 246.672 15.5656 246.652 15.4539 246.641C15.4438 246.641 15.4235 246.641 15.4133 246.641C14.9056 246.601 14.398 246.55 13.9106 246.499C13.7075 246.479 13.5146 246.459 13.3115 246.428C13.1795 246.408 13.0475 246.398 12.9054 246.378C12.814 246.367 12.7125 246.357 12.6211 246.337C12.1439 246.276 11.6768 246.205 11.23 246.124C10.9762 246.083 10.7325 246.033 10.4888 245.992C7.24982 245.363 5.07695 244.429 5.05664 243.181" stroke="black" stroke-width="1.48" stroke-linecap="round" stroke-linejoin="round"/>
<path d="M39.7113 243.161L47.1641 291.252L34.797 301.389H12.5504L0.751953 291.191L5.08754 243.161" stroke="black" stroke-width="1.48" stroke-linecap="round" stroke-linejoin="round"/>
<path d="M12.5508 301.39L15.4649 246.631" stroke="black" stroke-width="1.48" stroke-linecap="round" stroke-linejoin="round"/>
<path d="M34.7955 301.39L31.1504 246.449" stroke="black" stroke-width="1.48" stroke-linecap="round" stroke-linejoin="round"/>
</svg>
