<svg width="491" height="408" viewBox="0 0 491 408" fill="none" xmlns="http://www.w3.org/2000/svg">
<path d="M414.22 0.294434H33.1755C20.9283 0.294434 11 10.2172 11 22.4575V383.582C11 395.822 20.9283 405.745 33.1755 405.745H414.22C426.467 405.745 436.396 395.822 436.396 383.582V22.4575C436.396 10.2172 426.467 0.294434 414.22 0.294434Z" fill="#FFF1CC"/>
<path d="M382.001 387.864V395.008C382.001 401.412 376.802 406.607 370.395 406.607H349.936C343.529 406.607 338.33 401.412 338.33 395.008V387.864H381.991H382.001Z" fill="black" stroke="black" stroke-miterlimit="10"/>
<path d="M394.388 243.895C387.504 251.659 379.676 258.965 375.513 268.474C370.304 280.377 371.37 294.665 364.445 305.666C358.942 301.525 357.165 294.097 356.576 287.247C355.49 274.786 357.094 262.101 361.227 250.289C364.73 240.303 370.213 230.723 378.518 224.158C382.671 220.87 387.545 218.454 392.693 217.227C395.82 216.486 408.847 216.435 408.847 216.435C408.847 216.435 405.222 228.075 403.831 230.754C401.334 235.554 397.963 239.867 394.388 243.906V243.895Z" fill="white" stroke="black" stroke-miterlimit="10"/>
<path d="M450.985 343.264C450.985 343.264 469.657 358.699 472.033 367.852C472.033 367.852 439.856 378.081 419.133 367.497C398.409 356.923 381.818 340.362 381.818 340.362C381.818 340.362 436.77 329.483 450.985 343.254V343.264Z" fill="#E4EBF5" stroke="black" stroke-miterlimit="10"/>
<path d="M445.928 264.922C439.318 272.299 425.327 287.978 416.432 292.321C400.775 299.953 389.972 296.411 374.315 304.042C368.497 295.843 369.573 284.142 374.833 275.577C380.092 267.012 388.804 261.116 397.841 256.702C408.035 251.719 418.991 248.32 430.211 246.574C435.927 245.681 441.715 245.225 447.492 245.215C451.391 245.215 461.017 243.966 457.097 249.791C453.665 254.886 450.03 260.345 445.928 264.922Z" fill="#E4EBF5" stroke="black" stroke-miterlimit="10"/>
<path d="M408.898 216.161C408.898 216.161 402.116 213.309 386.165 218.404C370.213 223.498 350.008 250.745 352.729 284.233C355.45 317.721 360.121 308.456 356.638 323.77C358.242 316.717 364.385 310.293 365.096 303.098C365.664 297.334 364.598 290.728 364.487 284.873C364.355 278.063 364.212 271.254 364.08 264.445C363.979 259.391 364.05 253.83 367.34 249.994C370.457 246.361 375.879 245.042 378.326 240.942C379.453 239.055 382.022 231.637 382.895 229.607C385.129 224.442 403.913 218.799 408.888 216.161" fill="white"/>
<path d="M408.898 216.161C408.898 216.161 402.116 213.309 386.165 218.404C370.213 223.498 350.008 250.745 352.729 284.233C355.45 317.721 360.121 308.456 356.638 323.77C358.242 316.717 364.385 310.293 365.096 303.098C365.664 297.334 364.598 290.728 364.487 284.873C364.355 278.063 364.212 271.254 364.08 264.445C363.979 259.391 364.05 253.83 367.34 249.994C370.457 246.361 375.879 245.042 378.326 240.942C379.453 239.055 382.022 231.637 382.895 229.607C385.129 224.442 403.913 218.799 408.888 216.161" stroke="black" stroke-miterlimit="10"/>
<path d="M358.008 354.762C358.83 346.288 365.461 338.697 373.746 336.739C373.746 336.739 405.273 340.199 431.246 347.526C455.117 354.254 462.58 364.382 462.58 364.382" stroke="black" stroke-miterlimit="10"/>
<path d="M354.251 355.381C354.027 341.082 367.187 312.83 373.573 304.499C373.573 304.499 387.971 274.583 424.301 259.543" stroke="black" stroke-miterlimit="10"/>
<path d="M356.709 323.252C354.15 328.468 348.241 342.736 351.276 355.685" stroke="black" stroke-miterlimit="10"/>
<path d="M365.734 332.558C365.734 332.558 389.352 304.103 435.601 302.469C481.851 300.835 490.441 340.199 490.441 340.199C490.441 340.199 492.441 345.578 471.24 342.097C450.04 338.616 445.491 349.008 425.529 349.089C405.567 349.17 373.441 339.134 365.734 332.558Z" fill="white" stroke="black" stroke-miterlimit="10"/>
<path d="M351.276 355.675C350.22 350.702 351.235 345.324 354.028 341.082C356.82 336.84 360.749 333.562 365.735 332.558C365.735 332.558 395.921 314.089 427.56 316.25C459.199 318.412 479.364 332.193 479.364 332.193" stroke="black" stroke-miterlimit="10"/>
<path d="M382 354.234H338.34V387.742H382V354.234Z" fill="white" stroke="black" stroke-miterlimit="10"/>
<path d="M175.558 56.0876C185.029 56.0876 192.707 48.4138 192.707 38.9477C192.707 29.4816 185.029 21.8079 175.558 21.8079C166.086 21.8079 158.408 29.4816 158.408 38.9477C158.408 48.4138 166.086 56.0876 175.558 56.0876Z" fill="black" stroke="black" stroke-miterlimit="10"/>
<path d="M113.236 145.186C110.809 158.46 105.306 171.551 95.5078 180.836C114.536 183.982 136.518 183.302 154.023 175.214C155.313 174.615 156.663 173.936 157.384 172.718C158.024 171.652 158.084 170.343 158.105 169.105C158.42 154.228 154.551 137.271 150.622 122.922C149.373 118.365 147.819 113.697 144.57 110.278C141.148 106.675 136.163 104.869 131.218 104.351C127.553 103.966 121.45 103.458 117.968 105.062C114.119 106.837 115.043 110.166 115.104 113.971C115.287 124.403 115.104 134.896 113.216 145.186H113.236Z" fill="black" stroke="black" stroke-miterlimit="10"/>
<path d="M222.813 124.414C228.997 136.408 238.074 147.338 250.146 153.376C232.855 161.91 212.974 165.127 193.875 162.468C192.474 162.276 190.981 162.012 189.925 161.058C189.001 160.226 188.565 158.988 188.179 157.81C183.549 143.664 180.97 128.848 180.554 113.982C180.422 109.263 180.554 104.341 182.666 100.12C184.899 95.6747 189.133 92.5086 193.713 90.5703C197.104 89.1394 202.8 86.8765 206.598 87.4041C210.801 87.9826 210.882 91.4329 211.928 95.1064C214.781 105.143 218.02 115.128 222.813 124.424V124.414Z" fill="black" stroke="black" stroke-miterlimit="10"/>
<path d="M204.821 97.9783L202.77 78.5552C200.435 50.8716 182.372 36.2586 154.744 39.3537L152.205 39.7901C126.679 44.174 108.799 60.299 111.114 86.0748C113.276 110.054 113.936 132.471 116.272 145.136C121.115 171.358 150.134 168.862 150.134 168.862C150.195 168.862 150.997 181.1 151.992 188.863C154.216 206.297 174.086 217.754 180.859 216.364C197.886 214.01 209.847 180.004 209.847 180.004L207.603 124.444C209.746 124.931 225.971 124.921 223.626 108.004C221.422 92.1838 208.314 96.4865 204.821 97.9884V97.9783Z" fill="white" stroke="black" stroke-miterlimit="10"/>
<path d="M151.85 168.588C151.85 168.588 168.583 166.71 184.341 152.594C184.341 152.594 179.285 173.134 152.642 175.275L151.85 168.588Z" fill="black"/>
<path d="M125.674 238.791C132.253 243.043 139.168 246.879 146.611 249.385C154.378 251.993 162.308 252.734 170.441 251.943C190.596 249.984 209.908 242.931 228.713 235.787C237.993 232.266 247.253 228.734 256.584 225.355C266.078 221.915 275.48 218.191 284.588 213.817C285.37 213.441 286.131 213.056 286.903 212.68C280.821 207.718 273.724 204.034 266.017 201.944L218.711 188.193L218.874 176.3L187.469 179.963L177.112 208.307L169.385 180.796L140.955 186.022L138.924 196.555L102.381 207.677C97.4265 209.189 92.6645 211.168 88.1562 213.584C101.478 220.677 113.033 230.632 125.674 238.801V238.791Z" fill="white" stroke="black" stroke-miterlimit="10"/>
<path d="M333.894 294.919C333.894 294.919 326.025 278.784 311.16 248.188C306.651 238.903 302.336 231.454 298.498 225.568C295.32 220.697 291.431 216.394 287.004 212.761C284.811 213.837 282.608 214.872 280.394 215.877C271.226 220.048 261.803 223.62 252.309 226.979C242.674 230.388 233.18 234.224 223.605 237.807C213.888 241.44 204.09 244.88 194.068 247.559C184.625 250.086 174.756 252.186 164.948 252.399C149.047 252.734 134.751 245.123 121.947 236.426C110.727 228.805 100.086 219.967 88.0545 213.604C74.3877 220.941 63.0766 232.205 55.8269 246.158C54.5272 248.655 53.2073 251.344 51.8569 254.236C36.7584 286.588 24.0664 303.149 24.0664 303.149L84.5819 320.614L100.726 294.858V377.442L87.0797 406.069L270.738 405.663L269.713 370.156L270.484 315.712L272.779 319.416L333.894 294.919Z" fill="#E4EBF5" stroke="black" stroke-miterlimit="10"/>
<path d="M326.5 298L282.433 315.668L303.3 361.946L248.521 374.651V405.907L322.064 406.445C347.935 406.638 365.186 379.817 354.261 356.375L326.5 298Z" fill="white" stroke="black" stroke-miterlimit="10"/>
<path d="M29.2848 304.671L4.67248 354.051C1.92086 359.562 0.641478 365.691 0.935933 371.851C1.87006 391.02 17.6894 406.08 36.9 406.08L107.478 401.99L110.564 369.811L56.862 356.872L77.22 318.412L29.295 304.671H29.2848Z" fill="white" stroke="black" stroke-miterlimit="10"/>
<path d="M177.03 207.88C177.03 208.723 172.238 213.299 171.567 214.649C170.897 215.999 168.42 221.164 169.983 222.372C174.278 225.7 177.04 210.072 177.03 207.88Z" stroke="black" stroke-miterlimit="10"/>
<path d="M270.475 315.712L261.834 292.93" stroke="black" stroke-miterlimit="10"/>
<path d="M248.674 405.846H106.462C102.421 405.846 99.1007 402.67 98.918 398.631L94.6535 300.805C94.4707 296.512 97.8925 292.93 102.198 292.93H252.664C256.949 292.93 260.381 296.502 260.208 300.785L256.218 398.621C256.055 402.66 252.725 405.856 248.674 405.856V405.846Z" fill="black" stroke="black" stroke-miterlimit="10"/>
<path d="M185.205 351.118C185.205 355.421 181.722 358.902 177.417 358.902C173.112 358.902 169.629 355.421 169.629 351.118C169.629 346.816 173.112 343.335 177.417 343.335C181.722 343.335 185.205 346.816 185.205 351.118Z" fill="white" stroke="black" stroke-miterlimit="10"/>
<path d="M200.82 113.718C200.972 115.118 202.871 115.433 203.47 114.154C205.521 109.77 211.603 95.9995 214.588 96.4155C219.848 86.6431 217.239 77.1649 212.568 67.0982C207.39 55.9558 196.972 35.7411 179.67 33.2447C174.939 32.5648 153.342 32.717 147.148 33.4071C127.562 35.599 118.383 40.5512 110.91 52.9926C103.437 65.4339 103.681 91.3923 103.681 100.536C103.681 100.536 107.752 101.946 111.651 101.429C122.678 99.9775 133.37 94.9339 140.376 86.2981C147.382 77.6622 150.661 70.173 149.25 59.1524C149.25 59.1524 158.134 60.4513 167.384 66.2762C171.862 69.0973 167.384 82.8478 178.015 87.3027C182.899 89.3526 194.098 87.8101 199.043 85.9226L200.82 113.697V113.718Z" fill="black" stroke="black" stroke-linecap="round" stroke-linejoin="round"/>
<path d="M131.47 111.353C131.744 113.484 130.211 115.433 128.059 115.707C125.906 115.981 123.936 114.479 123.672 112.348C123.398 110.217 124.931 108.268 127.084 107.994C129.237 107.72 131.206 109.222 131.47 111.353Z" fill="black"/>
<path d="M166.734 108.025C167.008 110.156 165.475 112.104 163.322 112.378C161.17 112.652 159.2 111.15 158.936 109.019C158.662 106.888 160.195 104.94 162.348 104.666C164.5 104.392 166.47 105.894 166.734 108.025Z" fill="black"/>
<path d="M145.604 104.838C145.777 110.389 138.02 125.225 138.02 125.225C138.02 125.225 145.015 131.101 147.026 131.284" stroke="black" stroke-linecap="round" stroke-linejoin="round"/>
<path d="M135.645 141.279C140.427 143.715 146.032 144.517 151.301 143.532C156.581 142.548 161.506 139.767 165.09 135.769" stroke="black" stroke-linecap="round" stroke-linejoin="round"/>
<path d="M210.039 106.594C212.1 106.056 214.456 107.02 215.542 108.857C216.629 110.694 216.345 113.22 214.882 114.763C213.42 116.305 210.902 116.742 209.014 115.757" stroke="black" stroke-miterlimit="10"/>
<path d="M484.207 151.498C484.207 151.498 461.717 131.608 425.124 131.608C425.124 131.608 424.606 120.72 451.594 113.454H409.812V98.9321H399.476V113.454H357.693C384.682 120.72 384.164 131.608 384.164 131.608C347.57 131.608 325.08 151.498 325.08 151.498H379.757C371.106 163.95 371.106 173.976 371.106 173.976H388.408V179.852H420.89V173.976H438.191C438.191 173.976 438.191 163.95 429.54 151.498H484.218H484.207Z" fill="white" stroke="black" stroke-linecap="round" stroke-linejoin="round"/>
<path d="M379.746 151.499H429.529" stroke="black" stroke-linecap="round" stroke-linejoin="round"/>
<path d="M388.398 173.976H420.88" stroke="black" stroke-linecap="round" stroke-linejoin="round"/>
<path d="M384.154 131.619H425.124" stroke="black" stroke-linecap="round" stroke-linejoin="round"/>
<path d="M404.645 0.507324V98.9321" stroke="black" stroke-linecap="round" stroke-linejoin="round"/>
<path d="M300.858 84.6478C315.171 75.8232 319.616 57.0728 310.786 42.7677C301.957 28.4627 283.196 24.0199 268.883 32.8445C254.57 41.6692 250.125 60.4196 258.954 74.7246C267.784 89.0297 286.545 93.4725 300.858 84.6478Z" fill="#FFEFB0" stroke="black" stroke-miterlimit="10"/>
<path d="M299.125 81.841C311.887 73.9726 315.851 57.2542 307.978 44.4994C300.105 31.7445 283.377 27.7832 270.615 35.6516C257.853 43.5199 253.89 60.2383 261.763 72.9931C269.635 85.748 286.363 89.7093 299.125 81.841Z" fill="white" stroke="black" stroke-miterlimit="10"/>
<path d="M296.447 55.1439L284.344 59.4466L285.41 42.6011L286.374 42.662L285.39 58.0564L296.122 54.2408L296.447 55.1439Z" fill="black" stroke="black" stroke-linejoin="round"/>
<path d="M46.2718 179.639L49.7748 170.769C50.1098 169.927 51.2978 169.927 51.6227 170.769L55.1257 179.639C55.2273 179.892 55.4303 180.095 55.6842 180.197L64.5584 183.698C65.4012 184.033 65.4012 185.22 64.5584 185.545L55.6842 189.046C55.4303 189.147 55.2273 189.35 55.1257 189.604L51.6227 198.473C51.2877 199.316 50.0997 199.316 49.7748 198.473L46.2718 189.604C46.1703 189.35 45.9672 189.147 45.7133 189.046L36.8391 185.545C35.9963 185.21 35.9963 184.023 36.8391 183.698L45.7133 180.197C45.9672 180.095 46.1703 179.892 46.2718 179.639Z" fill="white" stroke="black" stroke-miterlimit="10"/>
<path d="M75.1997 116.143C79.1027 116.143 82.2666 112.981 82.2666 109.08C82.2666 105.179 79.1027 102.017 75.1997 102.017C71.2968 102.017 68.1328 105.179 68.1328 109.08C68.1328 112.981 71.2968 116.143 75.1997 116.143Z" fill="#FFDE66" stroke="black" stroke-miterlimit="10"/>
<path d="M305.534 163.944L296.438 154.852L287.341 163.944L296.437 173.035L305.534 163.944Z" fill="#BACCFF" stroke="black" stroke-miterlimit="10"/>
</svg>
