<svg width="778" height="545" viewBox="0 0 778 545" fill="none" xmlns="http://www.w3.org/2000/svg">
<path d="M177.756 204.133C220.7 204.133 255.513 169.339 255.513 126.42C255.513 83.5003 220.7 48.707 177.756 48.707C134.813 48.707 100 83.5003 100 126.42C100 169.339 134.813 204.133 177.756 204.133Z" fill="#BACCFF"/>
<path d="M622.027 449.033H339.564C320.936 449.033 305.834 464.126 305.834 482.744V498.189C305.834 516.808 320.936 531.901 339.564 531.901H622.027C640.656 531.901 655.758 516.808 655.758 498.189V482.744C655.758 464.126 640.656 449.033 622.027 449.033Z" fill="#FFDE66"/>
<path d="M162.395 60.1743C157.308 61.5849 153.246 70.302 155.105 74.3916C156.008 76.3704 157.552 78.5218 156.262 80.4905C155.815 81.1805 154.942 82.0735 153.947 83.0376C150.769 86.1327 153.429 88.7204 153.51 93.1652C153.551 95.6007 148.86 95.5906 151.246 100.756C152.383 103.222 149.002 111.492 147.154 112.964L162.09 109.463C162.882 108.103 162.882 106.287 163.674 104.937C162.74 106.388 162.578 110.741 168.253 109.777L170.934 105.85C181.006 105.87 191.698 95.895 198.196 89.8672" fill="#FFEFB0"/>
<path d="M162.395 60.1743C157.308 61.5849 153.246 70.302 155.105 74.3916C156.008 76.3704 157.552 78.5218 156.262 80.4905C155.815 81.1805 154.942 82.0735 153.947 83.0376C150.769 86.1327 153.429 88.7204 153.51 93.1652C153.551 95.6007 148.86 95.5906 151.246 100.756C152.383 103.222 149.002 111.492 147.154 112.964L162.09 109.463C162.882 108.103 162.882 106.287 163.674 104.937C162.74 106.388 162.578 110.741 168.253 109.777L170.934 105.85C181.006 105.87 191.698 95.895 198.196 89.8672" stroke="black" stroke-linecap="round" stroke-linejoin="round"/>
<path d="M212.827 62.6909C211.375 58.0228 194.886 44.5768 192.195 42.3646C190.215 40.7511 188.428 38.9244 186.458 37.3008C183.656 34.987 180.782 36.8441 177.148 36.9557C173.411 37.0674 169.674 35.4031 166.486 37.3515C163.298 39.2999 160.8 40.5887 160.546 44.313C160.425 46.1295 160.272 47.4487 159.866 49.2246C159.419 51.173 158.069 52.7865 157.307 54.6436C155.713 58.5607 157.226 63.5027 160.739 65.857L189.251 96.4429C194.794 97.9752 200.166 90.689 203.943 86.3558C207.72 82.0227 213.497 64.8727 212.827 62.701V62.6909Z" fill="#FFEFB0" stroke="black" stroke-linecap="round" stroke-linejoin="round"/>
<path d="M201.862 57.7184C201.974 50.7467 197.608 44.7696 190.673 41.3599C186.307 39.2085 182.895 39.1984 180.6 38.9244C175.452 38.3257 171.3 40.8728 171.3 40.8728C169.127 41.3802 169.502 52.0457 160.75 54.5421C160.293 63.3302 160.08 74.0667 161.187 80.6121C163.42 93.7638 173.544 95.3266 173.544 95.3266C173.544 95.3063 172.599 117.185 172.599 117.185L192.043 133.117L197.983 106.966L201.862 57.7285V57.7184Z" fill="white" stroke="black" stroke-miterlimit="10"/>
<path d="M173.512 95.9559C173.512 95.9559 180.793 96.3415 187.9 91.9678C187.9 91.9678 184.153 99.5686 173.391 98.6857L173.512 95.9559Z" fill="black" stroke="black" stroke-linejoin="round"/>
<path d="M200.095 66.7704C202.461 66.3746 206.725 66.5167 206.837 72.5344C206.979 80.7441 198.907 78.9174 198.684 78.958" fill="white"/>
<path d="M200.095 66.7704C202.461 66.3746 206.725 66.5167 206.837 72.5344C206.979 80.7441 198.907 78.9174 198.684 78.958" stroke="black" stroke-miterlimit="10"/>
<path d="M225.935 130.641L211.629 182.497L212.938 194.695C212.938 194.695 198.825 203.422 175.197 203.422C151.56 203.422 138.492 193.082 138.492 193.082C138.492 193.082 143.742 184.669 144.036 179.747C144.331 174.826 142.208 146.076 144.554 136.426C146.899 126.785 153.621 106.114 153.621 106.114L173.38 102.978C182.437 107.839 188.245 108.57 197.982 102.927L216.391 106.936L225.935 130.621V130.641Z" fill="white" stroke="black" stroke-miterlimit="10"/>
<path d="M173.381 102.998L160.385 118.433L182.256 110.944L193.303 121.894L197.994 102.948" stroke="black" stroke-miterlimit="10"/>
<path d="M185.342 177.403L194.663 168.402C195.567 167.529 196.805 167.093 198.054 167.215C200.714 167.468 205.223 167.935 206.157 168.29C207.487 168.808 208.746 169.549 209.122 170.218C209.487 170.888 210.756 174.887 210.827 175.475C210.868 175.759 210.777 176.591 210.675 177.373C210.563 178.296 209.548 178.834 208.736 178.377C208.37 178.174 208.045 177.9 207.852 177.545C207.264 176.439 207.335 175.993 207.335 175.993C207.335 175.993 207.629 179.991 204.37 180.062C204.37 180.062 205.873 183.472 201.679 184.872C201.679 184.872 201.831 187.094 198.328 187.389C194.815 187.683 191.637 187.389 191.637 187.389C191.637 187.389 185.22 191.996 180.702 192.29C176.183 192.584 166.06 190.616 166.06 190.616L164.842 171.984L185.342 177.393V177.403Z" fill="white" stroke="black" stroke-linecap="round" stroke-linejoin="round"/>
<path d="M157.378 168.625L171.461 102.948L153.926 106.094C153.926 106.094 143.315 107.22 139.041 115.937C134.817 124.553 123.099 162.689 122.47 169.062C121.83 175.434 127.009 184.009 131.517 185.197L177.523 195.06L181.544 176.388C181.544 176.388 168.212 172.065 157.378 168.615V168.625Z" fill="white" stroke="black" stroke-miterlimit="10"/>
<path d="M198.654 124.654L180.529 149.912L172.691 117.784L154.201 121.579C154.201 121.579 156.019 155.25 161.715 170.837C162.801 173.8 166 176.013 167.431 176.693C176.377 180.934 185.099 174.369 185.099 174.369C185.099 174.369 222.403 149.344 226.444 132.6C228.353 124.695 227.591 115.288 224.332 111.411C221.469 108.011 216.382 106.956 216.382 106.956" fill="white"/>
<path d="M198.654 124.654L180.529 149.912L172.691 117.784L154.201 121.579C154.201 121.579 156.019 155.25 161.715 170.837C162.801 173.8 166 176.013 167.431 176.693C176.377 180.934 185.099 174.369 185.099 174.369C185.099 174.369 222.403 149.344 226.444 132.6C228.353 124.695 227.591 115.288 224.332 111.411C221.469 108.011 216.382 106.956 216.382 106.956" stroke="black" stroke-miterlimit="10"/>
<path d="M170.578 111.127C170.923 109.98 172.862 99.3553 173.654 96.8792C174.771 93.3985 182.244 88.0404 182.244 88.0404C182.244 88.0404 180.823 84.7727 176.965 86.4674C172.395 88.4767 171.725 90.9934 170.568 90.3033C169.42 89.6133 162.242 82.3169 160.292 82.5402C158.333 82.7736 157.906 84.7727 158.597 85.5846C159.287 86.3862 160.059 87.7156 160.059 87.7156C160.059 87.7156 155.916 86.4674 156.718 91.0035C156.718 91.0035 151.997 88.0606 152.464 94.2712C152.464 94.2712 149.357 93.0027 148.666 95.1946C147.976 97.3764 150.027 99.9134 151.063 101.639C152.098 103.364 155.459 113.37 155.459 113.37L155.195 121.234L171.695 117.845L170.578 111.127Z" fill="white" stroke="black" stroke-miterlimit="10"/>
<path d="M167.543 69.4392C167.583 70.4032 166.832 71.2252 165.857 71.2658C164.883 71.3064 164.05 70.5656 164.009 69.5914C163.969 68.6273 164.72 67.8054 165.695 67.7648C166.67 67.7242 167.502 68.465 167.543 69.4392Z" fill="black"/>
<path d="M182.408 68.6375C182.448 69.6016 181.697 70.4134 180.722 70.4642C179.747 70.5048 178.925 69.764 178.884 68.7999C178.844 67.8358 179.595 67.024 180.57 66.9733C181.545 66.9327 182.367 67.6735 182.408 68.6375Z" fill="black"/>
<path d="M172.619 66.5371C172.7 72.8187 170.294 75.0309 170.243 75.8834C170.192 76.8068 172.284 78.5725 173.208 78.6537" stroke="black" stroke-linecap="round" stroke-linejoin="round"/>
<path d="M169.096 83.7985C170.192 84.3668 174.954 84.8032 178.153 83.21" stroke="black" stroke-linecap="round" stroke-linejoin="round"/>
<path d="M172.03 37.1182C179.909 33.7288 187.017 31.07 197.119 40.5177C204.938 47.8344 208.816 46.1498 211.771 52.0255C216.086 60.6005 210.025 68.0897 217.762 72.1996C226.504 76.8372 219.772 83.5957 226.209 91.6734C233.012 100.218 228.23 116.181 226.89 120.27L224.575 115.623C224.91 114.029 225.367 112.456 225.57 110.833C225.874 108.418 224.778 106.571 224.778 106.571C224.778 106.571 223.823 109.879 223.519 111.817C223.163 114.08 221.194 119.651 220.676 121.884C220.676 121.884 218.34 117.794 214.005 119.692C209.03 121.884 208.634 115.227 208.654 115.186C211.223 109.229 209.395 106.956 209.263 103.425C209.263 103.171 208.887 103.151 208.847 103.394C208.512 105.19 208.654 108.661 208.197 110.782C207.74 112.903 206.704 113.684 206.115 115.095L204.41 114.557C202.633 113.999 200.704 114.801 199.851 116.455L197.069 121.874C189.352 114.882 195.576 102.897 195.617 92.4853C195.627 89.0553 192.296 85.879 192.449 82.449C192.591 79.4249 193.951 76.2486 192.692 73.4985C191.017 69.8655 185.666 69.1349 183.97 65.5019C182.986 63.3912 183.503 60.7933 182.417 58.7434C181.391 56.8153 179.188 55.831 177.076 55.2525C174.964 54.6741 172.72 54.3392 170.893 53.1418C169.065 51.9443 165.745 47.7938 166.709 45.8353" fill="#FFEFB0"/>
<path d="M172.03 37.1182C179.909 33.7288 187.017 31.07 197.119 40.5177C204.938 47.8344 208.816 46.1498 211.771 52.0255C216.086 60.6005 210.025 68.0897 217.762 72.1996C226.504 76.8372 219.772 83.5957 226.209 91.6734C233.012 100.218 228.23 116.181 226.89 120.27L224.575 115.623C224.91 114.029 225.367 112.456 225.57 110.833C225.874 108.418 224.778 106.571 224.778 106.571C224.778 106.571 223.823 109.879 223.519 111.817C223.163 114.08 221.194 119.651 220.676 121.884C220.676 121.884 218.34 117.794 214.005 119.692C209.03 121.884 208.634 115.227 208.654 115.186C211.223 109.229 209.395 106.956 209.263 103.425C209.263 103.171 208.887 103.151 208.847 103.394C208.512 105.19 208.654 108.661 208.197 110.782C207.74 112.903 206.704 113.684 206.115 115.095L204.41 114.557C202.633 113.999 200.704 114.801 199.851 116.455L197.069 121.874C189.352 114.882 195.576 102.897 195.617 92.4853C195.627 89.0553 192.296 85.879 192.449 82.449C192.591 79.4249 193.951 76.2486 192.692 73.4985C191.017 69.8655 185.666 69.1349 183.97 65.5019C182.986 63.3912 183.503 60.7933 182.417 58.7434C181.391 56.8153 179.188 55.831 177.076 55.2525C174.964 54.6741 172.72 54.3392 170.893 53.1418C169.065 51.9443 165.745 47.7938 166.709 45.8353" stroke="black" stroke-linecap="round" stroke-linejoin="round"/>
<path d="M152.342 94.2915C153.185 95.1642 154.84 96.8589 155.682 97.7418" stroke="black" stroke-miterlimit="10"/>
<path d="M156.506 90.76C157.308 91.6733 158.516 93.4086 159.318 94.3219" stroke="black" stroke-miterlimit="10"/>
<path d="M159.918 87.7766L163.462 91.6836" stroke="black" stroke-miterlimit="10"/>
<path d="M207.416 176.013C207.182 175.678 207.091 175.302 206.928 174.937C206.766 174.572 206.522 174.217 206.106 174.034C205.781 173.892 205.395 173.872 205.03 173.861C203.395 173.801 201.75 173.75 200.115 173.689" stroke="black" stroke-miterlimit="10"/>
<path d="M201.678 185.034C201.11 184.06 199.963 183.583 198.856 183.38C197.749 183.177 196.602 183.177 195.525 182.863" stroke="black" stroke-miterlimit="10"/>
<path d="M204.42 180.275C202.775 178.915 200.622 178.195 198.5 178.296" stroke="black" stroke-miterlimit="10"/>
<path d="M591.273 540.8L600.94 535.209L603.366 529.556L583.13 520.87L580.693 526.532L583.303 537.381L591.273 540.8Z" fill="white" stroke="black" stroke-miterlimit="10"/>
<path d="M583.332 537.502L584.733 543.338C584.946 543.764 585.495 544.007 585.952 543.865L591.15 540.861L584.379 537.913L583.332 537.502Z" fill="black" stroke="black" stroke-miterlimit="10"/>
<path d="M588.441 524.685L580.693 526.532L605.367 469.065L611.246 471.592L588.441 524.685Z" fill="#FFF1CC" stroke="black" stroke-linecap="round" stroke-linejoin="round"/>
<path d="M596.938 528.329L590.815 530.876L588.439 524.686L611.244 471.592L619.733 475.225L596.938 528.329Z" fill="#FFEFB0" stroke="black" stroke-linecap="round" stroke-linejoin="round"/>
<path d="M600.938 535.209L596.938 528.329L619.732 475.225L625.611 477.751L600.938 535.209Z" fill="#FFF1CC" stroke="black" stroke-linejoin="round"/>
<path d="M606.644 466.176L605.387 469.104L625.624 477.786L626.882 474.858L606.644 466.176Z" fill="white" stroke="black" stroke-miterlimit="10"/>
<path d="M627.937 467.502L611.194 460.317C610.23 459.901 609.113 460.348 608.696 461.312L606.625 466.132L626.871 474.818L628.943 469.998C629.359 469.034 628.912 467.918 627.948 467.502H627.937Z" fill="white" stroke="black" stroke-miterlimit="10"/>
<path d="M444.573 434.478L338.814 454.66L354.851 538.599L460.609 518.417L444.573 434.478Z" fill="white" stroke="black" stroke-miterlimit="10"/>
<path d="M440.106 441.057L454.036 514.02L359.263 532.104L345.332 459.14L440.106 441.057ZM444.553 434.521L338.793 454.695L354.826 538.639L460.585 518.465L444.553 434.521Z" fill="#FFF1CC" stroke="black" stroke-miterlimit="10"/>
<path d="M434.607 453.124L354.959 468.323L356.008 473.816L435.656 458.616L434.607 453.124Z" fill="#FFDE66"/>
<path d="M430.594 469.166L364.59 481.762L364.94 483.596L430.944 471L430.594 469.166Z" fill="#DBE0F1"/>
<path d="M432.707 480.244L366.703 492.84L367.054 494.674L433.058 482.078L432.707 480.244Z" fill="#DBE0F1"/>
<path d="M434.821 491.332L368.816 503.927L369.167 505.762L435.171 493.166L434.821 491.332Z" fill="#DBE0F1"/>
<path d="M422.604 505.146L370.941 515.005L371.292 516.839L422.954 506.98L422.604 505.146Z" fill="#DBE0F1"/>
<path d="M435.75 527.862L441.112 523.255L447.793 525.568L444.96 510.732L432.928 513.026L435.75 527.862Z" fill="white" stroke="black" stroke-miterlimit="10"/>
<path d="M436.653 499.935L438.379 501.528L440.004 499.833L441.151 501.883L443.212 500.767L443.669 503.07L445.974 502.644L445.7 504.978L448.025 505.283L447.04 507.414L449.162 508.429L447.558 510.154L449.264 511.767L447.213 512.914L448.329 514.984L446.035 515.431L446.451 517.744L444.126 517.47L443.811 519.794L441.679 518.81L440.664 520.921L438.937 519.327L437.323 521.032L436.176 518.982L434.114 520.099L433.658 517.795L431.343 518.221L431.627 515.887L429.291 515.583L430.287 513.452L428.164 512.437L429.759 510.712L428.053 509.098L430.104 507.952L428.987 505.881L431.292 505.435L430.865 503.121L433.201 503.395L433.515 501.071L435.637 502.056L436.653 499.935Z" fill="white" stroke="black" stroke-miterlimit="10"/>
<path d="M125.953 97.6707L127.182 94.5452C127.293 94.2509 127.72 94.2509 127.832 94.5452L129.06 97.6707C129.101 97.7621 129.172 97.8331 129.253 97.8635L132.38 99.0914C132.675 99.2031 132.675 99.6293 132.38 99.7409L129.253 100.969C129.162 101.009 129.091 101.08 129.06 101.162L127.832 104.287C127.72 104.581 127.293 104.581 127.182 104.287L125.953 101.162C125.913 101.07 125.841 100.999 125.76 100.969L122.633 99.7409C122.338 99.6293 122.338 99.2031 122.633 99.0914L125.76 97.8635C125.852 97.823 125.923 97.7519 125.953 97.6707Z" fill="white" stroke="black" stroke-miterlimit="10"/>
<path d="M535.641 506.531L537.459 501.934C537.632 501.497 538.251 501.497 538.413 501.934L540.231 506.531C540.282 506.663 540.393 506.764 540.525 506.825L545.125 508.642C545.561 508.814 545.561 509.433 545.125 509.595L540.525 511.412C540.393 511.463 540.292 511.574 540.231 511.706L538.413 516.303C538.241 516.74 537.621 516.74 537.459 516.303L535.641 511.706C535.591 511.574 535.479 511.473 535.347 511.412L530.747 509.595C530.311 509.423 530.311 508.804 530.747 508.642L535.347 506.825C535.479 506.774 535.58 506.663 535.641 506.531Z" fill="white" stroke="black" stroke-miterlimit="10"/>
<path d="M479.624 479.365L545.947 471.389C546.394 471.338 546.831 471.409 547.217 471.581L547.328 471.632L563.869 479.06C565.554 479.822 566.305 481.79 565.544 483.475C564.782 485.159 562.813 485.91 561.127 485.149C561.015 485.098 560.893 485.038 560.792 484.977L545.206 475.701L480.538 486.022C478.7 486.306 476.984 485.048 476.71 483.211C476.426 481.374 477.685 479.659 479.523 479.385C479.553 479.385 479.594 479.375 479.624 479.375V479.365Z" fill="white" stroke="black" stroke-linecap="round" stroke-linejoin="round"/>
<path d="M568.326 462.083L506.318 486.915L498.662 501.914C497.779 503.527 495.748 504.126 494.124 503.233C492.509 502.35 491.91 500.32 492.804 498.697C492.865 498.585 492.936 498.473 493.007 498.372L503.475 483.576L503.536 483.485C503.8 483.12 504.145 482.836 504.531 482.673L565.727 455.883C567.423 455.142 569.413 455.913 570.154 457.608C570.895 459.302 570.123 461.291 568.428 462.032C568.397 462.042 568.357 462.063 568.326 462.073V462.083Z" fill="white" stroke="black" stroke-linecap="round" stroke-linejoin="round"/>
<g style="mix-blend-mode:multiply">
<path d="M544.456 484.398C539.023 484.398 533.723 481.07 531.581 476.31L530.86 474.697C529.58 471.855 529.55 468.872 530.769 466.294C531.987 463.717 534.312 461.85 537.318 461.028L554.843 456.248C555.838 455.974 556.843 455.842 557.828 455.842C562.966 455.842 567.189 459.475 568.093 464.671L568.357 466.213C569.474 472.596 565.281 479.182 559.026 480.887L547.796 483.952C546.73 484.246 545.603 484.388 544.456 484.388V484.398Z" fill="#E4EBF5"/>
<path d="M557.828 456.36C562.712 456.36 566.733 459.82 567.596 464.762L567.86 466.305C568.926 472.444 564.905 478.766 558.894 480.4L547.664 483.465C546.639 483.749 545.563 483.891 544.456 483.891C539.217 483.891 534.109 480.684 532.048 476.107L531.327 474.494C530.109 471.795 530.078 468.963 531.226 466.518C532.373 464.082 534.587 462.306 537.45 461.525L554.975 456.745C555.919 456.491 556.884 456.36 557.828 456.36ZM557.828 455.345C556.813 455.345 555.757 455.487 554.711 455.771L537.186 460.551C530.667 462.327 527.631 468.76 530.403 474.91L531.124 476.523C533.409 481.608 538.932 484.906 544.456 484.906C545.624 484.906 546.791 484.753 547.928 484.449L559.158 481.384C565.667 479.608 570.012 472.779 568.855 466.132L568.591 464.59C567.626 459.018 563.098 455.345 557.828 455.345Z" fill="black"/>
<path d="M494.885 497.936C489.514 497.936 484.467 494.506 482.619 489.604L482.071 488.133C480.974 485.21 481.106 482.156 482.457 479.517C483.807 476.879 486.203 474.971 489.219 474.149L506.744 469.369C507.729 469.105 508.714 468.963 509.679 468.963C514.725 468.963 518.665 472.627 519.243 477.863L519.436 479.619C520.157 486.073 515.629 492.72 509.364 494.435L498.134 497.499C497.088 497.783 496.002 497.926 494.905 497.926L494.885 497.936Z" fill="#E4EBF5"/>
<path d="M509.659 469.481C514.441 469.481 518.167 472.951 518.716 477.924L518.909 479.679C519.599 485.9 515.243 492.303 509.202 493.947L497.972 497.012C496.967 497.286 495.931 497.428 494.875 497.428C489.707 497.428 484.864 494.14 483.076 489.421L482.528 487.95C481.482 485.169 481.604 482.257 482.884 479.74C484.163 477.234 486.447 475.417 489.321 474.636L506.846 469.856C507.78 469.603 508.724 469.471 509.648 469.471M509.648 468.456C508.653 468.456 507.628 468.588 506.582 468.882L489.057 473.662C482.538 475.438 479.198 481.993 481.574 488.315L482.122 489.787C484.102 495.023 489.402 498.453 494.865 498.453C495.992 498.453 497.119 498.311 498.226 498.007L509.456 494.942C515.964 493.166 520.645 486.286 519.904 479.588L519.711 477.832C519.091 472.2 514.847 468.486 509.638 468.486L509.648 468.456Z" fill="black"/>
</g>
<path d="M569.757 462.377C569.188 460.53 568.264 458.896 566.954 457.455C565.654 456.035 563.989 454.878 562.121 454.198C560.263 453.498 558.212 453.275 556.232 453.488C555.734 453.518 555.247 453.62 554.76 453.731C554.242 453.833 553.836 453.944 553.43 454.056L550.942 454.716C547.622 455.609 544.312 456.491 541.052 457.405C540.24 457.628 539.428 457.851 538.615 458.074L537.407 458.42L536.808 458.592L536.656 458.633L536.412 458.714L536.118 458.815C535.437 459.028 534.3 459.495 533.508 459.972C533.092 460.216 532.676 460.459 532.3 460.764L531.731 461.2L531.203 461.697C529.822 463.017 528.787 464.661 528.198 466.406C527.934 467.197 527.771 468.019 527.68 468.821C526.34 468.689 524.715 468.699 523.06 469.156C521.405 469.613 520.004 470.414 518.917 471.216C518.43 470.556 517.882 469.948 517.242 469.389C515.851 468.182 514.125 467.289 512.267 466.852L511.566 466.69L510.855 466.609C510.378 466.538 509.901 466.528 509.414 466.538C508.49 466.518 507.281 466.7 506.581 466.863L506.276 466.923L506.022 466.984L505.87 467.025L505.271 467.177L504.053 467.492C503.24 467.705 502.428 467.928 501.616 468.141C498.346 469.004 495.036 469.927 491.736 470.841L489.259 471.531C488.853 471.642 488.446 471.754 487.949 471.926C487.472 472.079 487.005 472.241 486.558 472.464C484.74 473.286 483.096 474.514 481.847 476.057C480.577 477.589 479.745 479.436 479.339 481.323C478.943 483.231 478.983 485.109 479.43 486.986C479.491 487.219 479.542 487.473 479.603 487.676L479.796 488.244L480.019 488.884L480.242 489.432C480.395 489.807 480.517 490.142 480.709 490.548C480.902 490.944 481.065 491.35 481.278 491.735C482.09 493.278 483.187 494.597 484.405 495.683C486.852 497.844 489.766 499.113 492.559 499.488C493.96 499.681 495.28 499.691 496.62 499.488C497.321 499.417 497.818 499.255 498.377 499.133L498.631 499.062L498.823 499.001L499.209 498.889C499.473 498.818 499.727 498.737 499.971 498.666C501.981 498.078 503.728 497.55 505.169 497.154C506.611 496.738 507.759 496.454 508.54 496.261C509.322 496.058 509.739 495.957 509.739 495.957C509.739 495.957 510.185 495.825 511.018 495.571C511.82 495.246 513.039 494.79 514.369 493.856C515.709 492.943 517.212 491.613 518.521 489.756C519.801 487.889 520.958 485.525 521.354 482.683C521.568 481.222 521.517 479.649 521.375 478.33C521.334 477.68 521.232 476.838 521.08 476.046C520.989 475.661 520.897 475.275 520.786 474.879C521.588 474.21 522.745 473.428 524.136 473.053C525.527 472.677 526.918 472.759 527.944 472.931C528.046 473.317 528.167 473.702 528.289 474.078C528.563 474.839 528.909 475.61 529.203 476.199C529.751 477.396 530.503 478.786 531.427 479.933C533.204 482.186 535.417 483.637 537.458 484.591C539.529 485.525 541.499 485.9 543.113 486.012C544.738 486.144 546.017 485.92 546.88 485.788C547.733 485.586 548.18 485.474 548.18 485.474C548.18 485.474 548.596 485.352 549.368 485.129C550.14 484.906 551.277 484.571 552.729 484.195C554.181 483.799 555.948 483.363 557.978 482.856C558.232 482.795 558.486 482.724 558.75 482.663L559.146 482.561L559.349 482.511L559.603 482.44C560.141 482.267 560.659 482.156 561.299 481.861C562.558 481.364 563.685 480.684 564.791 479.801C567.005 478.066 568.873 475.498 569.878 472.393C570.376 470.841 570.64 469.146 570.559 467.4C570.549 466.964 570.477 466.528 570.437 466.091C570.396 465.645 570.325 465.3 570.274 464.894L570.193 464.305L570.061 463.636L569.939 463.047C569.889 462.834 569.807 462.59 569.736 462.357L569.757 462.377ZM518.207 478.695C518.44 480.126 518.501 481.252 518.41 482.348C518.237 484.642 517.374 486.692 516.369 488.305C515.333 489.919 514.105 491.106 513.018 491.928C511.922 492.78 510.916 493.207 510.256 493.511C509.566 493.755 509.19 493.887 509.19 493.887C509.19 493.887 508.774 494.008 508.002 494.232C507.231 494.455 506.093 494.79 504.641 495.165C503.189 495.561 501.423 495.997 499.392 496.505C498.905 496.626 498.397 496.748 497.879 496.88C497.341 496.982 496.742 497.134 496.265 497.144C495.27 497.256 494.092 497.215 492.965 497.002C490.67 496.616 488.294 495.429 486.416 493.582C485.482 492.659 484.669 491.563 484.101 490.325C483.948 490.02 483.847 489.695 483.715 489.381C483.583 489.076 483.451 488.66 483.329 488.295L483.146 487.757C483.146 487.757 483.177 487.838 483.146 487.777V487.747L483.116 487.676L483.075 487.534L482.994 487.25L482.821 486.671C482.781 486.489 482.771 486.357 482.73 486.194C482.212 483.597 482.892 480.572 484.771 478.502C485.695 477.467 486.852 476.625 488.172 476.067C489.37 475.549 491.188 475.184 492.823 474.717C496.143 473.824 499.453 472.941 502.712 472.028C503.525 471.805 504.337 471.581 505.139 471.358L506.347 471.013L506.946 470.841L507.088 470.8H507.139L507.444 470.719C507.84 470.627 508.287 470.516 508.551 470.506C508.855 470.475 509.15 470.414 509.495 470.425C509.83 470.414 510.165 470.404 510.49 470.445L510.987 470.485L511.465 470.577C514.044 471.044 516.186 472.799 517.232 475.052C517.354 475.336 517.465 475.62 517.587 475.904C517.679 476.199 517.77 476.493 517.861 476.787C518.004 477.396 518.115 477.954 518.207 478.685V478.695ZM566.832 464.386L566.903 464.681L566.944 464.823L566.964 464.894V464.934C566.985 464.995 566.974 464.935 566.964 464.914L567.076 465.472C567.147 465.848 567.249 466.274 567.289 466.609C567.33 466.944 567.401 467.279 567.431 467.624C567.563 468.973 567.431 470.333 567.086 471.602C566.406 474.149 564.974 476.371 563.187 477.873C562.324 478.634 561.329 479.274 560.415 479.669C559.999 479.903 559.4 480.075 558.892 480.258C558.384 480.41 557.877 480.562 557.4 480.704C555.389 481.293 553.643 481.821 552.191 482.216C550.749 482.632 549.602 482.917 548.82 483.12C548.038 483.323 547.622 483.424 547.622 483.424C547.622 483.424 547.236 483.495 546.515 483.637C545.784 483.708 544.697 483.85 543.327 483.678C541.966 483.525 540.311 483.12 538.595 482.257C536.899 481.374 535.123 480.055 533.813 478.167C533.173 477.264 532.655 476.27 532.127 474.92C531.833 474.25 531.65 473.712 531.467 473.114C531.396 472.819 531.325 472.515 531.254 472.211C531.213 471.906 531.173 471.602 531.122 471.297C530.878 468.831 531.823 466.223 533.813 464.518L534.178 464.194L534.584 463.91C534.848 463.707 535.133 463.544 535.427 463.382C535.722 463.199 536.006 463.088 536.29 462.966C536.524 462.834 536.96 462.712 537.346 462.59L537.641 462.499L537.702 462.479L537.844 462.438L538.443 462.286L539.651 461.971C540.463 461.758 541.266 461.535 542.088 461.322C545.357 460.459 548.657 459.536 551.967 458.612C553.612 458.186 555.359 457.587 556.658 457.415C558.07 457.222 559.491 457.364 560.821 457.78C563.492 458.602 565.604 460.865 566.487 463.372C566.538 463.524 566.609 463.656 566.66 463.828L566.802 464.407L566.832 464.386Z" fill="white" stroke="black" stroke-miterlimit="10"/>
</svg>
