<svg width="26" height="27" viewBox="0 0 26 27" fill="none" xmlns="http://www.w3.org/2000/svg">
<path d="M4 23H21.8621" stroke="#1D1D1B"/>
<mask id="path-2-inside-1_9287_55360" fill="white">
<path fill-rule="evenodd" clip-rule="evenodd" d="M10.0352 12.6608C7.31488 13.9161 5.39062 17.0119 5.39062 20.6321H20.0802C20.0802 17.0119 18.156 13.9161 15.4357 12.6608C14.6212 13.0618 13.7046 13.2871 12.7354 13.2871C11.7662 13.2871 10.8497 13.0618 10.0352 12.6608Z"/>
</mask>
<path d="M10.0352 12.6608L10.4769 11.7636L10.0492 11.553L9.61621 11.7528L10.0352 12.6608ZM5.39062 20.6321H4.39062V21.6321H5.39062V20.6321ZM20.0802 20.6321V21.6321H21.0802V20.6321H20.0802ZM15.4357 12.6608L15.8547 11.7528L15.4217 11.553L14.9939 11.7636L15.4357 12.6608ZM9.61621 11.7528C6.49472 13.1932 4.39062 16.6763 4.39062 20.6321H6.39062C6.39062 17.3474 8.13503 14.6389 10.4542 13.5688L9.61621 11.7528ZM5.39062 21.6321H20.0802V19.6321H5.39062V21.6321ZM21.0802 20.6321C21.0802 16.6764 18.9761 13.1932 15.8547 11.7528L15.0167 13.5688C17.3358 14.6389 19.0802 17.3474 19.0802 20.6321H21.0802ZM14.9939 11.7636C14.3138 12.0985 13.5481 12.2871 12.7354 12.2871V14.2871C13.8612 14.2871 14.9286 14.0251 15.8774 13.5579L14.9939 11.7636ZM12.7354 12.2871C11.9228 12.2871 11.157 12.0985 10.4769 11.7636L9.59345 13.5579C10.5423 14.0251 11.6097 14.2871 12.7354 14.2871V12.2871Z" fill="#1D1D1B" mask="url(#path-2-inside-1_9287_55360)"/>
<circle cx="12.7347" cy="8.58044" r="4.08044" fill="#1D1D1B"/>
<path d="M12.9316 13.431L12.9316 18.5345" stroke="#1D1D1B"/>
</svg>
