<svg width="27" height="27" viewBox="0 0 27 27" fill="none" xmlns="http://www.w3.org/2000/svg">
<mask id="path-1-inside-1_9287_98508" fill="white">
<path fill-rule="evenodd" clip-rule="evenodd" d="M17.5297 17.4853C19.1122 16.2967 20.1358 14.4042 20.1358 12.2727C20.1358 8.6745 17.2188 5.75757 13.6206 5.75757C10.0224 5.75757 7.10547 8.6745 7.10547 12.2727C7.10547 14.4042 8.12907 16.2967 9.71153 17.4853V20.7424H17.5297V17.4853Z"/>
</mask>
<path d="M17.5297 17.4853L16.9291 16.6858L16.5297 16.9858V17.4853H17.5297ZM9.71153 17.4853H10.7115V16.9858L10.3121 16.6858L9.71153 17.4853ZM9.71153 20.7424H8.71153V21.7424H9.71153V20.7424ZM17.5297 20.7424V21.7424H18.5297V20.7424H17.5297ZM19.1358 12.2727C19.1358 14.0764 18.271 15.6779 16.9291 16.6858L18.1303 18.2849C19.9534 16.9155 21.1358 14.732 21.1358 12.2727H19.1358ZM13.6206 6.75757C16.6666 6.75757 19.1358 9.22679 19.1358 12.2727H21.1358C21.1358 8.12222 17.7711 4.75757 13.6206 4.75757V6.75757ZM8.10547 12.2727C8.10547 9.22679 10.5747 6.75757 13.6206 6.75757V4.75757C9.47012 4.75757 6.10547 8.12222 6.10547 12.2727H8.10547ZM10.3121 16.6858C8.97028 15.6779 8.10547 14.0764 8.10547 12.2727H6.10547C6.10547 14.732 7.28786 16.9155 9.11095 18.2849L10.3121 16.6858ZM10.7115 20.7424V17.4853H8.71153V20.7424H10.7115ZM17.5297 19.7424H9.71153V21.7424H17.5297V19.7424ZM16.5297 17.4853V20.7424H18.5297V17.4853H16.5297Z" fill="#1D1D1B" mask="url(#path-1-inside-1_9287_98508)"/>
<line x1="9.62109" y1="22" x2="17.6211" y2="22" stroke="#1D1D1B"/>
<path d="M10.6211 23.5H16.6211" stroke="#1D1D1B"/>
<circle cx="5.15152" cy="8.36367" r="0.651515" fill="#1D1D1B"/>
<circle cx="8.40933" cy="4.45449" r="0.651515" fill="#1D1D1B"/>
<circle cx="13.6203" cy="3.15152" r="0.651515" fill="#1D1D1B"/>
<circle cx="0.651515" cy="0.651515" r="0.651515" transform="matrix(-1 0 0 1 22.7422 7.71204)" fill="#1D1D1B"/>
<circle cx="0.651515" cy="0.651515" r="0.651515" transform="matrix(-1 0 0 1 19.4844 3.80298)" fill="#1D1D1B"/>
</svg>
