<svg width="26" height="27" viewBox="0 0 26 27" fill="none" xmlns="http://www.w3.org/2000/svg">
<path d="M12.2973 6.5L12.7301 6.75034C12.8196 6.59565 12.8197 6.40496 12.7304 6.25017C12.6411 6.09537 12.476 6 12.2973 6V6.5ZM6.4444 6.5V6C6.16826 6 5.9444 6.22386 5.9444 6.5H6.4444ZM6.4444 11.1341L6.27778 11.6055C6.43081 11.6596 6.60058 11.636 6.7331 11.5423C6.86561 11.4486 6.9444 11.2964 6.9444 11.1341H6.4444ZM6.4444 17.4214H6.9444C6.9444 17.2591 6.86561 17.1069 6.7331 17.0132C6.60058 16.9195 6.43082 16.8959 6.27778 16.95L6.4444 17.4214ZM6.4444 22.0556H5.9444C5.9444 22.3317 6.16826 22.5556 6.4444 22.5556V22.0556ZM12.2975 22.0556V22.5556C12.4763 22.5556 12.6414 22.4602 12.7307 22.3054C12.82 22.1506 12.8198 21.9598 12.7303 21.8052L12.2975 22.0556ZM16.1471 22.0556L15.7143 21.8052C15.6248 21.9598 15.6247 22.1506 15.714 22.3054C15.8032 22.4602 15.9684 22.5556 16.1471 22.5556V22.0556ZM22 22.0556V22.5556C22.2761 22.5556 22.5 22.3317 22.5 22.0556H22ZM22 16.203H22.5C22.5 16.0243 22.4046 15.8592 22.2498 15.7699C22.0951 15.6806 21.9044 15.6807 21.7497 15.7701L22 16.203ZM22 12.3527L21.7497 12.7856C21.9044 12.875 22.0951 12.8751 22.2498 12.7858C22.4046 12.6966 22.5 12.5314 22.5 12.3527H22ZM22 6.5H22.5C22.5 6.22386 22.2761 6 22 6V6.5ZM16.1473 6.5V6C15.9686 6 15.8035 6.09537 15.7142 6.25017C15.6249 6.40496 15.625 6.59565 15.7145 6.75034L16.1473 6.5ZM14.2223 10.3332C15.7258 10.3332 16.9445 9.11444 16.9445 7.611H15.9445C15.9445 8.56216 15.1735 9.33322 14.2223 9.33322V10.3332ZM11.5001 7.611C11.5001 9.11444 12.7189 10.3332 14.2223 10.3332V9.33322C13.2712 9.33322 12.5001 8.56216 12.5001 7.611H11.5001ZM11.8645 6.24966C11.6326 6.65054 11.5001 7.11605 11.5001 7.611H12.5001C12.5001 7.29651 12.5839 7.00312 12.7301 6.75034L11.8645 6.24966ZM6.4444 7H12.2973V6H6.4444V7ZM6.9444 11.1341V6.5H5.9444V11.1341H6.9444ZM5.33334 11.4444C5.66537 11.4444 5.98304 11.5013 6.27778 11.6055L6.61101 10.6626C6.21073 10.5212 5.78046 10.4444 5.33334 10.4444V11.4444ZM2.5 14.2777C2.5 12.7129 3.76853 11.4444 5.33334 11.4444V10.4444C3.21624 10.4444 1.5 12.1606 1.5 14.2777H2.5ZM5.33334 17.1111C3.76853 17.1111 2.5 15.8425 2.5 14.2777H1.5C1.5 16.3948 3.21624 18.1111 5.33334 18.1111V17.1111ZM6.27778 16.95C5.98304 17.0542 5.66537 17.1111 5.33334 17.1111V18.1111C5.78046 18.1111 6.21073 18.0343 6.61101 17.8928L6.27778 16.95ZM6.9444 22.0556V17.4214H5.9444V22.0556H6.9444ZM12.2975 21.5556H6.4444V22.5556H12.2975V21.5556ZM11.5001 20.9442C11.5001 21.4393 11.6327 21.905 11.8648 22.306L12.7303 21.8052C12.584 21.5523 12.5001 21.2588 12.5001 20.9442H11.5001ZM14.2223 18.222C12.7189 18.222 11.5001 19.4408 11.5001 20.9442H12.5001C12.5001 19.993 13.2712 19.222 14.2223 19.222V18.222ZM16.9445 20.9442C16.9445 19.4408 15.7258 18.222 14.2223 18.222V19.222C15.1735 19.222 15.9445 19.993 15.9445 20.9442H16.9445ZM16.5799 22.306C16.8119 21.905 16.9445 21.4393 16.9445 20.9442H15.9445C15.9445 21.2588 15.8606 21.5523 15.7143 21.8052L16.5799 22.306ZM22 21.5556H16.1471V22.5556H22V21.5556ZM21.5 16.203V22.0556H22.5V16.203H21.5ZM20.8892 17.0001C21.384 17.0001 21.8494 16.8676 22.2503 16.6358L21.7497 15.7701C21.4969 15.9163 21.2036 16.0001 20.8892 16.0001V17.0001ZM18.1669 14.2779C18.1669 15.7813 19.3857 17.0001 20.8892 17.0001V16.0001C19.938 16.0001 19.1669 15.229 19.1669 14.2779H18.1669ZM20.8892 11.5556C19.3857 11.5556 18.1669 12.7744 18.1669 14.2779H19.1669C19.1669 13.3267 19.938 12.5556 20.8892 12.5556V11.5556ZM22.2503 11.9199C21.8494 11.6881 21.384 11.5556 20.8892 11.5556V12.5556C21.2036 12.5556 21.4969 12.6394 21.7497 12.7856L22.2503 11.9199ZM21.5 6.5V12.3527H22.5V6.5H21.5ZM16.1473 7H22V6H16.1473V7ZM16.9445 7.611C16.9445 7.11605 16.812 6.65054 16.5801 6.24966L15.7145 6.75034C15.8607 7.00312 15.9445 7.29651 15.9445 7.611H16.9445Z" fill="#1D1D1B"/>
</svg>
