<svg width="26" height="27" viewBox="0 0 26 27" fill="none" xmlns="http://www.w3.org/2000/svg">
<path fill-rule="evenodd" clip-rule="evenodd" d="M13.0513 18.188C15.2343 16.795 16.6421 14.4525 16.6421 11.824C16.6421 9.19544 15.2343 6.85292 13.0513 5.4599C10.8683 6.85292 9.46052 9.19544 9.46052 11.824C9.46052 14.4525 10.8683 16.795 13.0513 18.188ZM13.0513 19.3493C12.5866 19.095 12.1476 18.8032 11.739 18.4783C11.913 19.2599 11.9736 20.0785 11.9146 20.906C9.59716 22.1715 6.83347 22.2909 4.54029 20.9698C2.01361 19.5143 0.719015 16.6908 0.928158 13.7558C3.2456 12.4903 6.00929 12.371 8.30247 13.692C8.45342 13.779 8.59997 13.8708 8.74206 13.9673C8.55821 13.2817 8.46052 12.5636 8.46052 11.824C8.46052 8.60831 10.3069 5.80072 13.0513 4.29858C15.7957 5.80072 17.6421 8.60831 17.6421 11.824C17.6421 12.577 17.5409 13.3077 17.3505 14.0045C17.506 13.8973 17.6668 13.7956 17.8331 13.6999C20.1239 12.3802 22.8848 12.4994 25.1998 13.7637C25.4087 16.6956 24.1155 19.516 21.5915 20.9701C19.3006 22.2898 16.5398 22.1705 14.2247 20.9063C14.1648 20.0659 14.2284 19.2346 14.409 18.442C13.9875 18.7815 13.5333 19.0855 13.0513 19.3493ZM10.9358 20.2787C10.9322 17.8855 9.79773 15.7075 7.80164 14.5576C6.00509 13.5226 3.83918 13.5071 1.90697 14.3832C1.91053 16.7764 3.04503 18.9544 5.04112 20.1043C6.83767 21.1392 9.00358 21.1547 10.9358 20.2787ZM18.3339 14.5654C16.3405 15.7138 15.2073 17.8888 15.2035 20.2789C17.1333 21.1537 19.2964 21.1381 21.0906 20.1045C23.0841 18.9562 24.2172 16.7811 24.221 14.391C22.2912 13.5162 20.1281 13.5318 18.3339 14.5654Z" fill="#1D1D1B"/>
</svg>
