<svg width="180" height="180" viewBox="0 0 180 180" fill="none" xmlns="http://www.w3.org/2000/svg">
<path d="M98 155C138.869 155 172 121.869 172 81C172 40.1309 138.869 7 98 7C57.1309 7 24 40.1309 24 81C24 121.869 57.1309 155 98 155Z" fill="#E4EBF5"/>
<path d="M143.742 41.1958H23.5176C19.8004 41.1958 16.7871 44.2095 16.7871 47.927V122.879C16.7871 126.596 19.8004 129.61 23.5176 129.61H143.742C147.459 129.61 150.472 126.596 150.472 122.879V47.927C150.472 44.2095 147.459 41.1958 143.742 41.1958Z" fill="#BACCFF" stroke="black" stroke-miterlimit="10"/>
<path d="M11.1953 123.071H156.031V125.671C156.031 128.506 153.729 130.804 150.898 130.804H16.3283C13.4936 130.804 11.1953 128.502 11.1953 125.671V123.071Z" fill="#BACCFF" stroke="black" stroke-miterlimit="10"/>
<path d="M145 46H22V118H145V46Z" fill="white" stroke="black" stroke-miterlimit="10"/>
<path d="M70.4512 123.071L72.2483 125.929H97.5375L99.2054 123.071H70.4512Z" fill="#DBE0F1" stroke="black" stroke-miterlimit="10"/>
<path d="M75.5 66.5V57.5H174.5V66.5H75.5Z" fill="#FFDE66" stroke="black"/>
<path d="M75.5547 86.5V77.5H157.535V86.5H75.5547Z" fill="#FFEA97" stroke="black"/>
<path d="M75.5547 106.5V97.5H136.555V106.5H75.5547Z" fill="#FFF1C1" stroke="black"/>
<path d="M151 139C159.837 139 167 131.837 167 123C167 114.163 159.837 107 151 107C142.163 107 135 114.163 135 123C135 131.837 142.163 139 151 139Z" fill="white" stroke="black" stroke-miterlimit="10"/>
<path d="M160 123C160 127.965 155.965 132 151 132C146.035 132 142 127.965 142 123C142 118.035 146.035 114 151 114V118.44C148.488 118.44 146.44 120.488 146.44 123C146.44 125.512 148.488 127.56 151 127.56C153.512 127.56 155.56 125.512 155.56 123H160Z" fill="#FFDE66" stroke="black"/>
<path d="M151 114C155.965 114 160 118.035 160 123C160 127.965 155.965 132 151 132C146.035 132 142 127.965 142 123L146.44 123C146.44 125.512 148.487 127.56 151 127.56C153.512 127.56 155.56 125.512 155.56 123C155.56 120.487 153.512 118.44 151 118.44L151 114Z" fill="#DBE0F1" stroke="black"/>
<path d="M48 94C54.6274 94 60 88.6274 60 82C60 75.3726 54.6274 70 48 70C41.3726 70 36 75.3726 36 82C36 88.6274 41.3726 94 48 94Z" fill="white" stroke="black" stroke-miterlimit="10"/>
<path d="M54 77L45.2273 83.9303L41.3985 80.2036L39 82.173L44.8973 88.2877L56.1753 79.5812L54 77Z" fill="#BACCFF" stroke="black"/>
<path d="M130.192 16.0916L121.096 7L111.999 16.0916L121.096 25.1831L130.192 16.0916Z" fill="#BACCFF" stroke="black" stroke-miterlimit="10"/>
<path d="M88.1923 155.092L79.0957 146L69.999 155.092L79.0957 164.183L88.1923 155.092Z" fill="#FFEA97" stroke="black" stroke-miterlimit="10"/>
</svg>
