<svg width="148" height="149" viewBox="0 0 148 149" fill="none" xmlns="http://www.w3.org/2000/svg">
<g clip-path="url(#clip0_9803_24580)">
<path d="M74 148.5C114.869 148.5 148 115.369 148 74.5C148 33.6309 114.869 0.5 74 0.5C33.1309 0.5 0 33.6309 0 74.5C0 115.369 33.1309 148.5 74 148.5Z" fill="#FFF1C1"/>
<path d="M16.6504 96.7C21.759 96.7 25.9004 92.5586 25.9004 87.45C25.9004 82.3413 21.759 78.2 16.6504 78.2C11.5418 78.2 7.40039 82.3413 7.40039 87.45C7.40039 92.5586 11.5418 96.7 16.6504 96.7Z" fill="#BACCFF" stroke="black" stroke-miterlimit="10"/>
<path d="M131.35 37.5C136.458 37.5 140.6 33.3586 140.6 28.25C140.6 23.1414 136.458 19 131.35 19C126.241 19 122.1 23.1414 122.1 28.25C122.1 33.3586 126.241 37.5 131.35 37.5Z" fill="#DBE0F1" stroke="black" stroke-miterlimit="10"/>
<path d="M10.2452 28.691H13.5752C14.0562 21.513 20.0502 15.815 27.3392 15.815C28.3752 15.815 29.3742 15.926 30.3732 16.148C30.8912 7.78595 37.8472 1.19995 46.3202 1.19995C54.7932 1.19995 61.7492 7.82295 62.2672 16.185C63.3772 15.963 64.5242 15.815 65.6712 15.815C74.5142 15.815 81.6552 22.956 81.6552 31.799C81.6552 40.642 74.5142 47.783 65.6712 47.783C65.4122 47.783 65.1902 47.783 64.9312 47.783C64.7462 47.783 64.5612 47.783 64.3762 47.783H10.2452C4.99122 47.783 0.699219 43.491 0.699219 38.237C0.699219 32.983 4.99122 28.691 10.2452 28.691Z" fill="white" stroke="#1D1D1B" stroke-miterlimit="10"/>
<path d="M37 115.2L51.8 126.3H111V30.1H37V115.2Z" fill="white" stroke="black" stroke-miterlimit="10"/>
<path d="M37.0059 115.2L51.8059 126.3L49.9559 113.35L37.0059 115.2Z" fill="white" stroke="black" stroke-linejoin="bevel"/>
<path d="M133.731 93.0895C133.886 95.6104 135.897 97.6199 138.418 97.7735L138.698 97.7906C142.274 98.0084 144.467 101.805 142.869 105.012L142.741 105.269C141.614 107.529 142.35 110.275 144.456 111.669L144.7 111.831C147.688 113.808 147.688 118.192 144.7 120.169L144.456 120.331C142.35 121.725 141.614 124.471 142.741 126.731L142.871 126.993C144.469 130.198 142.277 133.994 138.703 134.213L138.415 134.231C135.895 134.386 133.886 136.395 133.731 138.915L133.713 139.21C133.493 142.784 129.697 144.975 126.492 143.378L126.23 143.247C123.97 142.121 121.225 142.856 119.831 144.961L119.669 145.206C117.691 148.191 113.309 148.191 111.331 145.206L111.169 144.961C109.775 142.856 107.03 142.121 104.77 143.247L104.508 143.378C101.303 144.975 97.5065 142.784 97.2868 139.21L97.2687 138.915C97.1139 136.395 95.1048 134.386 92.5849 134.231L92.2903 134.213C88.7159 133.993 86.5246 130.197 88.122 126.992L88.2529 126.73C89.3792 124.47 88.6439 121.725 86.5388 120.331L86.2941 120.169C83.3086 118.191 83.3086 113.809 86.2941 111.831L86.5388 111.669C88.6439 110.275 89.3792 107.53 88.2529 105.27L88.1241 105.012C86.5261 101.806 88.7195 98.0086 92.2952 97.7909L92.5822 97.7734C95.1032 97.6199 97.1139 95.6103 97.2689 93.0893L97.2868 92.7973C97.5065 89.2229 101.303 87.0316 104.508 88.629L104.769 88.7593C107.029 89.8858 109.775 89.1499 111.169 87.0439L111.331 86.7997C113.308 83.8125 117.692 83.8125 119.669 86.7997L119.831 87.0439C121.225 89.1499 123.971 89.8858 126.231 88.7593L126.492 88.629C129.697 87.0316 133.493 89.2229 133.713 92.7973L133.731 93.0895Z" fill="black" stroke="black" stroke-miterlimit="10"/>
<path d="M128.974 91.0893C129.127 93.6103 131.136 95.6216 133.657 95.7774L133.819 95.7873C137.38 96.0074 139.571 99.7803 137.998 102.983L137.839 103.306C136.735 105.552 137.462 108.268 139.539 109.663L139.816 109.849C142.767 111.83 142.767 116.17 139.816 118.151L139.539 118.337C137.462 119.732 136.735 122.448 137.839 124.694L138 125.021C139.573 128.223 137.384 131.995 133.824 132.217L133.654 132.227C131.134 132.384 129.127 134.395 128.974 136.915L128.96 137.155C128.742 140.744 124.896 142.924 121.687 141.302C119.413 140.152 116.607 140.913 115.214 143.047C113.241 146.069 108.759 146.069 106.786 143.047C105.393 140.913 102.587 140.152 100.313 141.302C97.1042 142.924 93.2575 140.744 93.0401 137.155L93.0255 136.915C92.8728 134.395 90.8655 132.384 88.3458 132.227L88.1699 132.216C84.6096 131.995 82.4203 128.223 83.9935 125.021L84.155 124.692C85.2583 122.447 84.5323 119.732 82.4557 118.337L82.1784 118.15C79.2292 116.169 79.2292 111.831 82.1784 109.85L82.4557 109.663C84.5323 108.268 85.2583 105.553 84.155 103.308L83.9955 102.983C82.4218 99.7805 84.6132 96.0075 88.1749 95.7876L88.343 95.7772C90.8639 95.6215 92.8729 93.6102 93.0257 91.0891L93.0401 90.8516C93.2575 87.2629 97.1034 85.0826 100.312 86.7046C102.587 87.8545 105.393 87.0928 106.786 84.9582C108.759 81.9348 113.241 81.9348 115.214 84.9582C116.607 87.0928 119.413 87.8545 121.688 86.7046C124.897 85.0826 128.742 87.2629 128.96 90.8516L128.974 91.0893Z" fill="#FFDE66" stroke="black" stroke-miterlimit="10"/>
</g>
<defs>
<clipPath id="clip0_9803_24580">
<rect width="148" height="148" fill="white" transform="translate(0 0.5)"/>
</clipPath>
</defs>
</svg>
