<svg width="630" height="321" viewBox="0 0 630 321" fill="none" xmlns="http://www.w3.org/2000/svg">
<g clip-path="url(#clip0_8964_22812)">
<path d="M519.902 2.56256H147.124C140.47 2.56256 135.076 7.95985 135.076 14.6177V307.307C135.076 313.965 140.47 319.362 147.124 319.362H519.902C526.556 319.362 531.949 313.965 531.949 307.307V14.6177C531.949 7.95985 526.556 2.56256 519.902 2.56256Z" fill="#FFF1CC"/>
<path d="M425.148 313.285C425.148 313.285 431.041 272.729 430.55 249.141C430.058 225.543 430.58 199.002 430.58 199.002H427.859C427.859 199.002 429.696 245.836 427.698 274.075C425.7 302.294 420.43 313.285 420.43 313.285H425.148Z" fill="black" stroke="black" stroke-linejoin="round"/>
<path d="M407.59 153.363C408.132 151.976 408.805 150.53 410.07 149.736C411.796 148.641 414.055 149.093 415.973 149.776C424.185 152.68 431.454 167.99 434.777 176.047L423.884 212.785C404.217 194.531 400.813 170.571 407.6 153.363H407.59Z" fill="#FFDE66" stroke="black" stroke-linejoin="round"/>
<path d="M428.713 221.595C438.923 215.949 444.947 205.321 445.509 193.657C445.901 185.5 443.401 177.503 440.56 169.848C440.309 169.185 440.018 168.472 439.405 168.12C438.552 167.638 437.478 168.07 436.624 168.552C429.205 172.782 424.707 180.839 422.318 189.046C420.722 194.501 419.898 200.257 420.641 205.903C421.374 211.539 424.597 217.677 428.723 221.585" fill="#FFEFB0"/>
<path d="M428.713 221.595C438.923 215.949 444.947 205.321 445.509 193.657C445.901 185.5 443.401 177.503 440.56 169.848C440.309 169.185 440.018 168.472 439.405 168.12C438.552 167.638 437.478 168.07 436.624 168.552C429.205 172.782 424.707 180.839 422.318 189.046C420.722 194.501 419.898 200.257 420.641 205.903C421.374 211.539 424.597 217.677 428.723 221.585" stroke="black" stroke-linejoin="round"/>
<path d="M417.188 282.182C407.138 284.392 398.856 291.485 389.157 294.941C382.742 297.221 375.483 298.035 370.363 302.515C371.588 299.411 374.51 297.342 377.341 295.574C385.312 290.591 393.856 286.512 402.741 283.438C407.299 281.861 412.248 280.545 416.907 281.841" fill="#FFF1CC"/>
<path d="M417.188 282.182C407.138 284.392 398.856 291.485 389.157 294.941C382.742 297.221 375.483 298.035 370.363 302.515C371.588 299.411 374.51 297.342 377.341 295.574C385.312 290.591 393.856 286.512 402.741 283.438C407.299 281.861 412.248 280.545 416.907 281.841" stroke="black" stroke-linejoin="round"/>
<path d="M431.725 292.61C444.314 292.409 457.566 281.68 470.096 281.047C456.984 276.808 438.21 280.274 431.725 292.61Z" fill="#FFDE66" stroke="black" stroke-linejoin="round"/>
<path d="M426.806 261.658C420.411 259.358 413.393 259.247 406.677 260.292C399.96 261.337 393.475 263.487 387.029 265.637C387.672 261.267 391.216 257.982 394.539 255.068C397.039 252.878 399.559 250.678 402.43 249.001C405.301 247.323 408.574 246.188 411.887 246.328C415.893 246.499 419.708 248.569 422.328 251.592C424.959 254.626 426.364 257.67 426.806 261.658Z" fill="#FFDE66" stroke="black" stroke-linejoin="round"/>
<path d="M453.651 247.785C462.275 241.938 474.132 243.927 484.462 245.314C467.696 251.15 449.384 259.679 434.445 269.263C434.837 261.889 442.758 255.179 453.661 247.785H453.651Z" fill="#FFEFB0" stroke="black" stroke-linejoin="round"/>
<path d="M423.242 237.669C418.523 234.524 414.769 232.274 411.054 230.576C406.888 228.677 402.992 225.664 398.966 223.474C393.746 220.641 389.218 216.713 384.419 213.197C379.62 209.691 374.359 206.516 368.486 205.592C373.275 204.607 378.265 205.14 382.983 206.436C387.692 207.722 392.17 209.741 396.627 211.75C402.812 214.533 409.096 217.396 414.146 221.917C419.196 226.437 423.764 230.908 423.232 237.669" fill="#FFF1CC"/>
<path d="M423.242 237.669C418.523 234.524 414.769 232.274 411.054 230.576C406.888 228.677 402.992 225.664 398.966 223.474C393.746 220.641 389.218 216.713 384.419 213.197C379.62 209.691 374.359 206.516 368.486 205.592C373.275 204.607 378.265 205.14 382.983 206.436C387.692 207.722 392.17 209.741 396.627 211.75C402.812 214.533 409.096 217.396 414.146 221.917C419.196 226.437 423.764 230.908 423.232 237.669" stroke="black" stroke-linejoin="round"/>
<path d="M430.561 254.174C430.561 254.174 430.681 253.802 430.812 253.109C430.962 252.336 431.143 251.361 431.364 250.196C431.846 247.745 432.578 244.369 433.743 240.743C434.898 237.116 436.313 233.962 437.337 231.681C437.829 230.606 438.241 229.702 438.562 228.989C438.853 228.346 438.994 227.994 438.964 227.974C438.934 227.964 438.743 228.296 438.401 228.908C438.07 229.521 437.598 230.425 437.046 231.551C435.942 233.801 434.476 236.955 433.311 240.612C432.137 244.259 431.444 247.674 431.042 250.146C430.842 251.381 430.701 252.386 430.631 253.089C430.551 253.782 430.52 254.174 430.551 254.174H430.561Z" fill="white" stroke="black" stroke-linejoin="round"/>
<path d="M431.473 225.523C431.785 220.761 433.341 216.14 435.569 211.921C441.684 200.358 453.159 191.789 465.979 189.227C456.592 203.221 447.215 217.215 437.828 231.209L434.194 238.703C431.714 234.635 431.162 230.275 431.483 225.513L431.473 225.523Z" fill="#FFDE66" stroke="black" stroke-linejoin="round"/>
<path d="M391.095 319.875H456.553V308.262H391.095V319.875Z" fill="white" stroke="black" stroke-linejoin="round"/>
<path d="M428.973 222.479C428.863 207.189 430.79 191.879 434.686 177.091" stroke="black" stroke-linejoin="round"/>
<path d="M411.465 161.42C417.73 166.684 422.669 173.515 425.711 181.11" stroke="black" stroke-linejoin="round"/>
<path d="M390.914 213.97C398.795 213.95 409.939 221.967 415.631 227.422C421.314 232.877 425.46 239.718 429.345 246.569" stroke="black" stroke-linejoin="round"/>
<path d="M427.971 280.967C428.884 273.302 434.798 267.164 441.203 262.874C447.618 258.584 454.847 255.51 460.77 250.578" stroke="black" stroke-linejoin="round"/>
<path d="M401.465 257.047C406.515 256.224 411.665 255.39 416.735 256.133C421.805 256.877 426.865 259.458 429.325 263.949" stroke="black" stroke-linejoin="round"/>
<path d="M391.736 292.52C401.103 284.111 414.576 280.505 426.895 283.117" stroke="black" stroke-linejoin="round"/>
<path d="M425.119 302.314C426.595 296.538 430.962 291.575 436.494 289.365C441.805 287.245 448.019 287.527 452.828 284.443" stroke="black" stroke-linejoin="round"/>
<path d="M233.705 81.4436L233.585 65.7015C232.942 43.3191 246.074 29.978 268.452 29.9579L270.52 30.0785C291.332 31.274 307.105 42.5757 307.586 63.4311C308.028 82.84 308.811 100.822 308.811 111.2C308.811 124.732 283.863 133.271 283.863 133.271C283.813 133.271 284.275 143.156 284.184 149.465C283.983 163.63 269.125 174.61 263.583 174.098C249.749 173.756 237.099 147.606 237.099 147.606L233.866 102.902C232.189 103.484 219.208 104.941 219.56 91.1781C219.891 78.3092 230.764 80.5696 233.695 81.4536L233.705 81.4436Z" fill="white" stroke="black" stroke-miterlimit="10"/>
<path d="M283.542 133.2C283.542 133.2 269.978 133.211 256.104 123.335C256.104 123.335 262.007 139.329 283.511 138.625L283.542 133.2Z" fill="black" stroke="black" stroke-miterlimit="10"/>
<path d="M137.788 237.347L117.97 277.149C115.761 281.59 114.717 286.532 114.958 291.495C115.711 306.946 128.451 319.091 143.912 319.091L200.726 315.796L203.205 289.857L159.975 279.43L176.36 248.428L137.768 237.357L137.788 237.347Z" fill="white" stroke="black" stroke-miterlimit="10"/>
<path d="M377.229 231.32L341.749 245.565L358.385 283.518L314.281 293.755V318.951L373.494 319.383C394.327 319.533 408.211 297.914 399.417 279.018L377.229 231.32Z" fill="white" stroke="black" stroke-miterlimit="10"/>
<path d="M331.961 246.248L325.004 227.884" stroke="black" stroke-miterlimit="10"/>
<path d="M405.171 285.176C405.171 285.176 376.689 216.472 364.722 191.819C361.087 184.335 357.614 178.337 354.521 173.585C351.961 169.657 348.829 166.192 345.275 163.268C345.054 163.379 344.843 163.469 344.622 163.58C339.854 159.802 334.342 156.979 328.378 155.362L284.114 143.468L283.652 144.231C274.817 154.026 250.2 158.898 240.181 150.319L237.008 147.606L226.055 151.002L196.639 159.963C192.905 161.098 185.365 164.082 185.104 163.941C174.101 169.848 164.182 178.93 158.339 190.181C157.295 192.191 156.23 194.36 155.136 196.691C144.785 218.903 122.839 253.843 110.259 286.392C105.209 299.451 113.944 319.865 135.418 319.865H181.138L185.847 282.604L166.983 278.144L195.284 229.431V295.996L199.5 319.071L315 318.75L320.768 288.863L323.529 236.202L353.909 280.876L330.888 286.402V320.488H375.353C383.606 320.488 391.497 317.102 397.189 311.125C403.223 304.786 406.205 296.136 405.372 287.426L405.151 285.176H405.171Z" fill="#E4EBF5" stroke="black" stroke-miterlimit="10"/>
<path d="M258.863 276.506C285.938 276.506 307.886 254.544 307.886 227.452C307.886 200.36 285.938 178.397 258.863 178.397C231.788 178.397 209.84 200.36 209.84 227.452C209.84 254.544 231.788 276.506 258.863 276.506Z" fill="#BACCFF"/>
<path d="M314.413 318.9H199.922C196.669 318.9 193.988 316.339 193.848 313.084L190.414 234.223C190.263 230.767 193.024 227.874 196.488 227.874H317.625C321.079 227.874 323.84 230.747 323.699 234.203L320.486 313.064C320.356 316.319 317.675 318.9 314.413 318.9Z" fill="black" stroke="black" stroke-miterlimit="10"/>
<path d="M263.311 274.789C263.311 278.254 260.5 281.067 257.036 281.067C253.573 281.067 250.762 278.254 250.762 274.789C250.762 271.323 253.573 268.51 257.036 268.51C260.5 268.51 263.311 271.323 263.311 274.789Z" fill="white" stroke="black" stroke-miterlimit="10"/>
<path d="M238.323 93.6796C238.323 94.8148 236.837 95.2467 236.244 94.2723C234.206 90.9471 228.092 80.4591 225.743 81.0719C220.653 73.7182 221.878 65.8924 224.699 57.4136C227.289 49.628 230.492 41.6816 235.893 35.3828C238.764 32.0375 242.128 30.4602 245.581 27.999C249.396 25.2765 251.294 21.2481 255.992 19.5302C255.018 23.0262 254.396 26.6227 254.135 30.2493C252.237 30.3698 250.561 31.4849 248.894 32.4092C247.228 33.3334 245.27 34.117 243.453 33.5343C242.67 33.2832 241.997 32.7909 241.284 32.369C238.473 30.6913 235.04 30.0785 231.827 30.6612C245.692 28.1296 259.637 24.513 273.973 24.503C289.835 24.4929 297.636 27.6172 304.734 36.9098C311.973 46.3831 314.001 58.2474 310.627 71.7593C301.672 71.5985 287.245 72.5127 280.86 66.234C274.475 59.9552 273.672 58.3077 273.802 49.3467C273.802 49.3467 266.815 51.1951 259.938 56.6903C256.605 59.3525 262.257 65.9426 254.155 70.4734C250.43 72.5529 241.334 72.3319 237.208 71.267L238.303 93.6796H238.323Z" fill="black" stroke="black" stroke-linecap="round" stroke-linejoin="round"/>
<path d="M293.59 85.5122C293.57 87.2401 294.965 88.6667 296.712 88.6868C298.459 88.7068 299.895 87.3305 299.915 85.5926C299.935 83.8647 298.54 82.4382 296.793 82.4181C295.046 82.398 293.61 83.7743 293.59 85.5122Z" fill="black"/>
<path d="M265.078 86.0446C265.058 87.7725 266.454 89.1991 268.201 89.2192C269.948 89.2393 271.383 87.863 271.403 86.125C271.423 84.3971 270.028 82.9706 268.281 82.9505C266.534 82.9304 265.098 84.3067 265.078 86.0446Z" fill="black"/>
<path d="M284.374 88.516C284.374 88.516 288.319 93.9308 288.399 98.0195C288.45 100.471 286.391 100.652 282.566 101.556" stroke="black" stroke-linecap="round" stroke-linejoin="round"/>
<path d="M292.959 109.854C289.355 112.234 284.948 113.39 280.631 113.068C276.324 112.757 272.127 110.979 268.904 108.106" stroke="black" stroke-linecap="round" stroke-linejoin="round"/>
<path d="M230.311 88.8073C228.615 88.5662 226.817 89.5507 226.115 91.1179C225.412 92.6851 225.864 94.6842 227.179 95.7893C228.494 96.8943 230.542 97.0149 231.958 96.0605" stroke="black" stroke-miterlimit="10"/>
<path d="M232.159 99.6268C235.852 99.6268 238.845 96.6314 238.845 92.9362C238.845 89.2411 235.852 86.2456 232.159 86.2456C228.466 86.2456 225.473 89.2411 225.473 92.9362C225.473 96.6314 228.466 99.6268 232.159 99.6268Z" fill="white" stroke="black" stroke-linecap="round" stroke-linejoin="round"/>
<path d="M235.783 94.9707C235.077 93.9824 233.704 93.7541 232.716 94.4609C231.728 95.1677 231.5 96.5419 232.207 97.5303L236.814 103.978C237.521 104.966 238.894 105.194 239.882 104.487C240.869 103.781 241.098 102.406 240.391 101.418L235.783 94.9707Z" fill="white" stroke="black" stroke-linecap="round" stroke-linejoin="round"/>
<path d="M268.492 75.3959H267.377C261.872 75.3959 257.408 79.8622 257.408 85.3716V86.4867C257.408 91.9961 261.872 96.4624 267.377 96.4624H268.492C273.998 96.4624 278.461 91.9961 278.461 86.4867V85.3716C278.461 79.8622 273.998 75.3959 268.492 75.3959Z" stroke="black" stroke-linecap="round" stroke-linejoin="round"/>
<path d="M298.691 75.3959H297.577C292.071 75.3959 287.607 79.8622 287.607 85.3716V86.4867C287.607 91.9961 292.071 96.4624 297.577 96.4624H298.691C304.197 96.4624 308.66 91.9961 308.66 86.4867V85.3716C308.66 79.8622 304.197 75.3959 298.691 75.3959Z" stroke="black" stroke-linecap="round" stroke-linejoin="round"/>
<path d="M278.621 84.6784C281.623 83.3122 285.117 83.0711 288.279 84.0154" stroke="black" stroke-miterlimit="10"/>
<path d="M237.309 87.5817L257.408 86.4867" stroke="black" stroke-linecap="round" stroke-linejoin="round"/>
<path d="M346.57 116.092C346.57 116.092 354.652 101.857 377.281 111.883C399.91 121.909 416.074 131.935 438.051 127.735C460.037 123.526 460.037 115.771 460.037 115.771C460.037 115.771 447.849 71.1364 401.848 71.1364C359.823 71.1364 346.57 110.918 346.57 116.102V116.092Z" stroke="black" stroke-miterlimit="10"/>
<path d="M346.57 116.092C346.57 116.092 354.652 101.857 377.281 111.883C399.91 121.909 416.074 131.935 438.051 127.735C460.037 123.526 460.037 115.771 460.037 115.771C460.037 115.771 447.849 71.1364 401.848 71.1364C359.823 71.1364 346.57 110.918 346.57 116.102V116.092Z" fill="white" stroke="black" stroke-miterlimit="10"/>
<path d="M417.789 127.766C417.789 127.766 418.442 73.6178 401.846 71.1364C401.846 71.1364 397.108 101.897 401.846 122.903" stroke="black" stroke-miterlimit="10"/>
<path d="M378.916 112.616C378.916 112.616 381.105 82.629 396.867 71.3273" stroke="black" stroke-miterlimit="10"/>
<path d="M440.419 127.163C440.419 127.163 434.596 74.2607 401.847 71.1364C376.267 68.6953 361.98 108.407 361.98 108.407" stroke="black" stroke-miterlimit="10"/>
<path d="M451.212 123.888C451.212 123.888 446.674 78.5704 401.848 71.1263" stroke="black" stroke-miterlimit="10"/>
<path d="M427.92 128.72C427.92 128.72 435.028 95.2468 404.859 71.0963" stroke="black" stroke-miterlimit="10"/>
<path d="M405.492 68.213H398.273V71.0862H405.492V68.213Z" fill="black" stroke="black" stroke-miterlimit="10"/>
<path d="M403.182 65.9225H400.592V68.7957H403.182V65.9225Z" fill="black" stroke="black" stroke-miterlimit="10"/>
<path d="M401.887 2V65.9226" stroke="black" stroke-miterlimit="10"/>
<path d="M388.926 117.207C388.926 117.207 388.243 80.1074 401.846 71.1263" stroke="black" stroke-miterlimit="10"/>
<path d="M410.199 125.887C410.199 125.887 408.131 82.6189 402.961 71.3273" stroke="black" stroke-miterlimit="10"/>
<path d="M36.1767 153.383C53.9475 153.383 68.3535 138.968 68.3535 121.185C68.3535 103.403 53.9475 88.9881 36.1767 88.9881C18.406 88.9881 4 103.403 4 121.185C4 138.968 18.406 153.383 36.1767 153.383Z" fill="#BACCFF"/>
<path d="M13.627 116.012C13.627 116.012 11.7396 138.806 36.4067 138.806C36.4067 126.64 26.3772 117.037 13.627 116.012Z" fill="white" stroke="black" stroke-miterlimit="10"/>
<path d="M58.7661 116.032C58.7661 116.032 35.9863 114.143 35.9863 138.826C48.1442 138.826 57.742 128.79 58.7661 116.032Z" fill="white" stroke="black" stroke-miterlimit="10"/>
<g opacity="0.4">
<path d="M13.627 116.012C13.627 116.012 11.7396 138.806 36.4067 138.806C36.4067 126.64 26.3772 117.037 13.627 116.012Z" fill="#E4EBF5" stroke="black" stroke-miterlimit="10"/>
</g>
<g opacity="0.4">
<path d="M58.7661 116.032C58.7661 116.032 35.9863 114.143 35.9863 138.826C48.1442 138.826 57.742 128.79 58.7661 116.032Z" fill="#BACCFF" stroke="black" stroke-miterlimit="10"/>
</g>
<path d="M35.3141 103.555C35.3141 103.555 16.7008 120.271 36.3281 138.806C45.4541 129.132 44.681 113.952 35.3141 103.555Z" fill="#DBE0F1" stroke="black" stroke-miterlimit="10"/>
<path d="M532.442 108.307C550.213 108.307 564.619 93.8913 564.619 76.1092C564.619 58.3271 550.213 43.9118 532.442 43.9118C514.672 43.9118 500.266 58.3271 500.266 76.1092C500.266 93.8913 514.672 108.307 532.442 108.307Z" fill="#DBE0F1"/>
<path d="M514.518 71.9136L528.248 58.1753C528.601 57.8222 528.601 57.2497 528.248 56.8966C527.895 56.5435 527.323 56.5435 526.97 56.8966L513.24 70.6349C512.888 70.988 512.888 71.5605 513.24 71.9136C513.593 72.2667 514.165 72.2667 514.518 71.9136Z" fill="#FFDE66" stroke="black" stroke-miterlimit="10"/>
<path d="M550.365 80.3048L536.635 94.0431C536.282 94.3962 536.282 94.9687 536.635 95.3218C536.988 95.6748 537.56 95.6748 537.913 95.3217L551.642 81.5834C551.995 81.2304 551.995 80.6579 551.642 80.3048C551.29 79.9517 550.717 79.9517 550.365 80.3048Z" fill="#FFDE66" stroke="black" stroke-miterlimit="10"/>
<path d="M519.118 75.858L514.852 71.5885L527.923 58.5086L532.19 62.7781C535.152 65.7417 535.684 70.2021 533.796 73.7082C533.636 74.0095 533.686 74.3813 533.927 74.6324C534.168 74.8735 534.539 74.9338 534.85 74.763C538.354 72.8744 542.812 73.4068 545.773 76.3704L550.04 80.6399L536.969 93.7198L532.702 89.4502C529.74 86.4867 529.208 82.0262 531.096 78.5202C531.256 78.2188 531.206 77.8471 530.965 77.596C530.724 77.3549 530.353 77.2946 530.041 77.4654C526.538 79.354 522.08 78.8216 519.118 75.858Z" fill="white" stroke="black" stroke-miterlimit="10"/>
<path d="M537.07 91.8312L548.154 80.7404L544.741 77.3248C544.088 76.6718 543.164 76.4508 542.331 76.6718C542.12 76.722 541.919 76.8124 541.729 76.9129C541.448 77.0736 541.207 77.3047 541.026 77.5759C540.494 78.3294 539.922 79.0326 539.309 79.6956C538.998 80.0271 538.657 80.3185 538.275 80.5596C536.257 81.8555 534.38 83.1816 533.265 85.3917C533.155 85.5826 533.075 85.7835 533.024 85.9944C532.804 86.8283 533.024 87.7525 533.677 88.4055L537.09 91.8211L537.07 91.8312Z" fill="#FFF1CC"/>
<path d="M536.015 77.8572C536.165 77.8572 536.286 77.7357 536.286 77.5859C536.286 77.4361 536.165 77.3147 536.015 77.3147C535.865 77.3147 535.744 77.4361 535.744 77.5859C535.744 77.7357 535.865 77.8572 536.015 77.8572Z" fill="#FFF1CC"/>
<path d="M536.077 80.4692C536.243 80.4692 536.378 80.3342 536.378 80.1678C536.378 80.0013 536.243 79.8664 536.077 79.8664C535.91 79.8664 535.775 80.0013 535.775 80.1678C535.775 80.3342 535.91 80.4692 536.077 80.4692Z" fill="#FFF1CC"/>
<path d="M533.737 77.9375C533.903 77.9375 534.038 77.8026 534.038 77.6362C534.038 77.4697 533.903 77.3348 533.737 77.3348C533.57 77.3348 533.436 77.4697 533.436 77.6362C533.436 77.8026 533.57 77.9375 533.737 77.9375Z" fill="#FFF1CC"/>
<path d="M531.991 76.1895C532.157 76.1895 532.292 76.0546 532.292 75.8882C532.292 75.7217 532.157 75.5868 531.991 75.5868C531.824 75.5868 531.689 75.7217 531.689 75.8882C531.689 76.0546 531.824 76.1895 531.991 76.1895Z" fill="#FFF1CC"/>
<path d="M538.436 79.0426C538.602 79.0426 538.737 78.9076 538.737 78.7412C538.737 78.5748 538.602 78.4398 538.436 78.4398C538.27 78.4398 538.135 78.5748 538.135 78.7412C538.135 78.9076 538.27 79.0426 538.436 79.0426Z" fill="#FFF1CC"/>
<path d="M525.313 67.2687C524.982 68.2532 524.309 69.1071 524.018 70.1017C523.556 71.6588 523.958 73.8287 525.454 74.4516C526.658 74.9539 528.506 75.4662 528.415 75.9283C528.335 76.3302 526.658 76.6014 526.257 76.6617C524.992 76.8526 522.673 76.2197 521.468 75.7877C520.544 75.4562 519.671 74.9237 519.038 74.1602C518.406 73.3967 518.064 72.3821 518.215 71.4076C518.416 70.1218 519.661 68.7354 520.604 67.8413C521.538 66.9573 522.904 65.0686 524.128 64.7271C525.514 64.3353 525.634 66.3143 525.323 67.2587L525.313 67.2687Z" fill="#FFF1CC"/>
<path d="M85.0986 238.583C102.869 238.583 117.275 224.168 117.275 206.385C117.275 188.603 102.869 174.188 85.0986 174.188C67.3279 174.188 52.9219 188.603 52.9219 206.385C52.9219 224.168 67.3279 238.583 85.0986 238.583Z" fill="#FFF1CC"/>
<path d="M61.7971 200.338C61.6264 201.041 61.5562 201.734 61.5662 202.427C61.2449 203.03 60.9939 203.693 60.8233 204.396C60.4317 206.004 60.5422 207.621 61.0542 209.068C61.0241 211.218 62.3995 213.187 64.4777 213.89C64.0962 216.451 65.7226 218.923 68.2827 219.536C69.1762 219.747 70.0597 219.706 70.8729 219.465C71.2744 220.379 72.0575 221.123 73.0916 221.424L72.1077 224.317L73.433 225.664L79.3764 220.179C81.5549 219.947 83.5528 218.852 84.9282 217.165C86.0125 218.34 87.4381 219.224 89.1047 219.626C92.227 220.379 95.3593 219.254 97.3271 216.994C97.4275 217.014 97.5078 217.044 97.5981 217.064C101.734 218.059 105.881 215.768 107.326 211.871C108.29 210.836 109.023 209.56 109.385 208.083C110.107 205.059 109.083 202.025 106.965 200.046C106.172 197.254 103.933 194.953 100.921 194.23C100.56 194.139 100.198 194.079 99.837 194.039C99.2948 192.602 98.08 191.437 96.4637 191.045C95.8512 190.894 95.2388 190.874 94.6565 190.965C94.014 189.95 93 189.177 91.7451 188.875C90.9218 188.674 90.0986 188.704 89.3356 188.925C88.9541 188.082 88.2112 187.439 87.2474 187.208C86.1229 186.936 84.9985 187.308 84.2656 188.092C83.7536 187.851 83.2115 187.65 82.6292 187.509C79.8181 186.836 76.997 187.68 75.0192 189.508C72.168 189.749 69.5978 191.487 68.3027 194.099C65.2005 194.692 62.5802 197.043 61.7871 200.338H61.7971Z" fill="#FFDE66" stroke="#1D1D1B" stroke-linecap="round" stroke-linejoin="round"/>
<path d="M65.222 201.342L80.6226 190.603L95.5012 194.702L104.467 200.428L106.896 208.485L99.758 215.336L91.5557 217.165L83.6646 215.336L76.0647 220.299L71.9685 217.988L67.1094 216.793L67.5612 212.433L63.3145 208.485L86.556 198.268L67.5612 212.433L71.9685 217.988L88.4334 201.694L106.896 208.485L99.758 215.336L80.6226 190.603L83.6646 215.336L104.467 200.428L95.5012 194.702L91.5557 217.165L74.7495 194.702L67.5612 212.433L65.222 201.342Z" stroke="white" stroke-linecap="round" stroke-linejoin="round"/>
<path d="M130.759 93.77C148.529 93.77 162.936 79.3548 162.936 61.5727C162.936 43.7906 148.529 29.3753 130.759 29.3753C112.988 29.3753 98.582 43.7906 98.582 61.5727C98.582 79.3548 112.988 93.77 130.759 93.77Z" fill="#DBE0F1"/>
<path d="M146.983 58.2575C147.585 58.2575 148.148 58.4182 148.64 58.6995C148.941 58.8703 149.302 58.8703 149.603 58.6995C149.905 58.5287 150.085 58.2073 150.085 57.8657V46.5941C150.085 46.0617 149.654 45.6297 149.121 45.6297H137.857C137.516 45.6297 137.194 45.8105 137.024 46.1119C136.853 46.4133 136.853 46.7749 137.024 47.0763C137.305 47.5585 137.466 48.1311 137.466 48.7339C137.466 50.5623 135.98 52.0491 134.152 52.0491C132.325 52.0491 130.839 50.5623 130.839 48.7339C130.839 48.1311 131 47.5585 131.281 47.0763C131.452 46.7749 131.452 46.4133 131.281 46.1119C131.11 45.8105 130.789 45.6297 130.448 45.6297H119.184C118.651 45.6297 118.22 46.0617 118.22 46.5941V54.2893C117.838 54.2291 117.447 54.1889 117.045 54.1889C112.969 54.1889 109.666 57.494 109.666 61.5727C109.666 65.6513 112.969 68.9565 117.045 68.9565C117.447 68.9565 117.838 68.9163 118.22 68.856V76.5512C118.22 77.0837 118.651 77.5156 119.184 77.5156H130.448C130.789 77.5156 131.11 77.3348 131.281 77.0334C131.452 76.732 131.452 76.3704 131.281 76.069C131 75.5868 130.839 75.0142 130.839 74.4114C130.839 72.5831 132.325 71.0963 134.152 71.0963C135.98 71.0963 137.466 72.5831 137.466 74.4114C137.466 75.0142 137.305 75.5868 137.024 76.069C136.853 76.3704 136.853 76.732 137.024 77.0334C137.194 77.3348 137.516 77.5156 137.857 77.5156H149.121C149.654 77.5156 150.085 77.0837 150.085 76.5512V65.2796C150.085 64.9381 149.905 64.6166 149.603 64.4458C149.302 64.275 148.941 64.275 148.64 64.4458C148.158 64.7271 147.585 64.8878 146.983 64.8878C145.156 64.8878 143.67 63.401 143.67 61.5727C143.67 59.7443 145.156 58.2575 146.983 58.2575Z" fill="#BACCFF"/>
<path d="M137.024 76.069C137.305 75.5868 137.466 75.0142 137.466 74.4114C137.466 72.5831 135.98 71.0963 134.152 71.0963C132.325 71.0963 130.839 72.5831 130.839 74.4114C130.839 75.0142 131 75.5868 131.281 76.069C131.452 76.3704 131.452 76.732 131.281 77.0334C131.11 77.3348 130.789 77.5156 130.448 77.5156H119.184C118.651 77.5156 118.22 77.0837 118.22 76.5512V68.856C117.838 68.9163 117.447 68.9565 117.045 68.9565C112.969 68.9565 109.666 65.6513 109.666 61.5727C109.666 57.494 112.969 54.1889 117.045 54.1889C117.447 54.1889 117.838 54.2291 118.22 54.2893V46.5941C118.22 46.0617 118.651 45.6297 119.184 45.6297H130.448C130.789 45.6297 131.11 45.8105 131.281 46.1119C131.452 46.4133 131.452 46.7749 131.281 47.0763C131 47.5585 130.839 48.1311 130.839 48.7339C130.839 50.5623 132.325 52.0491 134.152 52.0491C135.98 52.0491 137.466 50.5623 137.466 48.7339C137.466 48.1311 137.305 47.5585 137.024 47.0763C136.853 46.7749 136.853 46.4133 137.024 46.1119C137.194 45.8105 137.516 45.6297 137.857 45.6297H149.121C149.654 45.6297 150.085 46.0617 150.085 46.5941V57.8657C150.085 58.2073 149.905 58.5287 149.603 58.6995C149.302 58.8703 148.941 58.8703 148.64 58.6995C148.148 58.4182 147.585 58.2575 146.983 58.2575C145.156 58.2575 143.67 59.7443 143.67 61.5727C143.67 63.401 145.156 64.8878 146.983 64.8878C147.585 64.8878 148.158 64.7271 148.64 64.4458C148.941 64.275 149.302 64.275 149.603 64.4458C149.905 64.6166 150.085 64.9381 150.085 65.2796V76.5512C150.085 77.0837 149.654 77.5156 149.121 77.5156H137.857C137.516 77.5156 137.194 77.3348 137.024 77.0334C136.853 76.732 136.853 76.3704 137.024 76.069ZM137.024 76.069L137.857 76.5512" stroke="#1D1D1B" stroke-miterlimit="10"/>
<path d="M487.575 211.027L491.038 202.246C491.37 201.413 492.544 201.413 492.866 202.246L496.329 211.027C496.43 211.278 496.63 211.479 496.881 211.579L505.656 215.045C506.489 215.377 506.489 216.552 505.656 216.873L496.881 220.339C496.63 220.44 496.43 220.641 496.329 220.892L492.866 229.672C492.534 230.506 491.36 230.506 491.038 229.672L487.575 220.892C487.474 220.641 487.274 220.44 487.023 220.339L478.248 216.873C477.415 216.542 477.415 215.367 478.248 215.045L487.023 211.579C487.274 211.479 487.474 211.278 487.575 211.027Z" fill="#E4EBF5" stroke="black" stroke-miterlimit="10"/>
<path d="M173.88 133.16C177.739 133.16 180.868 130.03 180.868 126.168C180.868 122.307 177.739 119.176 173.88 119.176C170.021 119.176 166.893 122.307 166.893 126.168C166.893 130.03 170.021 133.16 173.88 133.16Z" fill="#FFDE66" stroke="black" stroke-miterlimit="10"/>
<path d="M363.703 50.6443L354.709 41.6441L345.715 50.6443L354.709 59.6446L363.703 50.6443Z" fill="white" stroke="black" stroke-miterlimit="10"/>
<path d="M593.823 212.292C611.594 212.292 626 197.877 626 180.095C626 162.313 611.594 147.898 593.823 147.898C576.052 147.898 561.646 162.313 561.646 180.095C561.646 197.877 576.052 212.292 593.823 212.292Z" fill="#FFDE66"/>
<path d="M593.824 203.11C589.035 203.11 586.455 191.246 586.455 180.095C586.455 168.944 589.035 157.08 593.824 157.08C598.613 157.08 601.193 168.944 601.193 180.095C601.193 191.246 598.613 203.11 593.824 203.11ZM593.824 158.587C591.053 158.587 587.971 167.417 587.971 180.095C587.971 192.773 591.053 201.603 593.824 201.603C596.595 201.603 599.677 192.773 599.677 180.095C599.677 167.417 596.595 158.587 593.824 158.587Z" fill="white"/>
<path d="M609.455 193.376C604.907 193.376 597.497 190.734 590.138 186.484C584.928 183.471 580.37 180.035 577.308 176.8C573.995 173.304 572.81 170.461 573.894 168.592C574.567 167.417 576.013 166.824 578.181 166.824C582.739 166.824 590.138 169.466 597.497 173.716C602.708 176.72 607.256 180.165 610.328 183.4C613.641 186.896 614.826 189.739 613.741 191.608C613.069 192.783 611.623 193.376 609.455 193.376ZM578.181 168.341C577.087 168.341 575.692 168.512 575.21 169.346C574.527 170.521 575.722 172.922 578.412 175.755C581.374 178.89 585.811 182.235 590.901 185.168C598.05 189.297 605.158 191.859 609.465 191.859C610.559 191.859 611.964 191.688 612.436 190.844C613.119 189.669 611.924 187.268 609.234 184.435C606.272 181.301 601.834 177.955 596.744 175.022C589.596 170.893 582.488 168.331 578.181 168.331V168.341Z" fill="white"/>
<path d="M578.191 193.376C576.022 193.376 574.577 192.783 573.904 191.608C571.514 187.459 580.49 179.291 590.148 173.716C597.507 169.466 604.916 166.824 609.464 166.824C611.633 166.824 613.078 167.417 613.751 168.592C614.835 170.461 613.65 173.304 610.337 176.8C607.275 180.035 602.717 183.471 597.507 186.484C590.148 190.734 582.739 193.376 578.191 193.376ZM609.464 168.331C605.157 168.331 598.049 170.893 590.901 175.022C579.938 181.361 573.834 188.443 575.219 190.844C575.701 191.678 577.107 191.849 578.191 191.849C582.498 191.849 589.606 189.287 596.754 185.158C601.834 182.225 606.271 178.88 609.243 175.745C611.924 172.912 613.128 170.511 612.446 169.336C611.964 168.502 610.558 168.331 609.474 168.331H609.464Z" fill="white"/>
<path d="M593.823 185.359C590.922 185.359 588.553 182.998 588.553 180.085C588.553 177.172 590.912 174.811 593.823 174.811C596.735 174.811 599.094 177.172 599.094 180.085C599.094 182.998 596.735 185.359 593.823 185.359Z" fill="#BACCFF"/>
<path d="M593.824 175.323C596.454 175.323 598.592 177.463 598.592 180.095C598.592 182.727 596.464 184.867 593.824 184.867C591.183 184.867 589.055 182.737 589.055 180.095C589.055 177.453 591.183 175.323 593.824 175.323ZM593.824 174.319C590.641 174.319 588.051 176.91 588.051 180.095C588.051 183.28 590.641 185.871 593.824 185.871C597.006 185.871 599.596 183.28 599.596 180.095C599.596 176.91 597.006 174.319 593.824 174.319Z" fill="black"/>
<path d="M589.918 179.372C589.918 177.664 591.303 176.278 593.01 176.278C594.717 176.278 596.102 177.664 596.102 179.372C596.102 181.08 594.717 182.466 593.01 182.466C591.303 182.466 589.918 181.08 589.918 179.372Z" fill="white"/>
<path d="M579.577 170.391C578.071 170.391 576.836 169.165 576.836 167.648C576.836 166.131 578.061 164.906 579.577 164.906C581.093 164.906 582.317 166.131 582.317 167.648C582.317 169.165 581.093 170.391 579.577 170.391Z" fill="#BACCFF"/>
<path d="M579.577 165.418C580.812 165.418 581.816 166.423 581.816 167.658C581.816 168.894 580.812 169.898 579.577 169.898C578.342 169.898 577.338 168.894 577.338 167.658C577.338 166.423 578.342 165.418 579.577 165.418ZM579.577 164.413C577.79 164.413 576.334 165.87 576.334 167.658C576.334 169.446 577.79 170.903 579.577 170.903C581.364 170.903 582.819 169.446 582.819 167.658C582.819 165.87 581.364 164.413 579.577 164.413Z" fill="black"/>
<path d="M588.362 195.355C586.856 195.355 585.621 194.129 585.621 192.612C585.621 191.095 586.846 189.87 588.362 189.87C589.878 189.87 591.103 191.095 591.103 192.612C591.103 194.129 589.878 195.355 588.362 195.355Z" fill="#BACCFF"/>
<path d="M588.362 190.372C589.597 190.372 590.601 191.377 590.601 192.612C590.601 193.848 589.597 194.853 588.362 194.853C587.127 194.853 586.123 193.848 586.123 192.612C586.123 191.377 587.127 190.372 588.362 190.372ZM588.362 189.368C586.575 189.368 585.119 190.824 585.119 192.612C585.119 194.401 586.575 195.857 588.362 195.857C590.149 195.857 591.605 194.401 591.605 192.612C591.605 190.824 590.149 189.368 588.362 189.368Z" fill="black"/>
<path d="M602.87 171.536C601.364 171.536 600.129 170.31 600.129 168.793C600.129 167.276 601.354 166.051 602.87 166.051C604.386 166.051 605.61 167.276 605.61 168.793C605.61 170.31 604.386 171.536 602.87 171.536Z" fill="#BACCFF"/>
<path d="M602.87 166.563C604.105 166.563 605.109 167.568 605.109 168.803C605.109 170.039 604.105 171.044 602.87 171.044C601.635 171.044 600.631 170.039 600.631 168.803C600.631 167.568 601.635 166.563 602.87 166.563ZM602.87 165.559C601.083 165.559 599.627 167.015 599.627 168.803C599.627 170.592 601.083 172.048 602.87 172.048C604.657 172.048 606.112 170.592 606.112 168.803C606.112 167.015 604.657 165.559 602.87 165.559Z" fill="black"/>
<path d="M604.032 168.361C604.032 169.205 603.35 169.888 602.506 169.888C601.663 169.888 600.98 169.205 600.98 168.361C600.98 167.518 601.663 166.834 602.506 166.834C603.35 166.834 604.032 167.518 604.032 168.361Z" fill="white"/>
<path d="M580.783 167.277C580.783 168.12 580.1 168.803 579.256 168.803C578.413 168.803 577.73 168.12 577.73 167.277C577.73 166.433 578.413 165.75 579.256 165.75C580.1 165.75 580.783 166.433 580.783 167.277Z" fill="white"/>
<path d="M589.456 192.301C589.456 193.145 588.774 193.828 587.93 193.828C587.087 193.828 586.404 193.145 586.404 192.301C586.404 191.457 587.087 190.774 587.93 190.774C588.774 190.774 589.456 191.457 589.456 192.301Z" fill="white"/>
</g>
<defs>
<clipPath id="clip0_8964_22812">
<rect width="622" height="319" fill="white" transform="translate(4 2)"/>
</clipPath>
</defs>
</svg>
