<svg width="180" height="180" viewBox="0 0 180 180" fill="none" xmlns="http://www.w3.org/2000/svg">
<path d="M78 155C118.869 155 152 121.869 152 81C152 40.1309 118.869 7 78 7C37.1309 7 4 40.1309 4 81C4 121.869 37.1309 155 78 155Z" fill="#E4EBF5"/>
<path d="M29.0656 43H121.934C125.282 43 128 45.7149 128 49.0732V113.586C128 116.945 125.289 119.66 121.934 119.66H58.8365L60.0729 134L43.2778 119.66H29.0656C25.7176 119.66 23 116.945 23 113.586V49.0732C23 45.7149 25.7176 43 29.0656 43Z" fill="#FFEA97" stroke="black" stroke-miterlimit="10"/>
<path d="M164.19 28H105.81C103.702 28 102 29.6741 102 31.7404V71.4385C102 73.5048 103.708 75.173 105.81 75.173H145.474V84L151.261 75.173H164.19C166.298 75.173 168 73.4989 168 71.4385V31.7404C168 29.6741 166.292 28 164.19 28Z" fill="white" stroke="black" stroke-miterlimit="10"/>
<path d="M42.001 6L45.0903 12.2545L52 13.2568L47.0016 18.1251L48.1816 25L42.001 21.7545L35.8205 25L37.0005 18.1251L32 13.2568L38.9097 12.2545L42.001 6Z" fill="#FFDE66" stroke="black" stroke-miterlimit="10"/>
<path d="M95.001 142L98.0903 148.254L105 149.257L100.002 154.125L101.182 161L95.001 157.754L88.8205 161L90.0005 154.125L85 149.257L91.9097 148.254L95.001 142Z" fill="#FFDE66" stroke="black" stroke-miterlimit="10"/>
<path d="M156.001 129L159.09 135.254L166 136.257L161.002 141.125L162.182 148L156.001 144.754L149.821 148L151.001 141.125L146 136.257L152.91 135.254L156.001 129Z" fill="#FFDE66" stroke="black" stroke-miterlimit="10"/>
<path d="M50 88C59.9411 88 68 79.9411 68 70C68 60.0589 59.9411 52 50 52C40.0589 52 32 60.0589 32 70C32 79.9411 40.0589 88 50 88Z" fill="white" stroke="black" stroke-miterlimit="10"/>
<path d="M55.6212 71.5429C54.1499 72.8423 52.173 73.6411 49.9973 73.6411C47.8216 73.6411 45.8447 72.8423 44.3734 71.5429C42.0102 73.1671 40.4707 75.7819 40.4707 78.7429H59.5295C59.5295 75.7819 57.99 73.1671 55.6269 71.5429H55.6212Z" fill="#FFDE66" stroke="black"/>
<path d="M49.9992 70.5143C52.9231 70.5143 55.2933 68.2118 55.2933 65.3714C55.2933 62.5311 52.9231 60.2286 49.9992 60.2286C47.0753 60.2286 44.7051 62.5311 44.7051 65.3714C44.7051 68.2118 47.0753 70.5143 49.9992 70.5143Z" fill="#FFDE66" stroke="black"/>
<path d="M147.5 58C153.851 58 159 52.8513 159 46.5C159 40.1487 153.851 35 147.5 35C141.149 35 136 40.1487 136 46.5C136 52.8513 141.149 58 147.5 58Z" fill="white" stroke="black" stroke-miterlimit="10"/>
<path d="M151.092 47.4857C150.152 48.3159 148.889 48.8262 147.499 48.8262C146.108 48.8262 144.845 48.3159 143.905 47.4857C142.396 48.5234 141.412 50.194 141.412 52.0857H153.589C153.589 50.194 152.605 48.5234 151.095 47.4857H151.092Z" fill="#DBE0F1" stroke="black"/>
<path d="M147.5 46.8286C149.368 46.8286 150.882 45.3575 150.882 43.5429C150.882 41.7282 149.368 40.2571 147.5 40.2571C145.632 40.2571 144.117 41.7282 144.117 43.5429C144.117 45.3575 145.632 46.8286 147.5 46.8286Z" fill="#DBE0F1" stroke="black"/>
<path d="M84 90.5H134C134.828 90.5 135.5 91.1716 135.5 92V93C135.5 93.8284 134.828 94.5 134 94.5H84C83.1716 94.5 82.5 93.8284 82.5 93V92C82.5 91.1716 83.1716 90.5 84 90.5Z" fill="#BACCFF" stroke="black"/>
<path d="M84 98.5H134C134.828 98.5 135.5 99.1716 135.5 100V101C135.5 101.828 134.828 102.5 134 102.5H84C83.1716 102.5 82.5 101.828 82.5 101V100C82.5 99.1716 83.1716 98.5 84 98.5Z" fill="#BACCFF" stroke="black"/>
<path d="M84 106.5H134C134.828 106.5 135.5 107.172 135.5 108V109C135.5 109.828 134.828 110.5 134 110.5H84C83.1716 110.5 82.5 109.828 82.5 109V108C82.5 107.172 83.1716 106.5 84 106.5Z" fill="#BACCFF" stroke="black"/>
</svg>
