<svg width="480" height="340" viewBox="0 0 480 340" fill="none" xmlns="http://www.w3.org/2000/svg">
<path d="M164.291 146.869H15.873V156.579H164.291V146.869Z" fill="#FFF1CC" stroke="black" stroke-linecap="round" stroke-linejoin="round"/>
<path d="M166.211 14H5.26562V17.6036H166.211V14Z" fill="black" stroke="black" stroke-linecap="round" stroke-linejoin="round"/>
<path d="M155.606 17.5527H26.2598V146.869H155.606V17.5527Z" fill="#FFF1CC" stroke="black" stroke-linecap="round" stroke-linejoin="round"/>
<path d="M149.685 23.4617H32.1699V140.949H149.685V23.4617Z" fill="#DBE0F1" stroke="black" stroke-miterlimit="10"/>
<path d="M148.98 53.5163C148.72 53.5163 148.471 53.4748 148.221 53.4748C146.726 53.4748 145.282 53.641 143.879 53.9421C143.225 43.3181 134.406 34.8958 123.613 34.8958C112.82 34.8958 104.022 43.287 103.347 53.8902C102.111 53.6098 100.833 53.4644 99.5139 53.4644C90.217 53.4644 82.6133 60.6925 82.0108 69.8314H77.7727C71.1039 69.8314 65.6504 75.2836 65.6504 81.9509C65.6504 88.6182 71.1039 94.0704 77.7727 94.0704H146.559C146.798 94.0704 147.048 94.0704 147.286 94.0496C147.598 94.06 147.91 94.0704 148.232 94.0704C148.491 94.0704 148.741 94.0392 148.99 94.0288V53.4852L148.98 53.5163Z" fill="white"/>
<path d="M149.685 79.0949H94.0488V23.4617H87.8162V79.0949H32.1699V85.326H87.8162V140.949H94.0488V85.326H149.685V79.0949Z" fill="white" stroke="black" stroke-linecap="round" stroke-linejoin="round"/>
<path d="M8.47656 9.5769V221.943C11.0631 221.33 11.3435 217.893 14.4183 217.893C17.7942 217.893 17.7942 222.047 21.1702 222.047C24.5462 222.047 24.5462 217.893 27.9221 217.893C31.2981 217.893 31.2981 222.047 34.6741 222.047C38.05 222.047 38.05 217.893 41.4364 217.893C44.8227 217.893 44.8123 222.047 48.1987 222.047V9.5769H8.47656Z" fill="white" stroke="black" stroke-linecap="round" stroke-linejoin="round"/>
<path d="M88.1289 331.475C90.6427 333.417 94.2576 335.681 97.3946 336.138C102.848 336.917 113.849 336.138 113.849 336.138H147.66C147.66 336.138 150.6 336.294 152.023 335.982C155.659 336.2 160.904 334.362 160.904 334.362C162.712 335.349 166.046 334.206 166.046 334.206C168.685 334.622 171.884 334.341 172.549 331.475C172.985 329.585 172.549 328.827 171.146 328.048L171.884 328.339H177.441C179.249 329.419 183.83 329.066 183.83 329.066C183.83 329.066 184.661 330.312 187.216 329.897C188.255 329.73 188.951 329.087 189.21 328.193L199.245 328.775C199.255 329.242 199.297 329.699 199.38 330.167C199.806 332.607 203.545 335.858 208.043 334.902C209.934 334.497 211.648 333.594 213.206 332.451C214.411 331.569 215.626 330.676 216.831 329.793L217.434 329.824C224.632 330.229 231.831 330.624 239.019 331.029C239.85 331.07 240.723 331.112 241.46 330.717C242.831 330.914 248.908 331.465 248.908 328.484C248.908 327.373 248.451 326.262 247.796 325.369C246.945 324.195 245.48 323.582 244.036 323.427C242.592 323.271 239.653 323.52 238.23 323.769L238.292 323.904C238.094 323.832 237.887 323.78 237.689 323.717C238.593 323.261 239.258 322.399 239.767 321.537C240.837 319.761 241.439 317.725 241.47 315.648C241.533 311.203 239.725 307.35 237.18 304.027L237.814 304.266C236.973 300.05 235.124 296.031 232.454 292.666C228.486 287.639 222.596 284.057 216.239 283.288C214.307 283.06 212.209 282.634 212.209 282.634C212.209 282.634 204.667 275.177 186.053 275.177C167.438 275.177 144.939 277.119 131.746 280.318C118.554 283.517 104.25 290.038 98.1321 293.704C95.9923 294.992 93.6862 297.339 91.7645 299.572C88.8041 303.02 86.5084 307.018 85.1476 311.359C84.4828 313.478 83.9842 315.638 83.8492 317.86C83.5791 322.295 84.6179 328.754 88.1289 331.475Z" fill="white" stroke="black" stroke-linecap="round" stroke-linejoin="round"/>
<path d="M208.677 309.781C207.835 310.383 206.662 310.466 205.748 310.009C204.823 309.552 204.189 308.565 204.158 307.537" fill="white"/>
<path d="M208.677 309.781C207.835 310.383 206.662 310.466 205.748 310.009C204.823 309.552 204.189 308.565 204.158 307.537" stroke="black" stroke-linecap="round" stroke-linejoin="round"/>
<path d="M233.898 311.795C234.427 313.571 232.319 317.04 231.228 318.535C230.137 320.031 228.621 321.142 227.125 322.243C222.482 325.649 217.838 329.055 213.195 332.462C211.637 333.604 209.923 334.508 208.033 334.913C203.535 335.868 199.795 332.617 199.369 330.177C198.829 327.051 199.889 324.05 200.803 321.017C201.717 317.985 202.34 314.485 200.668 311.795" fill="white"/>
<path d="M233.898 311.795C234.427 313.571 232.319 317.04 231.228 318.535C230.137 320.031 228.621 321.142 227.125 322.243C222.482 325.649 217.838 329.055 213.195 332.462C211.637 333.604 209.923 334.508 208.033 334.913C203.535 335.868 199.795 332.617 199.369 330.177C198.829 327.051 199.889 324.05 200.803 321.017C201.717 317.985 202.34 314.485 200.668 311.795" stroke="black" stroke-linecap="round" stroke-linejoin="round"/>
<path d="M238.219 323.769C239.652 323.52 242.582 323.271 244.025 323.427C245.469 323.582 246.934 324.195 247.786 325.369C248.44 326.272 248.897 327.373 248.897 328.484C248.897 331.465 242.82 330.914 241.449 330.717" fill="white"/>
<path d="M238.219 323.769C239.652 323.52 242.582 323.271 244.025 323.427C245.469 323.582 246.934 324.195 247.786 325.369C248.44 326.272 248.897 327.373 248.897 328.484C248.897 331.465 242.82 330.914 241.449 330.717" stroke="black" stroke-linecap="round" stroke-linejoin="round"/>
<path d="M225.659 323.416C230.147 322.939 234.842 322.492 239.028 324.174C240.389 324.725 241.718 325.556 242.373 326.864C243.027 328.173 242.736 330.021 241.448 330.727C240.721 331.122 239.838 331.091 239.007 331.039C231.809 330.634 224.61 330.239 217.422 329.834" stroke="black" stroke-linecap="round" stroke-linejoin="round"/>
<path d="M190.01 294.379C183.996 299.208 180.288 303.539 177.576 310.757C177.016 312.263 173.099 318.058 177.099 321.568" fill="white"/>
<path d="M190.01 294.379C183.996 299.208 180.288 303.539 177.576 310.757C177.016 312.263 173.099 318.058 177.099 321.568" stroke="black" stroke-linecap="round" stroke-linejoin="round"/>
<path d="M121.316 291.845L142.092 294.784C148.511 295.688 154.183 299.427 157.548 304.952C158.888 307.164 159.927 309.137 159.906 309.978C159.854 312.481 158.701 314.869 157.133 316.822C155.564 318.774 153.58 320.342 151.596 321.869V323.655" fill="white"/>
<path d="M121.316 291.845L142.092 294.784C148.511 295.688 154.183 299.427 157.548 304.952C158.888 307.164 159.927 309.137 159.906 309.978C159.854 312.481 158.701 314.869 157.133 316.822C155.564 318.774 153.58 320.342 151.596 321.869V323.655" stroke="black" stroke-linecap="round" stroke-linejoin="round"/>
<path d="M151.596 321.869L171.259 322.98C171.259 322.98 174.968 320.072 177.087 321.557C177.087 321.557 179.362 320.404 182.146 322.295C182.146 322.295 184.13 320.508 187.194 323.375C190.258 326.241 189.749 329.471 187.194 329.886C184.639 330.301 183.808 329.055 183.808 329.055C183.808 329.055 179.227 329.408 177.419 328.328H171.862" fill="white"/>
<path d="M151.596 321.869L171.259 322.98C171.259 322.98 174.968 320.072 177.087 321.557C177.087 321.557 179.362 320.404 182.146 322.295C182.146 322.295 184.13 320.508 187.194 323.375C190.258 326.241 189.749 329.471 187.194 329.886C184.639 330.301 183.808 329.055 183.808 329.055C183.808 329.055 179.227 329.408 177.419 328.328H171.862" stroke="black" stroke-linecap="round" stroke-linejoin="round"/>
<path d="M153.424 326.397C153.424 326.397 156.032 325.67 158.12 326.397C160.208 327.124 160.893 326.085 162.15 326.397C163.407 326.708 164.373 324.984 168.123 326.656C171.873 328.339 173.202 328.598 172.538 331.465C171.873 334.331 168.673 334.611 166.035 334.196C166.035 334.196 162.701 335.338 160.893 334.352C160.893 334.352 155.647 336.19 152.012 335.972" fill="white"/>
<path d="M153.424 326.397C153.424 326.397 156.032 325.67 158.12 326.397C160.208 327.124 160.893 326.085 162.15 326.397C163.407 326.708 164.373 324.984 168.123 326.656C171.873 328.339 173.202 328.598 172.538 331.465C171.873 334.331 168.673 334.611 166.035 334.196C166.035 334.196 162.701 335.338 160.893 334.352C160.893 334.352 155.647 336.19 152.012 335.972" stroke="black" stroke-linecap="round" stroke-linejoin="round"/>
<path d="M112.799 322.419C108.072 322.897 103.907 320.529 100.863 316.884L112.799 322.419Z" fill="white"/>
<path d="M112.799 322.419C108.072 322.897 103.907 320.529 100.863 316.884" stroke="black" stroke-linecap="round" stroke-linejoin="round"/>
<path d="M134.801 310.902C132.141 310.881 129.565 312.024 127.446 313.644C125.327 315.254 123.603 318.058 121.92 320.124" fill="white"/>
<path d="M134.801 310.902C132.141 310.881 129.565 312.024 127.446 313.644C125.327 315.254 123.603 318.058 121.92 320.124" stroke="black" stroke-linecap="round" stroke-linejoin="round"/>
<path d="M225.588 312.906C224.695 313.716 223.458 314.153 222.253 314.09C221.048 314.028 219.875 313.467 219.064 312.564" fill="white"/>
<path d="M225.588 312.906C224.695 313.716 223.458 314.153 222.253 314.09C221.048 314.028 219.875 313.467 219.064 312.564" stroke="black" stroke-linecap="round" stroke-linejoin="round"/>
<path d="M230.854 303.549C233.669 308.68 234.936 314.641 234.448 320.467C234.365 321.484 234.271 322.648 234.957 323.406C235.569 324.081 236.65 324.174 237.491 323.811C238.333 323.447 238.966 322.741 239.475 321.983C241.657 318.732 241.885 314.443 240.742 310.715C239.589 306.976 237.2 303.736 234.468 300.943" fill="white"/>
<path d="M230.854 303.549C233.669 308.68 234.936 314.641 234.448 320.467C234.365 321.484 234.271 322.648 234.957 323.406C235.569 324.081 236.65 324.174 237.491 323.811C238.333 323.447 238.966 322.741 239.475 321.983C241.657 318.732 241.885 314.443 240.742 310.715C239.589 306.976 237.2 303.736 234.468 300.943" stroke="black" stroke-linecap="round" stroke-linejoin="round"/>
<path d="M204.199 302.791C202.932 303.207 202.069 304.432 201.675 305.71C201.28 306.987 201.259 308.337 201.093 309.666C200.823 311.899 200.158 314.09 199.13 316.095C198.538 317.258 197.499 318.514 196.221 318.296C195.421 318.161 194.819 317.434 194.58 316.666C194.341 315.887 194.383 315.056 194.435 314.246C194.611 311.245 194.798 308.244 194.975 305.242C195.131 302.719 195.328 300.039 196.824 297.993C198.756 295.345 202.288 294.504 205.508 293.86" fill="white"/>
<path d="M204.199 302.791C202.932 303.207 202.069 304.432 201.675 305.71C201.28 306.987 201.259 308.337 201.093 309.666C200.823 311.899 200.158 314.09 199.13 316.095C198.538 317.258 197.499 318.514 196.221 318.296C195.421 318.161 194.819 317.434 194.58 316.666C194.341 315.887 194.383 315.056 194.435 314.246C194.611 311.245 194.798 308.244 194.975 305.242C195.131 302.719 195.328 300.039 196.824 297.993C198.756 295.345 202.288 294.504 205.508 293.86" stroke="black" stroke-linecap="round" stroke-linejoin="round"/>
<path d="M237.792 304.276C236.95 300.06 235.101 296.041 232.432 292.676C228.464 287.65 222.574 284.067 216.217 283.298C209.859 282.53 203.108 284.732 198.734 289.405" stroke="black" stroke-linecap="round" stroke-linejoin="round"/>
<path d="M208.676 330.644C207.918 331.216 206.952 331.579 206.007 331.434C204.76 331.236 203.794 330.177 203.348 329.004C202.901 327.83 202.88 326.542 202.859 325.275C202.859 324.818 207.887 326.521 208.313 326.76C208.77 327.01 210.463 327.851 210.536 328.422C210.629 329.097 209.165 330.271 208.676 330.634V330.644Z" fill="white" stroke="black" stroke-linecap="round" stroke-linejoin="round"/>
<path d="M212.197 282.634C212.197 282.634 204.655 275.177 186.041 275.177C167.426 275.177 144.927 277.119 131.735 280.318C118.542 283.517 104.239 290.038 98.1204 293.704C95.9806 294.992 93.6745 297.339 91.7528 299.572C88.7924 303.02 86.4967 307.029 85.1359 311.359C84.4711 313.478 83.9725 315.638 83.8375 317.86C83.5674 322.295 84.6062 328.754 88.1172 331.475C90.631 333.417 94.2458 335.681 97.3829 336.138C102.836 336.917 108.342 335.837 113.837 336.138C125.107 336.761 136.378 335.515 147.648 336.138C149.497 336.242 164.487 331.247 165.058 329.336C161.298 328.889 150.141 328.588 146.558 327.363L153.943 323.915C145.581 322.918 137.053 323.323 128.826 325.099L136.305 320.103C132.94 320.882 129.439 320.789 125.99 320.706C122.531 320.633 119.031 320.592 115.696 321.485C112.362 322.378 109.162 324.341 107.532 327.383" stroke="black" stroke-linecap="round" stroke-linejoin="round"/>
<path d="M197.094 276.174C192.254 274.419 187.34 278.116 185.865 283.049C184.837 286.487 185.782 290.381 184.234 293.611C182.531 297.173 178.179 298.845 174.242 298.554C170.305 298.263 166.669 296.415 163.179 294.556C159.689 292.697 156.115 290.776 152.189 290.308C147.857 289.789 143.515 291.108 139.152 291.243C136.867 291.316 134.26 290.89 133.013 288.979C131.455 286.59 132.972 283.288 135.174 281.47C139.142 278.189 144.679 277.784 149.81 277.524C161.88 276.911 167.22 275.8 179.29 275.187C183.071 275.001 190.675 275.167 190.675 275.167L197.074 276.174H197.094Z" fill="black" stroke="black" stroke-linecap="round" stroke-linejoin="round"/>
<path d="M199.296 309.407C199.94 311.328 199.639 313.446 198.974 315.357C198.787 315.897 198.569 316.437 198.206 316.874C197.842 317.31 197.312 317.642 196.741 317.652C195.972 317.652 195.297 317.081 194.975 316.385C194.653 315.69 194.601 314.911 194.57 314.142C194.528 312.782 194.528 311.432 194.591 310.071C194.622 309.324 194.425 306.509 194.965 305.99C196.315 304.692 198.964 308.41 199.296 309.407Z" fill="black" stroke="black" stroke-linecap="round" stroke-linejoin="round"/>
<path d="M238.811 313.654C238.292 314.558 237.762 315.544 236.827 316.001C236.308 316.25 235.674 316.323 235.29 316.749C234.833 317.258 234.926 318.026 235.04 318.701C235.238 319.854 234.376 321.017 234.583 322.17C234.687 322.762 235.882 323.406 236.37 323.759C237.014 324.237 237.959 323.935 238.603 323.437C240.172 322.222 240.774 320.155 241.076 318.203C241.335 316.541 241.73 314.36 241.366 312.699C240.92 310.674 239.393 312.647 238.811 313.654Z" fill="black" stroke="black" stroke-linecap="round" stroke-linejoin="round"/>
<path d="M188.961 308.555C189.283 309.5 189.574 310.57 189.169 311.484C188.764 312.387 187.788 312.886 186.832 313.145C185.876 313.405 184.869 313.488 183.975 313.893C181.742 314.911 180.755 317.601 178.709 318.971C177.764 319.605 176.257 319.802 175.645 318.836C175.291 318.276 175.395 317.559 175.53 316.915C176.517 312.2 178.48 307.693 181.254 303.747C182.303 302.251 183.726 299.707 185.731 301.233C187.351 302.48 188.317 306.686 188.951 308.555H188.961Z" fill="black" stroke="black" stroke-linecap="round" stroke-linejoin="round"/>
<path d="M141.655 330.063C140.564 330.146 139.526 330.571 138.466 330.852C137.407 331.132 136.243 331.278 135.246 330.821C133.449 330 132.597 328.505 130.624 328.391C128.629 328.266 127.549 329.668 125.783 330.603C122.719 332.233 119.135 328.858 115.697 329.367C113.235 329.73 111.375 332.41 111.905 334.84C112.071 335.619 121.721 335.837 122.812 335.878C126.541 336.044 130.27 336.013 134 335.785C136.669 335.619 141.427 336.013 143.733 334.476C146.236 332.804 144.314 329.855 141.645 330.073L141.655 330.063Z" fill="black" stroke="black" stroke-linecap="round" stroke-linejoin="round"/>
<path d="M118.689 297.869C120.029 298.783 121.462 299.915 121.639 301.514C121.867 303.674 119.748 305.263 117.91 306.416C116.071 307.579 114.014 309.323 114.461 311.452C114.731 312.751 115.863 313.654 116.715 314.672C117.567 315.69 118.138 317.289 117.245 318.276C116.912 318.649 116.434 318.847 115.957 319.002C113.245 319.896 110.181 319.646 107.657 318.327C105.133 317.009 103.18 314.641 102.359 311.909C101.684 309.656 101.85 306.997 103.398 305.211C104.385 304.069 105.87 303.342 106.577 302.012C107.169 300.901 107.096 299.561 106.971 298.315C106.722 295.771 107.034 291.949 110.472 292.78C113.194 293.445 116.383 296.311 118.689 297.879V297.869Z" fill="black" stroke="black" stroke-linecap="round" stroke-linejoin="round"/>
<path d="M151.814 304.069C150.9 305.076 150.828 306.738 151.659 307.818C151.96 308.212 152.365 308.534 152.604 308.971C153.04 309.781 152.801 310.819 152.271 311.577C151.742 312.335 150.973 312.875 150.246 313.447C149.436 314.08 148.657 314.786 148.127 315.669C147.597 316.552 147.368 317.663 147.711 318.629C148.251 320.155 150.1 320.913 151.7 320.643C153.3 320.373 154.64 319.293 155.72 318.078C157.496 316.074 158.764 313.54 158.909 310.861C159.065 308.015 155.616 299.852 151.804 304.069H151.814Z" fill="black" stroke="black" stroke-linecap="round" stroke-linejoin="round"/>
<path d="M285.815 4.51929C292.785 4.51929 298.446 10.1688 298.446 17.1476V43.4117C298.446 50.3905 292.795 56.04 285.815 56.04C278.845 56.04 273.184 50.3905 273.184 43.4117V17.1476C273.184 10.1688 278.834 4.51929 285.815 4.51929Z" stroke="black" stroke-linecap="round" stroke-linejoin="round"/>
<path d="M293.242 76.2495C298.436 145.456 283.509 183.03 275.999 214.268C272.987 226.813 270.546 241.197 273.963 253.451C277.111 264.73 284.309 271.013 290.209 278.718C300.129 291.679 301.22 308.96 296.992 329.813" stroke="black" stroke-width="2" stroke-miterlimit="10"/>
<path d="M288.338 64.1509H283.342V332.721H288.338V64.1509Z" fill="black" stroke="black" stroke-miterlimit="10"/>
<path d="M311.347 13.731H260.334L246.217 79.4482H325.464L311.347 13.731Z" fill="#FFDE66" stroke="black" stroke-linejoin="round"/>
<path d="M316.395 75.8963C316.021 75.8963 315.699 75.6679 315.647 75.3459L304.512 17.2929C304.48 17.1371 304.512 16.9606 304.615 16.8256C304.73 16.6594 304.927 16.5556 305.145 16.5244C305.187 16.5244 305.228 16.5244 305.27 16.5244C305.644 16.5244 305.955 16.7529 306.018 17.0852L317.153 75.1382C317.184 75.294 317.153 75.4705 317.049 75.6056C316.935 75.7717 316.738 75.8756 316.52 75.9067C316.478 75.9067 316.447 75.9067 316.405 75.9067L316.395 75.8963Z" fill="white"/>
<path d="M305.821 75.8965C305.426 75.8965 305.104 75.6368 305.063 75.3045L297.729 17.2515C297.708 17.0853 297.76 16.9296 297.864 16.7946C297.989 16.6388 298.186 16.5349 298.415 16.5142C298.446 16.5142 298.467 16.5142 298.498 16.5142C298.882 16.5142 299.204 16.7738 299.246 17.1061L306.579 75.1591C306.6 75.3253 306.548 75.4811 306.444 75.6161C306.32 75.7719 306.122 75.8757 305.894 75.8965H305.821Z" fill="white"/>
<path d="M295.839 75.8965C295.434 75.8965 295.102 75.6161 295.071 75.263L291.445 17.21C291.445 17.0438 291.497 16.888 291.601 16.7634C291.736 16.6076 291.944 16.5142 292.162 16.5142C292.609 16.5142 292.941 16.7946 292.962 17.1477L296.587 75.2007C296.598 75.3564 296.535 75.5226 296.431 75.6472C296.296 75.803 296.089 75.8965 295.87 75.8965H295.829H295.839Z" fill="white"/>
<path d="M285.722 75.8965C285.296 75.8965 284.953 75.5953 284.953 75.2318L285.005 17.1788C285.005 16.8049 285.348 16.5142 285.774 16.5142C286.2 16.5142 286.542 16.8153 286.542 17.1788L286.49 75.2318C286.49 75.6057 286.148 75.8965 285.722 75.8965Z" fill="white"/>
<path d="M275.688 75.8965C275.469 75.8965 275.262 75.7926 275.127 75.6472C275.012 75.5226 274.95 75.3668 274.971 75.2007L278.7 17.1477C278.721 16.7946 279.063 16.5142 279.469 16.5142H279.51C279.728 16.5245 279.936 16.618 280.071 16.7738C280.185 16.8984 280.237 17.0542 280.227 17.2203L276.498 75.2734C276.477 75.6265 276.145 75.9069 275.729 75.9069H275.688V75.8965Z" fill="white"/>
<path d="M265.528 75.8964C265.31 75.8756 265.102 75.7717 264.977 75.616C264.874 75.481 264.822 75.3148 264.842 75.1486L272.28 17.0956C272.321 16.7529 272.643 16.5037 273.038 16.5037H273.121C273.339 16.5244 273.547 16.6283 273.672 16.7841C273.776 16.9191 273.828 17.0852 273.807 17.2514L266.369 75.3044C266.328 75.6471 265.995 75.8964 265.611 75.8964H265.538H265.528Z" fill="white"/>
<path d="M255.285 75.8965C255.285 75.8965 255.212 75.8965 255.171 75.8965C254.952 75.8653 254.755 75.7511 254.641 75.5953C254.537 75.4499 254.506 75.2941 254.537 75.128L265.745 17.075C265.807 16.753 266.119 16.5142 266.493 16.5142C266.535 16.5142 266.576 16.5142 266.618 16.5142C266.836 16.5453 267.023 16.6596 267.147 16.8153C267.251 16.9607 267.282 17.1165 267.251 17.2827L256.043 75.3357C255.981 75.6576 255.669 75.8861 255.295 75.8861L255.285 75.8965Z" fill="white"/>
<path d="M262.692 329.824H308.979C310.579 329.824 311.867 331.122 311.867 332.711V334.58C311.867 335.151 311.41 335.608 310.838 335.608H260.812C260.24 335.608 259.783 335.151 259.783 334.58V332.711C259.783 331.111 261.082 329.824 262.671 329.824H262.692Z" fill="black" stroke="black" stroke-miterlimit="10"/>
<path d="M161.528 335.525H157.902L196.939 236.814L200.554 238.268L161.528 335.525Z" fill="black" stroke="black" stroke-miterlimit="10"/>
<path d="M369.184 68.7618C369.184 68.7618 365.341 61.6168 343.89 71.5035C322.451 81.4005 325.203 116.025 324.642 138.56C324.092 161.096 314.743 197.808 293.303 197.59C271.863 197.372 233.377 178.626 233.377 178.626L244.377 233.678L321.349 225.681L376.331 165.313L369.184 68.7618Z" fill="white" stroke="black" stroke-linecap="round" stroke-linejoin="round"/>
<path d="M182.312 195.72L189.521 182.552L210.463 194.474L201.602 208.369L182.312 195.72Z" fill="white" stroke="black" stroke-linecap="round" stroke-linejoin="round"/>
<path d="M201.924 206.469L188.42 226.419L186.862 233.408C186.374 235.589 184.213 236.97 182.021 236.482L141.447 227.426C141.447 227.426 141.821 222.441 144.948 221.87C148.085 221.288 171.104 214.85 171.104 214.85L182.354 195.679L201.924 206.469Z" fill="#FFDE66" stroke="black" stroke-linejoin="round"/>
<path d="M183.174 184.11C183.174 184.11 204.624 151.21 210.826 140.409C221.317 122.142 237.231 121.103 249.135 122.889C268.955 125.86 276.891 157.337 282.479 170.485C288.068 183.632 291.174 202.076 291.174 202.076L243.37 194.235L237.179 164.42L209.267 197.922L183.184 184.12L183.174 184.11Z" fill="black" stroke="black" stroke-miterlimit="10"/>
<path d="M223.781 229.441C216.759 222.774 212.167 213.583 211.066 203.956C210.516 199.158 210.827 194.204 212.562 189.697C214.297 185.19 217.538 181.171 221.88 179.052C228.299 175.906 235.955 177.235 242.852 179.115C251.723 181.514 347.268 197.019 355.589 200.923C354.643 216.844 341.462 229.275 325.506 229.296L223.781 229.441Z" fill="black" stroke="black" stroke-miterlimit="10"/>
<path d="M265.559 168.044C265.559 168.044 266.369 164.7 268.457 164.44C270.545 164.181 273.152 165.956 273.817 168.335C274.482 170.703 274.326 173.548 274.326 173.548L265.559 168.054V168.044Z" fill="white" stroke="black" stroke-linecap="round" stroke-linejoin="round"/>
<path d="M272.518 171.481C272.57 171.513 272.809 171.315 273.037 170.869C273.276 170.433 273.484 169.747 273.453 168.979C273.421 168.21 273.162 167.545 272.892 167.13C272.622 166.704 272.372 166.517 272.32 166.569" fill="white"/>
<path d="M272.518 171.481C272.57 171.513 272.809 171.315 273.037 170.869C273.276 170.433 273.484 169.747 273.453 168.979C273.421 168.21 273.162 167.545 272.892 167.13C272.622 166.704 272.372 166.517 272.32 166.569" stroke="black" stroke-linecap="round" stroke-linejoin="round"/>
<path d="M256.957 169.747C256.957 169.747 254.713 169.57 254.505 171.564C254.298 173.558 255.7 174.898 255.7 174.898C255.7 174.898 252.532 178.834 257.03 180.527C257.03 180.527 255.877 183.601 259.034 184.452C259.034 184.452 260.291 186.374 263.678 188.108C267.074 189.832 273.92 187.142 273.92 187.142L275.945 176.04L264.187 169.155L256.957 169.747Z" fill="white" stroke="black" stroke-linecap="round" stroke-linejoin="round"/>
<path d="M261.82 175.636C261.882 175.511 260.542 174.836 258.735 174.649C256.927 174.431 255.473 174.794 255.504 174.929" fill="white"/>
<path d="M261.82 175.636C261.882 175.511 260.542 174.836 258.735 174.649C256.927 174.431 255.473 174.794 255.504 174.929" stroke="black" stroke-linecap="round" stroke-linejoin="round"/>
<path d="M257.03 180.527C256.988 180.662 259.585 181.493 262.816 182.386C263.626 182.604 264.384 182.832 265.111 182.988C265.828 183.144 266.524 183.196 267.095 183.102C268.259 182.936 268.778 182.334 268.716 182.303" fill="white"/>
<path d="M257.03 180.527C256.988 180.662 259.585 181.493 262.816 182.386C263.626 182.604 264.384 182.832 265.111 182.988C265.828 183.144 266.524 183.196 267.095 183.102C268.259 182.936 268.778 182.334 268.716 182.303" stroke="black" stroke-linecap="round" stroke-linejoin="round"/>
<path d="M259.035 184.452C259.025 184.515 259.482 184.691 260.24 184.889C261.009 185.076 262.079 185.314 263.325 185.283C264.53 185.221 265.725 184.951 266.307 184.245C266.597 183.902 266.618 183.497 266.577 183.269C266.535 183.04 266.473 182.926 266.442 182.936C266.338 182.936 266.535 183.497 266.047 184.006C265.559 184.504 264.468 184.733 263.325 184.785C262.172 184.816 261.102 184.629 260.334 184.536C259.565 184.432 259.077 184.38 259.056 184.452H259.035Z" fill="white" stroke="black" stroke-linecap="round" stroke-linejoin="round"/>
<path d="M355.391 50.9929C348.379 41.9475 350.924 36.3083 340.609 35.7683C335.644 29.8487 326.721 35.7994 320.052 34.2832C316.167 33.4005 313.352 33.0474 309.509 36.9314C308.127 38.323 307.4 41.6255 305.218 46.06C303.245 50.0686 301.832 48.3551 301.022 51.3045C298.913 58.9376 305.229 64.6183 303.546 74.1414C301.863 83.6646 314.921 87.7564 314.921 87.7564L348.067 85.7417C348.067 85.7417 350.207 81.0995 354.747 79.0536C356.159 78.4097 355.442 73.9649 356.242 71.5971C357.364 68.2738 357.52 67.6611 357.343 63.8913C357.291 62.7385 355.484 60.89 355.505 59.7372C355.578 56.3309 357.468 53.6827 355.38 50.9929H355.391Z" fill="black" stroke="black" stroke-miterlimit="10"/>
<path d="M321.891 39.7352L323.262 38.084L340.755 42.8715C343.186 42.7261 345.336 44.4605 345.689 46.8698L350.924 103.199L327.958 117.78C326.95 113.459 324.706 105.328 324.706 105.328C323.854 100.551 323.522 98.5879 323.522 98.6398C323.522 98.6398 313.155 98.6502 308.855 85.8453C306.715 79.4792 305.936 70.4545 305.292 61.5648C304.398 49.2584 312.033 40.8776 321.881 39.7456L321.891 39.7352Z" fill="white" stroke="black" stroke-linecap="round" stroke-linejoin="round"/>
<path d="M324.799 99.3253C324.799 99.3253 333.618 97.5078 340.785 90.0098C340.785 90.0098 338.895 100.115 325.671 102.43L324.799 99.3253Z" fill="black" stroke="black" stroke-miterlimit="10"/>
<path d="M349.251 65.0855C349.251 65.0855 341.19 70.7869 328.932 50.3178C324.746 43.3182 315.74 39.4757 315.74 39.4757L318.306 37.6998C318.306 37.6998 337.606 36.9417 337.97 37.0663C338.333 37.191 350.206 49.6116 350.206 49.6116L349.251 65.0959V65.0855Z" fill="black" stroke="black" stroke-miterlimit="10"/>
<path d="M346.207 65.7606C348.721 64.9297 353.426 64.3482 354.569 70.9116C356.127 79.874 346.809 79.5936 346.747 79.3443" fill="white"/>
<path d="M346.207 65.7606C348.721 64.9297 353.426 64.3482 354.569 70.9116C356.127 79.874 346.809 79.5936 346.747 79.3443" stroke="black" stroke-linecap="round" stroke-linejoin="round"/>
<path d="M315.678 70.548C315.813 71.6073 315.065 72.5731 314.006 72.7185C312.936 72.8639 311.959 72.1161 311.824 71.0672C311.689 70.008 312.437 69.0421 313.497 68.8967C314.556 68.7514 315.543 69.4991 315.678 70.548Z" fill="black"/>
<path d="M332.061 67.983C332.196 69.0423 331.448 70.0082 330.389 70.1535C329.319 70.2989 328.342 69.5512 328.207 68.5023C328.072 67.4534 328.82 66.4772 329.88 66.3318C330.95 66.1864 331.926 66.9341 332.061 67.983Z" fill="black"/>
<path d="M321.891 68.2842C321.985 70.7662 319.471 77.2569 319.44 78.0878C319.398 78.9913 322.483 79.9259 323.377 79.9986" stroke="black" stroke-linecap="round" stroke-linejoin="round"/>
<path d="M320.541 85.3884C323.138 85.0457 327.708 84.4329 330.305 84.0798C328.716 86.1361 326.233 87.3823 323.637 87.4031" stroke="black" stroke-linecap="round" stroke-linejoin="round"/>
<path d="M347.652 70.3612C348.629 70.0911 349.761 70.6831 350.104 71.6385C350.447 72.594 349.938 73.7675 349.013 74.1725C348.629 74.3387 348.213 74.3906 347.798 74.4841" stroke="black" stroke-linecap="round" stroke-linejoin="round"/>
<path d="M292.66 178.543L276.777 175.241C276.777 175.241 290.395 130.917 293.346 121.633C293.522 121.062 293.751 120.511 294.01 119.982L294.945 118.091C296.94 114.758 303.588 108.714 310.35 106.657L323.407 102.524C323.407 102.524 328.466 113.179 352.087 98.8997C352.087 98.8997 366.318 104.414 374.109 114.052C382.107 123.959 371.855 143.296 371.855 143.296L362.475 181.15L358.694 202.502L287.923 188.575C287.923 188.575 297.854 169.103 298.363 161.657L292.681 178.533L292.66 178.543Z" fill="white" stroke="black" stroke-linecap="round" stroke-linejoin="round"/>
<path d="M323.23 101.278C323.23 101.278 323.76 96.7187 327.614 95.4621C331.457 94.2055 341.782 90.1242 341.782 90.1242L342.998 88.8053C342.998 88.8053 342.946 86.9463 343.382 85.5339C343.818 84.1216 342.021 82.2522 342.551 79.9883C343.081 77.7139 344.296 77.9008 344.296 77.9008L345.044 79.0121C345.044 79.0121 346.613 76.3846 347.714 78.4201C347.714 78.4201 349.137 89.6672 349.209 91.2873C349.282 92.9074 348.877 94.164 348.877 94.164C348.877 94.164 349.49 96.5734 348.919 97.4353C348.919 97.4353 349.667 99.7097 348.638 101.008C347.61 102.296 346.654 102.69 344.265 103.272C342.136 103.791 335.872 106.356 334.937 107.073L334.033 116.637L320.072 113.449C320.072 113.449 322.856 102.815 323.24 101.278H323.23Z" fill="white" stroke="black" stroke-linecap="round" stroke-linejoin="round"/>
<path d="M345.003 79.064C344.92 79.1055 345.46 80.0298 346.031 81.6499C346.602 83.2596 347.122 85.5755 347.288 88.1821C347.371 89.4907 347.381 90.7369 347.361 91.8689C347.329 93.0112 347.34 94.029 347.049 94.7975C346.769 95.566 346.218 96.0229 345.802 96.2099C345.387 96.4072 345.107 96.4072 345.107 96.4487" fill="white"/>
<path d="M345.003 79.064C344.92 79.1055 345.46 80.0298 346.031 81.6499C346.602 83.2596 347.122 85.5755 347.288 88.1821C347.371 89.4907 347.381 90.7369 347.361 91.8689C347.329 93.0112 347.34 94.029 347.049 94.7975C346.769 95.566 346.218 96.0229 345.802 96.2099C345.387 96.4072 345.107 96.4072 345.107 96.4487" stroke="black" stroke-linecap="round" stroke-linejoin="round"/>
<path d="M349.086 96.1995C348.94 96.1995 348.847 97.0822 348.276 97.9649C347.725 98.8581 346.977 99.3566 347.05 99.4812" fill="white"/>
<path d="M349.086 96.1995C348.94 96.1995 348.847 97.0822 348.276 97.9649C347.725 98.8581 346.977 99.3566 347.05 99.4812" stroke="black" stroke-linecap="round" stroke-linejoin="round"/>
<path d="M350.477 127.718L337.42 144.594V116.98L316.178 111.123C316.178 111.123 311.462 141.925 312.552 153.39C313.643 164.856 315.149 176.539 326.96 177.515C338.771 178.491 358.653 161.626 365.56 149.693C372.468 137.771 376.852 133.046 376.488 126.046" fill="white"/>
<path d="M350.477 127.718L337.42 144.594V116.98L316.178 111.123C316.178 111.123 311.462 141.925 312.552 153.39C313.643 164.856 315.149 176.539 326.96 177.515C338.771 178.491 358.653 161.626 365.56 149.693C372.468 137.771 376.852 133.046 376.488 126.046" stroke="black" stroke-linecap="round" stroke-linejoin="round"/>
<path d="M319.118 193.924L310.039 155.021C309.914 154.481 309.478 154.066 308.927 153.982L253.749 145.612C253.053 145.508 252.377 145.892 252.128 146.547L251.588 147.928L318.152 197.465L319.118 193.924Z" fill="#BACCFF" stroke="black" stroke-linecap="round" stroke-linejoin="round"/>
<path d="M317.715 195.783L308.034 157.493C307.899 156.963 307.462 156.568 306.932 156.485L253.114 148.167C252.429 148.063 251.868 148.728 252.107 149.392L265.621 186.716C265.839 187.308 266.348 187.745 266.971 187.869L316.437 197.154C317.237 197.299 317.912 196.572 317.715 195.793V195.783Z" fill="#DBE0F1" stroke="black" stroke-miterlimit="10"/>
<path d="M211.938 169.903C250.424 166.486 264.718 213.323 298.363 211.672C358.964 208.702 361.478 145.716 358.185 107.239C354.882 68.7618 370.287 50.0686 386.221 41.2827C402.166 32.4865 417.561 53.3814 420.313 70.4131C423.056 87.4551 399.424 150.109 377.984 191.327C363.867 218.453 345.938 236.555 335.332 245.746C330.076 250.305 323.74 253.451 316.936 254.947L307.764 256.962C290.479 260.752 272.602 261.012 255.203 257.751L190.613 245.6C187.33 244.988 184.328 243.326 182.053 240.875C178.417 236.949 173.016 235.163 167.749 236.15L160.26 237.541C160.26 237.541 152.563 230.365 156.957 213.323C161.351 196.281 173.452 173.32 211.938 169.903Z" fill="#BACCFF" stroke="black" stroke-linecap="round" stroke-linejoin="round"/>
<path d="M363.004 335.608L324.934 252.309L328.476 250.689L366.557 335.608H363.004Z" fill="black" stroke="black" stroke-miterlimit="10"/>
<path d="M317.082 51.429C318.308 55.2092 321.632 58.2624 325.61 56.5281C331.302 54.046 335.956 62.3542 338.865 60.4225C341.607 58.6051 338.47 49.8297 336.538 46.5272C334.595 43.2247 331.375 41.4696 328.269 40.1715C324.291 38.4994 320.115 37.2636 316.043 37.7725C313.467 38.0944 304.367 43.3805 307.432 48.355C309.79 52.1871 314.838 44.5125 317.071 51.429H317.082Z" fill="black" stroke="black" stroke-miterlimit="10"/>
<path d="M468.315 164.129C448.215 195.118 430.961 227.935 417.062 262.154C413.115 271.885 409.459 281.72 405.189 291.316C404.971 291.793 404.213 291.471 404.348 290.973C409.043 273.183 416.865 256.12 424.708 239.535C432.633 222.784 441.38 206.417 450.916 190.528C456.338 181.493 462.02 172.624 467.951 163.921C468.097 163.703 468.46 163.9 468.315 164.118V164.129Z" fill="black" stroke="black" stroke-miterlimit="10"/>
<path d="M452.359 189.24C456.057 190.652 478.099 163.786 471.212 160.504C465.104 157.586 450.53 184.182 452.359 189.24Z" fill="black" stroke="black" stroke-miterlimit="10"/>
<path d="M439.79 210.914C443.021 208.619 432.83 175.397 426.286 179.312C420.48 182.78 434.576 209.647 439.79 210.914Z" fill="black" stroke="black" stroke-miterlimit="10"/>
<path d="M451.528 190.424C453.855 185.72 455.268 158.583 446.085 159.933C439.489 160.899 448.588 189.448 451.528 190.424Z" fill="black" stroke="black" stroke-miterlimit="10"/>
<path d="M450.031 193.404C453.096 195.502 481.08 192.158 479.407 184.733C478.047 178.709 449.751 189.012 450.031 193.404Z" fill="black" stroke="black" stroke-miterlimit="10"/>
<path d="M442.76 204.953C444.63 208.442 478.877 202.533 475.823 195.554C473.112 189.354 444.681 199.937 442.76 204.953Z" fill="black" stroke="black" stroke-miterlimit="10"/>
<path d="M432.935 223.262C436.134 220.925 425.539 187.828 419.047 191.826C413.282 195.367 427.699 222.057 432.935 223.262Z" fill="black" stroke="black" stroke-miterlimit="10"/>
<path d="M432.83 224.695C436.912 227.997 463.079 235.34 463.785 226.087C464.294 219.44 434.44 222.057 432.83 224.695Z" fill="black" stroke="black" stroke-miterlimit="10"/>
<path d="M426.348 236.596C428.539 239.598 456.056 245.694 456.939 238.123C457.645 231.996 427.542 232.349 426.348 236.596Z" fill="black" stroke="black" stroke-miterlimit="10"/>
<path d="M425.497 238.019C428.842 235.9 420.49 202.169 413.748 205.721C407.765 208.868 420.355 236.461 425.497 238.019Z" fill="black" stroke="black" stroke-miterlimit="10"/>
<path d="M438.262 213.863C442.863 216.377 469.923 218.931 468.967 209.699C468.282 203.073 439.373 210.976 438.262 213.863Z" fill="black" stroke="black" stroke-miterlimit="10"/>
<path d="M420.926 249.983C422.027 253.784 456.763 255.144 455.226 247.677C453.865 241.052 423.855 245.476 420.926 249.983Z" fill="black" stroke="black" stroke-miterlimit="10"/>
<path d="M411.504 271.864C415.586 275.167 441.753 282.509 442.459 273.256C442.968 266.609 413.114 269.227 411.504 271.864Z" fill="black" stroke="black" stroke-miterlimit="10"/>
<path d="M407.246 282.156C409.438 285.157 436.955 291.253 437.838 283.683C438.544 277.555 408.441 277.909 407.246 282.156Z" fill="black" stroke="black" stroke-miterlimit="10"/>
<path d="M416.553 261.604C421.154 264.117 448.214 266.672 447.258 257.439C446.573 250.814 417.664 258.717 416.553 261.604Z" fill="black" stroke="black" stroke-miterlimit="10"/>
<path d="M446.199 199.615C442.636 198.566 427.564 174.753 434.388 171.367C439.915 168.625 449.793 197.06 446.199 199.615Z" fill="black" stroke="black" stroke-miterlimit="10"/>
<path d="M417.083 257.865C419.971 255.154 405.418 223.604 399.455 228.361C394.168 232.577 411.733 257.304 417.083 257.865Z" fill="black" stroke="black" stroke-miterlimit="10"/>
<path d="M411.951 271.013C414.807 268.271 399.87 236.887 393.97 241.716C388.735 245.995 406.591 270.514 411.951 271.013Z" fill="black" stroke="black" stroke-miterlimit="10"/>
<path d="M406.56 286.642C409.593 284.098 396.795 251.79 390.583 256.214C385.068 260.139 401.252 285.791 406.56 286.642Z" fill="black" stroke="black" stroke-miterlimit="10"/>
<path d="M421.912 245.808C418.235 245.247 400.109 223.667 406.414 219.399C411.525 215.94 425.122 242.796 421.912 245.808Z" fill="black" stroke="black" stroke-miterlimit="10"/>
<path d="M400.733 175.573C397.596 192.117 388.787 204.34 388.787 204.34C388.787 204.34 385.068 189.739 388.205 173.195C391.342 156.651 396.692 143.774 400.151 144.428C403.61 145.082 403.87 159.03 400.733 175.573Z" fill="white" stroke="black" stroke-miterlimit="10"/>
<path d="M408.907 193.487C400.181 203.727 389.232 208.733 389.232 208.733C389.232 208.733 392.421 197.122 401.147 186.883C409.873 176.643 418.681 169.809 420.821 171.637C422.961 173.465 417.632 183.248 408.907 193.487Z" fill="white" stroke="black" stroke-miterlimit="10"/>
<path d="M408.117 210.654C399.392 220.894 388.443 225.9 388.443 225.9C388.443 225.9 391.632 214.289 400.358 204.049C409.083 193.809 417.892 186.976 420.032 188.804C422.172 190.632 416.843 200.414 408.117 210.654Z" fill="white" stroke="black" stroke-miterlimit="10"/>
<path d="M409.426 227.073C400.7 237.313 389.752 242.319 389.752 242.319C389.752 242.319 392.941 230.708 401.667 220.468C410.392 210.228 419.201 203.395 421.341 205.223C423.48 207.051 418.152 216.833 409.426 227.073Z" fill="white" stroke="black" stroke-miterlimit="10"/>
<path d="M413.207 243.305C404.482 253.545 393.533 258.55 393.533 258.55C393.533 258.55 396.722 246.94 405.448 236.7C414.173 226.46 422.982 219.627 425.122 221.455C427.262 223.283 421.933 233.065 413.207 243.305Z" fill="white" stroke="black" stroke-miterlimit="10"/>
<path d="M416.178 258.322C407.452 268.562 396.504 273.568 396.504 273.568C396.504 273.568 399.693 261.957 408.418 251.717C417.144 241.477 425.953 234.644 428.093 236.472C430.232 238.3 424.904 248.082 416.178 258.322Z" fill="white" stroke="black" stroke-miterlimit="10"/>
<path d="M380.673 187.298C387.592 198.836 388.817 210.81 388.817 210.81C388.817 210.81 378.845 204.07 371.927 192.532C365.009 180.994 361.363 170.464 363.783 169.02C366.193 167.577 373.755 175.76 380.673 187.298Z" fill="white" stroke="black" stroke-miterlimit="10"/>
<path d="M378.399 206.656C386.689 217.249 389.4 228.984 389.4 228.984C389.4 228.984 378.669 223.532 370.37 212.939C362.08 202.346 357.157 192.345 359.369 190.611C361.582 188.877 370.1 196.063 378.399 206.656Z" fill="white" stroke="black" stroke-miterlimit="10"/>
<path d="M380.124 227.997C388.413 238.59 391.124 250.325 391.124 250.325C391.124 250.325 380.394 244.873 372.094 234.28C363.805 223.688 358.881 213.687 361.094 211.952C363.306 210.218 371.824 217.404 380.124 227.997Z" fill="white" stroke="black" stroke-miterlimit="10"/>
<path d="M376.26 242.443C386.855 250.731 392.308 261.469 392.308 261.469C392.308 261.469 380.581 258.758 369.975 250.471C359.38 242.184 352.191 233.657 353.926 231.445C355.661 229.233 365.654 234.156 376.26 242.443Z" fill="white" stroke="black" stroke-miterlimit="10"/>
<path d="M377.194 258.924C389.212 264.979 396.66 274.429 396.66 274.429C396.66 274.429 384.621 274.076 372.602 268.022C360.584 261.967 351.869 255.03 353.136 252.517C354.403 250.003 365.175 252.87 377.194 258.924Z" fill="white" stroke="black" stroke-miterlimit="10"/>
<path d="M392.287 182.843C389.149 191.276 388.412 201.297 387.695 210.208C386.927 219.783 387.093 229.441 387.955 239.006C388.765 248.062 390.219 257.055 392.349 265.893C393.502 270.67 394.811 275.416 396.442 280.058C397.782 283.87 399.09 288.47 401.739 291.565C402.248 292.157 403.401 291.752 403.339 290.942C403.079 286.964 401.158 282.966 399.953 279.175C398.529 274.699 397.169 270.213 396.005 265.664C393.658 256.494 392.016 247.137 391.133 237.718C390.292 228.807 390.167 219.855 390.521 210.914C390.895 201.515 392.92 192.356 393.533 183.019C393.585 182.272 392.536 182.199 392.297 182.832L392.287 182.843Z" fill="white" stroke="black" stroke-miterlimit="10"/>
<path d="M443.384 294.348H370.4V281.824H443.384V294.348Z" fill="#DBE0F1" stroke="black" stroke-miterlimit="10"/>
<path d="M432.071 335.608H381.733L376.279 294.348H437.525L432.071 335.608Z" fill="#DBE0F1" stroke="black" stroke-miterlimit="10"/>
<path d="M262.816 182.375C266.15 182.739 266.763 181.596 266.597 179.457C266.431 177.318 261.819 175.635 261.819 175.635L260.801 175.106" fill="white"/>
<path d="M262.816 182.375C266.15 182.739 266.763 181.596 266.597 179.457C266.431 177.318 261.819 175.635 261.819 175.635L260.801 175.106" stroke="black" stroke-linecap="round" stroke-linejoin="round"/>
<path d="M257.03 180.527C256.988 180.662 259.585 181.493 262.816 182.386L257.03 180.527Z" fill="white"/>
<path d="M257.03 180.527C256.988 180.662 259.585 181.493 262.816 182.386" stroke="black" stroke-linecap="round" stroke-linejoin="round"/>
<path d="M257.736 169.996C259.107 169.664 262.141 169.924 262.982 171.066C263.418 171.648 263.657 172.468 263.314 173.112C262.982 173.725 262.245 173.974 261.569 174.171C260.967 174.348 259.336 174.483 258.734 174.659" fill="white"/>
<path d="M257.736 169.996C259.107 169.664 262.141 169.924 262.982 171.066C263.418 171.648 263.657 172.468 263.314 173.112C262.982 173.725 262.245 173.974 261.569 174.171C260.967 174.348 259.336 174.483 258.734 174.659" stroke="black" stroke-linecap="round" stroke-linejoin="round"/>
<path d="M304.138 162.442C304.988 162.271 305.491 161.216 305.263 160.086C305.035 158.956 304.162 158.178 303.313 158.349C302.464 158.521 301.96 159.576 302.188 160.706C302.416 161.836 303.289 162.613 304.138 162.442Z" fill="white" stroke="black" stroke-miterlimit="10"/>
<path d="M306.594 165.483C307.05 165.392 307.32 164.825 307.198 164.218C307.075 163.61 306.606 163.193 306.151 163.284C305.695 163.376 305.425 163.943 305.548 164.55C305.67 165.157 306.139 165.575 306.594 165.483Z" fill="white" stroke="black" stroke-miterlimit="10"/>
<path d="M34.9752 9.5769H0.519531V217.882C3.8955 217.882 3.8955 222.036 7.27146 222.036C10.6474 222.036 10.6474 217.882 14.013 217.882C17.3786 217.882 17.389 222.036 20.7649 222.036C24.1409 222.036 24.1409 217.882 27.5169 217.882C30.8928 217.882 30.8928 222.036 34.2688 222.036C34.5285 222.036 34.757 222.005 34.9752 221.964V9.5769Z" fill="white" stroke="black" stroke-linecap="round" stroke-linejoin="round"/>
<path d="M126.064 99.5953C121.411 96.6148 114.96 96.5629 110.431 99.72C106.131 102.721 103.949 108.194 104.136 113.439C104.323 118.683 106.868 125.091 111.615 127.843L125.566 127.791C130.022 124.52 133.034 119.244 133.242 113.719C133.45 108.194 130.728 102.576 126.075 99.5953H126.064Z" fill="#BACCFF" stroke="black" stroke-width="0.75" stroke-miterlimit="10"/>
<path d="M119.198 128.352C119.198 128.352 119.136 127.926 119.115 127.147C119.094 126.285 119.063 125.195 119.021 123.876C118.949 121.113 118.845 117.302 118.658 113.096C118.471 108.89 118.242 105.079 118.076 102.316C117.993 101.008 117.931 99.9068 117.879 99.0553C117.837 98.2868 117.827 97.8506 117.858 97.8506C117.889 97.8506 117.951 98.266 118.045 99.0345C118.138 99.803 118.253 100.914 118.377 102.295C118.627 105.047 118.907 108.859 119.094 113.075C119.281 117.292 119.333 121.113 119.323 123.876C119.323 125.257 119.302 126.379 119.271 127.147C119.25 127.916 119.219 128.352 119.188 128.352H119.198Z" fill="white" stroke="black" stroke-width="0.5" stroke-miterlimit="10"/>
<path d="M105.538 112.255C105.538 112.38 104.77 112.411 103.845 112.338C102.921 112.265 102.183 112.099 102.193 111.974C102.193 111.85 102.962 111.819 103.887 111.891C104.811 111.964 105.549 112.13 105.538 112.255Z" fill="white" stroke="black" stroke-width="0.5" stroke-miterlimit="10"/>
<path d="M105.798 107.55C105.746 107.665 105.092 107.478 104.334 107.145C103.575 106.813 103.004 106.45 103.056 106.335C103.108 106.221 103.762 106.408 104.521 106.74C105.279 107.073 105.85 107.436 105.798 107.55Z" fill="white" stroke="black" stroke-width="0.5" stroke-miterlimit="10"/>
<path d="M108.217 104.061C108.155 104.165 107.417 103.822 106.659 103.178C105.89 102.545 105.412 101.891 105.506 101.807C105.599 101.724 106.202 102.223 106.939 102.836C107.677 103.448 108.29 103.947 108.217 104.061Z" fill="white" stroke="black" stroke-width="0.5" stroke-miterlimit="10"/>
<path d="M110.648 100.758C110.534 100.81 110.181 100.26 109.859 99.533C109.537 98.806 109.37 98.1725 109.474 98.1206C109.588 98.0687 109.942 98.6191 110.264 99.346C110.586 100.073 110.752 100.706 110.648 100.758Z" fill="white" stroke="black" stroke-width="0.5" stroke-miterlimit="10"/>
<path d="M114.472 98.4219C114.357 98.4738 113.983 97.8922 113.734 97.0718C113.485 96.2618 113.464 95.5659 113.578 95.5452C113.703 95.5244 113.911 96.1579 114.16 96.9368C114.25 97.2295 114.486 98.4606 114.472 98.4219Z" fill="white" stroke="black" stroke-width="0.5" stroke-miterlimit="10"/>
<path d="M121.431 95.9398C121.545 95.9813 121.472 96.4798 121.275 97.0614C121.067 97.6325 120.818 98.0687 120.693 98.0272C120.579 97.9856 120.652 97.4872 120.849 96.9056C121.057 96.3344 121.306 95.8982 121.431 95.9398Z" fill="white" stroke="black" stroke-width="0.5" stroke-miterlimit="10"/>
<path d="M125.576 97.8195C125.659 97.913 125.357 98.3284 124.9 98.7542C124.443 99.18 124.007 99.45 123.924 99.3565C123.841 99.2631 124.142 98.8477 124.599 98.4219C125.056 97.9961 125.492 97.7261 125.576 97.8195Z" fill="white" stroke="black" stroke-width="0.5" stroke-miterlimit="10"/>
<path d="M129.741 100.509C129.813 100.613 129.439 100.987 128.91 101.34C128.38 101.693 127.902 101.901 127.829 101.797C127.757 101.693 128.131 101.319 128.66 100.966C129.19 100.613 129.668 100.405 129.741 100.509Z" fill="white" stroke="black" stroke-width="0.5" stroke-miterlimit="10"/>
<path d="M132.691 104.508C132.743 104.622 132.161 104.975 131.392 105.307C130.624 105.639 129.959 105.806 129.917 105.691C129.865 105.577 130.447 105.224 131.216 104.892C131.984 104.57 132.649 104.393 132.691 104.508Z" fill="white" stroke="black" stroke-width="0.5" stroke-miterlimit="10"/>
<path d="M133.854 108.88C133.864 109.004 133.272 109.17 132.534 109.264C131.787 109.357 131.174 109.337 131.153 109.212C131.132 109.087 131.735 108.921 132.482 108.828C132.75 108.794 133.854 108.438 133.854 108.88Z" fill="white" stroke="black" stroke-width="0.5" stroke-miterlimit="10"/>
<path d="M134.457 114.259C134.405 114.373 133.771 114.207 133.044 113.885C132.317 113.563 131.756 113.221 131.808 113.106C131.86 112.992 132.494 113.158 133.221 113.48C133.948 113.802 134.498 114.145 134.457 114.259Z" fill="white" stroke="black" stroke-width="0.5" stroke-miterlimit="10"/>
<path d="M133.928 118.881C133.887 118.995 133.087 118.808 132.256 118.257C131.414 117.717 130.926 117.053 131.009 116.98C131.103 116.887 131.705 117.375 132.495 117.884C133.284 118.403 133.97 118.766 133.928 118.881Z" fill="white" stroke="black" stroke-width="0.5" stroke-miterlimit="10"/>
<path d="M131.528 123.086C131.455 123.18 130.822 122.806 130.209 122.152C129.596 121.498 129.274 120.833 129.368 120.771C129.471 120.698 129.949 121.228 130.531 121.851C131.113 122.484 131.601 122.993 131.528 123.086Z" fill="white" stroke="black" stroke-width="0.5" stroke-miterlimit="10"/>
<path d="M108.696 123.575C108.748 123.678 108.083 124.146 107.2 124.603C106.317 125.06 105.559 125.34 105.507 125.236C105.455 125.132 106.12 124.665 107.003 124.208C107.886 123.751 108.644 123.471 108.696 123.575Z" fill="white" stroke="black" stroke-width="0.5" stroke-miterlimit="10"/>
<path d="M106.607 119.774C106.659 119.888 106.119 120.241 105.412 120.563C104.706 120.885 104.083 121.051 104.031 120.947C103.979 120.833 104.519 120.48 105.225 120.158C105.932 119.836 106.555 119.67 106.607 119.774Z" fill="white" stroke="black" stroke-width="0.5" stroke-miterlimit="10"/>
<path d="M105.081 116.409C105.102 116.534 104.437 116.72 103.606 116.845C102.775 116.959 102.09 116.959 102.069 116.845C102.048 116.72 102.713 116.534 103.544 116.409C104.375 116.295 105.06 116.295 105.081 116.409Z" fill="white" stroke="black" stroke-width="0.5" stroke-miterlimit="10"/>
<path d="M110.013 114.086C110.034 114.21 109.369 114.397 108.538 114.522C107.707 114.636 107.021 114.636 107 114.522C106.98 114.397 107.645 114.21 108.476 114.086C109.307 113.971 109.992 113.971 110.013 114.086Z" fill="white" stroke="black" stroke-width="0.5" stroke-miterlimit="10"/>
<path d="M114.284 110.396C114.315 110.51 113.806 110.77 113.121 110.832C112.435 110.905 111.874 110.749 111.895 110.624C111.905 110.5 112.435 110.448 113.079 110.385C113.723 110.323 114.253 110.271 114.284 110.385V110.396Z" fill="white" stroke="black" stroke-width="0.5" stroke-miterlimit="10"/>
<path d="M115.083 107.073C115.042 107.187 114.491 107.104 113.847 106.886C113.203 106.668 112.715 106.387 112.756 106.273C112.798 106.159 113.348 106.242 113.992 106.46C114.637 106.678 115.125 106.958 115.083 107.073Z" fill="white" stroke="black" stroke-width="0.5" stroke-miterlimit="10"/>
<path d="M114.369 116.191C114.392 116.31 113.878 116.524 113.215 116.671C112.551 116.818 111.988 116.831 111.964 116.711C111.941 116.592 112.455 116.378 113.119 116.231C113.782 116.084 114.345 116.072 114.369 116.191Z" fill="white" stroke="black" stroke-width="0.5" stroke-miterlimit="10"/>
<path d="M116.612 103.698C116.529 103.781 116.145 103.531 115.875 103.064C115.604 102.597 115.573 102.14 115.688 102.109C115.812 102.077 116.01 102.431 116.259 102.846C116.348 103.001 117.001 103.5 116.612 103.698Z" fill="white" stroke="black" stroke-width="0.5" stroke-miterlimit="10"/>
<path d="M115.624 123.388C115.666 123.502 115.053 123.845 114.263 124.167C113.464 124.478 112.778 124.644 112.736 124.53C112.695 124.416 113.308 124.073 114.108 123.751C114.523 123.589 115.5 123 115.624 123.388Z" fill="white" stroke="black" stroke-width="0.5" stroke-miterlimit="10"/>
<path d="M110.908 120.76C110.95 120.875 110.545 121.124 109.994 121.3C109.454 121.487 108.976 121.539 108.935 121.425C108.893 121.311 109.298 121.062 109.849 120.885C110.389 120.698 110.867 120.646 110.908 120.76Z" fill="white" stroke="black" stroke-width="0.5" stroke-miterlimit="10"/>
<path d="M111.272 108.755C111.241 108.869 110.534 108.807 109.714 108.506C108.893 108.215 108.301 107.82 108.353 107.717C108.405 107.602 109.07 107.81 109.869 108.09C110.669 108.371 111.313 108.63 111.282 108.755H111.272Z" fill="white" stroke="black" stroke-width="0.5" stroke-miterlimit="10"/>
<path d="M122.687 107.447C122.76 107.55 122.355 107.935 121.794 108.298C121.233 108.672 120.724 108.88 120.651 108.786C120.578 108.682 120.983 108.298 121.544 107.935C122.105 107.561 122.614 107.353 122.687 107.447Z" fill="white" stroke="black" stroke-width="0.5" stroke-miterlimit="10"/>
<path d="M123.312 113.366C123.332 113.491 122.917 113.678 122.377 113.792C121.837 113.906 121.369 113.896 121.348 113.781C121.328 113.657 121.743 113.47 122.283 113.356C122.823 113.241 123.291 113.252 123.312 113.366Z" fill="white" stroke="black" stroke-width="0.5" stroke-miterlimit="10"/>
<path d="M124.027 120.033C123.975 120.148 123.373 119.971 122.677 119.649C121.981 119.327 121.461 118.974 121.513 118.86C121.565 118.746 122.168 118.922 122.864 119.244C123.56 119.566 124.079 119.919 124.027 120.033Z" fill="white" stroke="black" stroke-width="0.5" stroke-miterlimit="10"/>
<path d="M122.501 126.524C122.407 126.607 122.013 126.285 121.628 125.807C121.234 125.33 120.995 124.883 121.099 124.81C121.192 124.727 121.587 125.049 121.971 125.527C122.366 126.005 122.605 126.451 122.501 126.524Z" fill="white" stroke="black" stroke-width="0.5" stroke-miterlimit="10"/>
<path d="M122.189 103.085C122.262 103.178 122.002 103.51 121.556 103.729C121.109 103.957 120.693 103.967 120.662 103.853C120.631 103.729 120.953 103.542 121.358 103.334C121.763 103.137 122.106 102.991 122.189 103.085Z" fill="white" stroke="black" stroke-width="0.5" stroke-miterlimit="10"/>
<path d="M127.788 109.056C127.83 109.17 127.31 109.451 126.604 109.555C125.898 109.659 125.316 109.524 125.326 109.399C125.326 109.274 125.877 109.202 126.542 109.108C127.206 109.015 127.747 108.932 127.788 109.056Z" fill="white" stroke="black" stroke-width="0.5" stroke-miterlimit="10"/>
<path d="M126.667 103.697C126.718 103.801 126.209 104.175 125.472 104.404C124.745 104.643 124.111 104.643 124.09 104.518C124.07 104.393 124.641 104.206 125.337 103.978C126.033 103.76 126.604 103.583 126.667 103.697Z" fill="white" stroke="black" stroke-width="0.5" stroke-miterlimit="10"/>
<path d="M127.062 117.364C126.002 117.177 125.202 116.793 125.244 116.679C125.285 116.565 126.116 116.741 127.134 116.928C128.152 117.115 129 117.364 129 117.5C129 118 127.398 117.427 127.062 117.364Z" stroke="black" stroke-width="0.5" stroke-miterlimit="10"/>
<path d="M125.554 124.229C124.91 123.585 124.526 122.931 124.619 122.858C124.713 122.785 125.243 123.284 125.866 123.917C126.489 124.551 127 125 126.915 125.164C127 125.5 125.769 124.443 125.554 124.229Z" fill="white" stroke="black" stroke-width="0.5" stroke-miterlimit="10"/>
<path d="M117.785 97.3522C117.847 97.4457 116.009 98.1934 113.879 100.437C111.75 102.628 109.558 106.502 109.018 111.185C108.758 113.512 108.976 115.765 109.309 117.769C109.651 119.784 110.119 121.56 110.545 123.055C110.971 124.541 111.365 125.735 111.625 126.555C111.885 127.386 112.03 127.843 111.999 127.853C111.968 127.853 111.77 127.428 111.459 126.618C111.147 125.808 110.701 124.634 110.233 123.149C109.766 121.664 109.267 119.878 108.893 117.842C108.54 115.817 108.301 113.532 108.561 111.133C109.111 106.346 111.407 102.399 113.64 100.219C114.752 99.1073 115.79 98.3699 116.549 97.9442C116.923 97.7157 117.234 97.5911 117.442 97.4768C117.65 97.3834 117.764 97.3314 117.764 97.3522H117.785Z" fill="white" stroke="black" stroke-width="0.5" stroke-miterlimit="10"/>
<path d="M123.851 128.134C123.757 128.082 124.848 126.4 125.856 123.357C126.884 120.355 127.736 115.9 127.05 111.061C126.728 108.651 126.032 106.418 125.149 104.508C124.235 102.628 123.061 101.08 121.919 100.011C120.734 98.9619 119.561 98.3596 118.75 98.0065C117.93 97.6638 117.431 97.5807 117.442 97.5495C117.442 97.5392 117.566 97.5495 117.805 97.5807C118.044 97.6222 118.387 97.7053 118.813 97.8507C119.665 98.1623 120.869 98.7231 122.126 99.772C123.352 100.862 124.557 102.399 125.523 104.331C126.437 106.273 127.164 108.547 127.486 110.998C128.182 115.921 127.268 120.438 126.146 123.461C125.897 124.229 125.575 124.883 125.326 125.486C125.035 126.057 124.806 126.555 124.588 126.95C124.131 127.729 123.871 128.155 123.851 128.134Z" fill="white" stroke="black" stroke-width="0.5" stroke-miterlimit="10"/>
<path d="M106.607 127.074H131.153L131.299 131.987H106.607V127.074Z" fill="white" stroke="black" stroke-miterlimit="10"/>
<path d="M108.104 131.914L109.506 146.91H127.456L128.889 132.08L108.104 131.914Z" fill="white" stroke="black" stroke-miterlimit="10"/>
</svg>
