<svg width="180" height="180" viewBox="0 0 180 180" fill="none" xmlns="http://www.w3.org/2000/svg">
<rect width="180" height="180" rx="90" fill="#E4EBF5"/>
<g clip-path="url(#clip0_8978_28251)">
<path d="M33.3703 48.8147H36.9178C37.4246 41.1495 43.7941 35.0771 51.5747 35.0771C52.6777 35.0771 53.7509 35.2065 54.7843 35.4355C55.3507 26.5359 62.7239 19.4978 71.7466 19.4978C80.7792 19.4978 88.1723 26.5558 88.7188 35.4753C89.8914 35.2165 91.1037 35.0771 92.3557 35.0771C101.746 35.0771 109.358 42.7025 109.358 52.1098C109.358 61.5171 101.746 69.1425 92.3557 69.1425C92.0874 69.1425 91.829 69.1425 91.5707 69.1226C91.372 69.1325 91.1633 69.1425 90.9645 69.1425H33.3703C27.7858 69.1425 23.2148 64.5633 23.2148 58.9686C23.2148 53.374 27.7858 48.7948 33.3703 48.7948V48.8147Z" fill="white" stroke="black" stroke-miterlimit="10"/>
<path d="M161.723 46.7639C99.7074 46.7639 49.2578 97.3045 49.2578 159.433C49.2578 159.452 49.2578 159.482 49.2578 159.502H100.135C100.135 159.502 100.135 159.452 100.135 159.433C100.135 125.407 127.769 97.7326 161.723 97.7326C162.32 97.7326 162.906 97.7624 163.502 97.7724V46.8037C162.906 46.8037 162.32 46.7639 161.723 46.7639Z" fill="black" stroke="black" stroke-miterlimit="10"/>
<path d="M153.249 55.2553C153.845 55.2553 154.431 55.2852 155.028 55.2951V38.3023C154.431 38.3023 153.845 38.2625 153.249 38.2625C91.2328 38.2625 40.7832 88.803 40.7832 150.931C40.7832 150.951 40.7832 150.981 40.7832 151.001H57.7455C57.7455 151.001 57.7455 150.951 57.7455 150.931C57.7455 98.1705 100.593 55.2454 153.259 55.2454L153.249 55.2553Z" fill="#FFDE66" stroke="black" stroke-miterlimit="10"/>
<path d="M153.248 72.2482C153.844 72.2482 154.43 72.2781 155.026 72.2881V55.2952C154.43 55.2852 153.844 55.2554 153.248 55.2554C100.582 55.2554 57.7344 98.1805 57.7344 150.941C57.7344 150.961 57.7344 150.991 57.7344 151.011H74.6966C74.6966 151.011 74.6966 150.961 74.6966 150.941C74.6966 107.548 109.933 72.2482 153.248 72.2482Z" fill="#BACCFF" stroke="black" stroke-miterlimit="10"/>
<path d="M153.248 89.2312C153.845 89.2312 154.431 89.261 155.027 89.271V72.2781C154.431 72.2681 153.845 72.2383 153.248 72.2383C109.933 72.2383 74.6973 107.538 74.6973 150.931C74.6973 150.951 74.6973 150.981 74.6973 151.001H91.6595C91.6595 151.001 91.6595 150.951 91.6595 150.931C91.6595 116.906 119.294 89.2312 153.248 89.2312Z" fill="#DBE0F1" stroke="black" stroke-miterlimit="10"/>
</g>
<defs>
<clipPath id="clip0_8978_28251">
<rect width="148" height="141" fill="white" transform="translate(16 19)"/>
</clipPath>
</defs>
</svg>
