<svg width="380" height="380" viewBox="0 0 380 380" fill="none" xmlns="http://www.w3.org/2000/svg">
<rect width="380" height="380" rx="20" fill="#E4EBF5"/>
<g clip-path="url(#clip0_10126_35900)">
<path d="M340.28 294.296C339.455 294.296 338.636 294.27 337.823 294.232C337.194 294.27 336.566 294.296 335.931 294.296H250.398L238.5 309.59H276.13L220.641 380H379.999V276.335C370.298 287.344 356.102 294.296 340.28 294.296Z" fill="#E4EBF5"/>
<path d="M380 16.1549V1H258.672C260.037 1.34919 260.767 1.53966 260.767 1.53966L141.585 21.7991L222.553 107.313L115.897 75.9048L126.62 139.089L67.2766 75.9429L58.4897 176.269L32.3955 104.532L1 180.554V263.548L117.452 380H205.868L220.819 331.843H186.262L207.087 294.296H156.663C139.28 294.296 125.058 280.074 125.058 262.691C125.058 245.307 139.28 231.086 156.663 231.086H167.698C169.272 207.258 189.094 188.408 213.321 188.408C216.756 188.408 220.096 188.802 223.314 189.519C225.079 161.876 248.044 139.997 276.131 139.997C304.219 139.997 327.253 161.939 328.961 189.64C332.611 188.846 336.395 188.414 340.281 188.414C356.109 188.414 370.299 195.366 380 206.376V134.467L320.841 75.308L380 16.1486V16.1549Z" fill="#E4EBF5"/>
<path d="M1 380H117.452L1 263.554V380Z" fill="#BACCFF"/>
<path d="M58.4897 176.269L67.2766 75.9429L126.62 139.089L115.897 75.9048L222.553 107.313L141.585 21.7991L260.767 1.53966C260.767 1.53966 260.043 1.34919 258.672 1H1V180.554L32.3892 104.532L58.4833 176.269H58.4897Z" fill="#FFDE66"/>
<path d="M340.281 188.414C336.396 188.414 332.612 188.846 328.961 189.64C327.26 161.939 304.264 139.997 276.132 139.997C247.999 139.997 225.073 161.876 223.315 189.519C220.096 188.802 216.756 188.408 213.322 188.408C189.094 188.408 169.273 207.252 167.698 231.086H156.664C139.28 231.086 125.059 245.307 125.059 262.691C125.059 280.074 139.28 294.296 156.664 294.296H207.087L225.435 261.218H276.138L250.406 294.296H335.939C336.574 294.296 337.202 294.27 337.831 294.232C338.643 294.27 339.462 294.296 340.288 294.296C356.116 294.296 370.305 287.344 380.007 276.335V206.376C370.305 195.366 356.109 188.414 340.288 188.414H340.281Z" fill="#BACCFF"/>
<path d="M238.501 309.59L250.399 294.296H207.08L186.256 331.843H220.819L205.861 380H220.642L276.131 309.59H238.501Z" fill="#FFDE66"/>
<path d="M276.131 261.218H225.429L207.08 294.296H250.399L276.131 261.218Z" fill="#FFDE66"/>
<path d="M320.848 75.3143L380.001 134.467V16.1549L320.848 75.3143Z" fill="white"/>
</g>
<defs>
<clipPath id="clip0_10126_35900">
<rect x="1" y="1" width="379" height="379" rx="20" fill="white"/>
</clipPath>
</defs>
</svg>
