<svg width="380" height="380" viewBox="0 0 380 380" fill="none" xmlns="http://www.w3.org/2000/svg">
<rect width="380" height="380" rx="20" fill="#E4EBF5"/>
<g clip-path="url(#clip0_10126_35846)">
<path d="M380.001 0H-0.0703125V380H380.001V0Z" fill="#E4EBF5"/>
<path d="M87.3807 359.369C87.1195 359.611 86.8455 359.84 86.597 360.088L161.13 286.545C169.018 278.76 182.614 275.233 199.377 273.871C187.093 266.913 172.904 262.941 157.778 262.941C111.114 262.941 73.2871 300.734 73.2871 347.357C73.2871 356.733 74.8226 365.754 77.6452 374.182C79.563 368.956 82.4811 364.213 86.6543 360.088L87.3807 359.369Z" fill="#BACCFF"/>
<path d="M184.015 347.84C173.298 347.369 162.734 346.911 152.674 346.746C155.114 357.599 158.51 368.86 161.874 380H235.7C239.79 370.267 242.103 359.604 242.243 348.426C224.435 349.61 204.104 348.725 184.015 347.84Z" fill="#BACCFF"/>
<path d="M133.291 98.038C118.503 100.565 104.091 105.543 96.3182 116.569L104.569 108.503C96.9043 115.996 92.7693 126.372 93.1579 137.353C93.6613 151.147 97.3312 167.309 104.289 186.203C127.564 189.08 156.057 196.388 187.2 210.392C212.953 225.536 213.947 224.193 237.744 241.603C251.074 251.362 264.014 263.349 274.406 274.953C311.545 276.328 347.027 275.845 363.115 260.21L363.306 260.026C368.454 254.946 371.481 248.237 371.735 239.439C372.048 228.872 355.654 206.516 334.284 186.432H256.483L259.7 223.684L215.992 186.432H163.97C155.254 186.432 148.181 179.372 148.181 170.658V97.5542C142.53 97.1723 137.516 97.3123 133.291 98.038Z" fill="white"/>
<path d="M259.409 135.538C250.744 131.012 242.091 126.811 233.566 122.992L253.26 144.431L259.409 135.538Z" fill="white"/>
<path d="M297.204 312.982C297.44 305.006 288.163 290.314 274.407 274.953C269.138 274.756 263.837 274.527 258.549 274.298C237.3 273.368 216.65 272.471 199.371 273.871C224.978 288.372 242.257 315.847 242.257 347.357C242.257 347.713 242.251 348.07 242.244 348.426C262.263 347.096 279.084 343.136 288.749 333.594L363.282 260.051C363.225 260.108 363.167 260.159 363.11 260.217L288.768 333.575C293.917 328.495 296.943 321.786 297.198 312.988L297.204 312.982Z" fill="#FFEA97"/>
<path d="M199.37 273.871C182.607 275.233 169.01 278.76 161.123 286.545L86.5898 360.088C86.8383 359.84 87.1123 359.611 87.3735 359.369L161.18 286.539C146.596 300.925 147.309 322.855 152.674 346.746C162.735 346.911 173.292 347.369 184.015 347.841C204.104 348.719 224.435 349.61 242.244 348.426C242.244 348.07 242.256 347.713 242.256 347.357C242.256 315.847 224.977 288.379 199.37 273.871Z" fill="#FFEA97"/>
<path d="M274.406 274.953C288.156 290.314 297.439 305.006 297.203 312.982C296.942 321.786 293.922 328.489 288.774 333.569L363.116 260.21C347.028 275.845 311.545 276.328 274.406 274.953Z" fill="#FFEA97"/>
<path d="M75.9439 380H79.8304C79.0276 378.097 78.2949 376.155 77.6323 374.175C76.9442 376.053 76.3771 377.995 75.9375 380H75.9439Z" fill="white"/>
<path d="M87.3801 359.369L86.6537 360.088C82.4741 364.207 79.5623 368.949 77.6445 374.182C78.3072 376.155 79.0399 378.097 79.8427 380.006H161.887C158.523 368.866 155.127 357.605 152.687 346.752C124.079 346.287 99.5877 348.254 87.3864 359.375L87.3801 359.369Z" fill="white"/>
<path d="M152.682 346.746C147.317 322.855 146.603 300.932 161.187 286.539L87.3809 359.369C99.5821 348.248 124.074 346.281 152.682 346.746Z" fill="white"/>
<path d="M74.8028 184.872C59.5752 185.598 45.1312 192.53 37.4536 203.931L95.9432 117.103C96.0643 116.925 96.1917 116.747 96.3191 116.569L29.6805 181.69C22.0157 189.182 17.8806 199.558 18.2693 210.539C19.0975 233.334 28.5718 262.578 47.2274 299.932L122.117 226.752C114.752 212.003 108.826 198.527 104.29 186.209C93.178 184.834 83.2514 184.471 74.8092 184.879L74.8028 184.872Z" fill="#FFEA97"/>
<path d="M104.564 108.503L96.3128 116.569C96.1854 116.747 96.0579 116.919 95.9369 117.103L37.4473 203.931C45.1312 192.53 59.5688 185.598 74.7965 184.872C83.2386 184.465 93.1653 184.834 104.277 186.203C97.3258 167.316 93.6495 151.153 93.1462 137.353C92.7639 126.378 96.8926 115.996 104.557 108.503H104.564Z" fill="#FFEA97"/>
<path d="M148.487 0C148.29 0.999414 148.182 2.03702 148.182 3.09373V97.5542C169.73 99.0183 200.65 108.223 233.565 122.985L211.367 98.8146L226.518 84.9247L250.991 111.565L306.849 30.7909L323.772 42.4719L259.407 135.538C272.845 142.566 286.301 150.389 299.28 158.881C305.428 162.898 309.735 166.068 311.819 167.736C311.965 167.844 312.118 167.952 312.265 168.061C319.86 173.624 327.333 179.907 334.278 186.438H375.641C377.151 186.438 378.604 186.222 379.987 185.827V0H148.487Z" fill="#FFDE66"/>
<path d="M323.772 42.4719L306.849 30.7909L250.991 111.565L226.518 84.9247L211.367 98.8146L233.565 122.985C242.09 126.805 250.749 131.006 259.408 135.532L323.772 42.4655V42.4719Z" fill="white"/>
<path d="M163.964 186.432H215.986L259.694 223.684L256.477 186.432H334.278C327.333 179.907 319.859 173.618 312.265 168.054C312.118 167.946 311.965 167.838 311.819 167.73C309.735 166.062 305.422 162.892 299.28 158.875C286.295 150.383 272.845 142.56 259.407 135.532L253.259 144.425L233.565 122.985C200.65 108.223 169.73 99.0183 148.182 97.5542V170.658C148.182 179.372 155.248 186.432 163.97 186.432H163.964Z" fill="#FFDE66"/>
</g>
<defs>
<clipPath id="clip0_10126_35846">
<rect x="13" width="367" height="380" rx="20" fill="white"/>
</clipPath>
</defs>
</svg>
