<svg width="380" height="380" viewBox="0 0 380 380" fill="none" xmlns="http://www.w3.org/2000/svg">
<g clip-path="url(#clip0_10126_35873)">
<rect width="380" height="380" rx="20" fill="white"/>
<g clip-path="url(#clip1_10126_35873)">
<path d="M380 0H0V380H380V0Z" fill="#E4EBF5"/>
<path d="M274.228 12.5468C274.228 8.26267 274.629 4.06768 275.393 0H0V136.43C11.0636 122.062 23.8141 108.039 38.1687 94.5114C74.6632 60.1049 110.979 38.8498 119.688 33.9673L109.025 13.0688L200.602 41.5043L168.449 129.561L159.983 112.972C150.523 118.542 123.781 135.233 97.4969 160.32C70.3664 186.222 37.7804 227.02 36.6728 274.304C35.8261 310.455 48.5575 340.959 74.5168 364.971C80.125 370.159 85.8223 374.551 91.1885 378.218V289.053H380V68.6222C369.159 75.9873 356.071 80.2968 341.978 80.2968C304.56 80.2968 274.228 49.9643 274.228 12.5468Z" fill="#E4EBF5"/>
<path d="M91.1895 378.211C92.0934 378.829 92.9846 379.427 93.863 380H380.001V289.041H91.1895V378.205V378.211Z" fill="#FFDE66"/>
<path d="M74.5168 364.958C48.5575 340.946 35.8197 310.442 36.6728 274.291C37.7867 227.013 70.3664 186.209 97.4969 160.307C123.781 135.22 150.523 118.529 159.983 112.959L168.449 129.548L200.602 41.4916L109.025 13.0688L119.688 33.9673C110.979 38.8498 74.6696 60.1112 38.1687 94.5114C23.8141 108.039 11.0636 122.062 0 136.43V380H91.1885V378.211C85.8286 374.545 80.125 370.152 74.5168 364.964V364.958Z" fill="#BACCFF"/>
<path d="M91.1895 380H93.863C92.9846 379.427 92.087 378.822 91.1895 378.211V380Z" fill="#BACCFF"/>
<path d="M275.393 0C274.63 4.06768 274.229 8.2563 274.229 12.5468C274.229 49.9643 304.561 80.2968 341.979 80.2968C356.072 80.2968 369.16 75.9936 380.001 68.6222V0H275.387H275.393Z" fill="#FFEA97"/>
<path d="M79.8894 323.18L80.8506 319.666L230.553 193.772L299.907 134.202L0 264.189V297.685L79.5711 323.454L79.8894 323.18Z" fill="white"/>
<path d="M100.769 333.365L151.892 290.282L286.921 174.299L299.36 135.908L230.553 193.772L79.8899 323.18L64.2812 380H73.1168L100.769 333.365Z" fill="#DBE0F1"/>
<path d="M79.8887 323.18L230.552 193.772L80.8499 319.666L79.8887 323.18Z" fill="#DBE0F1"/>
<path d="M131.731 340.348L86.3887 380H88.6485L133.38 340.883L131.731 340.348Z" fill="white"/>
<path d="M151.893 290.282L100.77 333.365L73.1172 380H86.3897L131.732 340.348L104.042 331.379L151.893 290.282Z" fill="white"/>
<path d="M322.556 146.462L272.318 219.394L133.381 340.883L209.133 365.416L220.126 336.37L248.956 343.792L324.383 142.12L286.921 174.299L285.947 177.31L322.556 146.462Z" fill="white"/>
<path d="M285.948 177.31L286.922 174.299L151.893 290.282L285.948 177.31Z" fill="white"/>
<path d="M322.557 146.462L285.948 177.31L273.21 216.637L131.732 340.348L133.381 340.883L272.319 219.394L322.557 146.462Z" fill="white"/>
<path d="M285.947 177.31L151.892 290.282L104.041 331.379L131.732 340.348L273.209 216.637L285.947 177.31Z" fill="white"/>
<path d="M209.133 365.416L248.957 343.792L220.126 336.37L209.133 365.416Z" fill="#DBE0F1"/>
</g>
</g>
<defs>
<clipPath id="clip0_10126_35873">
<rect width="380" height="380" rx="20" fill="white"/>
</clipPath>
<clipPath id="clip1_10126_35873">
<rect width="380" height="380" rx="20" fill="white"/>
</clipPath>
</defs>
</svg>
