<svg width="380" height="380" viewBox="0 0 380 380" fill="none" xmlns="http://www.w3.org/2000/svg">
<rect width="380" height="380" rx="190" fill="#E4EBF5"/>
<g clip-path="url(#clip0_10126_35518)">
<path d="M188.569 340.007C227.385 340.007 258.851 334.45 258.851 327.595C258.851 320.741 227.385 315.184 188.569 315.184C149.754 315.184 118.287 320.741 118.287 327.595C118.287 334.45 149.754 340.007 188.569 340.007Z" fill="black"/>
<path d="M72.5033 223.504C72.5033 223.504 70.2173 218.606 65.5425 217.747C60.8742 216.888 44.0566 219.311 44.0566 219.311C44.0566 219.311 34.5144 214.817 32.6265 215.458C30.7386 216.099 31.2266 218.818 31.2266 218.818C31.2266 218.818 42.0274 224.183 43.7933 225.068C45.5592 225.953 67.9249 225.934 72.5033 223.504Z" fill="white" stroke="black" stroke-miterlimit="10"/>
<path d="M44.8139 201.848C44.8139 201.848 40.8197 203.066 44.7432 207.567C48.6667 212.067 49.1804 210.471 49.7262 213.478L50.272 216.484L65.5485 217.741C65.5485 217.741 61.2398 213.888 57.5989 210.952C53.9579 208.009 48.9492 201.4 44.8203 201.848H44.8139Z" fill="white" stroke="black" stroke-miterlimit="10"/>
<path d="M41.4167 203.227C41.8084 202.637 42.9771 201.56 43.632 201.829C46.008 202.791 45.2053 205.778 45.0255 206.855C44.7108 208.695 40.569 214.433 40.569 214.433L43.9981 217.298L39.8177 218.048L34.0898 213.247C34.0898 213.247 38.4692 207.926 39.0086 207.003C39.5994 205.99 40.7296 204.265 41.4167 203.227Z" fill="white" stroke="black" stroke-miterlimit="10"/>
<path d="M20.7656 208.682C20.7656 208.682 22.0563 205.842 25.4211 207.246C28.7859 208.644 38.7263 217.023 38.7263 217.023L43.7028 217.055L50.2655 216.491L65.542 217.747C65.542 217.747 69.5939 219.068 73.055 223.78C73.055 223.78 75.5209 226.87 75.8997 227.299C76.2786 227.729 66.4217 234.812 66.4217 234.812C66.4217 234.812 62.7937 232.158 57.9455 231.331C53.1038 230.498 46.9842 229.402 45.7641 229.318C44.544 229.235 43.7157 229.088 42.4314 227.517C41.1471 225.946 33.4671 221.215 31.3545 219.497C29.2354 217.773 20.772 208.682 20.772 208.682H20.7656Z" fill="white" stroke="black" stroke-miterlimit="10"/>
<path d="M48.2695 209.817C49.5667 209.99 50.9408 209.528 51.8655 208.612L48.2695 209.817Z" fill="white"/>
<path d="M48.2695 209.817C49.5667 209.99 50.9408 209.528 51.8655 208.612" stroke="black" stroke-miterlimit="10"/>
<path d="M34.2191 221.632L26.9629 216.157C26.9629 216.157 28.1252 213.548 30.5139 213.888C32.9027 214.227 38.2324 218.343 38.2324 218.343L46.2913 219.959C46.2913 219.959 54.9281 215.74 61.8568 217.439" fill="white"/>
<path d="M34.2191 221.632L26.9629 216.157C26.9629 216.157 28.1252 213.548 30.5139 213.888C32.9027 214.227 38.2324 218.343 38.2324 218.343L46.2913 219.959C46.2913 219.959 54.9281 215.74 61.8568 217.439" stroke="black" stroke-miterlimit="10"/>
<path d="M75.894 227.299L91.1898 244.621L76.671 255.455L66.416 234.812L75.894 227.299Z" fill="white" stroke="black" stroke-miterlimit="10"/>
<path d="M70.2818 246.589L64.4512 238.294L78.803 227.299L84.4538 235.043L70.2818 246.589Z" fill="white" stroke="black" stroke-miterlimit="10"/>
<path d="M306.885 224.677C306.885 224.677 310.16 219.798 314.828 218.939C319.496 218.08 335.332 220.484 335.332 220.484C335.332 220.484 344.874 215.99 346.762 216.631C348.65 217.273 348.161 219.991 348.161 219.991C348.161 219.991 337.361 225.356 335.595 226.241C333.829 227.126 311.463 227.107 306.885 224.677Z" fill="white" stroke="black" stroke-miterlimit="10"/>
<path d="M334.573 203.022C334.573 203.022 338.567 204.24 334.643 208.74C330.72 213.24 330.206 211.644 329.66 214.651L329.114 217.657L313.838 218.914C313.838 218.914 318.147 215.061 321.788 212.125C325.429 209.182 330.437 202.573 334.566 203.022H334.573Z" fill="white" stroke="black" stroke-miterlimit="10"/>
<path d="M337.97 204.4C337.578 203.81 336.41 202.733 335.755 203.002C333.379 203.964 334.181 206.951 334.361 208.028C334.676 209.868 338.818 215.606 338.818 215.606L335.389 218.472L339.569 219.222L345.297 214.414C345.297 214.414 340.918 209.093 340.378 208.169C339.787 207.157 338.657 205.432 337.97 204.394V204.4Z" fill="white" stroke="black" stroke-miterlimit="10"/>
<path d="M358.621 209.855C358.621 209.855 357.331 207.015 353.966 208.419C350.601 209.817 340.661 218.196 340.661 218.196L335.684 218.228L329.121 217.664L313.845 218.92C313.845 218.92 309.793 220.241 306.332 224.953C306.332 224.953 303.866 228.043 303.487 228.472C303.108 228.902 312.965 235.986 312.965 235.986C312.965 235.986 316.593 233.332 321.441 232.505C326.283 231.671 332.403 230.575 333.623 230.492C334.843 230.408 335.671 230.261 336.956 228.69C338.24 227.119 345.92 222.395 348.032 220.67C350.152 218.946 358.615 209.855 358.615 209.855H358.621Z" fill="white" stroke="black" stroke-miterlimit="10"/>
<path d="M331.117 210.99C329.82 211.163 328.446 210.702 327.521 209.785L331.117 210.99Z" fill="white"/>
<path d="M331.117 210.99C329.82 211.163 328.446 210.702 327.521 209.785" stroke="black" stroke-miterlimit="10"/>
<path d="M344.206 223.286L352.425 217.33C352.425 217.33 351.263 214.721 348.874 215.061C346.485 215.401 341.156 219.516 341.156 219.516L333.097 221.132C333.097 221.132 324.46 216.914 317.531 218.612" fill="white"/>
<path d="M344.206 223.286L352.425 217.33C352.425 217.33 351.263 214.721 348.874 215.061C346.485 215.401 341.156 219.516 341.156 219.516L333.097 221.132C333.097 221.132 324.46 216.914 317.531 218.612" stroke="black" stroke-miterlimit="10"/>
<path d="M303.493 228.472L288.197 245.794L302.716 256.628L312.971 235.986L303.493 228.472Z" fill="white" stroke="black" stroke-miterlimit="10"/>
<path d="M309.106 247.762L314.936 239.467L300.584 228.472L294.934 236.216L309.106 247.762Z" fill="white" stroke="black" stroke-miterlimit="10"/>
<path d="M292.519 230.601L277.441 251.416C277.441 251.416 262.743 219.023 259.282 210.067C256.026 201.637 248.076 179.295 240.589 174.923V174.795L213.247 165.288L206.472 157.3C206.472 157.3 206.479 157.403 206.491 157.582L204.019 153.71L169.061 156.55L168.194 157.915C168.194 157.755 168.201 157.672 168.201 157.672L161.426 166.237L136.832 175.474L136.819 175.276C129.39 178.109 125.582 202.893 121.157 212.522C117.151 221.254 103.145 252.378 103.145 252.378L88.068 231.562L67.4746 248.025C67.4746 248.025 90.7843 284.579 96.4672 287.727C102.15 290.874 104.783 291.971 112.945 289.067C119.783 286.63 135.734 255.795 140.711 245.884L141.815 265.667C142.502 278.059 141.436 290.483 138.649 302.574L132.716 328.871C161.355 341.269 211.237 340.263 245.052 328.871L239.016 300.337C236.595 289.137 235.651 277.675 236.197 266.231L237.41 240.986C240.088 246.3 260.033 285.393 267.63 288.099C275.785 291.003 278.417 289.906 284.107 286.759C289.79 283.611 313.099 247.057 313.099 247.057L292.506 230.594L292.519 230.601Z" fill="#BACCFF" stroke="black" stroke-miterlimit="10"/>
<path d="M183.414 154.979V327.621" stroke="black" stroke-miterlimit="10"/>
<path d="M197.701 172.295C207.269 167.788 213.799 168 218.981 158.268C222.423 151.806 221.717 128.189 221.152 120.81C219.392 97.9174 182.617 86.9678 179.105 87.705C175.104 88.5513 160.983 90.9296 158.062 93.994C149.907 102.546 153.04 98.7444 152.366 110.784C151.499 126.246 153.201 149.178 157.066 160.57C160.727 171.353 158.216 167.134 168.227 171.173C178.244 175.212 189.494 175.148 199.91 172.224" fill="black"/>
<path d="M197.701 172.295C207.269 167.788 213.799 168 218.981 158.268C222.423 151.806 221.717 128.189 221.152 120.81C219.392 97.9174 182.617 86.9678 179.105 87.705C175.104 88.5513 160.983 90.9296 158.062 93.994C149.907 102.546 153.04 98.7444 152.366 110.784C151.499 126.246 153.201 149.178 157.066 160.57C160.727 171.353 158.216 167.134 168.227 171.173C178.244 175.212 189.494 175.148 199.91 172.224" stroke="black" stroke-miterlimit="10"/>
<path d="M174.532 128.208L171.007 173.429C170.365 181.283 178.854 187.559 187.15 185.103C191.896 183.699 196.77 180.218 201.759 175.071C202.786 174.013 203.384 172.667 203.48 171.256L206.222 131.644L174.532 128.214V128.208Z" fill="white" stroke="black" stroke-miterlimit="10"/>
<path d="M172.87 150.633L171.695 165.006C178.496 165.833 187.903 161.711 197.137 148.556L172.864 150.639L172.87 150.633Z" fill="black" stroke="black" stroke-miterlimit="10"/>
<path d="M197.142 148.549C191.17 153.543 182.379 158.48 171.867 157.101C165.067 156.21 160.906 150.28 158.382 142.837C156.886 138.408 155.962 133.452 155.409 128.702C154.883 124.195 155.159 110.053 155.108 106.552C160.091 101.501 169.402 100.014 178.083 99.8981C187.606 99.7699 196.23 106.117 198.298 115.399C198.831 117.797 199.755 119.823 201.29 120.778C201.579 120.272 205.194 118.791 208.161 119.009C215.302 119.528 215.886 127.298 214.396 131.349C212.174 137.414 205.657 139.459 205.657 139.459L203.762 140.549" fill="white"/>
<path d="M197.142 148.549C191.17 153.543 182.379 158.48 171.867 157.101C165.067 156.21 160.906 150.28 158.382 142.837C156.886 138.408 155.962 133.452 155.409 128.702C154.883 124.195 155.159 110.053 155.108 106.552C160.091 101.501 169.402 100.014 178.083 99.8981C187.606 99.7699 196.23 106.117 198.298 115.399C198.831 117.797 199.755 119.823 201.29 120.778C201.579 120.272 205.194 118.791 208.161 119.009C215.302 119.528 215.886 127.298 214.396 131.349C212.174 137.414 205.657 139.459 205.657 139.459L203.762 140.549" stroke="black" stroke-linecap="round" stroke-linejoin="round"/>
<path d="M166.319 123.105C166.319 124.342 165.305 125.349 164.046 125.349C162.794 125.349 161.779 124.342 161.779 123.105" stroke="black" stroke-linecap="round" stroke-linejoin="round"/>
<path d="M186.085 123.118C186.085 124.355 185.07 125.362 183.812 125.362C182.56 125.362 181.545 124.355 181.545 123.118" stroke="black" stroke-linecap="round" stroke-linejoin="round"/>
<path d="M173.672 121.24C173.396 124.112 168.58 130.311 168.406 131.266C168.214 132.298 171.636 134.76 172.657 134.984" stroke="black" stroke-linecap="round" stroke-linejoin="round"/>
<path d="M179.87 139.414C178.335 140.94 176.286 141.94 174.135 142.216C171.984 142.491 169.749 142.042 167.881 140.953" stroke="black" stroke-linecap="round" stroke-linejoin="round"/>
<path d="M204.982 124.682C206.986 124.048 208.996 125.676 209.163 127.599C209.33 129.522 208.167 131.49 206.402 132.273" stroke="black" stroke-linecap="round" stroke-linejoin="round"/>
<path d="M151.685 172.032C151.685 172.032 151.062 183.328 161.914 192.841C173.158 202.701 211.821 201.643 220.586 186.039C230.873 167.724 226.391 129.708 222.673 115.098C215.404 86.5701 199.819 75.2808 183.496 76.0821C167.173 76.8835 153.996 88.4677 149.887 103.264C147.613 111.431 151.691 172.038 151.691 172.038L151.685 172.032ZM155.107 106.552C155.107 106.552 162.697 89.4614 177.537 89.9486C183.766 90.1537 197.687 93.6348 198.105 105.469C198.811 125.624 207.031 122.547 207.031 122.547C208.019 125.323 208.154 139.625 207.897 145.62C207.429 156.633 208.379 161.326 203.563 167.326C198.747 173.333 185.904 179.975 171.867 169.166L168.708 158.133L168.868 155.922C168.868 155.922 159.133 148.575 157.374 139.491C155.614 130.407 153.842 116.181 155.094 106.552H155.107Z" fill="white" stroke="black" stroke-miterlimit="10"/>
<path d="M216.657 120.49C217.094 134.683 219.547 153.139 216.304 166.967C214.814 173.314 212.252 177.661 207.686 182.321C203.127 186.982 190.849 191.142 184.736 188.867" stroke="black" stroke-linecap="round" stroke-linejoin="round"/>
<path d="M174.372 210.625C176.411 210.625 178.064 208.974 178.064 206.938C178.064 204.903 176.411 203.252 174.372 203.252C172.333 203.252 170.68 204.903 170.68 206.938C170.68 208.974 172.333 210.625 174.372 210.625Z" fill="white" stroke="black" stroke-miterlimit="10"/>
<path d="M174.372 234.665C176.411 234.665 178.064 233.014 178.064 230.979C178.064 228.943 176.411 227.292 174.372 227.292C172.333 227.292 170.68 228.943 170.68 230.979C170.68 233.014 172.333 234.665 174.372 234.665Z" fill="white" stroke="black" stroke-miterlimit="10"/>
<path d="M174.372 258.712C176.411 258.712 178.064 257.061 178.064 255.026C178.064 252.99 176.411 251.339 174.372 251.339C172.333 251.339 170.68 252.99 170.68 255.026C170.68 257.061 172.333 258.712 174.372 258.712Z" fill="white" stroke="black" stroke-miterlimit="10"/>
<path d="M174.372 282.758C176.411 282.758 178.064 281.108 178.064 279.072C178.064 277.036 176.411 275.386 174.372 275.386C172.333 275.386 170.68 277.036 170.68 279.072C170.68 281.108 172.333 282.758 174.372 282.758Z" fill="white" stroke="black" stroke-miterlimit="10"/>
<path d="M174.372 306.805C176.411 306.805 178.064 305.155 178.064 303.119C178.064 301.083 176.411 299.433 174.372 299.433C172.333 299.433 170.68 301.083 170.68 303.119C170.68 305.155 172.333 306.805 174.372 306.805Z" fill="white" stroke="black" stroke-miterlimit="10"/>
<path d="M102.5 159C107.194 159 111 155.194 111 150.5C111 145.806 107.194 142 102.5 142C97.8056 142 94 145.806 94 150.5C94 155.194 97.8056 159 102.5 159Z" fill="#FFDE66"/>
<path d="M111.5 175C113.985 175 116 173.209 116 171C116 168.791 113.985 167 111.5 167C109.015 167 107 168.791 107 171C107 173.209 109.015 175 111.5 175Z" fill="#FFDE66"/>
<path d="M38 58.9663L38 112.034C38 122.508 46.5683 131 57.1378 131H108.862C119.432 131 128 122.508 128 112.034V58.9663C128 48.4915 119.432 40 108.862 40H57.1378C46.5683 40 38 48.4915 38 58.9663Z" fill="#FFDE66"/>
<path d="M32 64.9663L32 118.034C32 128.508 40.5683 137 51.1378 137H102.862C113.432 137 122 128.508 122 118.034V64.9663C122 54.4915 113.432 46 102.862 46H51.1378C40.5683 46 32 54.4915 32 64.9663Z" fill="white" stroke="black" stroke-linecap="round" stroke-linejoin="round"/>
<path d="M97.5 161C102.194 161 106 157.194 106 152.5C106 147.806 102.194 144 97.5 144C92.8056 144 89 147.806 89 152.5C89 157.194 92.8056 161 97.5 161Z" fill="white" stroke="black" stroke-linecap="round" stroke-linejoin="round"/>
<path d="M107 177C109.209 177 111 175.209 111 173C111 170.791 109.209 169 107 169C104.791 169 103 170.791 103 173C103 175.209 104.791 177 107 177Z" fill="white" stroke="black" stroke-linecap="round" stroke-linejoin="round"/>
<path d="M41.0542 86C41.0542 86 37.9865 122 78 122C78 102.79 61.7374 87.6275 41.0542 86Z" fill="white" stroke="black" stroke-miterlimit="10"/>
<path d="M112 86.0528C112 86.0528 77 83.068 77 122C95.679 122 110.423 106.177 112 86.0528Z" fill="white" stroke="black" stroke-miterlimit="10"/>
<g opacity="0.4">
<path d="M41.7828 85.9199C41.7828 85.9199 38.8241 121.494 77.4155 121.494C77.4155 102.511 61.7309 87.5281 41.7828 85.9199Z" fill="#E4EBF5" stroke="black" stroke-miterlimit="10"/>
</g>
<g opacity="0.4">
<path d="M112.385 85.9467C112.385 85.9467 76.7578 82.993 76.7578 121.52C95.7716 121.52 110.78 105.862 112.385 85.9467Z" fill="#BACCFF" stroke="black" stroke-miterlimit="10"/>
</g>
<path d="M75.398 67C75.398 67 46.4743 93.0797 76.9827 122C91.1698 106.902 89.9693 83.2234 75.398 67Z" fill="#DBE0F1" stroke="black" stroke-miterlimit="10"/>
<path d="M286.373 42.2256V135.848" stroke="black" stroke-miterlimit="10"/>
<path d="M333.262 89.0369H239.484" stroke="black" stroke-miterlimit="10"/>
<path d="M253.221 55.9382L319.528 122.136" stroke="black" stroke-miterlimit="10"/>
<path d="M319.528 55.9382L253.221 122.136" stroke="black" stroke-miterlimit="10"/>
<path d="M286.373 119.937C303.467 119.937 317.324 106.103 317.324 89.037C317.324 71.9715 303.467 58.1372 286.373 58.1372C269.279 58.1372 255.422 71.9715 255.422 89.037C255.422 106.103 269.279 119.937 286.373 119.937Z" fill="#FFEFB0" stroke="black" stroke-miterlimit="10"/>
</g>
<defs>
<clipPath id="clip0_10126_35518">
<rect width="340" height="300" fill="white" transform="translate(19 40)"/>
</clipPath>
</defs>
</svg>
