<svg width="780" height="392" viewBox="0 0 780 392" fill="none" xmlns="http://www.w3.org/2000/svg">
<path d="M118 249C183.17 249 236 196.17 236 131C236 65.8304 183.17 13 118 13C52.8304 13 0 65.8304 0 131C0 196.17 52.8304 249 118 249Z" fill="white"/>
<path d="M621 34C708.812 34 780 105.188 780 193C780 280.812 708.812 352 621 352V34Z" fill="#E4EBF5"/>
<path d="M399.116 320.378H365.367V371.145H399.116V320.378Z" fill="#DBE0F1" stroke="black" stroke-miterlimit="10"/>
<path d="M558.444 78.0112H206.049V321.043H558.444V78.0112Z" fill="#DBE0F1" stroke="black" stroke-miterlimit="10"/>
<path d="M541.879 93.479H222.605V305.985H541.879V93.479Z" fill="white" stroke="black" stroke-miterlimit="10"/>
<path d="M431.67 374.42C422.546 356.321 403.846 343.901 382.246 343.901C360.646 343.901 341.946 356.321 332.822 374.42H431.677H431.67Z" fill="#DBE0F1" stroke="black" stroke-miterlimit="10"/>
<path d="M523.624 111.308H305.137V305.546H523.624V111.308Z" fill="#FFF1CC"/>
<path d="M269.823 159.86C283.069 159.86 293.806 149.089 293.806 135.803C293.806 122.517 283.069 111.746 269.823 111.746C256.578 111.746 245.84 122.517 245.84 135.803C245.84 149.089 256.578 159.86 269.823 159.86Z" fill="white" stroke="black" stroke-miterlimit="10"/>
<path d="M269.823 221.724C283.069 221.724 293.806 210.953 293.806 197.667C293.806 184.38 283.069 173.61 269.823 173.61C256.578 173.61 245.84 184.38 245.84 197.667C245.84 210.953 256.578 221.724 269.823 221.724Z" fill="#FFDE66" stroke="black" stroke-miterlimit="10"/>
<path d="M269.823 283.558C283.069 283.558 293.806 272.787 293.806 259.501C293.806 246.215 283.069 235.444 269.823 235.444C256.578 235.444 245.84 246.215 245.84 259.501C245.84 272.787 256.578 283.558 269.823 283.558Z" fill="#FFDE66" stroke="black" stroke-miterlimit="10"/>
<path d="M257.228 148.391V148.025C257.228 144.027 259.159 140.226 262.388 137.85L262.628 137.667L262.847 137.872C264.749 139.663 267.226 140.65 269.814 140.65C272.401 140.65 274.878 139.663 276.78 137.872L276.999 137.667L277.24 137.85C280.468 140.226 282.399 144.034 282.399 148.025V148.391H257.221H257.228Z" fill="#BACCFF"/>
<path d="M262.6 138.142C264.487 139.926 267.024 141.022 269.815 141.022C272.606 141.022 275.142 139.926 277.029 138.142C280.061 140.372 282.036 143.961 282.036 148.025H257.586C257.586 143.961 259.561 140.372 262.593 138.142M262.651 137.192L262.163 137.55C258.84 139.999 256.857 143.91 256.857 148.025V148.756H282.765V148.025C282.765 143.91 280.782 139.999 277.459 137.55L276.971 137.192L276.526 137.609C274.69 139.341 272.307 140.291 269.807 140.291C267.308 140.291 264.925 139.341 263.088 137.609L262.644 137.192H262.651Z" fill="black"/>
<path d="M269.82 137.638C265.856 137.638 262.635 134.4 262.635 130.43C262.635 126.461 265.856 123.223 269.82 123.223C273.785 123.223 277.006 126.461 277.006 130.43C277.006 134.4 273.785 137.638 269.82 137.638Z" fill="#BACCFF"/>
<path d="M269.821 123.581C273.589 123.581 276.642 126.644 276.642 130.423C276.642 134.202 273.589 137.265 269.821 137.265C266.054 137.265 263 134.202 263 130.423C263 126.644 266.054 123.581 269.821 123.581ZM269.821 122.85C265.66 122.85 262.271 126.249 262.271 130.423C262.271 134.597 265.66 137.996 269.821 137.996C273.983 137.996 277.371 134.597 277.371 130.423C277.371 126.249 273.983 122.85 269.821 122.85Z" fill="black"/>
<path d="M269.823 221.709C283.069 221.709 293.806 210.938 293.806 197.652C293.806 184.366 283.069 173.595 269.823 173.595C256.578 173.595 245.84 184.366 245.84 197.652C245.84 210.938 256.578 221.709 269.823 221.709Z" fill="white" stroke="black" stroke-miterlimit="10"/>
<path d="M257.228 210.24V209.874C257.228 205.876 259.159 202.075 262.388 199.692L262.628 199.509L262.847 199.713C264.749 201.504 267.226 202.491 269.814 202.491C272.401 202.491 274.878 201.504 276.78 199.713L276.999 199.509L277.24 199.692C280.468 202.067 282.399 205.876 282.399 209.867V210.232H257.221L257.228 210.24Z" fill="#FFDE66"/>
<path d="M262.6 199.991C264.487 201.775 267.024 202.871 269.815 202.871C272.606 202.871 275.142 201.775 277.029 199.991C280.061 202.221 282.036 205.81 282.036 209.874H257.586C257.586 205.81 259.561 202.221 262.593 199.991M262.651 199.041L262.163 199.399C258.84 201.848 256.857 205.759 256.857 209.874V210.605H282.765V209.874C282.765 205.759 280.782 201.848 277.459 199.399L276.971 199.041L276.526 199.458C274.69 201.19 272.307 202.14 269.807 202.14C267.308 202.14 264.925 201.19 263.088 199.458L262.644 199.041H262.651Z" fill="black"/>
<path d="M269.82 199.487C265.856 199.487 262.635 196.249 262.635 192.279C262.635 188.31 265.856 185.072 269.82 185.072C273.785 185.072 277.006 188.31 277.006 192.279C277.006 196.249 273.785 199.487 269.82 199.487Z" fill="#FFDE66"/>
<path d="M269.821 185.43C273.589 185.43 276.642 188.493 276.642 192.272C276.642 196.051 273.589 199.114 269.821 199.114C266.054 199.114 263 196.051 263 192.272C263 188.493 266.054 185.43 269.821 185.43ZM269.821 184.699C265.66 184.699 262.271 188.098 262.271 192.272C262.271 196.446 265.66 199.845 269.821 199.845C273.983 199.845 277.371 196.446 277.371 192.272C277.371 188.098 273.983 184.699 269.821 184.699Z" fill="black"/>
<path d="M269.823 283.558C283.069 283.558 293.806 272.787 293.806 259.501C293.806 246.215 283.069 235.444 269.823 235.444C256.578 235.444 245.84 246.215 245.84 259.501C245.84 272.787 256.578 283.558 269.823 283.558Z" fill="white" stroke="black" stroke-miterlimit="10"/>
<path d="M257.228 272.089V271.723C257.228 267.725 259.159 263.923 262.388 261.54L262.628 261.358L262.847 261.562C264.749 263.353 267.226 264.34 269.814 264.34C272.401 264.34 274.878 263.353 276.78 261.562L276.999 261.358L277.24 261.54C280.468 263.916 282.399 267.725 282.399 271.716V272.081H257.221L257.228 272.089Z" fill="#DBE0F1"/>
<path d="M262.6 261.84C264.487 263.624 267.024 264.72 269.815 264.72C272.606 264.72 275.142 263.624 277.029 261.84C280.061 264.07 282.036 267.659 282.036 271.723H257.586C257.586 267.659 259.561 264.07 262.593 261.84M262.651 260.89L262.163 261.248C258.84 263.697 256.857 267.608 256.857 271.723V272.454H282.765V271.723C282.765 267.608 280.782 263.697 277.459 261.248L276.971 260.89L276.526 261.307C274.69 263.039 272.307 263.989 269.807 263.989C267.308 263.989 264.925 263.039 263.088 261.307L262.644 260.89H262.651Z" fill="black"/>
<path d="M269.82 261.336C265.856 261.336 262.635 258.097 262.635 254.128C262.635 250.159 265.856 246.921 269.82 246.921C273.785 246.921 277.006 250.159 277.006 254.128C277.006 258.097 273.785 261.336 269.82 261.336Z" fill="#DBE0F1"/>
<path d="M269.821 247.279C273.589 247.279 276.642 250.342 276.642 254.121C276.642 257.9 273.589 260.963 269.821 260.963C266.054 260.963 263 257.9 263 254.121C263 250.342 266.054 247.279 269.821 247.279ZM269.821 246.548C265.66 246.548 262.271 249.947 262.271 254.121C262.271 258.295 265.66 261.694 269.821 261.694C273.983 261.694 277.371 258.295 277.371 254.121C277.371 249.947 273.983 246.548 269.821 246.548Z" fill="black"/>
<path d="M700 374H100V392H700V374Z" fill="black"/>
<path d="M644.632 355.67C644.632 344.946 638.561 335.655 629.685 331.043C629 330.685 628.432 329.8 628.432 329.033V300.385H605.571V329.033C605.571 329.808 605.002 330.692 604.317 331.043C595.434 335.655 589.363 344.946 589.363 355.67C589.363 361.613 591.236 367.117 594.414 371.635C594.858 372.263 595.871 372.76 596.644 372.76H637.366C638.139 372.76 639.152 372.271 639.596 371.635C642.773 367.125 644.646 361.62 644.646 355.67H644.632Z" fill="white" stroke="black" stroke-miterlimit="10"/>
<path d="M630.319 329.8C630.064 329.669 629.824 329.252 629.824 329.033V303.192C630.851 302.673 631.566 301.621 631.566 300.385C631.566 298.645 630.159 297.235 628.425 297.235H605.564C603.829 297.235 602.423 298.645 602.423 300.385C602.423 301.621 603.137 302.673 604.164 303.192V329.033C604.164 329.252 603.917 329.669 603.662 329.8C593.977 334.829 587.957 344.742 587.957 355.67C587.957 361.708 589.793 367.512 593.262 372.439C593.962 373.433 595.383 374.157 596.629 374.157H637.352C638.605 374.157 640.019 373.433 640.719 372.439C644.187 367.512 646.024 361.708 646.024 355.67C646.024 344.742 640.004 334.829 630.319 329.8Z" fill="#BACCFF" stroke="black" stroke-miterlimit="10"/>
<path d="M601.252 277.703C600.851 278.865 600.786 280.532 601.944 280.926C602.724 281.189 603.526 280.634 604.116 280.071C606.025 278.244 607.417 275.868 608.088 273.309C609.093 274.706 609.203 276.555 609.946 278.112C610.689 279.669 612.723 280.941 614.071 279.866C615.237 278.938 614.872 277.037 614.034 275.809C613.196 274.581 611.979 273.543 611.586 272.103C613.138 272.834 614.77 273.587 616.483 273.514C618.195 273.441 619.995 272.242 620.119 270.524C620.243 268.85 618.727 267.418 617.095 267.037C615.463 266.657 613.765 267.067 612.147 267.469C613.298 265.554 614.493 263.499 614.428 261.263C614.362 259.026 612.446 256.701 610.252 257.089C608.284 257.44 607.213 259.698 607.184 261.701C607.155 263.704 607.847 265.663 607.92 267.666C605.887 266.153 603.373 265.298 600.844 265.261C599.838 265.247 598.694 265.437 598.14 266.277C597.506 267.257 598.067 268.66 599.044 269.296C600.02 269.932 601.252 269.991 602.418 269.947C603.511 269.903 604.779 269.706 605.661 270.276C603.89 272.637 602.243 274.881 601.259 277.717L601.252 277.703Z" fill="white" stroke="black" stroke-linecap="round" stroke-linejoin="round"/>
<path d="M613.982 285.407C613.698 286.847 613.887 288.836 615.323 289.106C616.285 289.289 617.145 288.507 617.75 287.739C619.71 285.261 620.971 282.235 621.343 279.091C622.756 280.583 623.186 282.746 624.316 284.472C625.445 286.189 628.062 287.359 629.475 285.875C630.7 284.589 629.964 282.403 628.776 281.08C627.588 279.757 625.977 278.741 625.278 277.103C627.231 277.717 629.279 278.339 631.297 277.966C633.309 277.6 635.24 275.89 635.109 273.836C634.985 271.84 632.959 270.393 630.969 270.203C628.98 270.013 627.041 270.773 625.19 271.518C626.24 269.062 627.318 266.438 626.881 263.807C626.444 261.175 623.798 258.733 621.27 259.559C618.996 260.298 618.1 263.134 618.398 265.51C618.697 267.885 619.827 270.078 620.235 272.439C617.589 270.985 614.478 270.385 611.483 270.751C610.295 270.897 608.968 271.306 608.458 272.396C607.868 273.653 608.757 275.225 610.01 275.817C611.264 276.409 612.736 276.277 614.099 276.036C615.389 275.809 616.846 275.363 617.983 275.897C616.278 278.975 614.689 281.898 613.989 285.407H613.982Z" fill="#FFDE66" stroke="black" stroke-linecap="round" stroke-linejoin="round"/>
<path d="M590.7 290.671C590.504 292.016 590.78 293.843 592.121 294.026C593.018 294.143 593.776 293.375 594.3 292.637C595.991 290.247 597.011 287.381 597.201 284.457C598.585 285.766 599.088 287.754 600.218 289.289C601.347 290.824 603.825 291.774 605.064 290.327C606.135 289.07 605.348 287.089 604.182 285.926C603.016 284.764 601.479 283.894 600.75 282.418C602.586 282.885 604.517 283.361 606.361 282.915C608.205 282.476 609.91 280.795 609.684 278.902C609.473 277.059 607.52 275.817 605.676 275.751C603.825 275.678 602.069 276.475 600.393 277.257C601.245 274.932 602.113 272.454 601.573 270.035C601.034 267.622 598.469 265.495 596.166 266.38C594.104 267.177 593.404 269.852 593.797 272.03C594.191 274.216 595.35 276.19 595.838 278.353C593.317 277.14 590.409 276.738 587.654 277.228C586.561 277.425 585.351 277.871 584.936 278.902C584.448 280.1 585.351 281.504 586.546 281.994C587.742 282.483 589.09 282.286 590.343 281.994C591.524 281.716 592.857 281.233 593.929 281.665C592.5 284.596 591.174 287.388 590.7 290.671Z" fill="#FFEFB0" stroke="black" stroke-linecap="round" stroke-linejoin="round"/>
<path d="M619.055 296.869C620.039 297.951 621.751 298.967 622.823 297.966C623.537 297.293 623.413 296.138 623.158 295.188C622.327 292.14 620.629 289.333 618.326 287.176C620.36 286.913 622.356 287.841 624.411 287.944C626.466 288.046 628.944 286.621 628.587 284.596C628.274 282.841 626.08 282.147 624.317 282.33C622.553 282.513 620.782 283.214 619.048 282.812C620.695 281.592 622.407 280.298 623.296 278.456C624.185 276.613 623.952 274.033 622.225 272.929C620.542 271.847 618.181 272.637 616.862 274.135C615.542 275.634 615.003 277.651 614.508 279.596C613.152 277.293 611.68 274.874 609.297 273.675C606.921 272.476 603.394 273.178 602.563 275.707C601.813 277.98 603.569 280.385 605.653 281.548C607.738 282.71 610.179 283.09 612.314 284.157C609.581 285.444 607.264 287.608 605.784 290.246C605.201 291.299 604.75 292.615 605.318 293.667C605.981 294.888 607.767 295.093 608.991 294.428C610.208 293.762 610.973 292.491 611.585 291.248C612.161 290.071 612.671 288.624 613.764 288.017C615.229 291.219 616.65 294.23 619.055 296.869Z" fill="white" stroke="black" stroke-linecap="round" stroke-linejoin="round"/>
<path d="M628.125 292.659C627.724 293.821 627.659 295.488 628.817 295.882C629.597 296.145 630.399 295.59 630.989 295.027C632.898 293.2 634.29 290.824 634.961 288.265C635.966 289.662 636.076 291.511 636.819 293.068C637.562 294.625 639.596 295.897 640.944 294.822C642.11 293.894 641.745 291.993 640.907 290.765C640.069 289.53 638.852 288.499 638.459 287.059C640.011 287.79 641.643 288.543 643.356 288.47C645.068 288.397 646.868 287.198 646.992 285.48C647.116 283.806 645.6 282.374 643.968 281.994C642.336 281.613 640.638 282.023 639.02 282.425C640.171 280.51 641.366 278.456 641.301 276.219C641.235 273.982 639.319 271.657 637.125 272.045C635.157 272.396 634.086 274.654 634.057 276.657C634.035 278.66 634.72 280.619 634.793 282.622C632.76 281.109 630.246 280.254 627.717 280.217C626.711 280.203 625.567 280.393 625.013 281.233C624.379 282.213 624.94 283.616 625.917 284.252C626.893 284.888 628.125 284.947 629.291 284.903C630.384 284.859 631.652 284.662 632.534 285.232C630.763 287.593 629.116 289.837 628.132 292.673L628.125 292.659Z" fill="white" stroke="black" stroke-linecap="round" stroke-linejoin="round"/>
<path d="M591.093 296.898C589.927 297.776 588.747 299.384 589.636 300.546C590.233 301.321 591.392 301.314 592.354 301.153C595.458 300.619 598.417 299.201 600.778 297.11C600.844 299.164 599.722 301.072 599.423 303.104C599.124 305.137 600.29 307.761 602.338 307.6C604.109 307.461 605.012 305.341 605.005 303.558C604.998 301.774 604.48 299.939 605.049 298.258C606.098 300.02 607.213 301.854 608.955 302.929C610.697 304.004 613.276 304.018 614.544 302.403C615.783 300.831 615.229 298.397 613.874 296.928C612.518 295.458 610.565 294.727 608.685 294.04C611.097 292.914 613.648 291.679 615.069 289.42C616.49 287.162 616.14 283.58 613.706 282.498C611.527 281.526 608.962 283.039 607.607 285.012C606.251 286.979 605.632 289.376 604.364 291.401C603.358 288.543 601.441 286.021 598.964 284.289C597.98 283.602 596.719 283.024 595.611 283.492C594.336 284.033 593.957 285.802 594.496 287.081C595.036 288.36 596.224 289.245 597.404 289.983C598.519 290.678 599.904 291.321 600.392 292.476C597.076 293.624 593.95 294.749 591.093 296.891V296.898Z" fill="#FFDE66" stroke="black" stroke-linecap="round" stroke-linejoin="round"/>
<path d="M622.135 306.737C621.924 308.185 622.223 310.166 623.673 310.356C624.642 310.487 625.458 309.661 626.027 308.857C627.856 306.277 628.949 303.185 629.153 300.034C630.647 301.445 631.194 303.587 632.411 305.246C633.628 306.906 636.302 307.929 637.636 306.365C638.787 305.012 637.942 302.87 636.681 301.613C635.42 300.356 633.766 299.428 632.979 297.827C634.961 298.331 637.038 298.843 639.035 298.368C641.032 297.892 642.861 296.08 642.62 294.04C642.387 292.052 640.288 290.714 638.292 290.641C636.295 290.568 634.4 291.423 632.586 292.271C633.504 289.764 634.437 287.088 633.861 284.479C633.285 281.869 630.509 279.581 628.024 280.539C625.794 281.394 625.05 284.281 625.473 286.635C625.896 288.989 627.142 291.124 627.674 293.455C624.948 292.147 621.815 291.716 618.841 292.242C617.661 292.454 616.356 292.936 615.904 294.047C615.38 295.334 616.356 296.854 617.639 297.381C618.921 297.907 620.386 297.695 621.734 297.381C623.01 297.081 624.445 296.562 625.604 297.03C624.066 300.195 622.638 303.199 622.121 306.745L622.135 306.737Z" fill="#FFEFB0" stroke="black" stroke-linecap="round" stroke-linejoin="round"/>
<path d="M496.368 79.4218C488.92 66.4541 493.22 59.6047 480.001 57.0608C474.637 48.5083 462.073 54.612 453.729 51.4688C448.876 49.634 445.297 48.6764 439.642 53.0112C437.616 54.5755 436.086 58.7202 432.486 64.071C429.221 68.9175 427.705 66.4467 426.131 70.1163C422.05 79.6265 429.185 88.1132 425.322 100.153C421.453 112.192 437.58 119.824 437.58 119.824L473.332 122.572C477.333 122.879 481.341 121.695 484.402 119.1C485.984 117.755 488.053 116.41 490.546 115.679C492.491 115.101 492.353 109.21 493.81 106.286C495.858 102.177 496.164 101.417 496.601 96.4977C496.74 94.9918 494.736 92.2726 494.976 90.7814C495.676 86.3735 498.591 83.296 496.376 79.4364L496.368 79.4218Z" fill="black" stroke="black" stroke-miterlimit="10"/>
<path d="M129.301 326.613C129.301 332.205 134.679 336.752 141.281 336.752C141.733 336.752 142.178 336.723 142.622 336.686L143.125 345.421C143.533 352.519 149.392 358.06 156.476 358.06H170.672C177.755 358.06 183.615 352.519 184.023 345.421L186.202 307.563H140.946L141.464 316.489C141.405 316.489 141.347 316.482 141.289 316.482C134.679 316.482 129.308 321.028 129.308 326.62L129.301 326.613ZM133.491 326.613C133.491 323.338 136.989 320.677 141.289 320.677C141.427 320.677 141.566 320.685 141.704 320.692L142.382 332.483C142.025 332.519 141.66 332.549 141.281 332.549C136.982 332.549 133.484 329.888 133.484 326.613H133.491Z" fill="#FFEFB0" stroke="black" stroke-miterlimit="10"/>
<path d="M175.105 307.556C175.105 307.556 169.566 299.194 164.771 303.989C159.976 308.777 170.062 328.865 159.182 332.812" stroke="black" stroke-miterlimit="10"/>
<path d="M151.982 335.729L156.588 343.119L163.686 336.796L159.08 329.406L151.982 335.729Z" fill="black" stroke="black" stroke-miterlimit="10"/>
<path d="M149.182 334.04L153.787 341.43L163.684 336.796L159.078 329.406L149.182 334.04Z" fill="white" stroke="black" stroke-miterlimit="10"/>
<path d="M240.727 357.388H117V374.456H240.727V357.388Z" fill="#BACCFF" stroke="black" stroke-miterlimit="10"/>
<path d="M155.406 357.388H129.754V374.456H155.406V357.388Z" fill="black" stroke="black" stroke-miterlimit="10"/>
<path d="M164.384 357.388H159.115V374.456H164.384V357.388Z" fill="white" stroke="black" stroke-miterlimit="10"/>
<path d="M433.136 174.451L440.875 160.043C440.875 160.043 439.352 152.155 441.531 151.044L443.761 133.296C443.761 133.296 432.677 131.651 430.381 115.869C429.084 106.958 429.15 93.0257 430.614 81.169C431.933 70.4966 442.471 58.9762 453.053 60.7452L487.173 69.4147L486.714 75.1749L477.174 133.961C478.945 134.546 484.178 154.597 485.03 155.299C485.03 155.299 479.769 165.269 480.148 165.394C480.527 165.518 433.143 174.458 433.143 174.458L433.136 174.451Z" fill="white" stroke="black" stroke-linecap="round" stroke-linejoin="round"/>
<path d="M443.731 133.508C443.731 133.508 451.084 136.344 467.204 129.188C467.204 129.188 460.653 140.167 442.791 141.037L443.738 133.508H443.731Z" fill="black" stroke="black" stroke-miterlimit="10"/>
<path d="M305.405 181.855C308.43 178.2 312.554 175.686 315.717 175.861C318.88 176.044 320.104 176.314 320.104 176.314C320.104 176.314 311.068 168.632 310.455 168.054C308.685 166.373 307.949 164.173 308.954 162.879C309.596 162.046 311.009 161.475 313.13 163.369C314.434 164.531 324.433 171.066 330.649 175.35C344.568 174.619 343.621 181.3 346.791 187.966L402.701 221.592C411.497 226.621 415.09 236.263 408.888 244.289C403.189 251.672 393.708 247.878 386.45 242.03L338.746 207.228L335.116 206.753C332.828 206.453 330.649 205.591 328.784 204.231C325.3 201.694 321.175 198.463 321.175 198.463L317.568 196.395C317.517 196.665 317.502 196.958 317.495 197.235C317.488 197.769 317.481 198.325 317.218 198.785C316.715 199.655 315.506 199.794 314.522 199.582C312.467 199.136 310.71 197.52 310.091 195.51C309.493 193.58 309.982 191.358 311.308 189.83C311.301 189.297 311.374 188.727 311.607 188.127C312.999 184.45 318.69 183.091 318.69 183.091L317.357 182.279C317.357 182.279 314.675 179.852 308.539 186.57C307.774 187.411 306.294 188.376 305.172 188.529C304.487 188.617 303.765 188.537 303.219 188.04C301.856 186.797 302.381 185.503 305.412 181.848L305.405 181.855Z" fill="white" stroke="black" stroke-linecap="round" stroke-linejoin="round"/>
<path d="M433.216 163.537L406.806 212.038C405.48 214.479 402.448 215.401 399.985 214.114L350.131 188.032L337.393 213.354L388.857 250.751C395.511 255.583 403.607 258.003 411.813 257.6C424.333 256.986 435.643 249.918 441.699 238.909L463.94 198.5" fill="white"/>
<path d="M433.216 163.537L406.806 212.038C405.48 214.479 402.448 215.401 399.985 214.114L350.131 188.032L337.393 213.354L388.857 250.751C395.511 255.583 403.607 258.003 411.813 257.6C424.333 256.986 435.643 249.918 441.699 238.909L463.94 198.5" stroke="black" stroke-miterlimit="10"/>
<path d="M481.217 134.246L489.109 150.467C489.109 150.467 499.282 175.891 501.906 185.364C504.836 195.978 506.57 221.906 505.644 232.879C503.072 263.507 501.053 305.985 501.053 305.985H414.383L416.256 216.044C417.298 200.934 423.973 186.081 429.679 172.06L434.212 160.905L438.439 154.568C438.679 152.06 440.239 149.867 442.527 148.829L466.736 137.828C471.816 136.249 476.298 131.666 478.331 126.739L481.217 134.254V134.246Z" fill="white" stroke="black" stroke-miterlimit="10"/>
<path d="M330.825 175.452C327.786 176.124 324.674 177.177 324.514 178.427C324.397 179.355 325.6 181.826 326.474 182.17C327.349 182.513 333.208 181.183 334.141 181.117C334.323 184.231 330.978 186.972 331.874 189.955C332.771 192.937 334.454 195.788 337.056 197.491" stroke="black" stroke-miterlimit="10"/>
<path d="M440.51 96.1689C440.553 97.6016 439.416 98.8005 437.974 98.837C436.531 98.8809 435.328 97.7478 435.284 96.3151C435.241 94.8824 436.378 93.6835 437.82 93.647C439.263 93.6031 440.466 94.7289 440.51 96.1689Z" fill="black"/>
<path d="M463.262 95.5109C463.305 96.9437 462.168 98.1425 460.725 98.179C459.283 98.2229 458.08 97.0972 458.036 95.6571C457.993 94.2244 459.129 93.0256 460.572 92.989C462.015 92.9452 463.218 94.0782 463.262 95.5109Z" fill="black"/>
<path d="M448.912 93.7639C448.686 97.0972 443.366 104.429 443.192 105.54C443.009 106.739 447.032 109.473 448.213 109.699" stroke="black" stroke-linecap="round" stroke-linejoin="round"/>
<path d="M444.213 118.055C446.406 119.246 448.994 119.692 451.457 119.305C453.92 118.91 456.245 117.682 457.957 115.862H444.213" stroke="black" stroke-linecap="round" stroke-linejoin="round"/>
<path d="M482.311 97.9087C481.669 97.8356 481.028 97.9014 480.394 98.0183C478.448 98.3911 472.261 97.2289 462.328 73.8153C458.167 63.9981 447.229 57.4046 447.229 57.4046L450.858 55.5625C450.858 55.5625 472.771 56.9148 476.357 58.2525C489.875 63.2817 489.926 76.6881 489.926 76.6881L484.796 98.1718L482.311 97.9014V97.9087Z" fill="black" stroke="black" stroke-miterlimit="10"/>
<path d="M446.837 73.1426C447.748 78.2596 451.494 82.8063 456.938 81.2712C464.735 79.071 469.254 90.6644 473.364 88.6835C477.234 86.8121 474.748 74.8897 472.832 70.2699C470.915 65.65 467.067 62.7991 463.293 60.555C458.454 57.6749 453.279 55.3358 447.938 55.27C444.549 55.2334 431.861 60.4454 434.929 67.4336C437.291 72.8137 445.168 63.7787 446.83 73.1353L446.837 73.1426Z" fill="black" stroke="black" stroke-miterlimit="10"/>
<path d="M482.283 97.8211C485.336 97.5506 490.773 98.1574 490.306 105.862C489.672 116.388 479.266 113.581 479.266 113.282" fill="white"/>
<path d="M482.283 97.8211C485.336 97.5506 490.773 98.1574 490.306 105.862C489.672 116.388 479.266 113.581 479.266 113.282" stroke="black" stroke-linecap="round" stroke-linejoin="round"/>
<path d="M482.666 103.398C483.839 103.355 484.954 104.327 485.078 105.496C485.202 106.666 484.32 107.85 483.169 108.069C482.695 108.157 482.207 108.091 481.719 108.099" stroke="black" stroke-linecap="round" stroke-linejoin="round"/>
<path d="M348.987 228.712L370.085 300.773C370.799 303.207 330.688 293.485 330.688 293.485L310.881 220.919C310.881 220.919 348.645 227.542 348.987 228.719V228.712Z" fill="white" stroke="black" stroke-miterlimit="10"/>
<path d="M496.283 187.996C500.866 215.817 493.484 276.175 491.334 276.679C491.334 276.679 455.582 291.986 416.615 297.015C412.542 297.542 381.264 292.403 381.264 292.403L384.718 264.75L449.978 249.647C449.978 249.647 448.943 221.899 448.717 213.77C448.498 205.635 445.685 170.291 464.21 163.676" fill="white"/>
<path d="M496.283 187.996C500.866 215.817 493.484 276.175 491.334 276.679C491.334 276.679 455.582 291.986 416.615 297.015C412.542 297.542 381.264 292.403 381.264 292.403L384.718 264.75L449.978 249.647C449.978 249.647 448.943 221.899 448.717 213.77C448.498 205.635 445.685 170.291 464.21 163.676" stroke="black" stroke-miterlimit="10"/>
<path d="M335.657 259.888C336.51 258.66 337.938 258.858 339.148 259.735L343.178 262.425C344.307 263.061 345.503 263.558 346.749 263.923L348.461 264.23C351.828 264.837 355.304 264.099 358.132 262.169L358.817 261.701L356.434 254.23C361.003 254.932 370.841 258.412 374.558 261.168C378.056 263.763 383.995 267.651 384.36 267.608L381.94 288.748L377.99 287.768L370.776 288.404C365.915 288.828 361.04 287.856 356.704 285.612C354.022 284.223 351.515 282.834 351.252 282.366C350.669 281.328 349.591 277.103 349.591 277.103C349.591 277.103 346.858 275.393 346.756 274.23C346.654 273.061 346.975 270.955 346.975 270.955C346.975 270.955 339.986 266.796 338.164 265.349C334.907 262.768 334.87 261.014 335.643 259.903L335.657 259.888Z" fill="white" stroke="black" stroke-miterlimit="10"/>
<path d="M345.883 270.013C348.441 270.948 351.006 271.877 353.564 272.812" stroke="black" stroke-miterlimit="10"/>
<path d="M349.379 277.162L354.349 278.967" stroke="black" stroke-miterlimit="10"/>
<path d="M327.605 46.3302L330.119 39.9414C330.359 39.3346 331.212 39.3346 331.445 39.9414L333.959 46.3302C334.032 46.513 334.178 46.6592 334.36 46.7323L340.729 49.2542C341.334 49.4954 341.334 50.3506 340.729 50.5846L334.36 53.1065C334.178 53.1796 334.032 53.3258 333.959 53.5085L331.445 59.8974C331.205 60.5041 330.352 60.5041 330.119 59.8974L327.605 53.5085C327.532 53.3258 327.386 53.1796 327.204 53.1065L320.835 50.5846C320.23 50.3433 320.23 49.4881 320.835 49.2542L327.204 46.7323C327.386 46.6592 327.532 46.513 327.605 46.3302Z" fill="white" stroke="black" stroke-miterlimit="10"/>
<path d="M257.594 47.836C260.395 47.836 262.666 45.5582 262.666 42.7483C262.666 39.9385 260.395 37.6606 257.594 37.6606C254.792 37.6606 252.521 39.9385 252.521 42.7483C252.521 45.5582 254.792 47.836 257.594 47.836Z" fill="#FFDE66" stroke="black" stroke-miterlimit="10"/>
<path d="M510.965 25.2557C513.766 25.2557 516.037 22.9779 516.037 20.168C516.037 17.3582 513.766 15.0803 510.965 15.0803C508.163 15.0803 505.893 17.3582 505.893 20.168C505.893 22.9779 508.163 25.2557 510.965 25.2557Z" fill="#E4EBF5" stroke="black" stroke-miterlimit="10"/>
<path d="M156.969 124.531C159.77 124.531 162.041 122.253 162.041 119.444C162.041 116.634 159.77 114.356 156.969 114.356C154.167 114.356 151.896 116.634 151.896 119.444C151.896 122.253 154.167 124.531 156.969 124.531Z" fill="#FFEFB0" stroke="black" stroke-miterlimit="10"/>
<path d="M651.162 117.503L644.633 110.954L638.104 117.503L644.633 124.052L651.162 117.503Z" fill="#BACCFF" stroke="black" stroke-miterlimit="10"/>
<path d="M581.723 59.2939C594.969 59.2939 605.707 48.5232 605.707 35.237C605.707 21.9508 594.969 11.1802 581.723 11.1802C568.478 11.1802 557.74 21.9508 557.74 35.237C557.74 48.5232 568.478 59.2939 581.723 59.2939Z" fill="black" stroke="black" stroke-miterlimit="10"/>
<path d="M578.02 55.7558C591.266 55.7558 602.004 44.9852 602.004 31.6989C602.004 18.4127 591.266 7.64209 578.02 7.64209C564.775 7.64209 554.037 18.4127 554.037 31.6989C554.037 44.9852 564.775 55.7558 578.02 55.7558Z" fill="white" stroke="black" stroke-miterlimit="10"/>
<path d="M565.427 44.2866V43.9211C565.427 39.9226 567.358 36.1214 570.587 33.7457L570.827 33.563L571.046 33.7677C572.948 35.5586 575.426 36.5454 578.013 36.5454C580.6 36.5454 583.078 35.5586 584.98 33.7677L585.198 33.563L585.439 33.7457C588.667 36.1214 590.598 39.9299 590.598 43.9211V44.2866H565.42H565.427Z" fill="#FFDE66"/>
<path d="M570.803 34.0382C572.691 35.8218 575.227 36.9183 578.018 36.9183C580.809 36.9183 583.345 35.8218 585.232 34.0382C588.264 36.2677 590.239 39.8568 590.239 43.9211H565.782C565.782 39.8568 567.757 36.2677 570.796 34.0382M570.854 33.0879L570.366 33.4461C567.043 35.8949 565.061 39.8057 565.061 43.9211V44.6521H590.975V43.9211C590.975 39.8057 588.993 35.8949 585.67 33.4461L585.181 33.0879L584.737 33.5046C582.9 35.237 580.517 36.1873 578.018 36.1873C575.518 36.1873 573.135 35.237 571.299 33.5046L570.854 33.0879Z" fill="black"/>
<path d="M578.019 33.5337C574.055 33.5337 570.834 30.2955 570.834 26.3262C570.834 22.3569 574.055 19.1187 578.019 19.1187C581.984 19.1187 585.205 22.3569 585.205 26.3262C585.205 30.2955 581.984 33.5337 578.019 33.5337Z" fill="#FFDE66"/>
<path d="M578.021 19.4768C581.788 19.4768 584.842 22.5397 584.842 26.3189C584.842 30.0981 581.788 33.1609 578.021 33.1609C574.253 33.1609 571.199 30.0981 571.199 26.3189C571.199 22.5397 574.253 19.4768 578.021 19.4768ZM578.021 18.7458C573.859 18.7458 570.471 22.1449 570.471 26.3189C570.471 30.4928 573.859 33.8919 578.021 33.8919C582.182 33.8919 585.57 30.4928 585.57 26.3189C585.57 22.1449 582.182 18.7458 578.021 18.7458Z" fill="black"/>
<path d="M196.518 65.3139C209.764 65.3139 220.502 54.5433 220.502 41.257C220.502 27.9708 209.764 17.2002 196.518 17.2002C183.273 17.2002 172.535 27.9708 172.535 41.257C172.535 54.5433 183.273 65.3139 196.518 65.3139Z" fill="black" stroke="black" stroke-miterlimit="10"/>
<path d="M192.815 61.776C206.061 61.776 216.798 51.0054 216.798 37.7192C216.798 24.433 206.061 13.6624 192.815 13.6624C179.57 13.6624 168.832 24.433 168.832 37.7192C168.832 51.0054 179.57 61.776 192.815 61.776Z" fill="white" stroke="black" stroke-miterlimit="10"/>
<path d="M180.222 50.3069V49.9414C180.222 45.9429 182.153 42.1417 185.382 39.766L185.622 39.5833L185.841 39.7879C187.743 41.5789 190.221 42.5657 192.808 42.5657C195.395 42.5657 197.872 41.5789 199.775 39.7879L199.993 39.5833L200.234 39.766C203.462 42.1417 205.393 45.9502 205.393 49.9414V50.3069H180.215H180.222Z" fill="#BACCFF"/>
<path d="M185.598 40.0582C187.486 41.8418 190.022 42.9383 192.813 42.9383C195.604 42.9383 198.14 41.8418 200.027 40.0582C203.059 42.2877 205.034 45.8769 205.034 49.9412H180.577C180.577 45.8769 182.552 42.2877 185.591 40.0582M185.649 39.1079L185.161 39.4661C181.838 41.9149 179.855 45.8257 179.855 49.9412V50.6722H205.77V49.9412C205.77 45.8257 203.788 41.9149 200.465 39.4661L199.976 39.1079L199.532 39.5246C197.695 41.257 195.312 42.2073 192.813 42.2073C190.313 42.2073 187.93 41.257 186.094 39.5246L185.649 39.1079Z" fill="black"/>
<path d="M192.814 39.5538C188.85 39.5538 185.629 36.3155 185.629 32.3462C185.629 28.377 188.85 25.1387 192.814 25.1387C196.779 25.1387 200 28.377 200 32.3462C200 36.3155 196.779 39.5538 192.814 39.5538Z" fill="#BACCFF"/>
<path d="M192.815 25.4969C196.583 25.4969 199.637 28.5597 199.637 32.3389C199.637 36.1181 196.583 39.181 192.815 39.181C189.048 39.181 185.994 36.1181 185.994 32.3389C185.994 28.5597 189.048 25.4969 192.815 25.4969ZM192.815 24.7659C188.654 24.7659 185.266 28.165 185.266 32.3389C185.266 36.5129 188.654 39.912 192.815 39.912C196.977 39.912 200.365 36.5129 200.365 32.3389C200.365 28.165 196.977 24.7659 192.815 24.7659Z" fill="black"/>
<path d="M145.474 198.88C158.373 198.88 168.83 188.391 168.83 175.452C168.83 162.513 158.373 152.024 145.474 152.024C132.574 152.024 122.117 162.513 122.117 175.452C122.117 188.391 132.574 198.88 145.474 198.88Z" fill="#BACCFF" stroke="black" stroke-miterlimit="10"/>
<path d="M129.098 171.68C129.098 171.68 127.728 188.266 145.634 188.266C145.634 179.414 138.353 172.426 129.098 171.68Z" fill="white" stroke="black" stroke-miterlimit="10"/>
<path d="M161.873 171.695C161.873 171.695 145.338 170.32 145.338 188.281C154.163 188.281 161.13 180.978 161.873 171.695Z" fill="white" stroke="black" stroke-miterlimit="10"/>
<g opacity="0.4">
<path d="M129.098 171.68C129.098 171.68 127.728 188.266 145.634 188.266C145.634 179.414 138.353 172.426 129.098 171.68Z" fill="#E4EBF5" stroke="black" stroke-miterlimit="10"/>
</g>
<g opacity="0.4">
<path d="M161.873 171.695C161.873 171.695 145.338 170.32 145.338 188.281C154.163 188.281 161.13 180.978 161.873 171.695Z" fill="#BACCFF" stroke="black" stroke-miterlimit="10"/>
</g>
<path d="M144.841 162.616C144.841 162.616 131.33 174.779 145.577 188.266C152.202 181.227 151.641 170.181 144.841 162.616Z" fill="#DBE0F1" stroke="black" stroke-miterlimit="10"/>
<path d="M393.448 46.8564C406.348 46.8564 416.805 36.3672 416.805 23.4282C416.805 10.4892 406.348 0 393.448 0C380.549 0 370.092 10.4892 370.092 23.4282C370.092 36.3672 380.549 46.8564 393.448 46.8564Z" fill="#DBE0F1" stroke="black" stroke-miterlimit="10"/>
<path d="M405.219 21.0159C405.656 21.0159 406.064 21.1329 406.421 21.3376C406.64 21.4618 406.902 21.4618 407.121 21.3376C407.339 21.2133 407.47 20.9794 407.47 20.7308V12.5291C407.47 12.1417 407.157 11.8274 406.771 11.8274H398.594C398.346 11.8274 398.113 11.959 397.989 12.1783C397.865 12.3976 397.865 12.6607 397.989 12.88C398.193 13.2309 398.31 13.6476 398.31 14.0861C398.31 15.4165 397.231 16.4984 395.905 16.4984C394.579 16.4984 393.5 15.4165 393.5 14.0861C393.5 13.6476 393.617 13.2309 393.821 12.88C393.945 12.6607 393.945 12.3976 393.821 12.1783C393.697 11.959 393.464 11.8274 393.216 11.8274H385.039C384.653 11.8274 384.34 12.1417 384.34 12.5291V18.1285C384.063 18.0847 383.779 18.0554 383.487 18.0554C380.528 18.0554 378.131 20.4604 378.131 23.4282C378.131 26.396 380.528 28.801 383.487 28.801C383.779 28.801 384.063 28.7717 384.34 28.7278V34.3272C384.34 34.7146 384.653 35.029 385.039 35.029H393.216C393.464 35.029 393.697 34.8974 393.821 34.6781C393.945 34.4588 393.945 34.1956 393.821 33.9763C393.617 33.6255 393.5 33.2088 393.5 32.7702C393.5 31.4398 394.579 30.358 395.905 30.358C397.231 30.358 398.31 31.4398 398.31 32.7702C398.31 33.2088 398.193 33.6255 397.989 33.9763C397.865 34.1956 397.865 34.4588 397.989 34.6781C398.113 34.8974 398.346 35.029 398.594 35.029H406.771C407.157 35.029 407.47 34.7146 407.47 34.3272V26.1255C407.47 25.877 407.339 25.6431 407.121 25.5188C406.902 25.3945 406.64 25.3945 406.421 25.5188C406.071 25.7235 405.656 25.8404 405.219 25.8404C403.892 25.8404 402.814 24.7586 402.814 23.4282C402.814 22.0978 403.892 21.0159 405.219 21.0159Z" fill="#BACCFF"/>
<path d="M397.989 33.9763C398.193 33.6255 398.31 33.2088 398.31 32.7702C398.31 31.4398 397.231 30.358 395.905 30.358C394.579 30.358 393.5 31.4398 393.5 32.7702C393.5 33.2088 393.617 33.6255 393.821 33.9763C393.945 34.1956 393.945 34.4588 393.821 34.6781C393.697 34.8974 393.464 35.029 393.216 35.029H385.039C384.653 35.029 384.34 34.7146 384.34 34.3272V28.7279C384.063 28.7717 383.779 28.801 383.487 28.801C380.528 28.801 378.131 26.396 378.131 23.4282C378.131 20.4604 380.528 18.0554 383.487 18.0554C383.779 18.0554 384.063 18.0847 384.34 18.1285V12.5291C384.34 12.1417 384.653 11.8274 385.039 11.8274H393.216C393.464 11.8274 393.697 11.959 393.821 12.1783C393.945 12.3976 393.945 12.6607 393.821 12.88C393.617 13.2309 393.5 13.6476 393.5 14.0861C393.5 15.4165 394.579 16.4984 395.905 16.4984C397.231 16.4984 398.31 15.4165 398.31 14.0861C398.31 13.6476 398.193 13.2309 397.989 12.88C397.865 12.6607 397.865 12.3976 397.989 12.1783C398.113 11.959 398.346 11.8274 398.594 11.8274H406.771C407.157 11.8274 407.47 12.1417 407.47 12.5291V20.7308C407.47 20.9794 407.339 21.2133 407.121 21.3376C406.902 21.4618 406.64 21.4618 406.421 21.3376C406.064 21.1329 405.656 21.0159 405.219 21.0159C403.892 21.0159 402.814 22.0978 402.814 23.4282C402.814 24.7586 403.892 25.8404 405.219 25.8404C405.656 25.8404 406.071 25.7235 406.421 25.5188C406.64 25.3945 406.902 25.3945 407.121 25.5188C407.339 25.6431 407.47 25.877 407.47 26.1255V34.3272C407.47 34.7146 407.157 35.029 406.771 35.029H398.594C398.346 35.029 398.113 34.8974 397.989 34.6781C397.865 34.4588 397.865 34.1956 397.989 33.9763ZM397.989 33.9763L398.594 34.3272" stroke="black" stroke-miterlimit="10"/>
<path d="M605.63 209.903C618.529 209.903 628.986 199.414 628.986 186.475C628.986 173.536 618.529 163.047 605.63 163.047C592.731 163.047 582.273 173.536 582.273 186.475C582.273 199.414 592.731 209.903 605.63 209.903Z" fill="#FFDE66" stroke="black" stroke-miterlimit="10"/>
<path d="M605.63 203.222C602.154 203.222 600.281 194.589 600.281 186.475C600.281 178.361 602.154 169.728 605.63 169.728C609.106 169.728 610.979 178.361 610.979 186.475C610.979 194.589 609.106 203.222 605.63 203.222ZM605.63 170.825C603.619 170.825 601.382 177.25 601.382 186.475C601.382 195.7 603.619 202.126 605.63 202.126C607.642 202.126 609.879 195.7 609.879 186.475C609.879 177.25 607.642 170.825 605.63 170.825Z" fill="white"/>
<path d="M616.979 196.132C613.677 196.132 608.299 194.209 602.958 191.117C599.175 188.924 595.867 186.424 593.644 184.07C591.239 181.526 590.379 179.458 591.166 178.098C591.655 177.243 592.704 176.812 594.278 176.812C597.587 176.812 602.958 178.734 608.299 181.826C612.081 184.012 615.383 186.519 617.613 188.873C620.018 191.417 620.878 193.485 620.09 194.845C619.602 195.7 618.553 196.132 616.979 196.132ZM594.278 177.915C593.484 177.915 592.471 178.04 592.121 178.646C591.625 179.502 592.493 181.249 594.446 183.31C596.596 185.591 599.817 188.025 603.511 190.159C608.7 193.164 613.86 195.028 616.986 195.028C617.78 195.028 618.801 194.903 619.143 194.289C619.639 193.434 618.771 191.687 616.818 189.626C614.669 187.345 611.447 184.911 607.753 182.776C602.564 179.772 597.404 177.908 594.278 177.908V177.915Z" fill="white"/>
<path d="M594.286 196.132C592.712 196.132 591.662 195.7 591.174 194.845C589.439 191.826 595.954 185.883 602.965 181.826C608.307 178.734 613.685 176.812 616.986 176.812C618.56 176.812 619.61 177.243 620.098 178.098C620.885 179.458 620.025 181.526 617.62 184.07C615.398 186.424 612.089 188.924 608.307 191.117C602.965 194.209 597.587 196.132 594.286 196.132ZM616.986 177.908C613.86 177.908 608.7 179.772 603.512 182.776C595.554 187.389 591.123 192.542 592.129 194.289C592.478 194.896 593.499 195.02 594.286 195.02C597.412 195.02 602.572 193.156 607.76 190.152C611.448 188.018 614.669 185.583 616.826 183.303C618.772 181.241 619.646 179.494 619.151 178.639C618.801 178.032 617.781 177.908 616.994 177.908H616.986Z" fill="white"/>
<path d="M605.631 190.306C603.525 190.306 601.805 188.588 601.805 186.468C601.805 184.348 603.517 182.63 605.631 182.63C607.744 182.63 609.457 184.348 609.457 186.468C609.457 188.588 607.744 190.306 605.631 190.306Z" fill="#BACCFF"/>
<path d="M605.632 183.003C607.541 183.003 609.093 184.56 609.093 186.475C609.093 188.39 607.548 189.947 605.632 189.947C603.715 189.947 602.17 188.398 602.17 186.475C602.17 184.553 603.715 183.003 605.632 183.003ZM605.632 182.272C603.322 182.272 601.441 184.158 601.441 186.475C601.441 188.792 603.322 190.678 605.632 190.678C607.942 190.678 609.822 188.792 609.822 186.475C609.822 184.158 607.942 182.272 605.632 182.272Z" fill="black"/>
<path d="M602.799 185.949C602.799 184.706 603.805 183.698 605.043 183.698C606.282 183.698 607.288 184.706 607.288 185.949C607.288 187.192 606.282 188.2 605.043 188.2C603.805 188.2 602.799 187.192 602.799 185.949Z" fill="white"/>
<path d="M595.29 179.414C596.389 179.414 597.28 178.52 597.28 177.418C597.28 176.316 596.389 175.423 595.29 175.423C594.192 175.423 593.301 176.316 593.301 177.418C593.301 178.52 594.192 179.414 595.29 179.414Z" fill="#BACCFF"/>
<path d="M595.291 175.788C596.188 175.788 596.917 176.519 596.917 177.418C596.917 178.317 596.188 179.048 595.291 179.048C594.395 179.048 593.666 178.317 593.666 177.418C593.666 176.519 594.395 175.788 595.291 175.788ZM595.291 175.057C593.994 175.057 592.938 176.117 592.938 177.418C592.938 178.719 593.994 179.779 595.291 179.779C596.589 179.779 597.645 178.719 597.645 177.418C597.645 176.117 596.589 175.057 595.291 175.057Z" fill="black"/>
<path d="M601.665 197.579C600.572 197.579 599.676 196.687 599.676 195.583C599.676 194.48 600.565 193.588 601.665 193.588C602.766 193.588 603.655 194.48 603.655 195.583C603.655 196.687 602.766 197.579 601.665 197.579Z" fill="#BACCFF"/>
<path d="M601.666 193.953C602.563 193.953 603.292 194.684 603.292 195.583C603.292 196.482 602.563 197.213 601.666 197.213C600.77 197.213 600.041 196.482 600.041 195.583C600.041 194.684 600.77 193.953 601.666 193.953ZM601.666 193.222C600.369 193.222 599.312 194.282 599.312 195.583C599.312 196.884 600.369 197.944 601.666 197.944C602.964 197.944 604.02 196.884 604.02 195.583C604.02 194.282 602.964 193.222 601.666 193.222Z" fill="black"/>
<path d="M612.198 180.247C611.105 180.247 610.209 179.355 610.209 178.251C610.209 177.148 611.098 176.256 612.198 176.256C613.299 176.256 614.188 177.148 614.188 178.251C614.188 179.355 613.299 180.247 612.198 180.247Z" fill="#BACCFF"/>
<path d="M612.196 176.622C613.092 176.622 613.821 177.353 613.821 178.252C613.821 179.151 613.092 179.882 612.196 179.882C611.299 179.882 610.571 179.151 610.571 178.252C610.571 177.353 611.299 176.622 612.196 176.622ZM612.196 175.891C610.898 175.891 609.842 176.951 609.842 178.252C609.842 179.553 610.898 180.613 612.196 180.613C613.493 180.613 614.55 179.553 614.55 178.252C614.55 176.951 613.493 175.891 612.196 175.891Z" fill="black"/>
<path d="M613.042 177.937C613.042 178.551 612.546 179.048 611.934 179.048C611.322 179.048 610.826 178.551 610.826 177.937C610.826 177.323 611.322 176.826 611.934 176.826C612.546 176.826 613.042 177.323 613.042 177.937Z" fill="white"/>
<path d="M596.165 177.141C596.165 177.755 595.669 178.252 595.057 178.252C594.445 178.252 593.949 177.755 593.949 177.141C593.949 176.527 594.445 176.03 595.057 176.03C595.669 176.03 596.165 176.527 596.165 177.141Z" fill="white"/>
<path d="M602.461 195.357C602.461 195.971 601.966 196.468 601.354 196.468C600.742 196.468 600.246 195.971 600.246 195.357C600.246 194.743 600.742 194.246 601.354 194.246C601.966 194.246 602.461 194.743 602.461 195.357Z" fill="white"/>
</svg>
