<svg width="778" height="392" viewBox="0 0 778 392" fill="none" xmlns="http://www.w3.org/2000/svg">
<g clip-path="url(#clip0_10101_24305)">
<path d="M118 249C183.17 249 236 196.17 236 131C236 65.8304 183.17 13 118 13C52.8304 13 0 65.8304 0 131C0 196.17 52.8304 249 118 249Z" fill="white"/>
<path d="M621 34C708.812 34 780 105.188 780 193C780 280.812 708.812 352 621 352V34Z" fill="#FFF1C1"/>
<path d="M699 374H99V392H699V374Z" fill="black"/>
<path d="M612.338 57.8403L614.939 51.2408C615.188 50.6141 616.07 50.6141 616.311 51.2408L618.912 57.8403C618.988 58.0291 619.138 58.1801 619.327 58.2556L625.916 60.8607C626.542 61.1099 626.542 61.9933 625.916 62.235L619.327 64.8401C619.138 64.9156 618.988 65.0666 618.912 65.2554L616.311 71.8549C616.063 72.4816 615.18 72.4816 614.939 71.8549L612.338 65.2554C612.263 65.0666 612.112 64.9156 611.924 64.8401L605.335 62.235C604.709 61.9858 604.709 61.1023 605.335 60.8607L611.924 58.2556C612.112 58.1801 612.263 58.0291 612.338 57.8403Z" fill="white" stroke="black" stroke-miterlimit="10"/>
<path d="M192.477 118.097L195.078 111.497C195.327 110.871 196.209 110.871 196.45 111.497L199.051 118.097C199.126 118.286 199.277 118.437 199.466 118.512L206.055 121.117C206.68 121.366 206.68 122.25 206.055 122.492L199.466 125.097C199.277 125.172 199.126 125.323 199.051 125.512L196.45 132.111C196.201 132.738 195.319 132.738 195.078 132.111L192.477 125.512C192.402 125.323 192.251 125.172 192.062 125.097L185.473 122.492C184.847 122.242 184.847 121.359 185.473 121.117L192.062 118.512C192.251 118.437 192.402 118.286 192.477 118.097Z" fill="white" stroke="black" stroke-miterlimit="10"/>
<path d="M689.704 75.7814C692.602 75.7814 694.951 73.4285 694.951 70.526C694.951 67.6235 692.602 65.2705 689.704 65.2705C686.806 65.2705 684.457 67.6235 684.457 70.526C684.457 73.4285 686.806 75.7814 689.704 75.7814Z" fill="#E4EBF5" stroke="black" stroke-miterlimit="10"/>
<path d="M411.96 31.2912C414.858 31.2912 417.207 28.9382 417.207 26.0357C417.207 23.1332 414.858 20.7803 411.96 20.7803C409.062 20.7803 406.713 23.1332 406.713 26.0357C406.713 28.9382 409.062 31.2912 411.96 31.2912Z" fill="#BACCFF" stroke="black" stroke-miterlimit="10"/>
<path d="M123.685 97.2939C126.583 97.2939 128.932 94.9409 128.932 92.0384C128.932 89.1359 126.583 86.783 123.685 86.783C120.787 86.783 118.438 89.1359 118.438 92.0384C118.438 94.9409 120.787 97.2939 123.685 97.2939Z" fill="#FFEFB0" stroke="black" stroke-miterlimit="10"/>
<path d="M200.929 266.654C203.827 266.654 206.176 264.301 206.176 261.399C206.176 258.496 203.827 256.143 200.929 256.143C198.031 256.143 195.682 258.496 195.682 261.399C195.682 264.301 198.031 266.654 200.929 266.654Z" fill="#FFEFB0" stroke="black" stroke-miterlimit="10"/>
<path d="M710.322 232.433C720.399 232.433 728.567 224.252 728.567 214.16C728.567 204.068 720.399 195.887 710.322 195.887C700.246 195.887 692.078 204.068 692.078 214.16C692.078 224.252 700.246 232.433 710.322 232.433Z" fill="white" stroke="black" stroke-miterlimit="10"/>
<path d="M675.258 156.471L676.925 189.725L672.047 235.348L752.729 203.475L712.953 173.679L692.417 149.69L675.258 156.471Z" fill="black" stroke="black" stroke-width="2" stroke-linecap="round" stroke-linejoin="round"/>
<path d="M550.61 373.742C550.588 373.221 550.527 372.7 550.527 372.171C550.527 354.819 564.572 340.744 581.905 340.744C599.229 340.744 613.282 354.812 613.282 372.171C613.282 372.7 613.229 373.221 613.199 373.742H550.61Z" fill="black" stroke="black" stroke-width="2" stroke-miterlimit="10"/>
<path d="M581.91 341.99C581.36 341.99 580.855 341.62 580.704 341.061L539.134 182.363C538.961 181.698 539.36 181.011 540.024 180.838C540.687 180.664 541.373 181.064 541.547 181.729L583.117 340.427C583.29 341.091 582.89 341.771 582.227 341.952C582.121 341.982 582.016 341.99 581.91 341.99Z" fill="black"/>
<path d="M570.926 345.924C570.376 345.924 569.871 345.554 569.72 344.995L528.15 186.297C527.976 185.632 528.376 184.945 529.039 184.772C529.703 184.59 530.389 184.998 530.562 185.663L572.132 344.361C572.306 345.025 571.906 345.705 571.243 345.886C571.137 345.916 571.032 345.924 570.926 345.924Z" fill="black"/>
<path d="M526.221 183.624C526.221 187.966 529.734 191.477 534.061 191.477C538.396 191.477 541.902 187.958 541.902 183.624C541.902 179.282 538.389 175.771 534.061 175.771C529.726 175.771 526.221 179.29 526.221 183.624Z" fill="black" stroke="black" stroke-width="2" stroke-miterlimit="10"/>
<path d="M534.771 184.651L533.354 182.597L641.417 92.0386L641.545 94.9834L534.771 184.651Z" fill="black"/>
<path d="M542.618 190.148L541.193 188.094L647.048 98.7664L648.466 100.82L542.618 190.148Z" fill="black"/>
<path d="M636.771 97.4376C636.771 101.341 639.93 104.505 643.828 104.505C647.726 104.505 650.884 101.341 650.884 97.4376C650.884 93.5337 647.726 90.3699 643.828 90.3699C639.93 90.3699 636.771 93.5337 636.771 97.4376Z" fill="black" stroke="black" stroke-width="2" stroke-miterlimit="10"/>
<path d="M688.875 171.671L640.588 97.4375" stroke="black" stroke-miterlimit="10"/>
<path d="M688.881 172.494C689.032 172.494 689.19 172.449 689.333 172.358C689.71 172.109 689.823 171.595 689.574 171.218L641.28 96.9845C641.031 96.5994 640.526 96.4937 640.141 96.7428C639.764 96.992 639.651 97.5055 639.9 97.883L688.195 172.116C688.353 172.358 688.617 172.486 688.881 172.486V172.494Z" fill="black" stroke="black" stroke-miterlimit="10"/>
<path d="M696.76 168.416L648.465 94.1831" stroke="black" stroke-miterlimit="10"/>
<path d="M696.76 169.239C696.911 169.239 697.069 169.194 697.212 169.103C697.589 168.854 697.702 168.341 697.453 167.963L649.159 93.7299C648.91 93.3448 648.405 93.2467 648.02 93.4883C647.643 93.7375 647.53 94.2509 647.779 94.6285L696.074 168.862C696.232 169.104 696.496 169.232 696.76 169.232V169.239Z" fill="black" stroke="black" stroke-miterlimit="10"/>
<path d="M264.634 341.537H126.896V354.155H264.634V341.537Z" fill="white" stroke="black" stroke-miterlimit="10"/>
<path d="M264.64 354.434H115.18V360.739H264.64V354.434Z" fill="#FFDE66" stroke="black" stroke-miterlimit="10"/>
<path d="M264.633 361.033H142.125V373.742H264.633V361.033Z" fill="white" stroke="black" stroke-miterlimit="10"/>
<path d="M189.258 361.033H160.852V373.742H189.258V361.033Z" fill="white" stroke="black" stroke-miterlimit="10"/>
<path d="M252.579 341.492H224.172V354.2H252.579V341.492Z" fill="black" stroke="black" stroke-miterlimit="10"/>
<path d="M252.225 153.088H557.893C564.248 153.088 569.405 158.253 569.405 164.618V350.236C569.405 361.585 560.207 370.797 548.876 370.797H261.234C249.903 370.797 240.705 361.585 240.705 350.236V164.618C240.705 158.253 245.862 153.088 252.217 153.088H252.225Z" fill="#BACCFF" stroke="black" stroke-miterlimit="10"/>
<path d="M226.969 354.691H583.087C583.087 365.202 574.568 373.742 564.067 373.742H245.99C235.495 373.742 226.969 365.209 226.969 354.691Z" fill="#BACCFF" stroke="black" stroke-miterlimit="10"/>
<path d="M559.664 161.734H249.533V345.584H559.664V161.734Z" fill="white" stroke="black" stroke-miterlimit="10"/>
<path d="M372.66 354.691L377.078 361.736H439.26L443.361 354.691H372.66Z" fill="#DBE0F1" stroke="black" stroke-miterlimit="10"/>
<path d="M543.431 186.433H266.615V345.584H543.431V186.433Z" fill="#FFF1CC"/>
<path d="M448.056 123.352C450.738 123.352 452.911 121.175 452.911 118.49C452.911 115.804 450.738 113.627 448.056 113.627C445.375 113.627 443.201 115.804 443.201 118.49C443.201 121.175 445.375 123.352 448.056 123.352Z" fill="#FFDE66" stroke="black" stroke-miterlimit="10"/>
<path d="M389.501 228.99L411.206 197.027L436.492 219.952L479.886 172.328C481.183 164.014 477.964 157.037 493.404 153.269C498.794 146.556 507.584 136.159 508.632 134.46C510.329 131.704 512.063 131.862 513.035 132.557C514.55 133.644 514.46 136.287 513.08 138.696C512.605 139.526 505.232 150.868 505.232 150.868C505.232 150.868 506.484 150.166 509.876 148.935C513.269 147.704 518.599 149.093 523.1 152.091C527.6 155.089 528.596 156.32 527.517 158.124C527.088 158.849 526.326 159.174 525.542 159.302C524.268 159.506 522.331 158.932 521.222 158.275C512.326 152.959 510.185 156.486 510.185 156.486L508.994 157.815C508.994 157.815 515.659 157.43 518.38 160.986C518.825 161.568 519.096 162.157 519.255 162.746C521.192 163.976 522.451 166.234 522.436 168.537C522.414 170.938 521.026 173.272 518.931 174.434C517.928 174.986 516.556 175.227 515.727 174.442C515.289 174.027 515.101 173.423 514.912 172.841C514.814 172.539 514.709 172.23 514.558 171.95L511.294 175.393C511.294 175.393 507.841 180.264 504.863 184.175C503.265 186.274 501.169 187.928 498.764 189L494.949 190.707L454.178 244.311C449.798 250.669 443.79 256.234 437.517 256.43C424.678 260.394 389.486 228.998 389.486 228.998L389.501 228.99Z" fill="white" stroke="black" stroke-miterlimit="10"/>
<path d="M349.281 202.086L386.765 238.882C410.061 224.746 422.236 203.898 422.236 203.898L397.44 169.609C396.249 167.963 395.118 166.272 394.033 164.55C391.545 160.616 385.061 151.955 376.957 153.314" fill="#FFDE66"/>
<path d="M349.281 202.086L386.765 238.882C410.061 224.746 422.236 203.898 422.236 203.898L397.44 169.609C396.249 167.963 395.118 166.272 394.033 164.55C391.545 160.616 385.061 151.955 376.957 153.314" stroke="black" stroke-miterlimit="10"/>
<path d="M470.878 258.054L421.694 331.842C420.035 334.333 468.745 337.55 468.745 337.55L516.655 262.728C516.655 262.728 471.685 256.838 470.878 258.046V258.054Z" fill="white" stroke="black" stroke-miterlimit="10"/>
<path d="M334.98 128.698C334.98 128.698 304.04 161.711 296.199 176.171C290.221 187.188 288.6 246.342 288.97 258.877C290.372 306.863 290.379 345.381 290.379 345.381H411.961L406.08 229.458C406.065 228.167 405.967 226.053 405.861 224.762C405.824 224.256 405.779 223.757 405.741 223.259C403.901 199.942 396.513 177.417 384.194 157.543L379.083 149.305L347.781 140.387C341.991 138.59 337.294 134.301 334.98 128.691V128.698Z" fill="#FFDE66" stroke="black" stroke-miterlimit="10"/>
<path d="M493.252 153.428C496.788 153.164 500.535 153.292 501.115 154.606C501.545 155.58 501.04 158.668 500.196 159.333C499.351 159.99 492.521 160.458 491.48 160.699C492.295 164.15 496.848 166.045 496.841 169.594C496.841 173.143 495.929 176.806 493.637 179.516" stroke="black" stroke-miterlimit="10"/>
<path d="M358.223 219.499L348.965 267.742C368.642 272.823 415.64 294.963 415.64 294.963C416.032 295.114 423.676 292.524 428.275 290.659C433.153 288.68 445.426 287.51 450.658 288.031L445.479 295.725L446.105 296.435C448.683 299.365 452.302 301.17 456.184 301.464L458.159 301.615C459.637 301.57 461.1 301.358 462.524 300.981L467.734 299.169C469.309 298.549 470.938 298.738 471.534 300.332C472.069 301.774 471.533 303.692 467.214 305.61C464.801 306.682 455.913 309.279 455.913 309.279C455.913 309.279 455.664 311.696 455.219 312.949C454.774 314.203 451.276 315.305 451.276 315.305C451.276 315.305 448.894 319.654 447.952 320.628C447.529 321.066 444.371 321.882 441.016 322.645C435.603 323.883 429.828 321.927 424.596 320.077L412.737 315.803L329.047 296.881C319.012 294.615 308.963 279.846 309.016 269.539L302.344 202.26L358.215 219.491L358.223 219.499Z" fill="white" stroke="black" stroke-miterlimit="10"/>
<path d="M451.388 315.26C448.373 315.977 445.35 316.687 442.334 317.404" stroke="black" stroke-miterlimit="10"/>
<path d="M299.494 192.474C301.733 224.248 305.216 265.559 305.216 265.559L359.587 261.973C359.587 261.973 360.454 230.41 360.613 221.16C360.771 211.91 356.903 171.754 335.734 164.445" fill="#FFDE66"/>
<path d="M299.494 192.474C301.733 224.248 305.216 265.559 305.216 265.559L359.587 261.973C359.587 261.973 360.454 230.41 360.613 221.16C360.771 211.91 356.903 171.754 335.734 164.445" stroke="black" stroke-miterlimit="10"/>
<path d="M456.147 309.242L450.342 310.812" stroke="black" stroke-miterlimit="10"/>
<path d="M394.009 100.345C402.265 98.9477 399.686 92.6502 400.757 86.8057C401.156 84.6462 400.108 79.0509 400.131 76.0909C400.161 72.0965 402.031 71.8548 402.25 71.1677C403.064 68.5777 402.513 65.6027 400.84 63.4733C399.912 62.2953 398.646 61.3364 398.05 59.9621C396.769 56.9946 399.076 56.5415 398.503 53.3626C397.975 50.4101 395.133 49.9344 392.336 48.8698C389.539 47.8051 386.486 47.2388 384.066 45.4718C381.849 43.8484 380.402 41.3641 378.306 39.5896C375.373 37.1054 370.495 36.758 366.794 37.8076C362.994 38.8874 360.491 41.2886 356.563 41.7266C353.706 42.0512 350.886 40.979 348.014 40.8053C341.531 40.4051 335.115 45.2 333.645 51.5352C332.996 54.3291 332.356 53.8005 330.561 56.0356C328.224 58.9427 324.183 58.4293 322.344 61.6762C321.251 63.6092 321.598 66.0331 322.246 68.1624C322.894 70.2918 323.49 78.0844 323.475 78.0919C318.318 81.1652 318.868 87.4325 319.637 88.8369C322.035 93.2014 325.088 96.8032 328.172 98.1926C332.107 99.9595 337.935 104.777 341.915 103.116L394.002 100.36L394.009 100.345Z" fill="white" stroke="black" stroke-miterlimit="10"/>
<path d="M396.204 72.4891C395.774 65.6555 393.377 59.3882 389.585 54.2158C386.712 50.5385 381.925 47.79 376.934 49.2851C373.745 50.244 370.285 49.9722 367.194 48.7414C362.723 46.9594 356.579 45.7588 349.183 49.8589C344.079 52.7207 340.152 60.4303 339.556 66.8335C338.704 76.0683 338.267 80.6064 338.825 89.9092C338.908 91.2457 344.268 101.719 340.544 102.549C333.125 104.203 332.13 94.5001 331.286 91.8875C330.66 89.9469 331.06 87.8478 331.527 85.8468C327.916 85.3106 321.101 85.5749 321.236 95.0438C321.395 105.804 330.509 105.434 333.299 104.845L333.774 128.698C333.774 128.698 369.84 151.759 370.647 154.93L377.801 142.494L378.796 131.9C378.796 131.9 396.468 126.811 396.468 112.252C396.468 103.282 397.259 89.222 396.204 72.4891Z" fill="white" stroke="black" stroke-linejoin="round"/>
<path d="M382.294 87.9913C382.392 89.7053 383.87 91.0117 385.596 90.9135C387.323 90.8153 388.642 89.3505 388.544 87.6364C388.446 85.9223 386.968 84.616 385.242 84.7142C383.516 84.8123 382.196 86.2772 382.294 87.9913Z" fill="black"/>
<path d="M356.714 87.9913C356.812 89.7053 358.29 91.0117 360.016 90.9135C361.743 90.8153 363.062 89.3505 362.964 87.6364C362.866 85.9223 361.388 84.616 359.662 84.7142C357.935 84.8123 356.616 86.2772 356.714 87.9913Z" fill="black"/>
<path d="M366.801 108.87C369.032 110.667 371.927 111.777 374.905 111.966C377.883 112.154 380.929 111.422 383.424 109.919" stroke="black" stroke-linecap="round" stroke-linejoin="round"/>
<path d="M375.803 87.7419L382.603 97.7923L376.127 101.168" stroke="black" stroke-linecap="round" stroke-linejoin="round"/>
<path d="M368.77 87.7419C368.77 82.4714 364.503 78.2051 359.248 78.2051C353.986 78.2051 349.727 82.4789 349.727 87.7419C349.727 93.0125 353.994 97.2788 359.248 97.2788C364.51 97.2788 368.77 93.0049 368.77 87.7419Z" stroke="black" stroke-miterlimit="10"/>
<path d="M385.333 96.4708C390.595 96.4708 394.854 93.0125 394.854 87.7419C394.854 82.4714 390.587 78.2051 385.333 78.2051C380.07 78.2051 375.811 82.4789 375.811 87.7419H368.77" stroke="black" stroke-linecap="round" stroke-linejoin="round"/>
<path d="M338.824 89.9091L349.718 87.7419" stroke="black" stroke-miterlimit="10"/>
<path d="M328.307 92.8313C326.588 93.2239 325.404 95.1721 325.841 96.8786C326.279 98.5851 328.261 99.7178 329.95 99.2345" stroke="black" stroke-linecap="round" stroke-linejoin="round"/>
<path d="M378.819 131.892C378.819 131.892 367.088 132.64 354.77 124.591C354.77 124.591 359.708 139.224 378.231 137.88L378.819 131.892Z" fill="black" stroke="black" stroke-miterlimit="10"/>
<path d="M370.647 155.24L364.955 150.113L343.756 156.018L322.436 141.475L332.696 127.588L366.26 145.552C366.26 145.552 370.127 149.72 370.647 155.24Z" fill="#FFDE66" stroke="black" stroke-linejoin="round"/>
<path d="M370.646 154.93L375.833 149.879L383.191 153.851L379.196 137.963L373.127 147.923C373.127 147.923 370.805 152.008 370.654 154.93H370.646Z" fill="#FFDE66" stroke="black" stroke-linejoin="round"/>
<path d="M370.646 154.93L376.293 177.032" stroke="black" stroke-linejoin="round"/>
<path d="M534.228 97.4374C557.336 97.4374 576.069 78.6746 576.069 55.5296C576.069 32.3846 557.336 13.6218 534.228 13.6218C511.12 13.6218 492.387 32.3846 492.387 55.5296C492.387 78.6746 511.12 97.4374 534.228 97.4374Z" fill="black" stroke="black" stroke-miterlimit="10"/>
<path d="M528.421 91.4647C551.53 91.4647 570.263 72.702 570.263 49.5569C570.263 26.4119 551.53 7.64917 528.421 7.64917C505.313 7.64917 486.58 26.4119 486.58 49.5569C486.58 72.702 505.313 91.4647 528.421 91.4647Z" fill="white" stroke="black" stroke-miterlimit="10"/>
<mask id="mask0_10101_24305" style="mask-type:luminance" maskUnits="userSpaceOnUse" x="497" y="33" width="63" height="39">
<path d="M559.468 33.6243H497.369V71.7188H559.468V33.6243Z" fill="white"/>
</mask>
<g mask="url(#mask0_10101_24305)">
<path d="M508.194 34.145L497.881 52.0181L505.043 56.2693L515.356 38.3962L508.194 34.145Z" fill="#FFDD66" stroke="black" stroke-miterlimit="10"/>
<path d="M548.648 34.1377L541.486 38.3889L551.8 56.262L558.962 52.0108L548.648 34.1377Z" stroke="black" stroke-miterlimit="10"/>
<path d="M542.836 40.7221L540.092 41.9907C540.092 41.9907 533.013 40.7221 530.487 40.7221C527.962 40.7221 522.187 41.9907 522.187 41.9907C522.187 41.9907 517.709 47.7596 517.43 48.8922C517.151 50.0324 517.988 51.822 520.596 50.5912C523.212 49.368 526.839 47.1857 527.404 46.9063C527.962 46.6194 544.842 57.5909 545.211 57.7722C545.581 57.9609 546.146 57.3946 546.606 56.8207C547.066 56.2469 550.225 53.5134 550.225 53.5134L542.829 40.6995L542.836 40.7221Z" fill="white" stroke="black" stroke-miterlimit="10"/>
<path d="M506.611 53.5286L510.245 58.3385C510.245 58.3385 523.619 69.1137 525.994 70.2464C528.376 71.3866 530.939 71.0015 531.678 70.8127C532.417 70.6239 534.196 69.4913 534.196 69.4913C534.196 69.4913 537.649 69.2043 537.92 67.4148C538.199 65.6176 537.92 65.1495 537.92 65.1495C537.92 65.1495 540.084 66.1764 541.471 64.6738C542.858 63.1787 541.84 62.2801 541.84 62.2801C541.84 62.2801 544.524 62.635 545.565 60.8983C546.613 59.1616 545.195 57.7798 545.195 57.7798L527.622 46.9668C527.622 46.9668 520.271 51.2557 519.171 51.0066C518.07 50.7574 516.773 50.0853 517.407 48.8998C518.032 47.7143 521.086 43.4028 521.086 43.4028L516.751 42.557L513.984 40.7222L506.596 53.5361L506.611 53.5286Z" fill="white" stroke="black" stroke-miterlimit="10"/>
<path d="M533.805 56.9265L541.856 62.2877" stroke="black" stroke-miterlimit="10"/>
<path d="M531.135 61.2983L537.942 65.1493" stroke="black" stroke-miterlimit="10"/>
<path d="M528.896 65.7158L535.501 69.2723" stroke="black" stroke-miterlimit="10"/>
<path d="M513.343 64.8248C512.981 64.8248 512.626 64.704 512.332 64.485C511.586 63.9187 511.42 62.8389 511.986 62.0763L514.315 58.8898C514.632 58.4518 515.144 58.1951 515.68 58.1951C516.042 58.1951 516.403 58.3159 516.69 58.5349C517.436 59.1012 517.602 60.181 517.037 60.9436L514.707 64.1301C514.391 64.5681 513.878 64.8324 513.343 64.8324V64.8248Z" fill="white"/>
<path d="M515.681 58.5725C515.953 58.5725 516.231 58.6555 516.465 58.8368C517.053 59.2823 517.181 60.1204 516.737 60.717L514.407 63.9034C514.151 64.2583 513.744 64.4471 513.336 64.4471C513.065 64.4471 512.786 64.3641 512.545 64.1828C511.957 63.7373 511.829 62.8992 512.273 62.3026L514.603 59.1161C514.859 58.7613 515.266 58.5725 515.674 58.5725H515.681ZM515.681 57.8174C515.025 57.8174 514.407 58.1345 514.015 58.6706L511.685 61.8571C510.999 62.7859 511.195 64.1073 512.115 64.7945C512.477 65.0663 512.899 65.2098 513.344 65.2098C514 65.2098 514.618 64.8926 515.01 64.3565L517.34 61.17C517.664 60.7169 517.807 60.1657 517.724 59.6145C517.641 59.0557 517.355 58.5649 516.91 58.2402C516.556 57.9684 516.126 57.8249 515.681 57.8249V57.8174Z" fill="black"/>
<path d="M515.138 67.8075C514.768 67.8075 514.414 67.6866 514.105 67.4526C513.743 67.1732 513.509 66.7654 513.449 66.3124C513.389 65.8518 513.509 65.3987 513.781 65.0438L518.334 58.9955C518.658 58.5651 519.148 58.3159 519.684 58.3159C520.053 58.3159 520.415 58.4367 520.716 58.6708C521.455 59.2522 521.606 60.332 521.033 61.0871L516.479 67.1354C516.155 67.5658 515.665 67.815 515.13 67.815L515.138 67.8075Z" fill="white"/>
<path d="M519.684 58.6858C519.963 58.6858 520.249 58.7764 520.483 58.9651C521.071 59.4182 521.184 60.2564 520.732 60.8529L516.178 66.9012C515.922 67.2485 515.515 67.4298 515.123 67.4298C514.844 67.4298 514.557 67.3391 514.324 67.1504C513.736 66.6973 513.623 65.8592 514.075 65.2626L518.629 59.2143C518.885 58.867 519.292 58.6858 519.684 58.6858ZM519.684 57.9307C519.028 57.9307 518.433 58.2327 518.033 58.7613L513.479 64.8096C512.786 65.7308 512.959 67.0522 513.871 67.7545C514.233 68.0338 514.663 68.1849 515.123 68.1849C515.779 68.1849 516.374 67.8828 516.774 67.3542L521.328 61.3059C521.659 60.8604 521.81 60.3017 521.735 59.758C521.659 59.2068 521.38 58.7084 520.943 58.3686C520.581 58.0892 520.151 57.9382 519.692 57.9382L519.684 57.9307Z" fill="black"/>
<path d="M517.897 69.899C517.528 69.899 517.174 69.7782 516.865 69.5441C516.503 69.2647 516.269 68.857 516.209 68.4039C516.148 67.9433 516.269 67.4903 516.54 67.1354L520.611 61.7213C520.936 61.2909 521.426 61.0417 521.961 61.0417C522.33 61.0417 522.685 61.1626 522.994 61.3966C523.356 61.676 523.589 62.0838 523.65 62.5368C523.71 62.9974 523.589 63.4505 523.318 63.8054L519.247 69.2194C518.923 69.6498 518.433 69.899 517.897 69.899Z" fill="white"/>
<path d="M521.975 61.4116C522.254 61.4116 522.54 61.5022 522.774 61.691C523.362 62.144 523.475 62.9822 523.023 63.5787L518.952 68.9928C518.695 69.3401 518.288 69.5289 517.896 69.5289C517.617 69.5289 517.331 69.4383 517.097 69.2495C516.509 68.7964 516.396 67.9583 516.848 67.3618L520.919 61.9477C521.176 61.6004 521.583 61.4192 521.975 61.4192V61.4116ZM521.975 60.6641C521.319 60.6641 520.723 60.9661 520.324 61.4947L516.253 66.9087C515.559 67.8299 515.733 69.1513 516.645 69.8536C517.007 70.133 517.436 70.284 517.896 70.284C518.552 70.284 519.148 69.9819 519.547 69.4534L523.618 64.0393C523.95 63.5938 524.101 63.0351 524.026 62.4914C523.95 61.9402 523.671 61.4418 523.234 61.102C522.872 60.8226 522.442 60.6716 521.982 60.6716L521.975 60.6641Z" fill="black"/>
<path d="M521.003 71.3487C520.633 71.3487 520.279 71.2279 519.97 70.9938C519.608 70.7144 519.374 70.3066 519.314 69.846C519.254 69.3854 519.374 68.9324 519.646 68.5775L522.126 65.2702C522.45 64.8398 522.94 64.5906 523.476 64.5906C523.845 64.5906 524.199 64.7114 524.508 64.9455C524.87 65.2249 525.104 65.6326 525.164 66.0932C525.225 66.5538 525.104 67.0069 524.833 67.3618L522.352 70.6691C522.028 71.0995 521.538 71.3487 521.003 71.3487Z" fill="white"/>
<path d="M523.491 64.9758C523.77 64.9758 524.056 65.0664 524.29 65.2552C524.878 65.7082 524.991 66.5464 524.539 67.1429L522.051 70.4502C521.795 70.7976 521.387 70.9788 520.995 70.9788C520.717 70.9788 520.43 70.8882 520.196 70.6994C519.608 70.2464 519.495 69.4082 519.948 68.8117L522.435 65.5044C522.692 65.157 523.099 64.9758 523.491 64.9758ZM523.491 64.2207C522.835 64.2207 522.239 64.5227 521.84 65.0513L519.352 68.3586C519.02 68.8041 518.869 69.3629 518.945 69.9066C519.02 70.4578 519.299 70.9561 519.736 71.2959C520.098 71.5753 520.528 71.7263 520.988 71.7263C521.644 71.7263 522.239 71.4243 522.639 70.8957L525.127 67.5884C525.459 67.1429 525.609 66.5841 525.534 66.0405C525.459 65.4893 525.18 64.9909 524.742 64.6511C524.38 64.3717 523.951 64.2207 523.491 64.2207Z" fill="black"/>
</g>
<path d="M243.224 84.616C259.712 84.616 273.078 71.2285 273.078 54.7143C273.078 38.2 259.712 24.8125 243.224 24.8125C226.735 24.8125 213.369 38.2 213.369 54.7143C213.369 71.2285 226.735 84.616 243.224 84.616Z" fill="#BACCFF" stroke="black" stroke-miterlimit="10"/>
<mask id="mask1_10101_24305" style="mask-type:luminance" maskUnits="userSpaceOnUse" x="221" y="43" width="45" height="28">
<path d="M265.381 43.3425H221.066V70.5259H265.381V43.3425Z" fill="white"/>
</mask>
<g mask="url(#mask1_10101_24305)">
<path d="M228.786 43.7124L221.428 56.466L226.539 59.5014L233.897 46.7479L228.786 43.7124Z" fill="white" stroke="black" stroke-miterlimit="10"/>
<path d="M257.652 43.7051L252.541 46.7406L259.899 59.4941L265.01 56.4586L257.652 43.7051Z" fill="#FFEA97" stroke="black" stroke-miterlimit="10"/>
<path d="M252.753 48.7492L251.192 49.4741C251.192 49.4741 246.496 48.4018 244.694 48.4018C242.892 48.4018 238.768 49.3079 238.768 49.3079C238.768 49.3079 235.572 53.4232 235.376 54.2312C235.172 55.0391 235.775 56.3228 237.637 55.4469C239.499 54.5709 242.093 53.0155 242.492 52.8116C242.892 52.6077 254.939 60.4305 255.203 60.5664C255.467 60.7023 255.874 60.2946 256.198 59.8868C256.53 59.4791 258.777 57.5309 258.777 57.5309L253.499 48.3867L252.753 48.7416V48.7492Z" fill="white" stroke="black" stroke-miterlimit="10"/>
<path d="M227.662 57.5461L230.256 60.9818C230.256 60.9818 239.8 68.6686 241.496 69.4766C243.2 70.2845 245.024 70.0127 245.552 69.8768C246.08 69.7409 247.346 68.9329 247.346 68.9329C247.346 68.9329 249.812 68.729 250.008 67.4529C250.211 66.1693 250.008 65.837 250.008 65.837C250.008 65.837 251.546 66.5695 252.541 65.4972C253.528 64.425 252.805 63.7907 252.805 63.7907C252.805 63.7907 254.719 64.0399 255.466 62.8015C256.212 61.5632 255.202 60.5816 255.202 60.5816L242.665 52.8645C242.665 52.8645 237.418 55.9226 236.633 55.7489C235.849 55.5753 234.922 55.092 235.374 54.2463C235.819 53.4006 238.006 50.3274 238.006 50.3274L234.915 49.7233L232.939 48.4094L227.67 57.5536L227.662 57.5461Z" fill="white" stroke="black" stroke-miterlimit="10"/>
<path d="M247.061 59.9697L252.805 63.7905" stroke="black" stroke-miterlimit="10"/>
<path d="M245.16 63.0884L250.015 65.8369" stroke="black" stroke-miterlimit="10"/>
<path d="M243.562 66.2446L248.274 68.7817" stroke="black" stroke-miterlimit="10"/>
<path d="M232.466 65.6104C232.209 65.6104 231.961 65.5274 231.742 65.3688C231.207 64.9686 231.094 64.1909 231.493 63.6472L233.159 61.3744C233.385 61.0648 233.755 60.8835 234.132 60.8835C234.388 60.8835 234.644 60.9666 234.856 61.1252C235.391 61.5254 235.504 62.3031 235.104 62.8468L233.438 65.1196C233.212 65.4292 232.843 65.618 232.466 65.618V65.6104Z" fill="white"/>
<path d="M234.132 61.1401C234.328 61.1401 234.524 61.2005 234.69 61.3289C235.112 61.646 235.195 62.2501 234.886 62.673L233.22 64.9458C233.031 65.195 232.745 65.3309 232.458 65.3309C232.262 65.3309 232.066 65.2705 231.893 65.1421C231.471 64.825 231.388 64.2209 231.697 63.7981L233.363 61.5252C233.551 61.276 233.838 61.1401 234.124 61.1401H234.132ZM234.132 60.604C233.664 60.604 233.22 60.8305 232.948 61.2081L231.282 63.4809C230.792 64.1378 230.935 65.0893 231.591 65.5725C231.847 65.7688 232.149 65.867 232.473 65.867C232.941 65.867 233.385 65.6405 233.657 65.2629L235.323 62.9901C235.557 62.6654 235.655 62.2728 235.602 61.8801C235.542 61.4799 235.338 61.1326 235.021 60.8985C234.765 60.7022 234.463 60.604 234.139 60.604H234.132Z" fill="black"/>
<path d="M233.739 67.7322C233.475 67.7322 233.219 67.6491 233 67.483C232.744 67.2867 232.578 66.9922 232.533 66.6751C232.488 66.3504 232.578 66.0257 232.774 65.769L236.023 61.4498C236.257 61.1402 236.604 60.9666 236.988 60.9666C237.252 60.9666 237.509 61.0496 237.727 61.2157C238.255 61.631 238.361 62.4012 237.953 62.9374L234.704 67.2565C234.47 67.5661 234.124 67.7398 233.739 67.7398V67.7322Z" fill="white"/>
<path d="M236.988 61.2234C237.191 61.2234 237.387 61.2913 237.561 61.4197C237.983 61.7444 238.058 62.3409 237.742 62.7713L234.492 67.0904C234.304 67.3396 234.017 67.468 233.738 67.468C233.535 67.468 233.339 67.4 233.165 67.2717C232.743 66.947 232.668 66.3505 232.984 65.92L236.234 61.6009C236.422 61.3517 236.709 61.2234 236.988 61.2234ZM236.988 60.6872C236.52 60.6872 236.09 60.8987 235.812 61.2762L232.562 65.5954C232.072 66.2523 232.193 67.1962 232.841 67.6945C233.097 67.8908 233.407 68.0041 233.738 68.0041C234.206 68.0041 234.635 67.7927 234.914 67.4151L238.164 63.096C238.405 62.7788 238.51 62.3786 238.458 61.986C238.405 61.5933 238.201 61.2385 237.892 60.9893C237.636 60.7929 237.327 60.6797 236.995 60.6797L236.988 60.6872Z" fill="black"/>
<path d="M235.714 69.2274C235.45 69.2274 235.194 69.1443 234.975 68.9782C234.719 68.7819 234.553 68.4874 234.508 68.1703C234.462 67.8456 234.553 67.5209 234.749 67.2642L237.651 63.4056C237.885 63.096 238.232 62.9224 238.616 62.9224C238.88 62.9224 239.136 63.0054 239.355 63.1715C239.611 63.3679 239.777 63.6624 239.823 63.9795C239.868 64.3042 239.777 64.6289 239.581 64.8856L236.679 68.7441C236.445 69.0537 236.098 69.2274 235.714 69.2274Z" fill="white"/>
<path d="M238.623 63.1714C238.827 63.1714 239.023 63.2393 239.196 63.3677C239.618 63.6924 239.694 64.2889 239.377 64.7193L236.475 68.5779C236.286 68.827 236 68.963 235.721 68.963C235.517 68.963 235.321 68.895 235.148 68.7666C234.726 68.4419 234.65 67.8454 234.967 67.415L237.869 63.5565C238.058 63.3073 238.344 63.1789 238.623 63.1789V63.1714ZM238.623 62.6428C238.156 62.6428 237.726 62.8542 237.447 63.2318L234.545 67.0903C234.055 67.7472 234.175 68.6911 234.824 69.1895C235.08 69.3858 235.389 69.4991 235.721 69.4991C236.188 69.4991 236.618 69.2876 236.897 68.9101L239.799 65.0516C240.041 64.7344 240.146 64.3342 240.093 63.9416C240.041 63.5489 239.837 63.194 239.528 62.9448C239.272 62.7485 238.963 62.6353 238.631 62.6353L238.623 62.6428Z" fill="black"/>
<path d="M237.923 70.2619C237.659 70.2619 237.403 70.1788 237.184 70.0127C236.928 69.8164 236.762 69.5219 236.717 69.1972C236.671 68.8725 236.762 68.5478 236.958 68.2911L238.729 65.9352C238.963 65.6256 239.31 65.4519 239.694 65.4519C239.958 65.4519 240.215 65.535 240.433 65.7011C240.69 65.8974 240.855 66.1919 240.901 66.5166C240.946 66.8413 240.855 67.166 240.659 67.4227L238.888 69.7786C238.654 70.0882 238.307 70.2619 237.923 70.2619Z" fill="white"/>
<path d="M239.702 65.716C239.906 65.716 240.102 65.784 240.275 65.9124C240.697 66.2371 240.773 66.8336 240.456 67.264L238.685 69.6199C238.496 69.8691 238.21 69.9974 237.931 69.9974C237.727 69.9974 237.531 69.9295 237.358 69.8011C236.936 69.4764 236.86 68.8799 237.177 68.4495L238.948 66.0936C239.137 65.8444 239.423 65.716 239.702 65.716ZM239.702 65.1799C239.235 65.1799 238.805 65.3914 238.526 65.7689L236.755 68.1248C236.513 68.4419 236.408 68.8421 236.461 69.2348C236.513 69.6274 236.717 69.9823 237.026 70.2315C237.282 70.4278 237.591 70.5411 237.923 70.5411C238.391 70.5411 238.82 70.3297 239.099 69.9521L240.871 67.5962C241.112 67.2791 241.218 66.8789 241.165 66.4862C241.112 66.0936 240.909 65.7387 240.599 65.4895C240.343 65.2932 240.034 65.1799 239.702 65.1799Z" fill="black"/>
</g>
<path d="M622.237 239.32C638.725 239.32 652.092 225.932 652.092 209.418C652.092 192.904 638.725 179.516 622.237 179.516C605.749 179.516 592.383 192.904 592.383 209.418C592.383 225.932 605.749 239.32 622.237 239.32Z" fill="#FFDE66" stroke="black" stroke-miterlimit="10"/>
<mask id="mask2_10101_24305" style="mask-type:luminance" maskUnits="userSpaceOnUse" x="600" y="198" width="45" height="28">
<path d="M600.08 198.054H607.8H644.394V225.237H600.08V198.054Z" fill="white"/>
</mask>
<g mask="url(#mask2_10101_24305)">
<path d="M607.799 198.424L600.441 211.177L605.553 214.213L612.911 201.459L607.799 198.424Z" fill="white" stroke="black" stroke-miterlimit="10"/>
<path d="M636.666 198.416L631.555 201.452L638.913 214.205L644.024 211.17L636.666 198.416Z" fill="#BACCFF" stroke="black" stroke-miterlimit="10"/>
<path d="M631.932 202.093L630.56 204.019C630.56 204.019 625.509 203.113 623.707 203.113C621.906 203.113 617.782 204.019 617.782 204.019C617.782 204.019 614.585 208.134 614.389 208.942C614.186 209.75 614.789 211.034 616.651 210.158C618.513 209.282 621.106 207.726 621.506 207.523C621.906 207.319 633.953 215.142 634.217 215.277C634.481 215.413 634.888 215.006 635.212 214.598C635.544 214.19 637.79 212.242 637.79 212.242L632.513 203.098L631.925 202.086L631.932 202.093Z" fill="white" stroke="black" stroke-miterlimit="10"/>
<path d="M606.676 212.257L609.269 215.693C609.269 215.693 618.814 223.38 620.51 224.188C622.214 224.996 624.038 224.724 624.566 224.588C625.094 224.452 626.36 223.644 626.36 223.644C626.36 223.644 628.825 223.44 629.021 222.164C629.225 220.88 629.021 220.548 629.021 220.548C629.021 220.548 630.559 221.281 631.554 220.208C632.542 219.136 631.818 218.502 631.818 218.502C631.818 218.502 633.733 218.751 634.48 217.513C635.226 216.274 634.216 215.293 634.216 215.293L621.678 207.576C621.678 207.576 616.431 210.634 615.647 210.46C614.863 210.286 613.936 209.803 614.388 208.957C614.833 208.112 617.019 205.039 617.019 205.039L613.928 204.434L611.953 203.121L606.683 212.265L606.676 212.257Z" fill="white" stroke="black" stroke-miterlimit="10"/>
<path d="M626.082 214.673L631.827 218.494" stroke="black" stroke-miterlimit="10"/>
<path d="M624.174 217.8L629.029 220.548" stroke="black" stroke-miterlimit="10"/>
<path d="M622.576 220.948L627.288 223.485" stroke="black" stroke-miterlimit="10"/>
<path d="M611.479 220.314C611.223 220.314 610.974 220.231 610.756 220.072C610.22 219.672 610.107 218.894 610.507 218.351L612.173 216.078C612.399 215.768 612.768 215.587 613.145 215.587C613.402 215.587 613.658 215.67 613.869 215.829C614.404 216.229 614.518 217.007 614.118 217.55L612.452 219.823C612.226 220.133 611.856 220.322 611.479 220.322V220.314Z" fill="white"/>
<path d="M613.145 215.851C613.341 215.851 613.537 215.912 613.703 216.04C614.125 216.357 614.208 216.961 613.899 217.384L612.233 219.657C612.045 219.906 611.758 220.042 611.472 220.042C611.276 220.042 611.08 219.982 610.906 219.853C610.484 219.536 610.401 218.932 610.71 218.509L612.376 216.236C612.565 215.987 612.851 215.851 613.138 215.851H613.145ZM613.145 215.315C612.678 215.315 612.233 215.542 611.962 215.919L610.296 218.192C609.806 218.849 609.949 219.8 610.605 220.284C610.861 220.48 611.163 220.578 611.487 220.578C611.954 220.578 612.399 220.352 612.67 219.974L614.337 217.701C614.57 217.377 614.668 216.984 614.616 216.591C614.555 216.191 614.352 215.844 614.035 215.61C613.779 215.413 613.477 215.315 613.153 215.315H613.145Z" fill="black"/>
<path d="M612.753 222.443C612.489 222.443 612.233 222.36 612.014 222.194C611.758 221.998 611.592 221.703 611.547 221.386C611.501 221.062 611.592 220.737 611.788 220.48L615.037 216.161C615.271 215.851 615.618 215.678 616.002 215.678C616.266 215.678 616.522 215.761 616.741 215.927C617.269 216.342 617.374 217.112 616.967 217.649L613.718 221.968C613.484 222.277 613.137 222.451 612.753 222.451V222.443Z" fill="white"/>
<path d="M616.001 215.935C616.205 215.935 616.401 216.003 616.574 216.131C616.996 216.456 617.072 217.052 616.755 217.482L613.506 221.802C613.317 222.051 613.031 222.179 612.752 222.179C612.548 222.179 612.352 222.111 612.179 221.983C611.757 221.658 611.681 221.062 611.998 220.631L615.247 216.312C615.436 216.063 615.722 215.935 616.001 215.935ZM616.001 215.398C615.534 215.398 615.104 215.61 614.825 215.987L611.576 220.307C611.086 220.963 611.207 221.907 611.855 222.406C612.111 222.602 612.42 222.715 612.752 222.715C613.219 222.715 613.649 222.504 613.928 222.126L617.177 217.807C617.419 217.49 617.524 217.09 617.471 216.697C617.419 216.305 617.215 215.95 616.906 215.7C616.65 215.504 616.341 215.391 616.009 215.391L616.001 215.398Z" fill="black"/>
<path d="M614.727 223.939C614.464 223.939 614.207 223.856 613.989 223.689C613.732 223.493 613.566 223.199 613.521 222.881C613.476 222.557 613.566 222.232 613.762 221.975L616.665 218.117C616.899 217.807 617.245 217.634 617.63 217.634C617.894 217.634 618.15 217.717 618.369 217.883C618.625 218.079 618.791 218.374 618.836 218.691C618.881 219.015 618.791 219.34 618.595 219.597L615.692 223.455C615.459 223.765 615.112 223.939 614.727 223.939Z" fill="white"/>
<path d="M617.637 217.875C617.84 217.875 618.037 217.943 618.21 218.071C618.632 218.396 618.707 218.993 618.391 219.423L615.488 223.281C615.3 223.531 615.013 223.667 614.734 223.667C614.531 223.667 614.335 223.599 614.161 223.47C613.739 223.146 613.664 222.549 613.981 222.119L616.883 218.26C617.072 218.011 617.358 217.883 617.637 217.883V217.875ZM617.637 217.346C617.17 217.346 616.74 217.558 616.461 217.935L613.558 221.794C613.068 222.451 613.189 223.395 613.837 223.893C614.094 224.089 614.403 224.203 614.734 224.203C615.202 224.203 615.632 223.991 615.91 223.614L618.813 219.755C619.054 219.438 619.16 219.038 619.107 218.645C619.054 218.253 618.851 217.898 618.542 217.648C618.285 217.452 617.976 217.339 617.644 217.339L617.637 217.346Z" fill="black"/>
<path d="M616.936 224.965C616.673 224.965 616.416 224.882 616.198 224.716C615.941 224.52 615.775 224.225 615.73 223.901C615.685 223.576 615.775 223.251 615.971 222.995L617.743 220.639C617.977 220.329 618.324 220.156 618.708 220.156C618.972 220.156 619.228 220.239 619.447 220.405C619.703 220.601 619.869 220.896 619.914 221.22C619.96 221.545 619.869 221.87 619.673 222.126L617.901 224.482C617.668 224.792 617.321 224.965 616.936 224.965Z" fill="white"/>
<path d="M618.716 220.427C618.92 220.427 619.116 220.495 619.289 220.624C619.711 220.948 619.787 221.545 619.47 221.975L617.698 224.331C617.51 224.58 617.223 224.709 616.944 224.709C616.741 224.709 616.545 224.641 616.371 224.512C615.949 224.188 615.874 223.591 616.19 223.161L617.962 220.805C618.151 220.556 618.437 220.427 618.716 220.427ZM618.716 219.891C618.249 219.891 617.819 220.103 617.54 220.48L615.768 222.836C615.527 223.153 615.421 223.553 615.474 223.946C615.527 224.339 615.731 224.694 616.04 224.943C616.296 225.139 616.605 225.252 616.937 225.252C617.404 225.252 617.834 225.041 618.113 224.663L619.885 222.307C620.126 221.99 620.231 221.59 620.179 221.197C620.126 220.805 619.922 220.45 619.613 220.201C619.357 220.004 619.048 219.891 618.716 219.891Z" fill="black"/>
</g>
<path d="M125.759 204.525C142.247 204.525 155.613 191.137 155.613 174.623C155.613 158.109 142.247 144.721 125.759 144.721C109.271 144.721 95.9043 158.109 95.9043 174.623C95.9043 191.137 109.271 204.525 125.759 204.525Z" fill="black" stroke="black" stroke-miterlimit="10"/>
<path d="M121.612 200.266C138.1 200.266 151.467 186.879 151.467 170.365C151.467 153.85 138.1 140.463 121.612 140.463C105.124 140.463 91.7578 153.85 91.7578 170.365C91.7578 186.879 105.124 200.266 121.612 200.266Z" fill="white" stroke="black" stroke-miterlimit="10"/>
<mask id="mask3_10101_24305" style="mask-type:luminance" maskUnits="userSpaceOnUse" x="99" y="158" width="45" height="29">
<path d="M143.769 158.993H99.4551V186.176H143.769V158.993Z" fill="white"/>
</mask>
<g mask="url(#mask3_10101_24305)">
<path d="M107.174 159.363L99.8164 172.116L104.928 175.152L112.286 162.398L107.174 159.363Z" fill="#BACCFF" stroke="black" stroke-miterlimit="10"/>
<path d="M136.041 159.355L130.93 162.391L138.288 175.144L143.399 172.109L136.041 159.355Z" fill="#FFDE66" stroke="black" stroke-miterlimit="10"/>
<path d="M131.051 164.445L129.935 164.958C129.935 164.958 124.884 164.052 123.082 164.052C121.281 164.052 117.157 164.958 117.157 164.958C117.157 164.958 113.96 169.073 113.764 169.881C113.561 170.689 114.164 171.973 116.026 171.097C117.888 170.221 120.481 168.666 120.881 168.462C121.281 168.258 133.328 176.081 133.592 176.217C133.856 176.352 134.263 175.945 134.587 175.537C134.919 175.129 137.165 173.181 137.165 173.181L131.888 164.037L131.044 164.437L131.051 164.445Z" fill="white" stroke="black" stroke-miterlimit="10"/>
<path d="M106.051 173.196L108.644 176.632C108.644 176.632 118.189 184.319 119.885 185.127C121.589 185.935 123.413 185.663 123.941 185.527C124.469 185.391 125.735 184.583 125.735 184.583C125.735 184.583 128.2 184.379 128.396 183.103C128.6 181.819 128.396 181.487 128.396 181.487C128.396 181.487 129.934 182.22 130.929 181.147C131.917 180.075 131.193 179.441 131.193 179.441C131.193 179.441 133.108 179.69 133.855 178.452C134.601 177.213 133.591 176.232 133.591 176.232L121.053 168.515C121.053 168.515 115.806 171.573 115.022 171.399C114.238 171.225 113.311 170.742 113.763 169.896C114.208 169.051 116.394 165.978 116.394 165.978L113.303 165.373L111.328 164.06L106.058 173.204L106.051 173.196Z" fill="white" stroke="black" stroke-miterlimit="10"/>
<path d="M125.457 175.613L131.202 179.433" stroke="black" stroke-miterlimit="10"/>
<path d="M123.549 178.739L128.404 181.487" stroke="black" stroke-miterlimit="10"/>
<path d="M121.951 181.887L126.663 184.424" stroke="black" stroke-miterlimit="10"/>
<path d="M110.854 181.253C110.598 181.253 110.349 181.17 110.131 181.011C109.595 180.611 109.482 179.833 109.882 179.29L111.548 177.017C111.774 176.707 112.143 176.526 112.52 176.526C112.777 176.526 113.033 176.609 113.244 176.768C113.779 177.168 113.893 177.946 113.493 178.489L111.827 180.762C111.601 181.072 111.231 181.261 110.854 181.261V181.253Z" fill="white"/>
<path d="M112.52 176.79C112.716 176.79 112.912 176.851 113.078 176.979C113.501 177.296 113.583 177.9 113.274 178.323L111.608 180.596C111.42 180.845 111.133 180.981 110.847 180.981C110.651 180.981 110.455 180.921 110.281 180.792C109.859 180.475 109.776 179.871 110.085 179.448L111.751 177.175C111.94 176.926 112.226 176.79 112.513 176.79H112.52ZM112.52 176.254C112.053 176.254 111.608 176.481 111.337 176.858L109.671 179.131C109.181 179.788 109.324 180.739 109.98 181.223C110.236 181.419 110.538 181.517 110.862 181.517C111.329 181.517 111.774 181.291 112.045 180.913L113.712 178.64C113.945 178.316 114.043 177.923 113.991 177.53C113.93 177.13 113.727 176.783 113.41 176.549C113.154 176.352 112.852 176.254 112.528 176.254H112.52Z" fill="black"/>
<path d="M112.128 183.382C111.864 183.382 111.608 183.299 111.389 183.133C111.133 182.937 110.967 182.642 110.922 182.325C110.876 182.001 110.967 181.676 111.163 181.419L114.412 177.1C114.646 176.79 114.993 176.617 115.377 176.617C115.641 176.617 115.897 176.7 116.116 176.866C116.644 177.281 116.749 178.051 116.342 178.587L113.093 182.907C112.859 183.216 112.512 183.39 112.128 183.39V183.382Z" fill="white"/>
<path d="M115.376 176.874C115.58 176.874 115.776 176.941 115.949 177.07C116.371 177.395 116.447 177.991 116.13 178.421L112.881 182.741C112.692 182.99 112.406 183.118 112.127 183.118C111.923 183.118 111.727 183.05 111.554 182.922C111.132 182.597 111.056 182.001 111.373 181.57L114.622 177.251C114.811 177.002 115.097 176.874 115.376 176.874ZM115.376 176.337C114.909 176.337 114.479 176.549 114.2 176.926L110.951 181.245C110.461 181.902 110.581 182.846 111.23 183.345C111.486 183.541 111.795 183.654 112.127 183.654C112.594 183.654 113.024 183.443 113.303 183.065L116.552 178.746C116.794 178.429 116.899 178.029 116.846 177.636C116.794 177.243 116.59 176.889 116.281 176.639C116.025 176.443 115.716 176.33 115.384 176.33L115.376 176.337Z" fill="black"/>
<path d="M114.102 184.878C113.839 184.878 113.582 184.794 113.364 184.628C113.107 184.432 112.941 184.138 112.896 183.82C112.851 183.496 112.941 183.171 113.137 182.914L116.04 179.056C116.274 178.746 116.62 178.573 117.005 178.573C117.269 178.573 117.525 178.656 117.744 178.822C118 179.018 118.166 179.312 118.211 179.63C118.256 179.954 118.166 180.279 117.97 180.536L115.067 184.394C114.834 184.704 114.487 184.878 114.102 184.878Z" fill="white"/>
<path d="M117.012 178.822C117.215 178.822 117.411 178.889 117.585 179.018C118.007 179.343 118.082 179.939 117.766 180.369L114.863 184.228C114.675 184.477 114.388 184.613 114.109 184.613C113.906 184.613 113.71 184.545 113.536 184.417C113.114 184.092 113.039 183.496 113.356 183.065L116.258 179.207C116.446 178.957 116.733 178.829 117.012 178.829V178.822ZM117.012 178.293C116.545 178.293 116.115 178.504 115.836 178.882L112.933 182.74C112.443 183.397 112.564 184.341 113.212 184.84C113.469 185.036 113.778 185.149 114.109 185.149C114.577 185.149 115.007 184.938 115.285 184.56L118.188 180.702C118.429 180.385 118.535 179.984 118.482 179.592C118.429 179.199 118.226 178.844 117.917 178.595C117.66 178.399 117.351 178.285 117.019 178.285L117.012 178.293Z" fill="black"/>
<path d="M116.319 185.912C116.055 185.912 115.799 185.829 115.58 185.663C115.324 185.467 115.158 185.172 115.113 184.847C115.068 184.523 115.158 184.198 115.354 183.941L117.126 181.585C117.36 181.276 117.706 181.102 118.091 181.102C118.355 181.102 118.611 181.185 118.83 181.351C119.086 181.548 119.252 181.842 119.297 182.167C119.342 182.491 119.252 182.816 119.056 183.073L117.284 185.429C117.051 185.738 116.704 185.912 116.319 185.912Z" fill="white"/>
<path d="M118.091 181.366C118.295 181.366 118.491 181.434 118.664 181.563C119.086 181.887 119.162 182.484 118.845 182.914L117.073 185.27C116.885 185.519 116.598 185.648 116.319 185.648C116.116 185.648 115.92 185.58 115.746 185.451C115.324 185.127 115.249 184.53 115.565 184.1L117.337 181.744C117.526 181.495 117.812 181.366 118.091 181.366ZM118.091 180.83C117.624 180.83 117.194 181.042 116.915 181.419L115.143 183.775C114.902 184.092 114.796 184.492 114.849 184.885C114.902 185.278 115.106 185.632 115.415 185.882C115.671 186.078 115.98 186.191 116.312 186.191C116.779 186.191 117.209 185.98 117.488 185.602L119.26 183.246C119.501 182.929 119.606 182.529 119.554 182.136C119.501 181.744 119.297 181.389 118.988 181.14C118.732 180.943 118.423 180.83 118.091 180.83Z" fill="black"/>
</g>
<path d="M177.935 298.263C177.935 298.263 169.159 296.171 167.629 305.074C167.629 305.074 175.567 308.026 177.935 298.263Z" fill="white" stroke="black" stroke-miterlimit="10"/>
<path d="M156.109 299.282C156.109 299.282 158.492 307.996 167.026 305.066C167.026 305.066 165.797 296.677 156.109 299.282Z" fill="white" stroke="black" stroke-miterlimit="10"/>
<path d="M173.849 283.538C173.849 283.538 164.855 284.203 166.084 293.15C166.084 293.15 174.543 293.558 173.849 283.538Z" fill="white" stroke="black" stroke-miterlimit="10"/>
<path d="M153.357 291.127C153.357 291.127 158.265 298.708 165.51 293.332C165.51 293.332 161.809 285.705 153.357 291.127Z" fill="white" stroke="black" stroke-miterlimit="10"/>
<path d="M165.623 270.792C165.623 270.792 157.255 274.152 161.13 282.307C161.13 282.307 169.31 280.133 165.623 270.792Z" fill="white" stroke="black" stroke-miterlimit="10"/>
<path d="M148.391 284.233C148.391 284.233 155.357 289.972 160.634 282.655C160.634 282.655 154.799 276.508 148.391 284.233Z" fill="white" stroke="black" stroke-miterlimit="10"/>
<path d="M152.913 261.414C152.913 261.414 146.09 267.319 152.4 273.767C152.4 273.767 159.434 269.048 152.913 261.414Z" fill="white" stroke="black" stroke-miterlimit="10"/>
<path d="M140.986 279.74C140.986 279.74 149.438 282.896 152.054 274.25C152.054 274.25 144.545 270.339 140.986 279.74Z" fill="white" stroke="black" stroke-miterlimit="10"/>
<path d="M133.479 265.861C133.479 265.861 137.112 274.13 145.126 269.969C145.126 269.969 142.676 261.852 133.479 265.861Z" fill="white" stroke="black" stroke-miterlimit="10"/>
<path d="M166.71 312.896C166.71 312.896 173.917 279.544 141.115 268.383" stroke="black" stroke-miterlimit="10"/>
<path d="M153.502 341.348H180.461V309.544H153.502V341.348Z" fill="#FFEFB0" stroke="black" stroke-miterlimit="10"/>
</g>
<defs>
<clipPath id="clip0_10101_24305">
<rect width="778" height="392" fill="white"/>
</clipPath>
</defs>
</svg>
