<svg width="178" height="210" viewBox="0 0 178 210" fill="none" xmlns="http://www.w3.org/2000/svg">
<g clip-path="url(#clip0_9215_21214)">
<path d="M37.5779 126.171C39.487 119.85 47.0813 115.878 53.3966 117.896C58.7421 119.603 63.1903 124.856 68.7152 123.978C72.5028 123.362 75.5879 119.865 79.4061 120.089C83.3809 120.321 86.4087 124.525 90.3834 124.335C93.8198 124.175 96.4925 120.716 99.9289 120.686C102.983 120.659 105.305 123.271 107.371 125.517C109.436 127.763 112.334 130.021 115.255 129.071C117.676 128.28 118.917 125.578 121.093 124.259C124.205 122.358 128.729 124.133 130.18 127.467C131.631 130.8 130.123 134.962 127.156 137.071C124.052 139.279 119.959 139.378 116.141 139.39L61.327 139.58L33.92 139.675C29.2046 139.675 16.807 141.738 19.285 133.213C20.5908 128.812 37.5779 122.556 37.5779 126.171Z" fill="black"/>
<path d="M37.7848 152.248C37.0975 152.023 15.9562 145.026 8.1518 143.213C7.76998 143.13 7.4493 143.057 7.1553 143C0.225294 141.628 -1.74489 135.323 2.19166 132.571C2.81105 132.159 3.49681 131.856 4.21914 131.674C8.80096 130.446 16.0555 132.183 16.0555 132.183C27.7124 137.402 37.4641 151.761 37.7848 152.248Z" fill="white" stroke="black" stroke-miterlimit="10"/>
<path d="M166.953 196.929C165.77 196.633 127.068 196.929 125.885 196.929C125.018 196.929 123.83 186.241 121.066 178.283C120.627 176.968 120.097 175.685 119.478 174.444C118.92 173.269 118.179 172.189 117.282 171.244C117.282 171.244 108.088 170.062 100.375 170.655C92.6627 171.248 74.5721 172.426 69.8299 171.244C65.0877 170.062 21.0947 145.357 13.0841 142.404C5.07355 139.45 3.39349 132.567 11.4002 131.093C17.7002 129.952 35.1761 135.71 42.3543 138.227C44.1794 138.861 45.3439 139.298 45.4966 139.367C45.4985 139.35 45.4985 139.334 45.4966 139.317C45.3172 138.622 43.515 130.77 51.7356 129.918C60.338 129.033 70.1239 132.579 78.1345 135.825C78.1345 135.825 83.48 136.414 88.2184 134.939C92.9567 133.464 109.57 126.672 121.73 133.46C133.891 140.249 147.381 146.155 150.344 152.358C151.734 155.25 155.709 165.239 159.431 175.029C163.669 186.181 167.583 197.081 166.953 196.929Z" fill="white" stroke="black" stroke-miterlimit="10"/>
<path d="M177.725 209.81H110.83L116.714 181.073H167.133L177.725 209.81Z" fill="#FFDE66" stroke="black" stroke-miterlimit="10"/>
<path d="M45.5059 139.359C45.5059 139.359 62.6266 151.396 73.6459 152.247C84.6652 153.099 93.9281 153.844 93.9281 153.844" stroke="black" stroke-miterlimit="10"/>
<path d="M70.7505 62.5042C70.7505 62.5042 83.465 62.7398 82.4265 75.3583C82.4265 75.3697 70.552 76.5935 70.7505 62.5042Z" fill="white" stroke="black" stroke-miterlimit="10"/>
<path d="M100.189 71.5501C100.189 71.5501 93.8741 82.538 83.252 75.575C83.252 75.575 87.8872 64.6175 100.189 71.5501Z" fill="white" stroke="black" stroke-miterlimit="10"/>
<path d="M81.4998 43.9641C81.4998 43.9641 93.5462 48.0233 88.7238 59.7372C88.7238 59.7372 77.0325 57.3276 81.4998 43.9641Z" fill="white" stroke="black" stroke-miterlimit="10"/>
<path d="M106.81 61.4437C106.81 61.4437 97.452 70.0144 89.4453 60.1781C89.4453 60.1781 97.1848 51.1285 106.81 61.4437Z" fill="white" stroke="black" stroke-miterlimit="10"/>
<path d="M97.2036 29.5479C97.2036 29.5479 107.455 37.0391 99.2998 46.7539C99.2998 46.7539 88.8876 40.9349 97.2036 29.5479Z" fill="white" stroke="black" stroke-miterlimit="10"/>
<path d="M116.024 53.8271C116.024 53.8271 104.497 59.1786 99.8574 47.3924C99.8574 47.3924 109.983 41.0946 116.024 53.8271Z" fill="white" stroke="black" stroke-miterlimit="10"/>
<path d="M117.86 21.2661C117.86 21.2661 125.114 31.6688 114.217 38.2137C114.232 38.2137 106.271 29.3427 117.86 21.2661Z" fill="white" stroke="black" stroke-miterlimit="10"/>
<path d="M127.717 50.3189C127.717 50.3189 115.068 51.6454 114.533 38.9965C114.533 38.9965 126.163 36.3246 127.717 50.3189Z" fill="white" stroke="black" stroke-miterlimit="10"/>
<path d="M142.846 34.1087C142.846 34.1087 134.973 44.0553 125.5 35.629C125.5 35.61 131.693 25.4506 142.846 34.1087Z" fill="white" stroke="black" stroke-miterlimit="10"/>
<path d="M131.528 34.8538C127.229 34.983 123.51 35.994 119.39 36.7085C114.629 38.2972 109.868 39.8821 105.675 42.5313C99.4213 46.6855 93.736 51.9039 89.8147 58.3576C85.6453 65.6284 82.6709 73.0779 81.4147 81.3978C79.54 95.2173 79.6125 109.086 79.0703 122.826" stroke="black" stroke-miterlimit="10"/>
<path d="M92.1817 76.4072C92.1817 76.4072 101.372 84.8677 92.3115 93.465C92.3115 93.465 82.7813 86.6236 92.1817 76.4072Z" fill="white" stroke="black" stroke-miterlimit="10"/>
<path d="M107.875 102.23C107.875 102.23 96.0077 106.19 92.7852 94.1493C92.7852 94.1493 103.388 89.1095 107.875 102.23Z" fill="white" stroke="black" stroke-miterlimit="10"/>
<path d="M113.304 70.5923C113.304 70.5923 119.23 81.5688 107.851 86.7607C107.851 86.7607 101.074 77.2094 113.304 70.5923Z" fill="white" stroke="black" stroke-miterlimit="10"/>
<path d="M119.704 100.094C119.704 100.094 107.188 99.9912 108.074 87.5513C108.074 87.5665 119.746 86.2362 119.704 100.094Z" fill="white" stroke="black" stroke-miterlimit="10"/>
<path d="M136.306 85.9169C136.306 85.9169 127.497 94.7689 119.174 85.4647C119.174 85.4647 126.367 76.2136 136.306 85.9169Z" fill="white" stroke="black" stroke-miterlimit="10"/>
<path d="M81.8398 103.932C89.9573 93.7084 103.344 84.5486 125.157 85.3886" stroke="black" stroke-miterlimit="10"/>
<path d="M90.7477 98.3188C90.7477 98.3188 78.205 97.6043 78.2737 110.101C78.2737 110.109 89.8772 112.203 90.7477 98.3188Z" fill="white" stroke="black" stroke-miterlimit="10"/>
<path d="M61.0645 105.02C61.0645 105.02 66.4595 116.315 77.4444 110.249C77.4444 110.249 73.7141 99.1093 61.0645 105.02Z" fill="white" stroke="black" stroke-miterlimit="10"/>
<path d="M81.5558 79.2275C81.5558 79.2275 69.3834 82.3251 73.2512 94.2215C73.2512 94.2367 84.9463 92.7392 81.5558 79.2275Z" fill="white" stroke="black" stroke-miterlimit="10"/>
<path d="M55.3027 94.5712C55.3027 94.5712 63.8784 103.712 72.5037 94.6206C72.5037 94.6206 65.5622 85.1301 55.3027 94.5712Z" fill="white" stroke="black" stroke-miterlimit="10"/>
<path d="M67.1696 63.8687C67.1696 63.8687 56.5092 70.482 63.8096 80.6604C63.8096 80.6604 74.5234 75.708 67.1696 63.8687Z" fill="white" stroke="black" stroke-miterlimit="10"/>
<path d="M46.8027 86.3804C46.8027 86.3804 57.7533 92.511 63.2209 81.2494C63.2133 81.2494 53.7137 74.2864 46.8027 86.3804Z" fill="white" stroke="black" stroke-miterlimit="10"/>
<path d="M47.4491 54.1692C47.4491 54.1692 39.5302 63.8763 49.7401 71.1358C49.7591 71.1358 58.2546 62.9907 47.4491 54.1692Z" fill="white" stroke="black" stroke-miterlimit="10"/>
<path d="M35.5508 82.0516C35.5508 82.0516 47.9064 84.3054 49.3879 71.8845C49.3879 71.8845 38.1319 68.3841 35.5508 82.0516Z" fill="white" stroke="black" stroke-miterlimit="10"/>
<path d="M21.8711 64.9558C21.8711 64.9558 28.8736 75.3394 38.8429 67.7303C38.8429 67.7303 33.5089 57.2593 21.8711 64.9558Z" fill="white" stroke="black" stroke-miterlimit="10"/>
<path d="M78.9224 120.994C78.9224 120.994 80.6749 73.7734 32.959 66.533" stroke="black" stroke-miterlimit="10"/>
</g>
<defs>
<clipPath id="clip0_9215_21214">
<rect width="178" height="210" fill="white"/>
</clipPath>
</defs>
</svg>
