<svg width="380" height="380" viewBox="0 0 380 380" fill="none" xmlns="http://www.w3.org/2000/svg">
<g clip-path="url(#clip0_10126_35990)">
<rect width="380" height="380" rx="20" fill="#E4EBF5"/>
<g clip-path="url(#clip1_10126_35990)">
<path d="M359.542 -1H19.458C8.15937 -1 -1 8.15937 -1 19.458V359.542C-1 370.841 8.15937 380 19.458 380H359.542C370.841 380 380 370.841 380 359.542V19.458C380 8.15937 370.841 -1 359.542 -1Z" fill="#FFF3D7"/>
<path d="M115.315 212.819C111.286 211.416 106.767 209.235 106.767 204.159C106.767 200.286 110.195 196.434 115.716 196.434C121.236 196.434 124.62 200.775 124.62 200.775L121.37 203.981C121.37 203.981 119.099 200.909 115.716 200.909C113.378 200.909 111.53 202.356 111.53 204.181C111.53 206.563 113.668 207.298 117.43 208.7C121.615 210.259 125.088 212.128 125.088 217.093C125.088 222.057 120.724 224.706 115.56 224.706C108.726 224.706 105.564 219.118 105.564 219.118L109.082 216.158C109.082 216.158 111.419 220.254 115.56 220.254C117.897 220.254 120.324 219.319 120.324 217.093C120.324 214.867 118.565 213.976 115.337 212.841L115.315 212.819Z" fill="#1D1D1B"/>
<path d="M152.669 216.959L155.785 220.031C155.785 220.031 152.201 224.684 145.278 224.684C137.398 224.684 131.432 218.629 131.432 210.548C131.432 202.467 137.398 196.412 145.278 196.412C151.845 196.412 155.385 200.709 155.385 200.709L152.224 203.803C152.224 203.803 149.775 200.798 145.278 200.798C139.891 200.798 136.196 205.294 136.196 210.548C136.196 215.802 139.913 220.298 145.278 220.298C150.087 220.298 152.647 216.937 152.647 216.937L152.669 216.959Z" fill="#1D1D1B"/>
<path d="M178.871 196.902H183.546V224.216H178.871V212.462H167.206V224.216H162.531V196.902H167.206V208.032H178.871V196.902Z" fill="#1D1D1B"/>
<path d="M208.833 196.902H213.508V214.31C213.508 220.321 209.412 224.684 202.979 224.684C196.545 224.684 192.449 220.321 192.449 214.31V196.902H197.124V213.731C197.124 217.627 199.083 220.254 202.979 220.254C206.874 220.254 208.833 217.649 208.833 213.731V196.902Z" fill="#1D1D1B"/>
<path d="M222.436 196.902H227.111V219.764H238.732V224.216H222.414V196.902H222.436Z" fill="#1D1D1B"/>
<path d="M249.75 207.988H260.68V212.44H249.75V219.786H261.838V224.239H245.053V196.924H261.593V201.376H249.728V208.01L249.75 207.988Z" fill="#1D1D1B"/>
<path d="M273.592 221.812L270.186 230.895L266.602 229.648L269.674 220.432L273.569 221.79L273.592 221.812Z" fill="#1D1D1B"/>
<path d="M55.7891 233.21H60.553V263.262H55.7891V233.21Z" fill="#1D1D1B"/>
<path d="M82.4121 250.974V263.262H78.0044V260.88C78.0044 260.88 76.0455 263.752 71.7936 263.752C68.254 263.752 65.0039 261.437 65.0039 257.43C65.0039 253.824 68.2986 251.197 72.3946 251.197C75.8451 251.197 77.6483 252.555 77.6483 252.555V251.486C77.6483 249.015 75.2663 248.236 73.5967 248.236C70.8586 248.236 67.9424 249.616 67.9424 249.616L66.3841 245.676C66.3841 245.676 69.8791 243.962 73.8193 243.962C79.2288 243.962 82.4121 246.7 82.4121 250.996V250.974ZM77.6483 257.563V255.604C77.6483 255.604 75.9341 254.647 73.3519 254.647C71.8826 254.647 69.8568 255.293 69.8568 257.319C69.8568 259.344 71.8158 259.745 73.2851 259.745C76.1568 259.745 77.6483 257.563 77.6483 257.563Z" fill="#1D1D1B"/>
<path d="M88.6682 256.873C88.6682 256.873 91.1615 259.567 94.3448 259.567C96.3038 259.567 97.9289 259.011 97.9289 257.853C97.9289 256.629 97.0607 256.384 94.189 255.783C90.4491 254.981 87.199 253.401 87.199 249.817C87.199 246.878 90.1374 243.94 95.302 243.94C99.5539 243.94 102.381 246.255 102.381 246.255L99.9991 249.75C99.9991 249.75 97.8621 248.125 95.302 248.125C93.5211 248.125 91.8738 248.77 91.8738 249.906C91.8738 251.041 93.1427 251.33 96.3261 252.021C100.066 252.822 102.715 254.046 102.715 257.942C102.715 261.17 99.2868 263.752 94.4784 263.752C88.9576 263.752 85.9746 260.324 85.9746 260.324L88.646 256.873H88.6682Z" fill="#1D1D1B"/>
<path d="M107.858 256.873C107.858 256.873 110.351 259.567 113.534 259.567C115.471 259.567 117.118 259.011 117.118 257.853C117.118 256.629 116.25 256.384 113.378 255.783C109.639 254.981 106.388 253.401 106.388 249.817C106.388 246.878 109.327 243.94 114.491 243.94C118.743 243.94 121.571 246.255 121.571 246.255L119.189 249.75C119.189 249.75 117.052 248.125 114.491 248.125C112.711 248.125 111.063 248.77 111.063 249.906C111.063 251.041 112.332 251.33 115.516 252.021C119.255 252.822 121.904 254.046 121.904 257.942C121.904 261.17 118.476 263.752 113.668 263.752C108.147 263.752 105.164 260.324 105.164 260.324L107.835 256.873H107.858Z" fill="#1D1D1B"/>
<path d="M165.737 251.13V263.262H160.973V252.377C160.973 249.794 159.971 248.392 157.589 248.392C155.096 248.392 153.894 250.818 153.894 250.818V263.262H149.13V252.377C149.13 249.794 148.128 248.392 145.746 248.392C143.253 248.392 142.051 250.818 142.051 250.818V263.262H137.287V244.429H141.739V247.168C141.739 247.168 143.453 243.94 147.305 243.94C151.846 243.94 153.137 247.234 153.137 247.234C153.137 247.234 154.718 243.94 159.148 243.94C162.954 243.94 165.737 246.611 165.737 251.13Z" fill="#1D1D1B"/>
<path d="M187.041 250.974V263.262H182.633V260.88C182.633 260.88 180.674 263.752 176.422 263.752C172.883 263.752 169.633 261.437 169.633 257.43C169.633 253.824 172.927 251.197 177.024 251.197C180.474 251.197 182.277 252.555 182.277 252.555V251.486C182.277 249.015 179.895 248.236 178.226 248.236C175.488 248.236 172.571 249.616 172.571 249.616L171.013 245.676C171.013 245.676 174.508 243.962 178.448 243.962C183.858 243.962 187.041 246.7 187.041 250.996V250.974ZM182.277 257.563V255.604C182.277 255.604 180.563 254.647 177.981 254.647C176.512 254.647 174.486 255.293 174.486 257.319C174.486 259.344 176.445 259.745 177.914 259.745C180.786 259.745 182.277 257.563 182.277 257.563Z" fill="#1D1D1B"/>
<path d="M192.361 233.21H197.125V263.262H192.361V233.21Z" fill="#1D1D1B"/>
<path d="M227.066 244.541L225.396 248.837C225.396 248.837 224.528 248.392 223.126 248.392C220.232 248.392 218.918 250.93 218.918 250.93V263.24H214.154V244.407H218.696V247.145C218.696 247.145 220.321 243.917 223.816 243.917C225.53 243.917 227.066 244.519 227.066 244.519V244.541Z" fill="#1D1D1B"/>
<path d="M246.567 253.757C246.567 254.113 246.567 254.825 246.523 255.538H232.454C232.81 257.207 234.769 259.344 237.752 259.344C241.047 259.344 242.916 257.43 242.916 257.43L245.298 261.014C245.298 261.014 242.315 263.708 237.752 263.708C232.031 263.708 227.623 259.344 227.623 253.801C227.623 248.258 231.63 243.895 237.084 243.895C242.249 243.895 246.59 247.902 246.59 253.712L246.567 253.757ZM241.803 252.087C241.714 250.462 240.223 248.281 237.084 248.281C233.945 248.281 232.632 250.418 232.476 252.087H241.826H241.803Z" fill="#1D1D1B"/>
<path d="M268.07 263.262H263.663V260.791C263.663 260.791 262.038 263.73 257.986 263.73C253.089 263.73 248.814 259.634 248.814 253.824C248.814 248.013 253.111 243.917 257.986 243.917C261.57 243.917 263.306 246.388 263.306 246.388V233.188H268.07V263.24V263.262ZM263.306 251.019C263.306 251.019 261.949 248.392 258.81 248.392C255.671 248.392 253.645 250.729 253.645 253.846C253.645 256.962 255.604 259.3 258.81 259.3C262.015 259.3 263.306 256.673 263.306 256.673V251.019Z" fill="#1D1D1B"/>
<path d="M291.089 253.757C291.089 254.113 291.089 254.825 291.044 255.538H276.975C277.331 257.207 279.29 259.344 282.273 259.344C285.568 259.344 287.438 257.43 287.438 257.43L289.82 261.014C289.82 261.014 286.837 263.708 282.273 263.708C276.552 263.708 272.145 259.344 272.145 253.801C272.145 248.258 276.152 243.895 281.606 243.895C286.77 243.895 291.111 247.902 291.111 253.712L291.089 253.757ZM286.325 252.087C286.236 250.462 284.744 248.281 281.606 248.281C278.467 248.281 277.153 250.418 276.997 252.087H286.347H286.325Z" fill="#1D1D1B"/>
<path d="M311.592 251.063V263.262H306.828V252.243C306.828 249.55 305.158 248.392 303.088 248.392C300.617 248.392 299.348 250.818 299.348 250.818V263.262H294.584V244.429H299.036V247.168C299.036 247.168 300.706 243.94 304.691 243.94C308.341 243.94 311.614 246.522 311.614 251.063H311.592Z" fill="#1D1D1B"/>
<path d="M320.072 257.452C321.831 257.452 323.211 258.832 323.211 260.591C323.211 262.35 321.831 263.73 320.072 263.73C318.314 263.73 316.934 262.35 316.934 260.591C316.934 258.832 318.314 257.452 320.072 257.452ZM322.343 255.315H317.802L317.601 235.436H322.521L322.321 255.315H322.343Z" fill="#1D1D1B"/>
<path d="M68.0098 284.878C70.5031 284.878 72.3953 285.568 73.6864 286.948C74.9776 288.329 75.6231 290.065 75.6231 292.157C75.6231 293.137 75.4673 294.161 75.2002 295.207C74.9108 296.254 74.4655 297.322 73.82 298.346C73.1744 299.37 72.462 300.305 71.5939 301.129C70.7257 301.952 69.6571 302.62 68.3882 303.132C67.1194 303.644 65.7392 303.889 64.2699 303.889C63.9137 303.889 63.2459 303.867 62.2219 303.822C61.1979 303.778 60.3742 303.756 59.7064 303.756L56.5008 303.911C56.5008 303.911 56.4785 303.822 56.4785 303.689C56.4785 303.333 56.523 303.132 56.6121 303.132C56.8124 303.132 57.1686 303.065 57.6806 302.91C58.1704 302.754 58.4598 302.598 58.5488 302.42C58.8159 301.863 59.0608 300.973 59.3057 299.749L61.376 289.019C61.6208 287.661 61.7322 286.77 61.6876 286.347C61.6876 286.191 61.4428 286.036 61.0198 285.88C60.5968 285.724 60.2852 285.657 60.0626 285.657C60.018 285.657 59.9958 285.613 59.9958 285.546C59.9958 285.234 60.0626 285.012 60.1961 284.878C61.0866 284.923 62.1106 284.945 63.2682 284.945C63.936 284.945 64.8042 284.945 65.8727 284.923C66.9413 284.9 67.6314 284.9 67.9875 284.9L68.0098 284.878ZM67.943 286.147C65.895 286.147 64.7374 286.303 64.4925 286.614C64.1809 286.993 63.936 287.75 63.7134 288.885L61.5986 299.838C61.5318 300.105 61.5095 300.505 61.5095 301.062C61.5095 301.618 61.5095 301.93 61.5763 302.019C61.7544 302.398 62.8675 302.598 64.9155 302.598C66.5183 302.598 67.9653 302.064 69.2342 301.017C70.5031 299.971 71.4603 298.635 72.1059 297.033C72.7514 295.43 73.0631 293.716 73.0631 291.913C73.0631 290.221 72.6401 288.841 71.7942 287.772C70.9483 286.703 69.6571 286.169 67.943 286.169V286.147Z" fill="black"/>
<path d="M83.4593 291.312C84.3497 291.312 84.973 291.534 85.3737 291.979C85.7744 292.425 85.9525 292.914 85.9525 293.471C85.9525 294.317 85.5296 295.14 84.6614 295.986C83.7932 296.81 82.8582 297.456 81.8119 297.901C80.7879 298.346 79.9643 298.569 79.3187 298.569C79.2297 298.569 79.2074 298.903 79.2074 299.57C79.2074 300.439 79.3855 301.084 79.7194 301.552C80.0533 301.997 80.5208 302.22 81.0773 302.22C81.2332 302.22 81.389 302.22 81.5225 302.153C81.6561 302.108 81.8119 302.064 81.9455 302.019C82.0791 301.975 82.2126 301.908 82.3462 301.841C82.4798 301.774 82.6133 301.685 82.7247 301.596C82.836 301.507 82.9473 301.418 83.0586 301.329C83.1699 301.262 83.2589 301.173 83.348 301.084C83.437 300.995 83.5038 300.928 83.5483 300.862C83.5928 300.795 83.6374 300.75 83.6819 300.728L83.7709 300.639C83.7709 300.639 83.8822 300.728 83.9935 300.906C84.1048 301.084 84.1494 301.218 84.1494 301.285C83.8822 301.752 83.348 302.309 82.5466 302.976C81.7452 303.644 80.9438 303.978 80.1646 303.978C79.1629 303.978 78.406 303.6 77.8717 302.821C77.3374 302.041 77.0703 300.973 77.0703 299.615C77.0703 297.767 77.7604 295.92 79.1629 294.072C80.5653 292.224 81.99 291.289 83.4593 291.289V291.312ZM83.1699 292.491C82.2572 292.491 81.4112 293.137 80.6098 294.428C79.8084 295.719 79.4077 296.721 79.4077 297.433C79.4077 297.5 79.4523 297.545 79.519 297.545C80.2091 297.545 81.0996 297.077 82.2126 296.165C83.3257 295.252 83.86 294.295 83.86 293.337C83.86 292.759 83.6151 292.469 83.1476 292.469L83.1699 292.491Z" fill="black"/>
<path d="M91.3622 291.312C91.6739 291.312 91.9187 291.445 92.0746 291.734C92.2527 292.002 92.3417 292.38 92.3417 292.825C92.3417 293.271 92.2749 293.76 92.1636 294.361L91.6961 296.788C92.1636 295.652 92.8982 294.473 93.8332 293.204C94.7904 291.957 95.5918 291.334 96.2374 291.334C96.883 291.334 97.4173 291.645 97.818 292.246C97.818 293.538 97.4618 294.183 96.7494 294.183C96.5936 294.183 96.4155 294.072 96.1929 293.827C95.9703 293.582 95.7699 293.471 95.5251 293.471C94.9685 293.471 94.1449 294.317 93.0318 295.986C91.9187 297.656 91.2286 299.281 90.9392 300.862L90.3827 303.889C90.0488 303.956 89.7371 303.978 89.4255 303.978C89.0693 303.978 88.7131 303.956 88.357 303.889L90.0933 295.007C90.1824 294.317 90.2269 293.938 90.2269 293.849C90.2269 293.36 90.1378 293.137 89.9375 293.137C89.8484 293.137 89.7594 293.181 89.6258 293.271C89.4923 293.36 89.3587 293.471 89.2029 293.604C89.0471 293.738 88.9357 293.872 88.8244 293.983C88.7131 294.094 88.5573 294.272 88.357 294.495C88.3124 294.495 88.2456 294.406 88.1343 294.228C88.023 294.05 87.9785 293.916 87.9785 293.849C88.2011 293.471 88.6909 292.959 89.4255 292.313C90.1601 291.668 90.7834 291.356 91.2732 291.356L91.3622 291.312Z" fill="black"/>
<path d="M118.186 297.634C118.186 299.214 117.473 300.639 116.049 301.908C114.624 303.177 112.687 303.822 110.238 303.822H106.588L103.427 303.911C103.427 303.911 103.404 303.8 103.404 303.644C103.404 303.266 103.471 303.065 103.605 303.065C103.827 303.065 104.183 302.999 104.651 302.865C105.118 302.731 105.386 302.576 105.475 302.397C105.742 301.841 105.987 300.951 106.231 299.726L108.302 288.996C108.502 287.905 108.613 287.015 108.613 286.325C108.613 286.191 108.391 286.036 107.968 285.88C107.545 285.724 107.211 285.635 107.011 285.635C106.966 285.635 106.944 285.59 106.944 285.524C106.944 285.212 107.011 284.989 107.144 284.856C108.035 284.9 109.059 284.922 110.216 284.922C111.129 284.922 111.864 284.922 112.442 284.922C113.021 284.922 113.533 284.922 114.001 284.922C114.535 284.922 115.069 284.989 115.603 285.101C116.138 285.234 116.65 285.412 117.139 285.702C117.629 285.969 118.03 286.369 118.342 286.859C118.653 287.371 118.809 287.95 118.809 288.64C118.809 289.108 118.742 289.553 118.609 289.976C118.475 290.399 118.297 290.777 118.097 291.089C117.896 291.401 117.651 291.69 117.384 291.957C117.117 292.224 116.85 292.447 116.605 292.625C116.36 292.803 116.115 292.959 115.893 293.092C115.67 293.226 115.492 293.315 115.359 293.359L115.18 293.449C115.759 293.538 116.405 294.005 117.139 294.806C117.874 295.608 118.23 296.565 118.23 297.656L118.186 297.634ZM115.581 297.745C115.581 296.721 115.269 295.897 114.624 295.252C114.001 294.606 112.977 294.294 111.574 294.294C110.172 294.294 109.504 294.428 109.437 294.717L108.346 300.483C108.257 301.062 108.213 301.529 108.213 301.863C108.213 302.197 108.346 302.42 108.613 302.509C108.881 302.598 109.326 302.642 109.949 302.642C111.285 302.642 112.22 302.509 112.754 302.264C113.533 301.908 114.223 301.307 114.78 300.505C115.336 299.704 115.626 298.769 115.626 297.745H115.581ZM116.294 288.952C116.294 287.037 115.314 286.08 113.333 286.08C111.93 286.08 111.218 286.214 111.173 286.459L109.882 292.714C109.882 292.714 109.882 292.847 109.994 292.892C110.105 292.937 110.216 292.981 110.372 293.003C110.55 293.026 110.728 293.048 110.929 293.07C111.129 293.07 111.352 293.07 111.596 293.07C112.22 293.07 112.732 293.026 113.177 292.959C113.622 292.892 114.112 292.714 114.646 292.469C115.18 292.224 115.603 291.801 115.893 291.2C116.182 290.599 116.316 289.864 116.316 288.952H116.294Z" fill="black"/>
<path d="M123.884 291.311C124.196 291.311 124.441 291.445 124.597 291.734C124.775 292.002 124.864 292.38 124.864 292.825C124.864 293.226 124.797 293.738 124.686 294.361L123.417 300.817C123.35 301.04 123.328 301.284 123.328 301.529C123.328 302.019 123.417 302.242 123.617 302.242C123.729 302.242 123.862 302.197 124.04 302.086C124.218 301.975 124.374 301.841 124.53 301.707C124.686 301.574 124.842 301.396 124.975 301.262C125.109 301.106 125.242 300.995 125.354 300.884L125.532 300.683C125.532 300.683 125.643 300.772 125.754 300.951C125.866 301.129 125.91 301.262 125.91 301.329C125.665 301.752 125.131 302.308 124.352 302.999C123.573 303.689 122.86 304.045 122.282 304.045C121.97 304.045 121.725 303.911 121.569 303.622C121.391 303.355 121.302 302.976 121.302 302.531C121.302 302.219 121.369 301.707 121.503 300.995L122.682 294.962C122.771 294.361 122.816 293.983 122.816 293.805C122.816 293.315 122.727 293.092 122.527 293.092C122.438 293.092 122.348 293.137 122.215 293.226C122.081 293.315 121.948 293.426 121.792 293.56C121.658 293.693 121.525 293.827 121.414 293.938C121.302 294.05 121.191 294.161 121.102 294.294L120.968 294.473C120.968 294.473 120.857 294.384 120.746 294.205C120.634 294.027 120.59 293.894 120.59 293.827C120.812 293.449 121.302 292.937 122.037 292.291C122.771 291.645 123.395 291.334 123.884 291.334V291.311ZM124.73 285.234C125.02 285.234 125.265 285.345 125.465 285.59C125.665 285.835 125.777 286.08 125.777 286.392C125.777 286.859 125.621 287.26 125.331 287.594C125.042 287.928 124.664 288.106 124.218 288.106C123.907 288.106 123.662 287.995 123.506 287.75C123.328 287.505 123.239 287.215 123.239 286.859C123.239 286.414 123.372 286.036 123.662 285.702C123.951 285.368 124.307 285.212 124.73 285.212V285.234Z" fill="black"/>
<path d="M128.472 300.973L131.188 286.993C131.254 286.703 131.277 286.436 131.277 286.191C131.277 285.835 130.698 285.635 129.518 285.635C129.451 285.635 129.429 285.568 129.429 285.457C129.429 285.234 129.496 285.034 129.652 284.878C130.965 284.767 132.189 284.5 133.347 284.077C133.458 284.143 133.525 284.322 133.525 284.633C133.525 284.856 133.392 285.59 133.147 286.793L130.409 300.773C130.342 300.995 130.32 301.24 130.32 301.485C130.32 301.975 130.409 302.197 130.609 302.197C130.72 302.197 130.854 302.153 131.032 302.041C131.188 301.93 131.366 301.797 131.544 301.663C131.722 301.507 131.878 301.351 132.011 301.218C132.145 301.062 132.323 300.884 132.523 300.617C132.59 300.617 132.657 300.706 132.746 300.884C132.835 301.062 132.88 301.196 132.88 301.262C132.635 301.685 132.123 302.242 131.321 302.932C130.542 303.622 129.83 303.978 129.251 303.978C128.962 303.978 128.739 303.845 128.539 303.555C128.338 303.266 128.271 302.91 128.271 302.464C128.271 302.13 128.338 301.618 128.472 300.928V300.973Z" fill="black"/>
<path d="M143.208 291.311C143.675 291.311 143.742 291.311 143.341 291.311H143.564L144.365 287.015C144.432 286.748 144.454 286.481 144.454 286.214C144.454 285.858 143.876 285.657 142.696 285.657C142.629 285.657 142.607 285.59 142.607 285.479C142.607 285.256 142.673 285.056 142.829 284.9C144.143 284.789 145.389 284.522 146.547 284.099C146.658 284.166 146.725 284.366 146.725 284.655L146.302 286.815L143.586 300.795C143.519 301.017 143.497 301.262 143.497 301.507C143.497 301.997 143.586 302.219 143.787 302.219C143.898 302.219 144.031 302.175 144.21 302.064C144.388 301.952 144.543 301.819 144.699 301.685C144.855 301.529 145.011 301.374 145.144 301.24C145.278 301.084 145.412 300.973 145.523 300.862L145.701 300.661C145.701 300.661 145.812 300.75 145.924 300.928C146.035 301.106 146.079 301.24 146.079 301.307C145.835 301.73 145.323 302.286 144.521 302.976C143.742 303.666 143.052 304.023 142.451 304.023C142.139 304.023 141.894 303.889 141.739 303.6C141.56 303.333 141.471 302.954 141.471 302.509C141.471 302.197 141.538 301.685 141.672 300.973C141.716 300.817 141.738 300.683 141.761 300.594C141.783 300.505 141.805 300.416 141.828 300.372C141.828 300.327 141.85 300.283 141.85 300.216C141.605 300.661 141.316 301.129 140.959 301.596C140.625 302.086 140.136 302.598 139.512 303.154C138.889 303.711 138.31 304 137.776 304C136.886 304 136.218 303.622 135.728 302.865C135.238 302.108 135.016 301.195 135.016 300.105C135.016 298.034 135.906 296.053 137.665 294.161C139.423 292.269 141.271 291.334 143.208 291.334V291.311ZM143.007 294.027C143.074 293.671 143.052 293.337 142.896 293.07C142.74 292.803 142.473 292.647 142.117 292.647C140.937 292.647 139.824 293.382 138.756 294.851C137.687 296.32 137.153 297.879 137.153 299.526C137.153 301.396 137.642 302.331 138.622 302.331C139.334 302.331 140.113 301.618 140.959 300.216C141.805 298.813 142.362 297.367 142.651 295.92L143.007 294.05V294.027Z" fill="black"/>
<path d="M151.734 291.312C152.046 291.312 152.291 291.445 152.446 291.734C152.625 292.002 152.714 292.38 152.714 292.825C152.714 293.337 152.647 293.849 152.536 294.361L151.534 299.125C151.4 299.682 151.333 300.194 151.333 300.683C151.333 301.507 151.512 301.93 151.89 301.93C152.157 301.93 152.536 301.707 153.048 301.262C153.537 300.817 154.072 300.216 154.628 299.504C155.185 298.791 155.697 297.901 156.186 296.877C156.676 295.831 157.01 294.807 157.21 293.805L157.7 291.556C157.945 291.49 158.257 291.445 158.591 291.445C158.924 291.445 159.258 291.49 159.57 291.556L157.789 300.862C157.722 301.084 157.7 301.329 157.7 301.574C157.7 302.064 157.789 302.286 157.989 302.286C158.101 302.286 158.234 302.242 158.412 302.13C158.591 302.019 158.746 301.886 158.902 301.752C159.058 301.596 159.214 301.44 159.347 301.307C159.481 301.151 159.615 301.04 159.726 300.928L159.904 300.728C159.904 300.728 160.015 300.817 160.127 300.995C160.238 301.173 160.282 301.307 160.282 301.374C160.038 301.797 159.526 302.353 158.724 303.043C157.945 303.733 157.255 304.089 156.654 304.089C156.342 304.089 156.097 303.956 155.941 303.666C155.763 303.399 155.674 303.021 155.674 302.576C155.674 302.264 155.741 301.752 155.875 301.04L156.387 298.391C156.186 298.747 155.808 299.348 155.207 300.171C154.606 300.995 153.871 301.863 152.958 302.732C152.046 303.622 151.311 304.067 150.732 304.067C149.775 304.067 149.285 303.422 149.285 302.175C149.285 301.285 149.419 300.238 149.686 299.036L150.554 295.029C150.643 294.339 150.688 293.961 150.688 293.872C150.688 293.382 150.599 293.159 150.398 293.159C150.332 293.159 150.22 293.204 150.087 293.293C149.953 293.382 149.82 293.493 149.664 293.627C149.53 293.76 149.397 293.894 149.285 294.005C149.174 294.116 149.018 294.295 148.818 294.517C148.773 294.517 148.707 294.428 148.595 294.25C148.484 294.072 148.439 293.938 148.439 293.872C148.662 293.493 149.152 292.981 149.886 292.336C150.621 291.69 151.244 291.378 151.734 291.378V291.312Z" fill="black"/>
<path d="M165.624 291.311C165.936 291.311 166.181 291.445 166.337 291.734C166.515 292.002 166.604 292.38 166.604 292.825C166.604 293.271 166.537 293.76 166.426 294.361L165.914 297.01C166.114 296.654 166.515 296.075 167.16 295.229C167.806 294.384 168.585 293.515 169.52 292.647C170.455 291.779 171.212 291.334 171.791 291.334C172.748 291.334 173.238 291.957 173.238 293.226C173.238 294.094 173.104 295.14 172.837 296.365L171.88 300.795C171.813 301.017 171.791 301.262 171.791 301.507C171.791 301.997 171.88 302.219 172.08 302.219C172.191 302.219 172.325 302.175 172.503 302.064C172.681 301.952 172.837 301.819 172.993 301.685C173.149 301.552 173.304 301.374 173.438 301.24C173.572 301.084 173.705 300.973 173.816 300.862L173.995 300.661C173.995 300.661 174.106 300.75 174.217 300.928C174.328 301.106 174.373 301.24 174.373 301.307C174.128 301.73 173.594 302.286 172.815 302.976C172.036 303.666 171.345 304.023 170.744 304.023C170.433 304.023 170.188 303.889 170.032 303.6C169.854 303.333 169.765 302.954 169.765 302.509C169.765 302.197 169.832 301.685 169.965 300.973L170.967 296.209C171.101 295.563 171.167 295.051 171.167 294.651C171.167 293.827 170.989 293.404 170.611 293.404C169.965 293.404 168.986 294.272 167.65 296.009C166.314 297.745 165.446 299.593 165.068 301.552L164.578 303.8C164.333 303.867 164.022 303.911 163.688 303.911C163.354 303.911 163.02 303.867 162.708 303.8L164.4 294.918C164.489 294.228 164.534 293.849 164.534 293.76C164.534 293.27 164.445 293.048 164.244 293.048C164.155 293.048 164.066 293.092 163.932 293.181C163.799 293.27 163.665 293.382 163.51 293.515C163.376 293.649 163.242 293.782 163.131 293.894C163.02 294.005 162.864 294.183 162.664 294.406C162.619 294.406 162.552 294.317 162.441 294.139C162.33 293.961 162.285 293.827 162.285 293.76C162.508 293.382 162.998 292.87 163.732 292.224C164.467 291.579 165.09 291.267 165.58 291.267L165.624 291.311Z" fill="black"/>
<path d="M182.477 291.267C183.056 291.267 183.679 291.401 184.37 291.645C185.06 291.89 185.727 292.024 186.395 292.024H187.642C187.753 292.024 187.82 292.113 187.82 292.246C187.82 292.38 187.798 292.536 187.731 292.736C187.664 292.937 187.597 293.07 187.508 293.137H185.883C185.772 293.137 185.705 293.204 185.705 293.315C185.817 294.005 185.883 294.517 185.883 294.807C185.883 295.519 185.794 296.164 185.572 296.788C185.371 297.389 185.104 297.879 184.77 298.279C184.436 298.658 184.147 298.947 183.924 299.147C183.702 299.348 183.479 299.504 183.256 299.637C183.056 299.749 182.678 299.949 182.099 300.238C181.52 300.505 181.053 300.773 180.741 300.995C180.407 301.218 180.251 301.418 180.251 301.618C180.251 301.797 180.429 301.952 180.808 302.13C181.186 302.286 181.654 302.464 182.188 302.642C182.722 302.821 183.279 303.043 183.813 303.31C184.347 303.577 184.815 303.956 185.193 304.423C185.572 304.913 185.75 305.447 185.75 306.071C185.75 307.429 185.149 308.519 183.924 309.321C182.7 310.122 181.075 310.523 179.005 310.523C177.669 310.523 176.6 310.278 175.754 309.766C174.909 309.276 174.508 308.564 174.508 307.696C174.508 307.228 174.641 306.783 174.886 306.36C175.131 305.937 175.487 305.536 175.977 305.203C176.445 304.846 176.89 304.579 177.29 304.334C177.691 304.112 178.159 303.867 178.671 303.644L178.159 303.288C177.669 302.954 177.446 302.62 177.446 302.242C177.446 301.908 177.78 301.552 178.47 301.129C179.16 300.706 179.761 300.439 180.318 300.283C179.962 300.283 179.539 300.194 179.071 299.993C178.604 299.793 178.136 299.459 177.713 298.947C177.29 298.435 177.068 297.834 177.068 297.144C177.068 295.541 177.624 294.139 178.76 292.981C179.873 291.824 181.142 291.245 182.522 291.245L182.477 291.267ZM183.88 307.228C183.88 306.805 183.768 306.427 183.524 306.071C183.279 305.715 182.923 305.403 182.477 305.158C182.032 304.913 181.609 304.69 181.231 304.557C180.852 304.401 180.407 304.245 179.85 304.089C179.494 304.245 179.227 304.357 179.049 304.446C178.871 304.535 178.604 304.668 178.225 304.869C177.847 305.069 177.558 305.269 177.38 305.447C177.201 305.625 177.023 305.848 176.868 306.137C176.712 306.427 176.623 306.716 176.623 307.028C176.623 308.564 177.869 309.343 180.407 309.343C181.342 309.343 182.166 309.143 182.856 308.764C183.546 308.364 183.902 307.874 183.902 307.273L183.88 307.228ZM182.01 292.358C181.186 292.358 180.518 292.825 179.984 293.716C179.45 294.628 179.183 295.63 179.183 296.699C179.183 297.456 179.338 298.079 179.65 298.569C179.962 299.058 180.385 299.326 180.941 299.326C181.743 299.326 182.411 298.903 182.945 298.057C183.479 297.211 183.746 296.298 183.746 295.341C183.746 294.584 183.59 293.872 183.279 293.271C182.967 292.647 182.544 292.358 182.01 292.358Z" fill="black"/>
<path d="M194.186 291.222C195.277 291.222 196.145 291.579 196.791 292.313C196.88 292.536 196.924 292.736 196.924 292.914C196.924 293.27 196.835 293.56 196.657 293.805C196.479 294.05 196.234 294.183 195.945 294.183C195.677 294.183 195.433 294.05 195.232 293.76C195.032 293.493 194.765 293.204 194.431 292.914C194.119 292.625 193.696 292.491 193.184 292.491C192.784 292.491 192.472 292.625 192.227 292.892C192.004 293.159 191.871 293.471 191.871 293.827C191.871 294.317 192.049 294.851 192.427 295.43C192.806 295.986 193.206 296.498 193.652 296.944C194.097 297.389 194.498 297.923 194.876 298.546C195.255 299.192 195.433 299.815 195.433 300.483C195.433 301.529 195.054 302.398 194.275 303.043C193.518 303.689 192.516 304.023 191.314 304.023C190.223 304.023 189.355 303.666 188.71 302.932C188.621 302.776 188.576 302.598 188.576 302.375C188.576 302.019 188.665 301.73 188.843 301.463C189.021 301.195 189.266 301.062 189.556 301.062C189.823 301.062 190.068 301.195 190.268 301.485C190.468 301.774 190.735 302.041 191.069 302.331C191.381 302.62 191.804 302.754 192.316 302.754C192.739 302.754 193.073 302.62 193.34 302.331C193.607 302.064 193.718 301.752 193.718 301.418C193.718 300.928 193.54 300.394 193.162 299.815C192.784 299.259 192.383 298.747 191.938 298.301C191.492 297.856 191.092 297.322 190.713 296.699C190.335 296.053 190.157 295.43 190.157 294.762C190.157 293.961 190.535 293.159 191.314 292.38C192.071 291.601 193.028 291.222 194.164 291.222H194.186Z" fill="black"/>
<path d="M206.051 291.312C206.942 291.312 207.61 291.69 208.1 292.447C208.567 293.204 208.812 294.116 208.812 295.207C208.812 296.521 208.389 297.901 207.543 299.281C206.697 300.683 205.695 301.797 204.538 302.665C203.38 303.533 202.356 303.956 201.466 303.956C200.976 303.956 200.598 303.889 200.308 303.733L199.507 308.03C199.44 308.275 199.418 308.542 199.418 308.831C199.418 309.187 199.551 309.41 199.818 309.499C200.063 309.566 200.508 309.588 201.176 309.588C201.221 309.588 201.243 309.655 201.243 309.766C201.243 310.055 201.199 310.256 201.11 310.412C200.976 310.412 200.798 310.412 200.575 310.412C200.353 310.412 200.197 310.412 200.108 310.412C198.794 310.412 197.436 310.501 195.989 310.679C195.923 310.679 195.9 310.59 195.9 310.456C195.9 310.167 195.945 309.966 196.012 309.855C196.524 309.855 196.924 309.699 197.169 309.388C197.37 309.12 197.525 308.697 197.637 308.141L199.907 296.387L198.527 297.767C198.416 297.634 198.349 297.433 198.349 297.188C198.349 297.122 198.371 297.055 198.438 296.988L200.13 295.163L200.887 291.423C201.176 291.356 201.488 291.312 201.844 291.312C202.2 291.312 202.49 291.378 202.757 291.512C202.579 292.313 202.49 292.848 202.445 293.115C202.824 292.758 203.135 292.491 203.38 292.313C203.625 292.113 204.003 291.913 204.493 291.69C204.983 291.467 205.517 291.356 206.074 291.356L206.051 291.312ZM204.894 292.981C203.759 292.981 202.846 293.493 202.134 294.517L200.887 300.884C200.82 301.329 200.842 301.73 200.998 302.086C201.154 302.442 201.488 302.642 202 302.642C203.113 302.642 204.159 301.908 205.161 300.461C206.163 298.992 206.653 297.456 206.653 295.786C206.653 293.916 206.052 292.981 204.872 292.981H204.894Z" fill="black"/>
<path d="M216.87 291.312C218.005 291.312 218.873 291.712 219.497 292.491C220.12 293.271 220.432 294.361 220.432 295.742C220.432 297.723 219.742 299.593 218.339 301.351C216.937 303.11 215.512 303.978 214.065 303.978C212.907 303.978 212.039 303.6 211.438 302.865C210.837 302.108 210.525 301.04 210.525 299.659C210.525 297.656 211.215 295.764 212.596 293.983C213.976 292.202 215.401 291.312 216.87 291.312ZM216.514 292.491C215.556 292.491 214.688 293.248 213.887 294.762C213.108 296.276 212.707 297.79 212.707 299.303C212.707 300.416 212.885 301.285 213.241 301.908C213.597 302.531 214.043 302.821 214.577 302.821C215.534 302.821 216.38 302.064 217.137 300.55C217.872 299.036 218.25 297.522 218.25 295.986C218.25 294.851 218.094 293.983 217.783 293.382C217.471 292.781 217.048 292.491 216.514 292.491Z" fill="black"/>
<path d="M230.717 291.311C231.185 291.311 231.252 291.311 230.851 291.311H231.074L231.875 287.015C231.942 286.748 231.964 286.481 231.964 286.214C231.964 285.858 231.385 285.657 230.205 285.657C230.139 285.657 230.116 285.59 230.116 285.479C230.116 285.256 230.183 285.056 230.339 284.9C231.652 284.789 232.899 284.522 234.057 284.099C234.168 284.166 234.235 284.366 234.235 284.655L233.812 286.815L231.096 300.795C231.029 301.017 231.007 301.262 231.007 301.507C231.007 301.997 231.096 302.219 231.296 302.219C231.408 302.219 231.541 302.175 231.719 302.064C231.897 301.952 232.053 301.819 232.209 301.685C232.365 301.529 232.521 301.374 232.654 301.24C232.788 301.084 232.921 300.973 233.033 300.862L233.211 300.661C233.211 300.661 233.322 300.75 233.433 300.928C233.545 301.106 233.589 301.24 233.589 301.307C233.344 301.73 232.832 302.286 232.031 302.976C231.252 303.666 230.562 304.023 229.961 304.023C229.649 304.023 229.404 303.889 229.248 303.6C229.07 303.333 228.981 302.954 228.981 302.509C228.981 302.197 229.048 301.685 229.181 300.973C229.226 300.817 229.248 300.683 229.271 300.594C229.293 300.505 229.315 300.416 229.337 300.372C229.337 300.327 229.36 300.283 229.36 300.216C229.115 300.661 228.825 301.129 228.469 301.596C228.135 302.086 227.645 302.598 227.022 303.154C226.399 303.711 225.82 304 225.286 304C224.395 304 223.727 303.622 223.238 302.865C222.748 302.108 222.525 301.195 222.525 300.105C222.525 298.034 223.416 296.053 225.174 294.161C226.933 292.269 228.781 291.334 230.717 291.334V291.311ZM230.517 294.027C230.584 293.671 230.562 293.337 230.406 293.07C230.25 292.803 229.983 292.647 229.627 292.647C228.447 292.647 227.334 293.382 226.265 294.851C225.197 296.32 224.662 297.879 224.662 299.526C224.662 301.396 225.152 302.331 226.132 302.331C226.844 302.331 227.623 301.618 228.469 300.216C229.315 298.813 229.872 297.367 230.161 295.92L230.517 294.05V294.027Z" fill="black"/>
<path d="M242.137 291.312C243.05 291.312 243.873 291.645 244.653 292.291C244.719 292.514 244.742 292.714 244.742 292.87C244.742 293.226 244.653 293.538 244.474 293.76C244.296 293.983 244.051 294.116 243.74 294.116C243.428 294.116 243.117 293.849 242.783 293.315C242.449 292.781 242.137 292.514 241.803 292.514C240.979 292.514 240.111 293.181 239.221 294.517C238.33 295.853 237.885 297.411 237.885 299.192C237.885 301.24 238.531 302.242 239.777 302.242C239.933 302.242 240.089 302.242 240.223 302.175C240.378 302.13 240.512 302.086 240.646 302.041C240.779 301.975 240.913 301.93 241.046 301.863C241.18 301.797 241.313 301.708 241.425 301.618C241.536 301.529 241.647 301.44 241.759 301.351C241.87 301.285 241.959 301.196 242.048 301.106C242.137 301.017 242.204 300.951 242.248 300.884C242.293 300.817 242.337 300.773 242.382 300.75L242.471 300.661C242.471 300.661 242.582 300.75 242.694 300.928C242.805 301.106 242.849 301.24 242.849 301.307C242.582 301.774 242.048 302.331 241.247 302.999C240.445 303.666 239.644 304 238.842 304C237.841 304 237.084 303.622 236.549 302.843C236.015 302.064 235.748 300.995 235.748 299.637C235.748 297.79 236.46 295.942 237.863 294.094C239.265 292.246 240.69 291.312 242.159 291.312H242.137Z" fill="black"/>
<path d="M253.312 291.312C254.047 291.312 254.737 291.445 255.427 291.69L253.668 300.795C253.601 301.017 253.579 301.262 253.579 301.507C253.579 301.997 253.668 302.22 253.869 302.22C253.98 302.22 254.113 302.175 254.292 302.064C254.47 301.952 254.625 301.819 254.781 301.685C254.937 301.552 255.093 301.374 255.226 301.24C255.36 301.084 255.494 300.973 255.605 300.862L255.783 300.661C255.783 300.661 255.894 300.75 256.006 300.928C256.117 301.106 256.161 301.24 256.161 301.307C255.917 301.73 255.405 302.286 254.603 302.976C253.824 303.666 253.112 304.023 252.533 304.023C252.221 304.023 251.976 303.889 251.821 303.6C251.642 303.333 251.553 302.954 251.553 302.509C251.553 302.175 251.62 301.663 251.754 300.973C251.798 300.773 251.821 300.594 251.865 300.461C251.91 300.327 251.91 300.261 251.91 300.216C251.709 300.572 251.487 300.906 251.242 301.262C250.997 301.618 250.685 302.019 250.284 302.464C249.906 302.91 249.483 303.266 249.06 303.555C248.637 303.845 248.214 303.978 247.836 303.978C246.99 303.978 246.322 303.6 245.832 302.843C245.343 302.086 245.098 301.173 245.098 300.082C245.098 298.725 245.498 297.344 246.322 295.986C247.146 294.606 248.192 293.493 249.483 292.625C250.774 291.757 252.065 291.312 253.334 291.312H253.312ZM252.11 292.625C250.975 292.625 249.884 293.36 248.815 294.829C247.747 296.298 247.212 297.856 247.212 299.481C247.212 301.374 247.702 302.309 248.682 302.309C249.372 302.309 250.151 301.596 250.997 300.194C251.843 298.791 252.422 297.367 252.711 295.92L253.29 292.981C253.067 292.736 252.666 292.603 252.11 292.603V292.625Z" fill="black"/>
<path d="M263.373 291.222C264.464 291.222 265.332 291.579 265.978 292.313C266.067 292.536 266.112 292.736 266.112 292.914C266.112 293.27 266.023 293.56 265.844 293.805C265.666 294.05 265.422 294.183 265.132 294.183C264.865 294.183 264.62 294.05 264.42 293.76C264.219 293.493 263.952 293.204 263.618 292.914C263.307 292.625 262.884 292.491 262.372 292.491C261.971 292.491 261.659 292.625 261.415 292.892C261.192 293.159 261.058 293.471 261.058 293.827C261.058 294.317 261.236 294.851 261.615 295.43C261.993 295.986 262.394 296.498 262.839 296.944C263.284 297.389 263.685 297.923 264.064 298.546C264.442 299.192 264.62 299.815 264.62 300.483C264.62 301.529 264.242 302.398 263.463 303.043C262.706 303.689 261.704 304.023 260.502 304.023C259.411 304.023 258.543 303.666 257.897 302.932C257.808 302.776 257.764 302.598 257.764 302.375C257.764 302.019 257.853 301.73 258.031 301.463C258.209 301.195 258.454 301.062 258.743 301.062C259.01 301.062 259.255 301.195 259.456 301.485C259.656 301.774 259.923 302.041 260.257 302.331C260.569 302.62 260.992 302.754 261.504 302.754C261.927 302.754 262.26 302.62 262.528 302.331C262.795 302.064 262.906 301.752 262.906 301.418C262.906 300.928 262.728 300.394 262.349 299.815C261.971 299.259 261.57 298.747 261.125 298.301C260.68 297.856 260.279 297.322 259.901 296.699C259.522 296.053 259.344 295.43 259.344 294.762C259.344 293.961 259.723 293.159 260.502 292.38C261.259 291.601 262.216 291.222 263.351 291.222H263.373Z" fill="black"/>
<path d="M270.742 288.217C270.809 288.017 271.276 287.928 272.144 287.928C272.367 287.928 272.545 287.928 272.656 287.95L271.944 291.734H274.571C274.571 291.734 274.704 291.868 274.704 292.113C274.704 292.335 274.615 292.625 274.437 292.959H271.699L270.163 300.795C270.096 301.017 270.074 301.262 270.074 301.507C270.074 301.997 270.163 302.219 270.364 302.219C270.475 302.219 270.608 302.175 270.786 302.064C270.965 301.952 271.12 301.819 271.276 301.685C271.432 301.552 271.588 301.374 271.721 301.24C271.855 301.084 271.989 300.973 272.1 300.862L272.278 300.661C272.278 300.661 272.389 300.75 272.501 300.928C272.612 301.106 272.656 301.24 272.656 301.307C272.412 301.73 271.9 302.286 271.098 302.976C270.319 303.666 269.629 304.023 269.028 304.023C268.716 304.023 268.471 303.889 268.315 303.6C268.137 303.332 268.048 302.954 268.048 302.509C268.048 302.197 268.115 301.685 268.249 300.973L269.807 292.936H267.759C267.759 292.936 267.67 292.825 267.67 292.625C267.67 292.38 267.781 292.068 268.026 291.734H270.052L270.742 288.217Z" fill="black"/>
<path d="M284.766 291.312C285.078 291.312 285.323 291.445 285.479 291.734C285.657 292.002 285.746 292.38 285.746 292.825C285.746 293.226 285.679 293.738 285.568 294.361L284.699 298.769C284.544 299.682 284.477 300.305 284.477 300.594C284.477 301.129 284.566 301.507 284.744 301.752C284.922 301.997 285.234 302.108 285.657 302.108C286.547 302.108 287.571 301.24 288.751 299.481C289.931 297.723 290.532 296.231 290.532 295.007C290.532 294.606 290.398 294.161 290.109 293.716C289.819 293.271 289.686 292.914 289.686 292.669C289.686 292.313 289.797 292.024 290.042 291.757C290.265 291.49 290.554 291.378 290.888 291.378C291.244 291.378 291.556 291.445 291.801 291.601C292.068 292.091 292.201 292.647 292.201 293.271C292.201 294.873 291.734 296.521 290.799 298.235C289.864 299.949 288.795 301.307 287.616 302.353C286.436 303.399 285.412 303.911 284.566 303.911C283.92 303.911 283.386 303.666 283.008 303.199C282.629 302.731 282.429 302.108 282.429 301.374C282.429 300.839 282.473 300.416 282.54 300.105L283.52 295.029C283.631 294.628 283.698 294.25 283.698 293.872C283.698 293.382 283.609 293.159 283.408 293.159C283.341 293.159 283.23 293.204 283.097 293.293C282.963 293.382 282.829 293.493 282.674 293.627C282.54 293.76 282.406 293.894 282.295 294.005C282.184 294.116 282.073 294.228 281.983 294.361L281.828 294.539C281.828 294.539 281.716 294.45 281.605 294.272C281.494 294.094 281.449 293.961 281.449 293.894C281.672 293.515 282.162 293.003 282.896 292.358C283.631 291.712 284.254 291.401 284.744 291.401L284.766 291.312Z" fill="black"/>
<path d="M299.46 291.312C300.595 291.312 301.463 291.712 302.086 292.491C302.71 293.271 303.021 294.361 303.021 295.742C303.021 297.723 302.331 299.593 300.929 301.351C299.526 303.11 298.102 303.978 296.655 303.978C295.497 303.978 294.629 303.6 294.028 302.865C293.427 302.108 293.115 301.04 293.115 299.659C293.115 297.656 293.805 295.764 295.186 293.983C296.566 292.202 297.99 291.312 299.46 291.312ZM299.103 292.491C298.146 292.491 297.278 293.248 296.477 294.762C295.698 296.276 295.297 297.79 295.297 299.303C295.297 300.416 295.475 301.285 295.831 301.908C296.187 302.531 296.633 302.821 297.167 302.821C298.124 302.821 298.97 302.064 299.727 300.55C300.461 299.036 300.84 297.522 300.84 295.986C300.84 294.851 300.684 293.983 300.372 293.382C300.061 292.781 299.638 292.491 299.103 292.491Z" fill="black"/>
<path d="M308.23 291.311C308.541 291.311 308.786 291.445 308.942 291.734C309.12 292.002 309.209 292.38 309.209 292.825C309.209 293.271 309.143 293.76 309.031 294.361L308.519 297.01C308.72 296.654 309.12 296.075 309.766 295.229C310.411 294.384 311.191 293.515 312.126 292.647C313.06 291.779 313.817 291.334 314.396 291.334C315.353 291.334 315.843 291.957 315.843 293.226C315.843 294.094 315.71 295.14 315.442 296.365L314.485 300.795C314.418 301.017 314.396 301.262 314.396 301.507C314.396 301.997 314.485 302.219 314.686 302.219C314.797 302.219 314.93 302.175 315.108 302.064C315.287 301.952 315.442 301.819 315.598 301.685C315.754 301.552 315.91 301.374 316.043 301.24C316.177 301.084 316.311 300.973 316.422 300.862L316.6 300.661C316.6 300.661 316.711 300.75 316.823 300.928C316.934 301.106 316.978 301.24 316.978 301.307C316.734 301.73 316.199 302.286 315.42 302.976C314.641 303.666 313.951 304.023 313.35 304.023C313.038 304.023 312.793 303.889 312.638 303.6C312.459 303.333 312.37 302.954 312.37 302.509C312.37 302.197 312.437 301.685 312.571 300.973L313.572 296.209C313.706 295.563 313.773 295.051 313.773 294.651C313.773 293.827 313.595 293.404 313.216 293.404C312.571 293.404 311.591 294.272 310.256 296.009C308.92 297.745 308.052 299.593 307.673 301.552L307.184 303.8C306.939 303.867 306.627 303.911 306.293 303.911C305.959 303.911 305.625 303.867 305.314 303.8L307.005 294.918C307.094 294.228 307.139 293.849 307.139 293.76C307.139 293.27 307.05 293.048 306.85 293.048C306.761 293.048 306.671 293.092 306.538 293.181C306.404 293.27 306.271 293.382 306.115 293.515C305.981 293.649 305.848 293.782 305.737 293.894C305.625 294.005 305.469 294.183 305.269 294.406C305.225 294.406 305.158 294.317 305.046 294.139C304.935 293.961 304.891 293.827 304.891 293.76C305.113 293.382 305.603 292.87 306.338 292.224C307.072 291.579 307.696 291.267 308.185 291.267L308.23 291.311Z" fill="black"/>
<path d="M80.6771 331.337C80.6771 330.758 80.4545 330.202 79.987 329.645C79.5196 329.089 78.963 328.599 78.3174 328.154C77.6719 327.709 77.004 327.241 76.3362 326.774C75.6684 326.306 75.1118 325.75 74.6443 325.104C74.1769 324.481 73.9543 323.791 73.9543 323.078C73.9543 321.342 74.5776 319.917 75.8465 318.782C77.1153 317.646 78.6291 317.09 80.41 317.09C80.8997 317.09 81.5453 317.201 82.3467 317.402C83.1259 317.602 83.7269 317.736 84.1276 317.78C83.994 318.826 83.8605 319.895 83.7492 320.986C83.6824 321.542 83.6601 321.876 83.6156 321.965C83.5933 322.054 83.5488 322.099 83.482 322.099C83.1926 322.099 82.97 322.032 82.8142 321.921C82.7697 321.921 82.7474 321.787 82.7474 321.564C82.7474 320.652 82.458 319.895 81.857 319.249C81.2782 318.626 80.5881 318.292 79.8312 318.292C78.7404 318.292 77.85 318.626 77.1821 319.294C76.5143 319.962 76.1804 320.785 76.1804 321.787C76.1804 322.789 76.6479 323.679 77.5828 324.436C77.939 324.726 78.5623 325.171 79.4528 325.794C80.3432 326.417 80.9665 326.885 81.3672 327.197C81.7679 327.53 82.1464 327.998 82.5248 328.599C82.9032 329.2 83.1036 329.846 83.1036 330.513C83.1036 331.115 82.97 331.738 82.6806 332.406C82.3912 333.074 81.9905 333.719 81.434 334.32C80.8997 334.921 80.1874 335.433 79.2969 335.812C78.4065 336.212 77.4493 336.413 76.3807 336.413C75.3122 336.413 73.8207 336.19 71.7949 335.723C71.884 334.498 71.9062 333.719 71.9062 333.385C71.9062 333.051 71.9062 332.628 71.884 332.049C71.884 331.493 71.8617 331.204 71.8617 331.159C71.8617 331.025 72.0398 330.959 72.4182 330.959C72.5963 330.959 72.7744 331.025 72.9748 331.181C72.9748 331.582 73.0193 331.983 73.1083 332.383C73.1974 332.784 73.3532 333.229 73.5981 333.675C73.8429 334.142 74.2214 334.498 74.7557 334.788C75.2899 335.077 75.9132 335.211 76.6701 335.211C77.6941 335.211 78.6068 334.854 79.4305 334.164C80.2542 333.474 80.6549 332.495 80.6549 331.27L80.6771 331.337Z" fill="black"/>
<path d="M91.3401 323.768C92.2528 323.768 93.0765 324.102 93.8556 324.748C93.9224 324.97 93.9447 325.171 93.9447 325.327C93.9447 325.683 93.8556 325.994 93.6775 326.217C93.4995 326.44 93.2546 326.573 92.9429 326.573C92.6313 326.573 92.3196 326.306 91.9857 325.772C91.6518 325.238 91.3401 324.97 91.0062 324.97C90.1826 324.97 89.3144 325.638 88.4239 326.974C87.5335 328.31 87.0882 329.868 87.0882 331.649C87.0882 333.697 87.7338 334.699 88.9804 334.699C89.1363 334.699 89.2921 334.699 89.4257 334.632C89.5815 334.587 89.7151 334.543 89.8486 334.498C89.9822 334.431 90.1158 334.387 90.2493 334.32C90.3829 334.253 90.5165 334.164 90.6278 334.075C90.7391 333.986 90.8504 333.897 90.9617 333.808C91.073 333.741 91.162 333.652 91.2511 333.563C91.3401 333.474 91.4069 333.407 91.4514 333.341C91.496 333.274 91.5405 333.229 91.585 333.207L91.674 333.118C91.674 333.118 91.7854 333.207 91.8967 333.385C92.008 333.563 92.0525 333.697 92.0525 333.764C91.7853 334.231 91.2511 334.788 90.4497 335.455C89.6483 336.123 88.8469 336.457 88.0455 336.457C87.0437 336.457 86.2868 336.079 85.7526 335.3C85.2183 334.52 84.9512 333.452 84.9512 332.094C84.9512 330.246 85.6635 328.399 87.066 326.551C88.4684 324.703 89.8932 323.768 91.3624 323.768H91.3401Z" fill="black"/>
<path d="M103.338 323.768C104.296 323.768 104.785 324.392 104.785 325.66C104.785 326.529 104.652 327.575 104.385 328.799L103.427 333.229C103.361 333.452 103.338 333.697 103.338 333.942C103.338 334.431 103.427 334.654 103.628 334.654C103.739 334.654 103.873 334.609 104.051 334.498C104.229 334.387 104.385 334.253 104.541 334.12C104.696 333.986 104.852 333.808 104.986 333.674C105.119 333.519 105.253 333.407 105.364 333.296L105.542 333.096C105.542 333.096 105.654 333.185 105.765 333.363C105.876 333.541 105.921 333.674 105.921 333.741C105.676 334.164 105.164 334.721 104.362 335.411C103.583 336.101 102.871 336.457 102.292 336.457C101.98 336.457 101.736 336.324 101.58 336.034C101.424 335.745 101.313 335.389 101.313 334.943C101.313 334.632 101.379 334.12 101.513 333.407L102.515 328.643C102.648 327.998 102.715 327.486 102.715 327.085C102.715 326.261 102.537 325.839 102.159 325.839C101.535 325.839 100.534 326.707 99.1978 328.443C97.8622 330.179 96.994 332.027 96.6155 333.986L96.1258 336.234C95.8809 336.301 95.5693 336.346 95.2353 336.346C94.9014 336.346 94.5675 336.301 94.2559 336.234L97.3724 320.117C97.5505 319.271 97.6396 318.759 97.6396 318.581C97.6396 318.225 97.0608 318.025 95.8809 318.025C95.8141 318.025 95.7919 317.958 95.7919 317.847C95.7919 317.624 95.8587 317.424 96.0145 317.268C97.2834 317.157 98.4855 316.89 99.6431 316.467C99.7544 316.533 99.8212 316.711 99.8212 317.023C99.8212 317.179 99.6876 317.891 99.4427 319.182L97.9735 326.707L97.4615 329.356C97.6618 329 98.0625 328.421 98.7081 327.575C99.3537 326.729 100.133 325.861 101.068 324.993C102.003 324.124 102.76 323.679 103.338 323.679V323.768Z" fill="black"/>
<path d="M111.129 323.768C111.44 323.768 111.685 323.902 111.841 324.191C112.019 324.458 112.108 324.837 112.108 325.282C112.108 325.794 112.041 326.306 111.93 326.818L110.928 331.582C110.795 332.138 110.728 332.651 110.728 333.14C110.728 333.964 110.906 334.387 111.284 334.387C111.552 334.387 111.93 334.164 112.442 333.719C112.932 333.274 113.466 332.673 114.023 331.96C114.579 331.248 115.091 330.358 115.581 329.334C116.071 328.287 116.405 327.263 116.605 326.262L117.095 324.013C117.34 323.946 117.651 323.902 117.985 323.902C118.319 323.902 118.653 323.946 118.965 324.013L117.184 333.318C117.117 333.541 117.095 333.786 117.095 334.031C117.095 334.52 117.184 334.743 117.384 334.743C117.495 334.743 117.629 334.699 117.807 334.587C117.985 334.476 118.141 334.342 118.297 334.209C118.453 334.053 118.608 333.897 118.742 333.764C118.876 333.608 119.009 333.496 119.12 333.385L119.298 333.185C119.298 333.185 119.41 333.274 119.521 333.452C119.632 333.63 119.677 333.764 119.677 333.83C119.432 334.253 118.92 334.81 118.119 335.5C117.34 336.19 116.649 336.546 116.048 336.546C115.737 336.546 115.492 336.413 115.336 336.123C115.158 335.856 115.069 335.478 115.069 335.032C115.069 334.721 115.136 334.209 115.269 333.496L115.781 330.847C115.581 331.204 115.202 331.805 114.601 332.628C114 333.452 113.266 334.32 112.353 335.188C111.44 336.079 110.706 336.524 110.127 336.524C109.17 336.524 108.68 335.878 108.68 334.632C108.68 333.741 108.813 332.695 109.081 331.493L109.949 327.486C110.038 326.796 110.082 326.417 110.082 326.328C110.082 325.839 109.993 325.616 109.793 325.616C109.726 325.616 109.615 325.661 109.481 325.75C109.348 325.839 109.214 325.95 109.058 326.083C108.925 326.217 108.791 326.351 108.68 326.462C108.569 326.573 108.413 326.751 108.212 326.974C108.168 326.974 108.101 326.885 107.99 326.707C107.879 326.529 107.834 326.395 107.834 326.328C108.057 325.95 108.546 325.438 109.281 324.792C110.016 324.147 110.639 323.835 111.129 323.835V323.768Z" fill="black"/>
<path d="M121.927 333.43L124.643 319.45C124.71 319.16 124.732 318.893 124.732 318.648C124.732 318.292 124.153 318.092 122.973 318.092C122.906 318.092 122.884 318.025 122.884 317.914C122.884 317.691 122.951 317.491 123.107 317.335C124.42 317.224 125.645 316.956 126.802 316.533C126.913 316.6 126.98 316.778 126.98 317.09C126.98 317.313 126.847 318.047 126.602 319.249L123.864 333.229C123.797 333.452 123.775 333.697 123.775 333.942C123.775 334.431 123.864 334.654 124.064 334.654C124.175 334.654 124.309 334.61 124.487 334.498C124.643 334.387 124.821 334.253 124.999 334.12C125.177 333.964 125.333 333.808 125.466 333.675C125.6 333.519 125.778 333.341 125.978 333.074C126.045 333.074 126.112 333.163 126.201 333.341C126.29 333.519 126.335 333.652 126.335 333.719C126.09 334.142 125.578 334.699 124.776 335.389C123.997 336.079 123.285 336.435 122.706 336.435C122.417 336.435 122.194 336.301 121.994 336.012C121.793 335.723 121.727 335.366 121.727 334.921C121.727 334.587 121.793 334.075 121.927 333.385V333.43Z" fill="black"/>
<path d="M135.349 316.288C136.44 316.288 137.242 316.556 137.776 317.134C137.865 317.491 137.776 317.914 137.598 318.337C137.397 318.782 137.108 319.004 136.73 319.004C136.507 319.004 136.307 318.915 136.129 318.737C135.951 318.559 135.839 318.359 135.75 318.136C135.661 317.914 135.505 317.713 135.327 317.535C135.149 317.357 134.949 317.268 134.704 317.268C134.259 317.268 133.88 317.802 133.591 318.849C133.279 319.895 132.901 321.765 132.478 324.414V324.481C132.478 324.481 132.5 324.592 132.567 324.592H135.216C135.216 324.592 135.349 324.703 135.349 324.948C135.349 325.26 135.238 325.571 135.038 325.928H132.322C132.322 325.928 132.166 326.017 132.144 326.15L130.563 334.765C129.628 340.242 127.847 342.98 125.265 342.98C124.597 342.98 124.063 342.868 123.685 342.623C123.306 342.379 123.061 342.111 122.928 341.8C122.928 341.355 123.017 340.954 123.239 340.62C123.462 340.286 123.751 340.108 124.108 340.108C124.286 340.108 124.441 340.197 124.575 340.375C124.709 340.553 124.82 340.754 124.931 340.976C125.02 341.199 125.198 341.399 125.421 341.577C125.644 341.755 125.933 341.844 126.267 341.844C126.957 341.844 127.669 339.863 128.426 335.878L130.163 326.106V326.039C130.163 326.039 130.14 325.883 130.074 325.883H128.204C128.204 325.883 128.137 325.861 128.137 325.794C128.137 325.616 128.293 325.371 128.604 325.037C128.916 324.703 129.228 324.547 129.517 324.547H130.363C130.363 324.547 130.497 324.458 130.541 324.28C130.764 323.123 130.986 322.165 131.187 321.409C131.387 320.652 131.676 319.828 132.055 318.938C132.433 318.047 132.901 317.379 133.457 316.934C134.014 316.489 134.659 316.266 135.394 316.266L135.349 316.288Z" fill="black"/>
<path d="M136.374 333.43L139.09 319.45C139.157 319.16 139.179 318.893 139.179 318.648C139.179 318.292 138.6 318.092 137.42 318.092C137.354 318.092 137.331 318.025 137.331 317.914C137.331 317.691 137.398 317.491 137.554 317.335C138.867 317.224 140.092 316.956 141.249 316.533C141.361 316.6 141.427 316.778 141.427 317.09C141.427 317.313 141.294 318.047 141.049 319.249L138.311 333.229C138.244 333.452 138.222 333.697 138.222 333.942C138.222 334.431 138.311 334.654 138.511 334.654C138.623 334.654 138.756 334.61 138.934 334.498C139.09 334.387 139.268 334.253 139.446 334.12C139.624 333.964 139.78 333.808 139.914 333.675C140.047 333.519 140.225 333.341 140.426 333.074C140.492 333.074 140.559 333.163 140.648 333.341C140.737 333.519 140.782 333.652 140.782 333.719C140.537 334.142 140.025 334.699 139.224 335.389C138.444 336.079 137.732 336.435 137.153 336.435C136.864 336.435 136.641 336.301 136.441 336.012C136.241 335.723 136.174 335.366 136.174 334.921C136.174 334.587 136.241 334.075 136.374 333.385V333.43Z" fill="black"/>
<path d="M146.08 323.768C146.391 323.768 146.636 323.902 146.792 324.191C146.97 324.458 147.059 324.837 147.059 325.282C147.059 325.683 146.993 326.195 146.881 326.818L145.612 333.274C145.546 333.496 145.523 333.741 145.523 333.986C145.523 334.476 145.612 334.699 145.813 334.699C145.924 334.699 146.058 334.654 146.236 334.543C146.414 334.431 146.57 334.298 146.725 334.164C146.881 334.031 147.037 333.853 147.171 333.719C147.304 333.563 147.438 333.452 147.549 333.341L147.727 333.14C147.727 333.14 147.838 333.229 147.95 333.407C148.061 333.585 148.106 333.719 148.106 333.786C147.861 334.209 147.326 334.765 146.547 335.455C145.768 336.145 145.056 336.502 144.477 336.502C144.165 336.502 143.92 336.368 143.765 336.079C143.587 335.812 143.498 335.433 143.498 334.988C143.498 334.676 143.564 334.164 143.698 333.452L144.878 327.419C144.967 326.818 145.011 326.44 145.011 326.262C145.011 325.772 144.922 325.549 144.722 325.549C144.633 325.549 144.544 325.594 144.41 325.683C144.277 325.772 144.143 325.883 143.987 326.017C143.854 326.15 143.72 326.284 143.609 326.395C143.498 326.506 143.386 326.618 143.297 326.751L143.164 326.929C143.164 326.929 143.052 326.84 142.941 326.662C142.83 326.484 142.785 326.351 142.785 326.284C143.008 325.905 143.498 325.393 144.232 324.748C144.967 324.102 145.59 323.791 146.08 323.791V323.768ZM146.926 317.691C147.215 317.691 147.46 317.802 147.66 318.047C147.861 318.292 147.972 318.537 147.972 318.849C147.972 319.316 147.816 319.717 147.527 320.051C147.237 320.385 146.859 320.563 146.414 320.563C146.102 320.563 145.857 320.451 145.701 320.206C145.523 319.962 145.434 319.672 145.434 319.316C145.434 318.871 145.568 318.492 145.857 318.158C146.147 317.825 146.503 317.669 146.926 317.669V317.691Z" fill="black"/>
<path d="M153.982 323.768C154.783 323.768 155.451 324.614 155.941 326.284L156.542 328.332L158.234 325.416C158.879 324.325 159.681 323.768 160.66 323.768C161.306 323.768 161.862 323.969 162.33 324.347C162.486 324.659 162.552 324.904 162.552 325.104C162.552 325.393 162.441 325.638 162.241 325.839C162.04 326.039 161.84 326.15 161.617 326.15C161.373 326.15 161.083 325.994 160.772 325.705C160.46 325.416 160.17 325.26 159.903 325.26C159.681 325.26 159.414 325.505 159.124 326.017L156.965 329.712L158.212 333.764C158.412 334.409 158.657 334.743 158.991 334.743C159.28 334.743 159.592 334.587 159.903 334.298C160.215 334.008 160.46 333.719 160.593 333.474C160.66 333.474 160.772 333.541 160.883 333.697C160.994 333.853 161.061 333.964 161.061 334.053C160.994 334.387 160.638 334.854 159.992 335.5C159.347 336.146 158.724 336.457 158.122 336.457C157.321 336.457 156.653 335.611 156.163 333.942L155.496 331.693L153.67 334.832C153.047 335.923 152.223 336.479 151.244 336.479C150.598 336.479 150.042 336.279 149.574 335.901C149.418 335.634 149.352 335.389 149.352 335.144C149.352 334.854 149.463 334.61 149.663 334.409C149.864 334.209 150.064 334.097 150.287 334.097C150.531 334.097 150.821 334.253 151.132 334.543C151.444 334.832 151.734 334.988 152.023 334.988C152.246 334.988 152.513 334.743 152.802 334.231L155.073 330.313L153.893 326.462C153.692 325.816 153.448 325.482 153.114 325.482C152.824 325.482 152.513 325.638 152.201 325.928C151.889 326.217 151.644 326.506 151.511 326.751C151.444 326.751 151.333 326.685 151.221 326.529C151.11 326.373 151.043 326.262 151.043 326.173C151.11 325.839 151.466 325.371 152.112 324.726C152.758 324.08 153.381 323.768 153.982 323.768Z" fill="black"/>
<path d="M179.649 323.768C180.161 323.768 180.562 323.924 180.852 324.236C181.119 324.547 181.297 324.859 181.364 325.193C181.43 325.527 181.453 325.972 181.453 326.506C181.453 326.84 181.319 327.686 181.052 329.066C181.675 327.976 182.566 326.818 183.723 325.594C184.859 324.369 185.771 323.768 186.439 323.768C187.085 323.768 187.508 323.924 187.73 324.236C187.953 324.547 188.086 325.037 188.086 325.661C188.086 326.529 187.953 327.575 187.686 328.799L186.728 333.229C186.662 333.452 186.639 333.697 186.639 333.942C186.639 334.431 186.728 334.654 186.929 334.654C187.04 334.654 187.174 334.609 187.352 334.498C187.508 334.387 187.686 334.253 187.842 334.12C187.997 333.986 188.153 333.808 188.287 333.675C188.42 333.519 188.554 333.407 188.665 333.296L188.843 333.096C188.843 333.096 188.955 333.185 189.066 333.363C189.177 333.541 189.222 333.674 189.222 333.741C188.977 334.164 188.465 334.721 187.663 335.411C186.884 336.101 186.172 336.457 185.593 336.457C185.281 336.457 185.037 336.324 184.881 336.034C184.703 335.767 184.614 335.389 184.614 334.943C184.614 334.632 184.68 334.12 184.814 333.407L185.816 328.643C185.949 327.998 186.016 327.486 186.016 327.085C186.016 326.796 186.016 326.573 185.994 326.417C185.994 326.262 185.927 326.128 185.86 326.017C185.771 325.905 185.66 325.839 185.482 325.839C184.836 325.839 183.857 326.684 182.588 328.354C181.319 330.024 180.518 331.738 180.184 333.519L179.672 336.257C179.672 336.257 179.449 336.257 179.226 336.301C179.004 336.324 178.826 336.346 178.67 336.346C178.514 336.346 178.336 336.346 178.136 336.301C177.935 336.257 177.802 336.257 177.757 336.257L179.36 328.065C179.427 327.664 179.471 327.308 179.471 326.974C179.471 326.217 179.271 325.861 178.893 325.861C178.225 325.861 177.267 326.774 176.021 328.599C174.774 330.424 173.973 332.138 173.661 333.719L173.149 336.257C172.659 336.324 172.325 336.368 172.17 336.368C172.036 336.368 171.724 336.324 171.212 336.257L172.949 327.375C173.038 326.684 173.082 326.306 173.082 326.217C173.082 325.727 172.993 325.505 172.793 325.505C172.726 325.505 172.615 325.549 172.481 325.638C172.348 325.727 172.214 325.839 172.058 325.972C171.925 326.106 171.791 326.239 171.68 326.351C171.569 326.462 171.413 326.64 171.212 326.863C171.168 326.863 171.101 326.774 170.99 326.595C170.879 326.417 170.834 326.284 170.834 326.217C171.057 325.839 171.546 325.327 172.281 324.681C173.016 324.035 173.639 323.724 174.129 323.724C174.44 323.724 174.685 323.857 174.841 324.147C175.019 324.414 175.108 324.792 175.108 325.238C175.108 325.683 175.041 326.173 174.93 326.774L174.418 329.445C175.13 328.221 176.021 326.952 177.089 325.661C178.158 324.369 179.026 323.724 179.694 323.724L179.649 323.768Z" fill="black"/>
<path d="M194.898 323.768C195.21 323.768 195.455 323.902 195.611 324.191C195.789 324.458 195.878 324.837 195.878 325.282C195.878 325.683 195.811 326.195 195.7 326.818L194.431 333.274C194.364 333.496 194.342 333.741 194.342 333.986C194.342 334.476 194.431 334.699 194.631 334.699C194.742 334.699 194.876 334.654 195.054 334.543C195.232 334.431 195.388 334.298 195.544 334.164C195.7 334.031 195.855 333.853 195.989 333.719C196.123 333.563 196.256 333.452 196.367 333.341L196.545 333.14C196.545 333.14 196.657 333.229 196.768 333.407C196.879 333.585 196.924 333.719 196.924 333.786C196.679 334.209 196.145 334.765 195.366 335.455C194.587 336.145 193.874 336.502 193.295 336.502C192.984 336.502 192.739 336.368 192.583 336.079C192.405 335.812 192.316 335.433 192.316 334.988C192.316 334.676 192.383 334.164 192.516 333.452L193.696 327.419C193.785 326.818 193.83 326.44 193.83 326.262C193.83 325.772 193.741 325.549 193.54 325.549C193.451 325.549 193.362 325.594 193.229 325.683C193.095 325.772 192.961 325.883 192.806 326.017C192.672 326.15 192.538 326.284 192.427 326.395C192.316 326.506 192.205 326.618 192.116 326.751L191.982 326.929C191.982 326.929 191.871 326.84 191.759 326.662C191.648 326.484 191.604 326.351 191.604 326.284C191.826 325.905 192.316 325.393 193.05 324.748C193.785 324.102 194.408 323.791 194.898 323.791V323.768ZM195.744 317.691C196.033 317.691 196.278 317.802 196.479 318.047C196.679 318.292 196.79 318.537 196.79 318.849C196.79 319.316 196.635 319.717 196.345 320.051C196.056 320.385 195.677 320.563 195.232 320.563C194.92 320.563 194.676 320.451 194.52 320.206C194.342 319.962 194.253 319.672 194.253 319.316C194.253 318.871 194.386 318.492 194.676 318.158C194.965 317.825 195.321 317.669 195.744 317.669V317.691Z" fill="black"/>
<path d="M202.467 320.674C202.533 320.474 203.001 320.385 203.869 320.385C204.092 320.385 204.27 320.385 204.381 320.407L203.669 324.191H206.296C206.296 324.191 206.429 324.325 206.429 324.57C206.429 324.792 206.34 325.082 206.162 325.416H203.424L201.888 333.251C201.821 333.474 201.799 333.719 201.799 333.964C201.799 334.454 201.888 334.676 202.088 334.676C202.199 334.676 202.333 334.632 202.511 334.52C202.689 334.409 202.845 334.276 203.001 334.142C203.157 334.008 203.312 333.83 203.446 333.697C203.58 333.541 203.713 333.43 203.825 333.318L204.003 333.118C204.003 333.118 204.114 333.207 204.225 333.385C204.337 333.563 204.381 333.697 204.381 333.764C204.136 334.186 203.624 334.743 202.823 335.433C202.044 336.123 201.354 336.479 200.752 336.479C200.441 336.479 200.196 336.346 200.04 336.056C199.862 335.789 199.773 335.411 199.773 334.966C199.773 334.654 199.84 334.142 199.973 333.43L201.532 325.393H199.484C199.484 325.393 199.395 325.282 199.395 325.082C199.395 324.837 199.506 324.525 199.751 324.191H201.776L202.467 320.674Z" fill="black"/>
<path d="M218.74 321.453L216.692 332.294C216.492 333.341 216.381 334.209 216.381 334.899C216.381 335.055 216.514 335.188 216.759 335.322C217.026 335.455 217.271 335.522 217.516 335.567L217.917 335.633C217.917 335.633 217.983 335.678 217.983 335.745C217.983 335.945 217.917 336.168 217.805 336.413C216.047 336.324 215.045 336.257 214.8 336.257C214.756 336.257 213.709 336.301 211.639 336.413C211.595 336.368 211.572 336.301 211.572 336.19C211.572 335.834 211.639 335.633 211.773 335.633C211.995 335.633 212.351 335.567 212.819 335.455C213.286 335.322 213.554 335.188 213.62 335.01C213.91 334.365 214.155 333.43 214.377 332.25L216.425 321.587C216.626 320.54 216.737 319.65 216.737 318.938C216.737 318.715 216.537 318.537 216.114 318.381C215.691 318.225 215.379 318.158 215.112 318.158C215.067 318.158 215.045 318.114 215.045 318.003C215.045 317.735 215.112 317.535 215.268 317.379C215.49 317.379 215.958 317.424 216.626 317.468C217.316 317.513 217.894 317.535 218.362 317.535C218.829 317.535 219.408 317.513 220.143 317.446C220.855 317.379 221.3 317.357 221.434 317.357V317.446C221.434 317.914 221.367 318.136 221.234 318.136C221.078 318.136 220.766 318.203 220.276 318.359C219.787 318.515 219.52 318.648 219.453 318.782C219.208 319.316 218.963 320.206 218.696 321.453H218.74ZM217.739 326.907C218.629 326.373 219.809 325.393 221.3 323.991C222.792 322.588 224.194 321.141 225.552 319.65C225.552 319.65 225.641 319.561 225.753 319.427C225.864 319.294 225.975 319.182 226.064 319.093C226.153 319.004 226.242 318.893 226.309 318.759C226.376 318.626 226.42 318.537 226.42 318.492C226.42 318.314 226.242 318.203 225.908 318.114C225.575 318.047 225.285 318.003 225.018 318.003C224.951 318.003 224.929 317.936 224.929 317.824C224.929 317.646 224.974 317.491 225.063 317.335C225.285 317.335 225.597 317.379 225.975 317.402C226.354 317.424 226.688 317.446 226.999 317.468C227.311 317.491 227.6 317.491 227.89 317.491C228.357 317.491 228.958 317.468 229.693 317.402C230.427 317.335 230.85 317.312 230.984 317.312C230.984 317.758 230.917 317.98 230.806 317.98C229.47 318.136 228.446 318.559 227.756 319.249L220.722 326.284C220.722 326.284 220.566 326.484 220.566 326.64C220.566 326.796 220.633 326.952 220.744 327.107L226.621 334.231C226.955 334.632 227.467 334.943 228.179 335.166C228.891 335.389 229.381 335.5 229.648 335.5C229.693 335.5 229.715 335.567 229.715 335.678C229.715 335.901 229.671 336.101 229.582 336.279C228.602 336.346 227.89 336.368 227.422 336.368C226.799 336.368 226.242 336.279 225.708 336.079C225.174 335.878 224.795 335.7 224.595 335.522C224.372 335.344 224.217 335.188 224.083 335.032C220.254 330.179 218.139 327.464 217.739 326.907Z" fill="black"/>
<path d="M239.554 323.768C240.289 323.768 240.979 323.902 241.669 324.147L239.91 333.252C239.844 333.474 239.821 333.719 239.821 333.964C239.821 334.454 239.91 334.676 240.111 334.676C240.222 334.676 240.356 334.632 240.534 334.52C240.712 334.409 240.868 334.276 241.023 334.142C241.179 334.008 241.335 333.83 241.469 333.697C241.602 333.541 241.736 333.43 241.847 333.318L242.025 333.118C242.025 333.118 242.136 333.207 242.248 333.385C242.359 333.563 242.404 333.697 242.404 333.764C242.159 334.187 241.647 334.743 240.845 335.433C240.066 336.123 239.354 336.479 238.775 336.479C238.463 336.479 238.219 336.346 238.063 336.056C237.885 335.789 237.796 335.411 237.796 334.966C237.796 334.632 237.862 334.12 237.996 333.43C238.04 333.229 238.063 333.051 238.107 332.918C238.152 332.784 238.152 332.717 238.152 332.673C237.951 333.029 237.729 333.363 237.484 333.719C237.239 334.075 236.927 334.476 236.527 334.921C236.148 335.366 235.725 335.723 235.302 336.012C234.879 336.301 234.456 336.435 234.078 336.435C233.232 336.435 232.564 336.056 232.074 335.3C231.585 334.543 231.34 333.63 231.34 332.539C231.34 331.181 231.741 329.801 232.564 328.443C233.388 327.063 234.434 325.95 235.725 325.082C237.016 324.214 238.308 323.768 239.576 323.768H239.554ZM238.352 325.082C237.217 325.082 236.126 325.816 235.057 327.286C233.989 328.755 233.455 330.313 233.455 331.938C233.455 333.83 233.944 334.765 234.924 334.765C235.614 334.765 236.393 334.053 237.239 332.651C238.085 331.248 238.664 329.823 238.953 328.376L239.532 325.438C239.309 325.193 238.909 325.059 238.352 325.059V325.082Z" fill="black"/>
<path d="M247.769 320.674C247.836 320.474 248.304 320.385 249.172 320.385C249.394 320.385 249.572 320.385 249.684 320.407L248.971 324.191H251.598C251.598 324.191 251.732 324.325 251.732 324.57C251.732 324.792 251.643 325.082 251.465 325.416H248.727L247.191 333.251C247.124 333.474 247.101 333.719 247.101 333.964C247.101 334.454 247.191 334.676 247.391 334.676C247.502 334.676 247.636 334.632 247.814 334.52C247.992 334.409 248.148 334.276 248.304 334.142C248.459 334.008 248.615 333.83 248.749 333.697C248.882 333.541 249.016 333.43 249.127 333.318L249.305 333.118C249.305 333.118 249.417 333.207 249.528 333.385C249.639 333.563 249.684 333.697 249.684 333.764C249.439 334.186 248.927 334.743 248.125 335.433C247.346 336.123 246.656 336.479 246.055 336.479C245.744 336.479 245.499 336.346 245.343 336.056C245.165 335.789 245.076 335.411 245.076 334.966C245.076 334.654 245.142 334.142 245.276 333.43L246.834 325.393H244.786C244.786 325.393 244.697 325.282 244.697 325.082C244.697 324.837 244.809 324.525 245.053 324.191H247.079L247.769 320.674Z" fill="black"/>
<path d="M255.627 323.768C255.938 323.768 256.183 323.902 256.339 324.191C256.517 324.458 256.606 324.837 256.606 325.282C256.606 325.683 256.539 326.195 256.428 326.818L255.159 333.274C255.092 333.496 255.07 333.741 255.07 333.986C255.07 334.476 255.159 334.699 255.36 334.699C255.471 334.699 255.604 334.654 255.783 334.543C255.961 334.431 256.116 334.298 256.272 334.164C256.428 334.031 256.584 333.853 256.717 333.719C256.851 333.563 256.985 333.452 257.096 333.341L257.274 333.14C257.274 333.14 257.385 333.229 257.497 333.407C257.608 333.585 257.652 333.719 257.652 333.786C257.408 334.209 256.873 334.765 256.094 335.455C255.315 336.145 254.603 336.502 254.024 336.502C253.712 336.502 253.467 336.368 253.312 336.079C253.133 335.812 253.044 335.433 253.044 334.988C253.044 334.676 253.111 334.164 253.245 333.452L254.425 327.419C254.514 326.818 254.558 326.44 254.558 326.262C254.558 325.772 254.469 325.549 254.269 325.549C254.18 325.549 254.091 325.594 253.957 325.683C253.824 325.772 253.69 325.883 253.534 326.017C253.401 326.15 253.267 326.284 253.156 326.395C253.044 326.506 252.933 326.618 252.844 326.751L252.71 326.929C252.71 326.929 252.599 326.84 252.488 326.662C252.377 326.484 252.332 326.351 252.332 326.284C252.555 325.905 253.044 325.393 253.779 324.748C254.514 324.102 255.137 323.791 255.627 323.791V323.768ZM256.473 317.691C256.762 317.691 257.007 317.802 257.207 318.047C257.408 318.292 257.519 318.537 257.519 318.849C257.519 319.316 257.363 319.717 257.074 320.051C256.784 320.385 256.406 320.563 255.961 320.563C255.649 320.563 255.404 320.451 255.248 320.206C255.07 319.962 254.981 319.672 254.981 319.316C254.981 318.871 255.115 318.492 255.404 318.158C255.693 317.825 256.05 317.669 256.473 317.669V317.691Z" fill="black"/>
<path d="M276.664 329.4V329.334C276.664 329.334 276.664 329.311 276.62 329.267C276.598 329.245 276.553 329.222 276.508 329.2C276.464 329.2 276.397 329.2 276.308 329.178C276.219 329.156 276.108 329.178 275.952 329.156C275.818 329.156 275.64 329.156 275.44 329.133C275.24 329.133 274.995 329.133 274.728 329.133H273.77C273.37 329.133 272.479 329.178 271.099 329.267C271.032 329.267 270.787 329.645 270.32 330.424C269.852 331.204 269.407 332.027 268.962 332.94C268.517 333.853 268.294 334.431 268.294 334.721C268.294 334.921 268.428 335.122 268.695 335.277C268.962 335.433 269.207 335.522 269.429 335.567C269.652 335.611 269.808 335.634 269.875 335.634C269.919 335.634 269.941 335.7 269.941 335.812C269.941 336.034 269.897 336.235 269.808 336.413C268.027 336.324 267.114 336.257 267.07 336.257C266.714 336.257 266.38 336.257 266.112 336.279C265.845 336.301 265.534 336.324 265.2 336.346C264.866 336.346 264.554 336.39 264.243 336.413C264.198 336.368 264.176 336.301 264.176 336.19C264.176 335.834 264.243 335.634 264.376 335.634C264.576 335.634 264.888 335.567 265.267 335.455C265.645 335.344 265.912 335.188 266.068 335.033C266.491 334.565 267.07 333.675 267.827 332.317L275.774 318.025C276.063 317.513 276.442 317.246 276.887 317.246C276.954 317.246 277.043 317.246 277.11 317.313L279.491 332.517C279.692 333.719 279.803 334.409 279.848 334.587C279.914 334.877 280.159 335.122 280.582 335.322C281.005 335.522 281.317 335.634 281.517 335.634C281.562 335.634 281.584 335.678 281.584 335.767C281.584 335.99 281.539 336.212 281.45 336.413C279.67 336.324 278.668 336.257 278.445 336.257C278.089 336.257 277.733 336.257 277.421 336.279C277.11 336.301 276.753 336.324 276.375 336.346C275.996 336.368 275.663 336.39 275.373 336.413C275.373 336.413 275.351 336.324 275.351 336.235C275.351 335.834 275.418 335.634 275.551 335.634C275.752 335.634 276.019 335.567 276.353 335.455C276.687 335.344 276.909 335.211 277.02 335.055C277.154 334.765 277.221 334.32 277.221 333.697C277.221 333.363 277.043 331.938 276.709 329.423L276.664 329.4ZM274.127 327.709C275.017 327.709 275.729 327.709 276.286 327.642C276.375 327.642 276.397 327.597 276.397 327.531C276.397 327.441 276.33 326.974 276.219 326.173C276.086 325.371 275.952 324.414 275.796 323.345C275.64 322.277 275.529 321.52 275.462 321.119C273.103 325.393 271.923 327.575 271.923 327.597C271.923 327.642 271.923 327.664 271.945 327.664C272.39 327.664 273.125 327.686 274.127 327.686V327.709Z" fill="black"/>
<path d="M292.536 323.768C293.493 323.768 293.983 324.392 293.983 325.66C293.983 326.529 293.849 327.575 293.582 328.799L292.625 333.229C292.558 333.452 292.536 333.697 292.536 333.942C292.536 334.431 292.625 334.654 292.825 334.654C292.936 334.654 293.07 334.609 293.248 334.498C293.426 334.387 293.582 334.253 293.738 334.12C293.894 333.986 294.049 333.808 294.183 333.674C294.317 333.519 294.45 333.407 294.561 333.296L294.74 333.096C294.74 333.096 294.851 333.185 294.962 333.363C295.073 333.541 295.118 333.674 295.118 333.741C294.873 334.164 294.361 334.721 293.56 335.411C292.781 336.101 292.068 336.457 291.489 336.457C291.178 336.457 290.933 336.324 290.777 336.034C290.621 335.745 290.51 335.389 290.51 334.943C290.51 334.632 290.577 334.12 290.71 333.407L291.712 328.643C291.846 327.998 291.912 327.486 291.912 327.085C291.912 326.261 291.734 325.839 291.356 325.839C290.733 325.839 289.731 326.707 288.395 328.443C287.059 330.179 286.191 332.027 285.813 333.986L285.323 336.234C285.078 336.301 284.767 336.346 284.433 336.346C284.099 336.346 283.765 336.301 283.453 336.234L286.57 320.117C286.748 319.271 286.837 318.759 286.837 318.581C286.837 318.225 286.258 318.025 285.078 318.025C285.011 318.025 284.989 317.958 284.989 317.847C284.989 317.624 285.056 317.424 285.212 317.268C286.481 317.157 287.683 316.89 288.84 316.467C288.952 316.533 289.018 316.711 289.018 317.023C289.018 317.179 288.885 317.891 288.64 319.182L287.171 326.707L286.659 329.356C286.859 329 287.26 328.421 287.905 327.575C288.551 326.729 289.33 325.861 290.265 324.993C291.2 324.124 291.957 323.679 292.536 323.679V323.768Z" fill="black"/>
<path d="M297.523 333.43L300.239 319.45C300.305 319.16 300.328 318.893 300.328 318.648C300.328 318.292 299.749 318.092 298.569 318.092C298.502 318.092 298.48 318.025 298.48 317.914C298.48 317.691 298.547 317.491 298.702 317.335C300.016 317.224 301.24 316.956 302.398 316.533C302.509 316.6 302.576 316.778 302.576 317.09C302.576 317.313 302.442 318.047 302.197 319.249L299.459 333.229C299.393 333.452 299.37 333.697 299.37 333.942C299.37 334.431 299.459 334.654 299.66 334.654C299.771 334.654 299.905 334.61 300.083 334.498C300.238 334.387 300.417 334.253 300.595 334.12C300.773 333.964 300.929 333.808 301.062 333.675C301.196 333.519 301.374 333.341 301.574 333.074C301.641 333.074 301.708 333.163 301.797 333.341C301.886 333.519 301.93 333.652 301.93 333.719C301.685 334.142 301.173 334.699 300.372 335.389C299.593 336.079 298.881 336.435 298.302 336.435C298.012 336.435 297.79 336.301 297.589 336.012C297.389 335.723 297.322 335.366 297.322 334.921C297.322 334.587 297.389 334.075 297.523 333.385V333.43Z" fill="black"/>
<path d="M204.538 152.491H112.822" stroke="black" stroke-width="0.75" stroke-miterlimit="10"/>
<path d="M244.809 53.8738C244.831 53.9851 244.853 54.1186 244.876 54.2299C246.189 60.4631 242.382 66.6294 236.216 68.1654L217.005 72.9293L210.326 52.4045L229.226 45.37C235.927 42.8768 243.25 46.8838 244.809 53.8515V53.8738Z" fill="white" stroke="black" stroke-width="0.75" stroke-miterlimit="10"/>
<path d="M241.98 48.4421L238.418 67.186" stroke="black" stroke-width="0.75" stroke-miterlimit="10"/>
<path d="M237.26 44.9693L232.986 69.0782" stroke="black" stroke-width="0.75" stroke-miterlimit="10"/>
<path d="M231.518 44.9693L226.465 70.5697" stroke="black" stroke-width="0.75" stroke-miterlimit="10"/>
<path d="M224.75 47.2177L221.344 65.316" stroke="black" stroke-width="0.75" stroke-miterlimit="10"/>
<path d="M215.713 53.9406L245.409 58.1924" stroke="black" stroke-width="0.75" stroke-miterlimit="10"/>
<path d="M218.584 60.2405L242.426 64.3365" stroke="black" stroke-width="0.75" stroke-miterlimit="10"/>
<path d="M221.701 48.2863L244.051 51.4696" stroke="black" stroke-width="0.75" stroke-miterlimit="10"/>
<path d="M233.589 68.4326L222.303 66.9634" stroke="black" stroke-width="0.75" stroke-miterlimit="10"/>
<path d="M217.916 49.7332L216.58 56.0776" stroke="black" stroke-width="0.75" stroke-miterlimit="10"/>
<path d="M184.235 85.7073C180.829 85.7073 177.824 83.5257 176.755 80.2755L174.373 72.9961C173.104 69.1449 174.952 65.0044 178.67 63.357L215.957 48.4866L224.439 73.3746L186.083 85.4624C185.437 85.6182 184.814 85.685 184.213 85.685L184.235 85.7073Z" fill="black"/>
<path d="M215.468 49.5997L223.393 72.8403L185.861 84.6833C185.326 84.8168 184.77 84.8836 184.236 84.8836C181.253 84.8836 178.514 82.9914 177.557 80.0307L175.175 72.7513C174.062 69.3231 175.71 65.6054 179.004 64.1362L215.468 49.5997ZM216.492 47.3958L214.867 48.0414L178.403 62.5779C174.24 64.4256 172.215 68.9891 173.595 73.2633L175.977 80.5427C177.157 84.1267 180.473 86.5309 184.236 86.5309C184.903 86.5309 185.594 86.4419 186.239 86.2861H186.306L186.373 86.2638L223.905 74.4209L225.53 73.9089L224.974 72.2838L217.049 49.0431L216.492 47.3735V47.3958Z" fill="black"/>
<path d="M216.113 152.491H204.537V68.7666C204.537 65.8058 206.942 63.3794 209.925 63.3794H210.726C213.687 63.3794 216.113 65.7836 216.113 68.7666V152.491Z" fill="white" stroke="black" stroke-width="0.75" stroke-miterlimit="10"/>
<path d="M206.607 70.4361C206.607 72.4842 208.277 74.1537 210.325 74.1537C212.373 74.1537 214.043 72.4842 214.043 70.4361C214.043 68.3881 212.373 66.7185 210.325 66.7185C208.277 66.7185 206.607 68.3881 206.607 70.4361Z" fill="white" stroke="black" stroke-width="0.75" stroke-miterlimit="10"/>
<path d="M180.295 76.736L169.499 79.9194L168.697 76.736L180.295 73.3301V76.736Z" fill="white" stroke="black" stroke-width="0.75" stroke-miterlimit="10"/>
<path d="M255.984 66.8076C258.41 61.3313 259.056 55.343 257.409 49.5329C255.873 44.0566 252.511 39.4931 247.992 36.1317" stroke="#1D1E1C" stroke-width="0.75" stroke-miterlimit="10" stroke-linecap="round"/>
<path d="M251.82 61.1977C252.555 57.9253 252.532 54.5194 251.597 51.2025C250.596 47.6184 248.637 44.5018 246.01 41.9863" stroke="#1D1E1C" stroke-width="0.75" stroke-miterlimit="10" stroke-linecap="round"/>
<path d="M168.696 78.5615C168.696 78.5615 140.157 86.6645 143.14 99.0195C146.123 111.374 177.935 108.013 210.325 114.402C242.715 120.791 258.164 125.176 258.164 135.795C258.164 152.313 216.113 152.491 216.113 152.491" stroke="black" stroke-width="0.75" stroke-miterlimit="10"/>
<path d="M156.098 151.511L157.033 158.902L171.547 158.479L171.992 151.667L156.098 151.511Z" fill="white" stroke="black" stroke-width="0.75" stroke-miterlimit="10"/>
<path d="M163.889 97.7061C151.801 97.9732 141.65 107.701 140.893 119.767C140.381 127.803 143.92 135.083 149.686 139.713C152.713 142.139 154.761 145.568 155.229 149.396C155.273 149.708 155.296 150.042 155.318 150.376C155.452 152.112 156.943 153.448 158.702 153.381C162.152 153.225 167.45 153.003 170.188 152.891C171.19 152.847 172.771 152.891 172.771 151.133C172.771 149.152 172.771 147.415 173.327 145.946C174.062 143.898 175.576 142.251 177.379 141.049C183.634 136.93 187.842 129.94 188.042 121.882C188.354 108.48 177.446 97.4167 163.889 97.7283V97.7061Z" fill="#FFDE66" stroke="black" stroke-width="0.75" stroke-miterlimit="10"/>
<path d="M171.814 158.59L156.832 159.369L159.414 163.688H160.305C160.728 165.157 162.041 166.226 163.622 166.27C165.202 166.315 166.582 165.291 167.05 163.866H168.052L171.792 158.59H171.814Z" fill="black"/>
<path d="M160.55 153.203C160.55 153.203 160.862 124.865 154.695 124.041C152.269 123.729 152.024 127.38 154.317 128.115C155.207 128.404 156.61 127.581 157.211 127.825C158.324 128.248 170.768 128.159 171.258 128.226C172.437 128.382 173.528 128.582 174.641 127.959C177.402 126.401 175.042 122.906 172.638 124.909C169.566 127.492 168.319 152.958 168.319 152.958" stroke="black" stroke-width="0.75" stroke-miterlimit="10"/>
<path d="M156.186 156.075L172.303 155.518" stroke="black" stroke-width="0.75" stroke-miterlimit="10"/>
<path d="M103.227 107.79C90.2041 107.79 79.6523 118.342 79.6523 131.365C79.6523 144.388 90.2041 154.94 103.227 154.94C116.25 154.94 126.802 144.388 126.802 131.365C126.802 118.342 116.25 107.79 103.227 107.79ZM113.445 111.642L95.3465 127.981V110.618C97.8842 109.638 100.556 109.126 103.271 109.126C106.811 109.126 110.306 110.017 113.445 111.642ZM95.3465 130.319L107.457 142.317L95.391 142.273L95.3465 130.319ZM81.0325 131.387C81.0325 122.705 86.0858 114.825 93.9885 111.196L94.0331 151.578C86.1303 147.972 81.0548 140.069 81.0325 131.387ZM95.3465 152.157V143.653L108.792 143.698L115.226 150.087C111.664 152.402 107.479 153.626 103.227 153.626C100.533 153.626 97.862 153.114 95.3465 152.135V152.157ZM116.383 149.307L96.0811 129.161L114.714 112.354C125.221 118.654 128.627 132.278 122.327 142.785C120.791 145.323 118.787 147.549 116.383 149.307Z" fill="black" stroke="black" stroke-width="0.25" stroke-miterlimit="10"/>
<path d="M271.188 103.605V116.828L282.541 103.605H271.188Z" fill="#FFD550"/>
<path d="M271.188 103.605L282.541 116.828V103.605H271.188Z" fill="#BACCFF"/>
<path d="M285.479 108.681V103.65C290.354 103.65 294.339 99.7763 294.339 95.0125C294.339 90.2486 290.376 86.3751 285.479 86.3751C284.633 86.3751 283.765 86.4864 282.963 86.7313L280.225 87.5327L279.78 84.7278C279.09 80.5204 275.417 77.4484 271.031 77.4484V72.4174C276.997 72.4174 282.14 76.0682 284.076 81.4109C284.544 81.3664 285.011 81.3441 285.479 81.3441C293.137 81.3441 299.37 87.4882 299.37 95.0125C299.37 102.537 293.137 108.681 285.479 108.681Z" fill="#FFD550"/>
<path d="M285.457 96.7933H271.188V99.3089H285.457V96.7933Z" fill="#FFD550"/>
<path d="M287.794 91.7623H271.188V94.2778H287.794V91.7623Z" fill="#BACCFF"/>
<path d="M256.629 108.681C248.971 108.681 242.738 102.537 242.738 95.0125C242.738 87.4882 248.971 81.3441 256.629 81.3441C257.097 81.3441 257.564 81.3664 258.032 81.4109C259.991 76.0682 265.111 72.4174 271.077 72.4174V77.4484C266.691 77.4484 263.018 80.4982 262.328 84.7278L261.883 87.5327L259.145 86.7313C258.321 86.4864 257.475 86.3751 256.629 86.3751C251.754 86.3751 247.769 90.2486 247.769 95.0125C247.769 99.7763 251.732 103.65 256.629 103.65L268.272 103.605V108.636L256.652 108.681H256.629Z" fill="#BACCFF"/>
</g>
</g>
<defs>
<clipPath id="clip0_10126_35990">
<rect width="380" height="380" rx="20" fill="white"/>
</clipPath>
<clipPath id="clip1_10126_35990">
<rect width="381" height="381" fill="white" transform="translate(-1 -1)"/>
</clipPath>
</defs>
</svg>
