<svg width="180" height="180" viewBox="0 0 180 180" fill="none" xmlns="http://www.w3.org/2000/svg">
<rect width="180" height="180" rx="90" fill="#E4EBF5"/>
<g clip-path="url(#clip0_8978_28258)">
<path d="M135 165L145.5 159.162L156 165V140H135V165Z" fill="black" stroke="black" stroke-miterlimit="10"/>
<path d="M145.463 119.7L147.766 122.808L150.913 120.563L152.142 124.231L155.841 123.057L155.872 126.934L159.738 126.954L158.571 130.644L162.26 131.86L159.988 135.009L163.114 137.306L159.988 139.602L162.26 142.741L158.571 143.957L159.738 147.646L155.872 147.678L155.841 151.544L152.142 150.38L150.913 154.048L147.766 151.793L145.463 154.911L143.161 151.793L140.014 154.048L138.784 150.38L135.085 151.544L135.065 147.678L131.188 147.646L132.355 143.957L128.677 142.741L130.938 139.602L127.812 137.306L130.938 135.009L128.677 131.86L132.355 130.644L131.188 126.954L135.065 126.934L135.085 123.057L138.784 124.231L140.014 120.563L143.161 122.808L145.463 119.7Z" fill="black" stroke="black" stroke-miterlimit="10"/>
<path d="M90.6455 164.48L33.5879 136.68V57.175L90.6455 84.9653V164.48Z" fill="black" stroke="black" stroke-linecap="round" stroke-linejoin="round"/>
<path d="M90.6459 164.48L46.1855 127.981V48.4658L90.6459 84.9652V164.48Z" fill="white" stroke="black" stroke-linecap="round" stroke-linejoin="round"/>
<path d="M90.6463 164.48L60.8672 114.075V34.5706L90.6463 84.9651V164.48Z" fill="white" stroke="black" stroke-linecap="round" stroke-linejoin="round"/>
<path d="M90.6465 164.48L147.704 136.68V57.175L90.6465 84.9653V164.48Z" fill="black" stroke="black" stroke-linecap="round" stroke-linejoin="round"/>
<path d="M90.6465 164.48L135.096 127.981V48.4658L90.6465 84.9652V164.48Z" fill="white" stroke="black" stroke-linecap="round" stroke-linejoin="round"/>
<path d="M90.6465 164.48L120.415 114.075V34.5706L90.6465 84.9651V164.48Z" fill="white" stroke="black" stroke-linecap="round" stroke-linejoin="round"/>
<path d="M88.198 22.6189L45.2484 27.4827L57.7311 39.9333L32.224 65.3748C10.6138 86.9294 22.3566 109.16 32.1302 118.762C33.3284 119.937 38.4028 125.081 38.4028 125.081C30.4318 94.485 46.7801 79.3947 46.7801 79.3947L71.8392 53.9947L83.3112 65.4372L88.1875 22.5981L88.198 22.6189Z" fill="black" stroke="black" stroke-miterlimit="10"/>
<path d="M82.8629 20.5923L39.9134 25.4561L52.396 37.9066L26.8889 63.3482C-1.99416 92.1569 33.2657 123.273 33.2657 123.273C25.2947 92.6766 41.4451 77.3784 41.4451 77.3784L66.5042 51.9785L77.9761 63.4209L82.8629 20.5923Z" fill="#BACCFF" stroke="black" stroke-miterlimit="10"/>
<path d="M130.615 158.879L140.733 153.079L150.85 158.879V133.998H130.615V158.879Z" fill="#FFDE66" stroke="black" stroke-miterlimit="10"/>
<path d="M140.733 113.961L143.036 117.069L146.182 114.824L147.412 118.492L151.1 117.318L151.132 121.195L155.008 121.215L153.841 124.905L157.519 126.131L155.258 129.27L158.384 131.567L155.258 133.863L157.519 137.002L153.841 138.228L155.008 141.918L151.132 141.939L151.1 145.805L147.412 144.641L146.182 148.309L143.036 146.054L140.733 149.172L138.43 146.054L135.273 148.309L134.054 144.641L130.355 145.805L130.324 141.939L126.448 141.918L127.625 138.228L123.936 137.012L126.208 133.863L123.082 131.567L126.208 129.27L123.936 126.131L127.625 124.905L126.448 121.215L130.324 121.195L130.355 117.318L134.054 118.492L135.273 114.824L138.43 117.069L140.733 113.961Z" fill="#FFDE66" stroke="black" stroke-miterlimit="10"/>
</g>
<defs>
<clipPath id="clip0_8978_28258">
<rect width="149" height="145" fill="white" transform="translate(15 20)"/>
</clipPath>
</defs>
</svg>
